999
dxfrw 0.6.3
  0
SECTION
  2
HEADER
  9
$ACADVER
  1
AC1021
  9
$DWGCODEPAGE
  3
ANSI_1252
  9
$INSBASE
 10
0
 20
0
 30
0
  9
$EXTMIN
 10
-0.001665138631091336
 20
-1.021000000000001
 30
0
  9
$EXTMAX
 10
0.7202380555555558
 20
-0.7290240397401792
 30
0
  9
$LIMMIN
 10
0
 20
0
  9
$LIMMAX
 10
420
 20
297
  9
$ORTHOMODE
 70
    0
  9
$REGENMODE
 70
    1
  9
$FILLMODE
 70
    1
  9
$QTEXTMODE
 70
    0
  9
$MIRRTEXT
 70
    0
  9
$LTSCALE
 40
1
  9
$ATTMODE
 70
    0
  9
$TEXTSIZE
 40
2.5
  9
$TRACEWID
 40
15.68
  9
$TEXTSTYLE
  7
STANDARD
  9
$CLAYER
  8
txt
  9
$CELTYPE
  6
BYLAYER
  9
$CECOLOR
 62
  256
  9
$CELTSCALE
 40
1
  9
$DISPSILH
 70
    0
  9
$DIMSCALE
 40
1
  9
$DIMASZ
 40
0.01
  9
$DIMEXO
 40
0.625
  9
$DIMDLI
 40
3.75
  9
$DIMRND
 40
0
  9
$DIMDLE
 40
0
  9
$DIMEXE
 40
1.25
  9
$DIMTP
 40
0
  9
$DIMTM
 40
0
  9
$DIMTXT
 40
1
  9
$DIMCEN
 40
2.5
  9
$DIMTSZ
 40
0
  9
$DIMTOL
 70
    0
  9
$DIMLIM
 70
    0
  9
$DIMTIH
 70
    0
  9
$DIMTOH
 70
    0
  9
$DIMSE1
 70
    0
  9
$DIMSE2
 70
    0
  9
$DIMTAD
 70
    1
  9
$DIMZIN
 70
    1
  9
$DIMBLK
  1

  9
$DIMASO
 70
    1
  9
$DIMSHO
 70
    1
  9
$DIMPOST
  1

  9
$DIMAPOST
  1

  9
$DIMALT
 70
    0
  9
$DIMALTD
 70
    3
  9
$DIMALTF
 40
0.03937
  9
$DIMLFAC
 40
1
  9
$DIMTOFL
 70
    1
  9
$DIMTVP
 40
0
  9
$DIMTIX
 70
    0
  9
$DIMSOXD
 70
    0
  9
$DIMSAH
 70
    0
  9
$DIMBLK1
  1

  9
$DIMBLK2
  1

  9
$DIMSTYLE
  2
STANDARD
  9
$DIMCLRD
 70
    0
  9
$DIMCLRE
 70
    0
  9
$DIMCLRT
 70
    0
  9
$DIMTFAC
 40
1
  9
$DIMGAP
 40
0.625
  9
$DIMJUST
 70
    0
  9
$DIMSD1
 70
    0
  9
$DIMSD2
 70
    0
  9
$DIMTOLJ
 70
    0
  9
$DIMTZIN
 70
    8
  9
$DIMALTZ
 70
    0
  9
$DIMALTTZ
 70
    0
  9
$DIMUPT
 70
    0
  9
$DIMDEC
 70
    4
  9
$DIMTDEC
 70
    2
  9
$DIMALTU
 70
    2
  9
$DIMALTTD
 70
    3
  9
$DIMTXSTY
  7
standard
  9
$DIMAUNIT
 70
    0
  9
$DIMADEC
 70
    2
  9
$DIMALTRND
 40
0
  9
$DIMAZIN
 70
    0
  9
$DIMDSEP
 70
   44
  9
$DIMATFIT
 70
    3
  9
$DIMFRAC
 70
    0
  9
$DIMLDRBLK
  1
STANDARD
  9
$DIMLUNIT
 70
    2
  9
$DIMLWD
 70
   -2
  9
$DIMLWE
 70
   -2
  9
$DIMTMOVE
 70
    0
  9
$DIMFXL
 40
1
  9
$DIMFXLON
 70
    0
  9
$DIMJOGANG
 40
0.7854
  9
$DIMTFILL
 70
    0
  9
$DIMTFILLCLR
 70
    0
  9
$DIMARCSYM
 70
    0
  9
$DIMLTYPE
  6

  9
$DIMLTEX1
  6

  9
$DIMLTEX2
  6

  9
$LUNITS
 70
    2
  9
$LUPREC
 70
    4
  9
$SKETCHINC
 40
1
  9
$FILLETRAD
 40
0
  9
$AUNITS
 70
    0
  9
$AUPREC
 70
    2
  9
$MENU
  1
.
  9
$ELEVATION
 40
0
  9
$PELEVATION
 40
0
  9
$THICKNESS
 40
0
  9
$LIMCHECK
 70
    0
  9
$CHAMFERA
 40
0
  9
$CHAMFERB
 40
0
  9
$CHAMFERC
 40
0
  9
$CHAMFERD
 40
0
  9
$SKPOLY
 70
    0
  9
$USRTIMER
 70
    1
  9
$ANGBASE
 50
0
  9
$ANGDIR
 70
    0
  9
$PDMODE
 70
   34
  9
$PDSIZE
 40
0
  9
$PLINEWID
 40
0
  9
$SPLFRAME
 70
    0
  9
$SPLINETYPE
 70
    2
  9
$SPLINESEGS
 70
    8
  9
$HANDSEED
  5
20000
  9
$SURFTAB1
 70
    6
  9
$SURFTAB2
 70
    6
  9
$SURFTYPE
 70
    6
  9
$SURFU
 70
    6
  9
$SURFV
 70
    6
  9
$UCSBASE
  2

  9
$UCSNAME
  2

  9
$UCSORG
 10
0
 20
0
 30
0
  9
$UCSXDIR
 10
1
 20
0
 30
0
  9
$UCSYDIR
 10
0
 20
1
 30
0
  9
$UCSORTHOREF
  2

  9
$UCSORTHOVIEW
 70
    0
  9
$UCSORGTOP
 10
0
 20
0
 30
0
  9
$UCSORGBOTTOM
 10
0
 20
0
 30
0
  9
$UCSORGLEFT
 10
0
 20
0
 30
0
  9
$UCSORGRIGHT
 10
0
 20
0
 30
0
  9
$UCSORGFRONT
 10
0
 20
0
 30
0
  9
$UCSORGBACK
 10
0
 20
0
 30
0
  9
$PUCSBASE
  2

  9
$PUCSNAME
  2

  9
$PUCSORG
 10
0
 20
0
 30
0
  9
$PUCSXDIR
 10
1
 20
0
 30
0
  9
$PUCSYDIR
 10
0
 20
1
 30
0
  9
$PUCSORTHOREF
  2

  9
$PUCSORTHOVIEW
 70
    0
  9
$PUCSORGTOP
 10
0
 20
0
 30
0
  9
$PUCSORGBOTTOM
 10
0
 20
0
 30
0
  9
$PUCSORGLEFT
 10
0
 20
0
 30
0
  9
$PUCSORGRIGHT
 10
0
 20
0
 30
0
  9
$PUCSORGFRONT
 10
0
 20
0
 30
0
  9
$PUCSORGBACK
 10
0
 20
0
 30
0
  9
$USERI1
 70
    0
  9
$USERI2
 70
    0
  9
$USERI3
 70
    0
  9
$USERI4
 70
    0
  9
$USERI5
 70
    0
  9
$USERR1
 40
0
  9
$USERR2
 40
0
  9
$USERR3
 40
0
  9
$USERR4
 40
0
  9
$USERR5
 40
0
  9
$WORLDVIEW
 70
    1
  9
$SHADEDGE
 70
    3
  9
$SHADEDIF
 70
   70
  9
$TILEMODE
 70
    1
  9
$MAXACTVP
 70
   64
  9
$PINSBASE
 10
0
 20
0
 30
0
  9
$PLIMCHECK
 70
    0
  9
$PEXTMIN
 10
0
 20
0
 30
0
  9
$PEXTMAX
 10
0
 20
0
 30
0
  9
$GRIDMODE
 70
    1
  9
$SNAPSTYLE
 70
    0
  9
$GRIDUNIT
 10
0
 20
0
  9
$PLIMMIN
 10
0
 20
0
  9
$PLIMMAX
 10
0.7083333333333334
 20
0.9166666666666665
  9
$UNITMODE
 70
    0
  9
$VISRETAIN
 70
    1
  9
$PLINEGEN
 70
    0
  9
$PSLTSCALE
 70
    1
  9
$TREEDEPTH
 70
 3020
  9
$CMLSTYLE
  2
Standard
  9
$CMLJUST
 70
    0
  9
$CMLSCALE
 40
20
  9
$PROXYGRAPHICS
 70
    1
  9
$MEASUREMENT
 70
    1
  9
$CELWEIGHT
370
   -1
  9
$ENDCAPS
280
    0
  9
$JOINSTYLE
280
    0
  9
$LWDISPLAY
290
    0
  9
$INSUNITS
 70
    2
  9
$HYPERLINKBASE
  1

  9
$STYLESHEET
  1

  9
$XEDIT
290
    1
  9
$CEPSNTYPE
380
    0
  9
$PSTYLEMODE
290
    1
  9
$EXTNAMES
290
    1
  9
$PSVPSCALE
 40
0
  9
$OLESTARTUP
290
    0
  9
$SORTENTS
280
  127
  9
$INDEXCTL
280
    0
  9
$HIDETEXT
280
    1
  9
$XCLIPFRAME
290
    0
  9
$HALOGAP
280
    0
  9
$OBSCOLOR
 70
  257
  9
$OBSLTYPE
280
    0
  9
$INTERSECTIONDISPLAY
280
    0
  9
$INTERSECTIONCOLOR
 70
  257
  9
$DIMASSOC
280
    1
  9
$PROJECTNAME
  1

  9
$CAMERADISPLAY
290
    0
  9
$LENSLENGTH
 40
50
  9
$CAMERAHEIGHT
 40
0
  9
$STEPSPERSEC
 40
2
  9
$STEPSIZE
 40
50
  9
$3DDWFPREC
 40
2
  9
$PSOLWIDTH
 40
5
  9
$PSOLHEIGHT
 40
80
  9
$LOFTANG1
 40
1.570796326794897
  9
$LOFTANG2
 40
1.570796326794897
  9
$LOFTMAG1
 40
0
  9
$LOFTMAG2
 40
0
  9
$LOFTPARAM
 70
    7
  9
$LOFTNORMALS
280
    1
  9
$LATITUDE
 40
1
  9
$LONGITUDE
 40
1
  9
$NORTHDIRECTION
 40
0
  9
$TIMEZONE
 70
-8000
  9
$LIGHTGLYPHDISPLAY
280
    1
  9
$TILEMODELIGHTSYNCH
280
    1
  9
$SOLIDHIST
280
    1
  9
$SHOWHIST
280
    1
  9
$DWFFRAME
280
    2
  9
$DGNFRAME
280
    0
  9
$REALWORLDSCALE
290
    1
  9
$INTERFERECOLOR
 62
    1
  9
$CSHADOW
280
    0
  9
$SHADOWPLANELOCATION
 40
0
  0
ENDSEC
  0
SECTION
  2
CLASSES
  0
ENDSEC
  0
SECTION
  2
TABLES
  0
TABLE
  2
VPORT
  5
8
330
0
100
AcDbSymbolTable
 70
    1
  0
VPORT
  5
31
330
2
100
AcDbSymbolTableRecord
100
AcDbViewportTableRecord
  2
*ACTIVE
 70
    0
 10
0
 20
0
 11
1
 21
1
 12
0.5678964048029695
 22
-0.2296884638417638
 13
0
 23
0
 14
10
 24
10
 15
10
 25
10
 16
0
 26
0
 36
1
 17
0
 27
0
 37
0
 40
0.9653573117987173
 41
1.300689655172414
 42
50
 43
0
 44
0
 50
0
 51
0
 71
    0
 72
  100
 73
    1
 74
    3
 75
    0
 76
    1
 77
    0
 78
    0
281
    0
 65
    1
110
0
120
0
130
0
111
1
121
0
131
0
112
0
122
1
132
0
 79
    0
146
0
348
10020
 60
    7
 61
    5
292
1
282
    1
141
0
142
0
 63
  250
421
3358443
  0
ENDTAB
  0
TABLE
  2
LTYPE
  5
5
330
0
100
AcDbSymbolTable
 70
    4
  0
LTYPE
  5
14
330
5
100
AcDbSymbolTableRecord
100
AcDbLinetypeTableRecord
  2
ByBlock
 70
    0
  3

 72
   65
 73
    0
 40
0
  0
LTYPE
  5
15
330
5
100
AcDbSymbolTableRecord
100
AcDbLinetypeTableRecord
  2
ByLayer
 70
    0
  3

 72
   65
 73
    0
 40
0
  0
LTYPE
  5
16
330
5
100
AcDbSymbolTableRecord
100
AcDbLinetypeTableRecord
  2
Continuous
 70
    0
  3
Solid line
 72
   65
 73
    0
 40
0
  0
LTYPE
  5
32
330
5
100
AcDbSymbolTableRecord
100
AcDbLinetypeTableRecord
  2
DOT
 70
    0
  3
Dot . . . . . . . . . . . . . . . . . . . . . .
 72
   65
 73
    2
 40
6.35
 49
0
 74
    0
 49
-6.35
 74
    0
  0
LTYPE
  5
33
330
5
100
AcDbSymbolTableRecord
100
AcDbLinetypeTableRecord
  2
DOTTINY
 70
    0
  3
Dot (.15x) .....................................
 72
   65
 73
    2
 40
0.9525
 49
0
 74
    0
 49
-0.9525
 74
    0
  0
LTYPE
  5
34
330
5
100
AcDbSymbolTableRecord
100
AcDbLinetypeTableRecord
  2
DOT2
 70
    0
  3
Dot (.5x) .....................................
 72
   65
 73
    2
 40
3.175
 49
0
 74
    0
 49
-3.175
 74
    0
  0
LTYPE
  5
35
330
5
100
AcDbSymbolTableRecord
100
AcDbLinetypeTableRecord
  2
DOTX2
 70
    0
  3
Dot (2x) .  .  .  .  .  .  .  .  .  .  .  .  .
 72
   65
 73
    2
 40
12.7
 49
0
 74
    0
 49
-12.7
 74
    0
  0
LTYPE
  5
36
330
5
100
AcDbSymbolTableRecord
100
AcDbLinetypeTableRecord
  2
DASHED
 70
    0
  3
Dashed _ _ _ _ _ _ _ _ _ _ _ _ _ _ _ _ _
 72
   65
 73
    2
 40
19.05
 49
12.7
 74
    0
 49
-6.35
 74
    0
  0
LTYPE
  5
37
330
5
100
AcDbSymbolTableRecord
100
AcDbLinetypeTableRecord
  2
DASHEDTINY
 70
    0
  3
Dashed (.15x) _ _ _ _ _ _ _ _ _ _ _ _ _ _ _ _ _
 72
   65
 73
    2
 40
2.8575
 49
1.905
 74
    0
 49
-0.9525
 74
    0
  0
LTYPE
  5
38
330
5
100
AcDbSymbolTableRecord
100
AcDbLinetypeTableRecord
  2
DASHED2
 70
    0
  3
Dashed (.5x) _ _ _ _ _ _ _ _ _ _ _ _ _ _ _ _ _
 72
   65
 73
    2
 40
9.524999999999999
 49
6.35
 74
    0
 49
-3.175
 74
    0
  0
LTYPE
  5
39
330
5
100
AcDbSymbolTableRecord
100
AcDbLinetypeTableRecord
  2
DASHEDX2
 70
    0
  3
Dashed (2x) ____  ____  ____  ____  ____  ___
 72
   65
 73
    2
 40
38.09999999999999
 49
25.4
 74
    0
 49
-12.7
 74
    0
  0
LTYPE
  5
3A
330
5
100
AcDbSymbolTableRecord
100
AcDbLinetypeTableRecord
  2
DASHDOT
 70
    0
  3
Dash dot __ . __ . __ . __ . __ . __ . __ . __
 72
   65
 73
    4
 40
25.4
 49
12.7
 74
    0
 49
-6.35
 74
    0
 49
0
 74
    0
 49
-6.35
 74
    0
  0
LTYPE
  5
3B
330
5
100
AcDbSymbolTableRecord
100
AcDbLinetypeTableRecord
  2
DASHDOTTINY
 70
    0
  3
Dash dot (.15x) _._._._._._._._._._._._._._._.
 72
   65
 73
    4
 40
3.81
 49
1.905
 74
    0
 49
-0.9525
 74
    0
 49
0
 74
    0
 49
-0.9525
 74
    0
  0
LTYPE
  5
3C
330
5
100
AcDbSymbolTableRecord
100
AcDbLinetypeTableRecord
  2
DASHDOT2
 70
    0
  3
Dash dot (.5x) _._._._._._._._._._._._._._._.
 72
   65
 73
    4
 40
12.7
 49
6.35
 74
    0
 49
-3.175
 74
    0
 49
0
 74
    0
 49
-3.175
 74
    0
  0
LTYPE
  5
3D
330
5
100
AcDbSymbolTableRecord
100
AcDbLinetypeTableRecord
  2
DASHDOTX2
 70
    0
  3
Dash dot (2x) ____  .  ____  .  ____  .  ___
 72
   65
 73
    4
 40
50.8
 49
25.4
 74
    0
 49
-12.7
 74
    0
 49
0
 74
    0
 49
-12.7
 74
    0
  0
LTYPE
  5
3E
330
5
100
AcDbSymbolTableRecord
100
AcDbLinetypeTableRecord
  2
DIVIDE
 70
    0
  3
Divide ____ . . ____ . . ____ . . ____ . . ____
 72
   65
 73
    6
 40
31.75
 49
12.7
 74
    0
 49
-6.35
 74
    0
 49
0
 74
    0
 49
-6.35
 74
    0
 49
0
 74
    0
 49
-6.35
 74
    0
  0
LTYPE
  5
3F
330
5
100
AcDbSymbolTableRecord
100
AcDbLinetypeTableRecord
  2
DIVIDETINY
 70
    0
  3
Divide (.15x) __..__..__..__..__..__..__..__.._
 72
   65
 73
    6
 40
4.7625
 49
1.905
 74
    0
 49
-0.9525
 74
    0
 49
0
 74
    0
 49
-0.9525
 74
    0
 49
0
 74
    0
 49
-0.9525
 74
    0
  0
LTYPE
  5
40
330
5
100
AcDbSymbolTableRecord
100
AcDbLinetypeTableRecord
  2
DIVIDE2
 70
    0
  3
Divide (.5x) __..__..__..__..__..__..__..__.._
 72
   65
 73
    6
 40
15.875
 49
6.35
 74
    0
 49
-3.175
 74
    0
 49
0
 74
    0
 49
-3.175
 74
    0
 49
0
 74
    0
 49
-3.175
 74
    0
  0
LTYPE
  5
41
330
5
100
AcDbSymbolTableRecord
100
AcDbLinetypeTableRecord
  2
DIVIDEX2
 70
    0
  3
Divide (2x) ________  .  .  ________  .  .  _
 72
   65
 73
    6
 40
63.5
 49
25.4
 74
    0
 49
-12.7
 74
    0
 49
0
 74
    0
 49
-12.7
 74
    0
 49
0
 74
    0
 49
-12.7
 74
    0
  0
LTYPE
  5
42
330
5
100
AcDbSymbolTableRecord
100
AcDbLinetypeTableRecord
  2
BORDER
 70
    0
  3
Border __ __ . __ __ . __ __ . __ __ . __ __ .
 72
   65
 73
    6
 40
44.45
 49
12.7
 74
    0
 49
-6.35
 74
    0
 49
12.7
 74
    0
 49
-6.35
 74
    0
 49
0
 74
    0
 49
-6.35
 74
    0
  0
LTYPE
  5
43
330
5
100
AcDbSymbolTableRecord
100
AcDbLinetypeTableRecord
  2
BORDERTINY
 70
    0
  3
Border (.15x) __.__.__.__.__.__.__.__.__.__.__.
 72
   65
 73
    6
 40
6.6675
 49
1.905
 74
    0
 49
-0.9525
 74
    0
 49
1.905
 74
    0
 49
-0.9525
 74
    0
 49
0
 74
    0
 49
-0.9525
 74
    0
  0
LTYPE
  5
44
330
5
100
AcDbSymbolTableRecord
100
AcDbLinetypeTableRecord
  2
BORDER2
 70
    0
  3
Border (.5x) __.__.__.__.__.__.__.__.__.__.__.
 72
   65
 73
    6
 40
22.225
 49
6.35
 74
    0
 49
-3.175
 74
    0
 49
6.35
 74
    0
 49
-3.175
 74
    0
 49
0
 74
    0
 49
-3.175
 74
    0
  0
LTYPE
  5
45
330
5
100
AcDbSymbolTableRecord
100
AcDbLinetypeTableRecord
  2
BORDERX2
 70
    0
  3
Border (2x) ____  ____  .  ____  ____  .  ___
 72
   65
 73
    6
 40
88.89999999999999
 49
25.4
 74
    0
 49
-12.7
 74
    0
 49
25.4
 74
    0
 49
-12.7
 74
    0
 49
0
 74
    0
 49
-12.7
 74
    0
  0
LTYPE
  5
46
330
5
100
AcDbSymbolTableRecord
100
AcDbLinetypeTableRecord
  2
CENTER
 70
    0
  3
Center ____ _ ____ _ ____ _ ____ _ ____ _ ____
 72
   65
 73
    4
 40
50.8
 49
31.75
 74
    0
 49
-6.35
 74
    0
 49
6.35
 74
    0
 49
-6.35
 74
    0
  0
LTYPE
  5
47
330
5
100
AcDbSymbolTableRecord
100
AcDbLinetypeTableRecord
  2
CENTERTINY
 70
    0
  3
Center (.15x) ___ _ ___ _ ___ _ ___ _ ___ _ ___
 72
   65
 73
    4
 40
7.619999999999999
 49
4.7625
 74
    0
 49
-0.9525
 74
    0
 49
0.9525
 74
    0
 49
-0.9525
 74
    0
  0
LTYPE
  5
48
330
5
100
AcDbSymbolTableRecord
100
AcDbLinetypeTableRecord
  2
CENTER2
 70
    0
  3
Center (.5x) ___ _ ___ _ ___ _ ___ _ ___ _ ___
 72
   65
 73
    4
 40
28.575
 49
19.05
 74
    0
 49
-3.175
 74
    0
 49
3.175
 74
    0
 49
-3.175
 74
    0
  0
LTYPE
  5
49
330
5
100
AcDbSymbolTableRecord
100
AcDbLinetypeTableRecord
  2
CENTERX2
 70
    0
  3
Center (2x) ________  __  ________  __  _____
 72
   65
 73
    4
 40
101.6
 49
63.5
 74
    0
 49
-12.7
 74
    0
 49
12.7
 74
    0
 49
-12.7
 74
    0
  0
ENDTAB
  0
TABLE
  2
LAYER
  5
2
330
0
100
AcDbSymbolTable
 70
    1
  0
LAYER
  5
10
330
2
100
AcDbSymbolTableRecord
100
AcDbLayerTableRecord
  2
0
 70
    0
 62
    7
  6
DOTTINY
370
   13
390
F
  0
LAYER
  5
4A
330
2
100
AcDbSymbolTableRecord
100
AcDbLayerTableRecord
  2
axis
 70
    0
 62
    8
  6
CONTINUOUS
370
   35
390
F
  0
LAYER
  5
4B
330
2
100
AcDbSymbolTableRecord
100
AcDbLayerTableRecord
  2
delim
 70
    0
 62
  253
420
10526884
  6
DASHEDTINY
370
   13
390
F
  0
LAYER
  5
4C
330
2
100
AcDbSymbolTableRecord
100
AcDbLayerTableRecord
  2
ic
 70
    0
 62
  216
420
8388736
  6
CONTINUOUS
370
   35
390
F
  0
LAYER
  5
4D
330
2
100
AcDbSymbolTableRecord
100
AcDbLayerTableRecord
  2
icg
 70
    0
 62
  136
420
32896
  6
CONTINUOUS
370
   50
390
F
  0
LAYER
  5
4E
330
2
100
AcDbSymbolTableRecord
100
AcDbLayerTableRecord
  2
idiscg
 70
    0
 62
    4
  6
DASHEDTINY
370
   50
390
F
  0
LAYER
  5
4F
330
2
100
AcDbSymbolTableRecord
100
AcDbLayerTableRecord
  2
mcmp
 70
    0
 62
    3
  6
DOTTINY
370
   35
390
F
  0
LAYER
  5
50
330
2
100
AcDbSymbolTableRecord
100
AcDbLayerTableRecord
  2
sample
 70
    0
 62
    1
  6
CONTINUOUS
370
  140
390
F
  0
LAYER
  5
51
330
2
100
AcDbSymbolTableRecord
100
AcDbLayerTableRecord
  2
sig
 70
    0
 62
    6
  6
CONTINUOUS
370
   50
390
F
  0
LAYER
  5
52
330
2
100
AcDbSymbolTableRecord
100
AcDbLayerTableRecord
  2
txt
 70
    0
 62
    7
  6
CONTINUOUS
370
   35
390
F
  0
ENDTAB
  0
TABLE
  2
STYLE
  5
3
330
0
100
AcDbSymbolTable
 70
    3
  0
STYLE
  5
53
330
2
100
AcDbSymbolTableRecord
100
AcDbTextStyleTableRecord
  2
italicc
 70
    0
 40
0
 41
1
 50
0
 71
    0
 42
1
  3
italicc
  4

  0
STYLE
  5
54
330
2
100
AcDbSymbolTableRecord
100
AcDbTextStyleTableRecord
  2
romanp
 70
    0
 40
0
 41
1
 50
0
 71
    0
 42
1
  3
romanp
  4

  0
STYLE
  5
55
330
2
100
AcDbSymbolTableRecord
100
AcDbTextStyleTableRecord
  2
Standard
 70
    0
 40
0
 41
1
 50
0
 71
    0
 42
1
  3
txt
  4

  0
ENDTAB
  0
TABLE
  2
VIEW
  5
6
330
0
100
AcDbSymbolTable
 70
    0
  0
ENDTAB
  0
TABLE
  2
UCS
  5
7
330
0
100
AcDbSymbolTable
 70
    0
  0
ENDTAB
  0
TABLE
  2
APPID
  5
9
330
0
100
AcDbSymbolTable
 70
    1
  0
APPID
  5
12
330
9
100
AcDbSymbolTableRecord
100
AcDbRegAppTableRecord
  2
ACAD
 70
    0
  0
APPID
  5
56
330
9
100
AcDbSymbolTableRecord
100
AcDbRegAppTableRecord
  2
LibreCad
 70
    0
  0
ENDTAB
  0
TABLE
  2
DIMSTYLE
  5
A
330
0
100
AcDbSymbolTable
 70
    1
100
AcDbDimStyleTable
 71
    1
  0
DIMSTYLE
105
57
330
A
100
AcDbSymbolTableRecord
100
AcDbDimStyleTableRecord
  2
Standard
 70
    0
 40
1
 41
0.01
 42
0.625
 43
0.38
 44
1.25
 45
0
 46
0
 47
0
 48
0
 49
1
140
1
141
0.09
142
0
143
25.4
144
1
145
0
146
1
147
0.625
148
0
 71
    0
 72
    0
 73
    0
 74
    1
 75
    0
 76
    0
 77
    0
 78
    1
 79
    0
170
    0
171
    2
172
    0
173
    0
174
    0
175
    0
176
    0
177
    0
178
    0
179
    2
271
    4
272
    4
273
    2
274
    2
275
    0
276
    0
277
    2
278
   44
279
    0
280
    0
281
    0
282
    0
283
    1
284
    0
285
    0
286
    0
288
    0
289
    3
340
standard
341

371
   -2
372
   -2
  0
ENDTAB
  0
TABLE
  2
BLOCK_RECORD
  5
1
330
0
100
AcDbSymbolTable
 70
    2
  0
BLOCK_RECORD
  5
1F
330
1
100
AcDbSymbolTableRecord
100
AcDbBlockTableRecord
  2
*Model_Space
 70
    0
280
    1
281
    0
  0
BLOCK_RECORD
  5
1E
330
1
100
AcDbSymbolTableRecord
100
AcDbBlockTableRecord
  2
*Paper_Space
 70
    0
280
    1
281
    0
  0
BLOCK_RECORD
  5
58
330
1
100
AcDbSymbolTableRecord
100
AcDbBlockTableRecord
  2
*D9
 70
    0
280
    1
281
    0
  0
BLOCK_RECORD
  5
5B
330
1
100
AcDbSymbolTableRecord
100
AcDbBlockTableRecord
  2
*D10
 70
    0
280
    1
281
    0
  0
BLOCK_RECORD
  5
5E
330
1
100
AcDbSymbolTableRecord
100
AcDbBlockTableRecord
  2
*D4
 70
    0
280
    1
281
    0
  0
BLOCK_RECORD
  5
61
330
1
100
AcDbSymbolTableRecord
100
AcDbBlockTableRecord
  2
*D3
 70
    0
280
    1
281
    0
  0
BLOCK_RECORD
  5
64
330
1
100
AcDbSymbolTableRecord
100
AcDbBlockTableRecord
  2
*D7
 70
    0
280
    1
281
    0
  0
BLOCK_RECORD
  5
67
330
1
100
AcDbSymbolTableRecord
100
AcDbBlockTableRecord
  2
*D8
 70
    0
280
    1
281
    0
  0
BLOCK_RECORD
  5
6A
330
1
100
AcDbSymbolTableRecord
100
AcDbBlockTableRecord
  2
*D2
 70
    0
280
    1
281
    0
  0
BLOCK_RECORD
  5
6D
330
1
100
AcDbSymbolTableRecord
100
AcDbBlockTableRecord
  2
*D5
 70
    0
280
    1
281
    0
  0
BLOCK_RECORD
  5
70
330
1
100
AcDbSymbolTableRecord
100
AcDbBlockTableRecord
  2
*D6
 70
    0
280
    1
281
    0
  0
BLOCK_RECORD
  5
73
330
1
100
AcDbSymbolTableRecord
100
AcDbBlockTableRecord
  2
*D1
 70
    0
280
    1
281
    0
  0
ENDTAB
  0
ENDSEC
  0
SECTION
  2
BLOCKS
  0
BLOCK
  5
20
330
1F
100
AcDbEntity
  8
0
100
AcDbBlockBegin
  2
*Model_Space
 70
    0
 10
0
 20
0
 30
0
  3
*Model_Space
  1

  0
ENDBLK
  5
21
330
1F
100
AcDbEntity
  8
0
100
AcDbBlockEnd
  0
BLOCK
  5
1C
330
1B
100
AcDbEntity
  8
0
100
AcDbBlockBegin
  2
*Paper_Space
 70
    0
 10
0
 20
0
 30
0
  3
*Paper_Space
  1

  0
ENDBLK
  5
1D
330
1F
100
AcDbEntity
  8
0
100
AcDbBlockEnd
  0
BLOCK
  5
59
330
58
100
AcDbEntity
  8
0
100
AcDbBlockBegin
  2
*D9
 70
    1
 10
0
 20
0
  3
*D9
  1

  0
LINE
  5
76
100
AcDbEntity
  8
txt
  6
CONTINUOUS
 62
    7
370
    0
100
AcDbLine
 10
0.658
 20
-0.9410000000000001
 11
0.658
 21
-0.91
  0
LINE
  5
77
100
AcDbEntity
  8
txt
  6
CONTINUOUS
 62
    7
370
    0
100
AcDbLine
 10
0.658
 20
-0.91
 11
0.676
 21
-0.91
  0
SOLID
  5
78
100
AcDbEntity
  8
txt
  6
CONTINUOUS
 62
    7
370
    0
100
AcDbTrace
 10
0.658
 20
-0.9410000000000001
 30
0
 11
0.6563348613689086
 21
-0.931
 31
0
 12
0.6596651386310914
 22
-0.931
 32
0
 13
0.6596651386310914
 23
-0.931
 33
0
  0
ENDBLK
  5
5A
330
58
100
AcDbEntity
  8
0
100
AcDbBlockEnd
  0
BLOCK
  5
5C
330
5B
100
AcDbEntity
  8
0
100
AcDbBlockBegin
  2
*D10
 70
    1
 10
0
 20
0
  3
*D10
  1

  0
ENDBLK
  5
5D
330
5B
100
AcDbEntity
  8
0
100
AcDbBlockEnd
  0
BLOCK
  5
5F
330
5E
100
AcDbEntity
  8
0
100
AcDbBlockBegin
  2
*D4
 70
    1
 10
0
 20
0
  3
*D4
  1

  0
LINE
  5
79
100
AcDbEntity
  8
axis
  6
CONTINUOUS
 62
    7
370
    0
100
AcDbLine
 10
0.708
 20
-0.7908000000000008
 11
8.847089727481715e-17
 21
-0.7908000000000008
  0
SOLID
  5
7A
100
AcDbEntity
  8
axis
  6
CONTINUOUS
 62
    7
370
    0
100
AcDbTrace
 10
0.708
 20
-0.7908000000000008
 30
0
 11
0.698
 21
-0.7924651386310922
 31
0
 12
0.698
 22
-0.7891348613689094
 32
0
 13
0.698
 23
-0.7891348613689094
 33
0
  0
ENDBLK
  5
60
330
5E
100
AcDbEntity
  8
0
100
AcDbBlockEnd
  0
BLOCK
  5
62
330
61
100
AcDbEntity
  8
0
100
AcDbBlockBegin
  2
*D3
 70
    1
 10
0
 20
0
  3
*D3
  1

  0
LINE
  5
7B
100
AcDbEntity
  8
axis
  6
CONTINUOUS
 62
    7
370
    0
100
AcDbLine
 10
2.60208521396521e-17
 20
-0.7304000000000004
 11
2.60208521396521e-17
 21
-0.7904000000000004
  0
SOLID
  5
7C
100
AcDbEntity
  8
axis
  6
CONTINUOUS
 62
    7
370
    0
100
AcDbTrace
 10
2.60208521396521e-17
 20
-0.7304000000000004
 30
0
 11
0.001665138631091387
 21
-0.7404000000000004
 31
0
 12
-0.001665138631091336
 22
-0.7404000000000004
 32
0
 13
-0.001665138631091336
 23
-0.7404000000000004
 33
0
  0
ENDBLK
  5
63
330
61
100
AcDbEntity
  8
0
100
AcDbBlockEnd
  0
BLOCK
  5
65
330
64
100
AcDbEntity
  8
0
100
AcDbBlockBegin
  2
*D7
 70
    1
 10
0
 20
0
  3
*D7
  1

  0
LINE
  5
7D
100
AcDbEntity
  8
txt
  6
CONTINUOUS
 62
    7
370
    0
100
AcDbLine
 10
0.639
 20
-0.767
 11
0.673
 21
-0.767
  0
SOLID
  5
7E
100
AcDbEntity
  8
txt
  6
CONTINUOUS
 62
    7
370
    0
100
AcDbTrace
 10
0.639
 20
-0.767
 30
0
 11
0.649
 21
-0.7653348613689086
 31
0
 12
0.649
 22
-0.7686651386310914
 32
0
 13
0.649
 23
-0.7686651386310914
 33
0
  0
ENDBLK
  5
66
330
64
100
AcDbEntity
  8
0
100
AcDbBlockEnd
  0
BLOCK
  5
68
330
67
100
AcDbEntity
  8
0
100
AcDbBlockBegin
  2
*D8
 70
    1
 10
0
 20
0
  3
*D8
  1

  0
LINE
  5
7F
100
AcDbEntity
  8
txt
  6
CONTINUOUS
 62
    7
370
    0
100
AcDbLine
 10
0.639
 20
-0.856
 11
0.673
 21
-0.856
  0
SOLID
  5
80
100
AcDbEntity
  8
txt
  6
CONTINUOUS
 62
    7
370
    0
100
AcDbTrace
 10
0.639
 20
-0.856
 30
0
 11
0.649
 21
-0.8543348613689086
 31
0
 12
0.649
 22
-0.8576651386310914
 32
0
 13
0.649
 23
-0.8576651386310914
 33
0
  0
ENDBLK
  5
69
330
67
100
AcDbEntity
  8
0
100
AcDbBlockEnd
  0
BLOCK
  5
6B
330
6A
100
AcDbEntity
  8
0
100
AcDbBlockBegin
  2
*D2
 70
    1
 10
0
 20
0
  3
*D2
  1

  0
LINE
  5
81
100
AcDbEntity
  8
axis
  6
CONTINUOUS
 62
    7
370
    0
100
AcDbLine
 10
0.708
 20
-0.8784000000000007
 11
8.847089727481715e-17
 21
-0.8784000000000007
  0
SOLID
  5
82
100
AcDbEntity
  8
axis
  6
CONTINUOUS
 62
    7
370
    0
100
AcDbTrace
 10
0.708
 20
-0.8784000000000007
 30
0
 11
0.698
 21
-0.8800651386310921
 31
0
 12
0.698
 22
-0.8767348613689093
 32
0
 13
0.698
 23
-0.8767348613689093
 33
0
  0
ENDBLK
  5
6C
330
6A
100
AcDbEntity
  8
0
100
AcDbBlockEnd
  0
BLOCK
  5
6E
330
6D
100
AcDbEntity
  8
0
100
AcDbBlockBegin
  2
*D5
 70
    1
 10
0
 20
0
  3
*D5
  1

  0
LINE
  5
83
100
AcDbEntity
  8
axis
  6
CONTINUOUS
 62
    7
370
    0
100
AcDbLine
 10
0.708
 20
-1.016000000000001
 11
8.847089727481715e-17
 21
-1.016000000000001
  0
SOLID
  5
84
100
AcDbEntity
  8
axis
  6
CONTINUOUS
 62
    7
370
    0
100
AcDbTrace
 10
0.708
 20
-1.016000000000001
 30
0
 11
0.698
 21
-1.017665138631092
 31
0
 12
0.698
 22
-1.01433486136891
 32
0
 13
0.698
 23
-1.01433486136891
 33
0
  0
ENDBLK
  5
6F
330
6D
100
AcDbEntity
  8
0
100
AcDbBlockEnd
  0
BLOCK
  5
71
330
70
100
AcDbEntity
  8
0
100
AcDbBlockBegin
  2
*D6
 70
    1
 10
0
 20
0
  3
*D6
  1

  0
LINE
  5
85
100
AcDbEntity
  8
axis
  6
CONTINUOUS
 62
    7
370
    0
100
AcDbLine
 10
2.255140518769848e-17
 20
-0.9080000000000004
 11
8.847089727481715e-17
 21
-1.016000000000001
  0
SOLID
  5
86
100
AcDbEntity
  8
axis
  6
CONTINUOUS
 62
    7
370
    0
100
AcDbTrace
 10
2.255140518769848e-17
 20
-0.9080000000000004
 30
0
 11
0.00166513863109139
 21
-0.9180000000000004
 31
0
 12
-0.001665138631091333
 22
-0.9180000000000004
 32
0
 13
-0.001665138631091333
 23
-0.9180000000000004
 33
0
  0
ENDBLK
  5
72
330
70
100
AcDbEntity
  8
0
100
AcDbBlockEnd
  0
BLOCK
  5
74
330
73
100
AcDbEntity
  8
0
100
AcDbBlockBegin
  2
*D1
 70
    1
 10
0
 20
0
  3
*D1
  1

  0
LINE
  5
87
100
AcDbEntity
  8
axis
  6
CONTINUOUS
 62
    7
370
    0
100
AcDbLine
 10
2.60208521396521e-17
 20
-0.8180000000000003
 11
2.60208521396521e-17
 21
-0.8780000000000003
  0
SOLID
  5
88
100
AcDbEntity
  8
axis
  6
CONTINUOUS
 62
    7
370
    0
100
AcDbTrace
 10
2.60208521396521e-17
 20
-0.8180000000000003
 30
0
 11
0.001665138631091387
 21
-0.8280000000000003
 31
0
 12
-0.001665138631091336
 22
-0.8280000000000003
 32
0
 13
-0.001665138631091336
 23
-0.8280000000000003
 33
0
  0
ENDBLK
  5
75
330
73
100
AcDbEntity
  8
0
100
AcDbBlockEnd
  0
ENDSEC
  0
SECTION
  2
ENTITIES
  0
LINE
  5
89
100
AcDbEntity
  8
axis
  6
ByLayer
 62
  256
370
   -1
100
AcDbLine
 10
8.847089727481715e-17
 20
-0.7908000000000008
 11
0.708
 21
-0.7908000000000008
  0
CIRCLE
  5
8A
100
AcDbEntity
  8
sample
  6
ByLayer
 62
  256
370
   -1
100
AcDbCircle
 10
0.07080000000000009
 20
-0.7557087104761913
 40
0.000708
  0
CIRCLE
  5
8B
100
AcDbEntity
  8
sample
  6
ByLayer
 62
  256
370
   -1
100
AcDbCircle
 10
0.1417226462059578
 20
-0.7313270189966929
 40
0.000708
  0
CIRCLE
  5
8C
100
AcDbEntity
  8
sample
  6
ByLayer
 62
  256
370
   -1
100
AcDbCircle
 10
0.2124000000000001
 20
-0.7683763493082472
 40
0.000708
  0
CIRCLE
  5
8D
100
AcDbEntity
  8
sample
  6
ByLayer
 62
  256
370
   -1
100
AcDbCircle
 10
0.2832000000000002
 20
-0.7351786406498493
 40
0.000708
  0
CIRCLE
  5
8E
100
AcDbEntity
  8
sample
  6
ByLayer
 62
  256
370
   -1
100
AcDbCircle
 10
0.3540000000000001
 20
-0.7435261605322454
 40
0.000708
  0
CIRCLE
  5
8F
100
AcDbEntity
  8
sample
  6
ByLayer
 62
  256
370
   -1
100
AcDbCircle
 10
0.4248
 20
-0.7611195456638897
 40
0.000708
  0
CIRCLE
  5
90
100
AcDbEntity
  8
sample
  6
ByLayer
 62
  256
370
   -1
100
AcDbCircle
 10
0.4955999999999999
 20
-0.739465176041229
 40
0.000708
  0
CIRCLE
  5
91
100
AcDbEntity
  8
sample
  6
ByLayer
 62
  256
370
   -1
100
AcDbCircle
 10
0.5663999999999999
 20
-0.7297320397401792
 40
0.000708
  0
CIRCLE
  5
92
100
AcDbEntity
  8
sample
  6
ByLayer
 62
  256
370
   -1
100
AcDbCircle
 10
0.6371999999999999
 20
-0.746743423766338
 40
0.000708
  0
LINE
  5
93
100
AcDbEntity
  8
sig
  6
ByLayer
 62
  256
370
   -1
100
AcDbLine
 10
0.07080000000000009
 20
-0.7564167104761914
 11
0.07080000000000009
 21
-0.7908000000000008
  0
LINE
  5
94
100
AcDbEntity
  8
sig
  6
ByLayer
 62
  256
370
   -1
100
AcDbLine
 10
0.1417226462059578
 20
-0.7320350189966929
 11
0.1417226462059578
 21
-0.7908000000000008
  0
LINE
  5
95
100
AcDbEntity
  8
sig
  6
ByLayer
 62
  256
370
   -1
100
AcDbLine
 10
0.2124000000000001
 20
-0.7690843493082473
 11
0.2124000000000001
 21
-0.7908000000000008
  0
LINE
  5
96
100
AcDbEntity
  8
sig
  6
ByLayer
 62
  256
370
   -1
100
AcDbLine
 10
0.2832000000000002
 20
-0.7358866406498492
 11
0.2832000000000002
 21
-0.7908000000000008
  0
LINE
  5
97
100
AcDbEntity
  8
sig
  6
ByLayer
 62
  256
370
   -1
100
AcDbLine
 10
0.3540000000000001
 20
-0.7442341605322453
 11
0.3540000000000001
 21
-0.7908000000000008
  0
LINE
  5
98
100
AcDbEntity
  8
sig
  6
ByLayer
 62
  256
370
   -1
100
AcDbLine
 10
0.4248
 20
-0.7618275456638897
 11
0.4248
 21
-0.7908000000000008
  0
LINE
  5
99
100
AcDbEntity
  8
sig
  6
ByLayer
 62
  256
370
   -1
100
AcDbLine
 10
0.4955999999999999
 20
-0.7401731760412289
 11
0.4955999999999999
 21
-0.7908000000000008
  0
LINE
  5
9A
100
AcDbEntity
  8
sig
  6
ByLayer
 62
  256
370
   -1
100
AcDbLine
 10
0.5663999999999999
 20
-0.7304400397401791
 11
0.5663999999999999
 21
-0.7908000000000008
  0
LINE
  5
9B
100
AcDbEntity
  8
sig
  6
ByLayer
 62
  256
370
   -1
100
AcDbLine
 10
0.6371999999999999
 20
-0.7474514237663379
 11
0.6371999999999999
 21
-0.7908000000000008
  0
LINE
  5
9C
100
AcDbEntity
  8
axis
  6
ByLayer
 62
  256
370
   -1
100
AcDbLine
 10
8.847089727481715e-17
 20
-0.8784000000000007
 11
0.708
 21
-0.8784000000000007
  0
LINE
  5
9D
100
AcDbEntity
  8
axis
  6
ByLayer
 62
  256
370
   -1
100
AcDbLine
 10
8.847089727481715e-17
 20
-1.016000000000001
 11
0.708
 21
-1.016000000000001
  0
LINE
  5
9E
100
AcDbEntity
  8
icg
  6
ByLayer
 62
  256
370
   -1
100
AcDbLine
 10
0.2831999999999999
 20
-0.9942843493082472
 11
0.2831999999999999
 21
-1.016000000000001
  0
LINE
  5
9F
100
AcDbEntity
  8
icg
  6
DASHEDTINY
 62
  256
370
   -1
100
AcDbLine
 10
0.07079999999999995
 20
-0.9593600000000007
 11
0.1031657142857142
 21
-0.9389119485714292
  0
LINE
  5
A0
100
AcDbEntity
  8
icg
  6
DASHEDTINY
 62
  256
370
   -1
100
AcDbLine
 10
0.1031657142857142
 20
-0.9389119485714292
 11
0.1031657142857142
 21
-1.016000000000001
  0
LINE
  5
A1
100
AcDbEntity
  8
icg
  6
DASHEDTINY
 62
  256
370
   -1
100
AcDbLine
 10
0.07079999999999995
 20
-0.9593600000000007
 11
0.07079999999999995
 21
-1.016000000000001
  0
LINE
  5
A2
100
AcDbEntity
  8
icg
  6
ByLayer
 62
  256
370
   -1
100
AcDbLine
 10
0.1415999999999999
 20
-0.981616710476191
 11
0.2007878495782312
 21
-0.9444048244897965
  0
LINE
  5
A3
100
AcDbEntity
  8
icg
  6
ByLayer
 62
  256
370
   -1
100
AcDbLine
 10
0.2831999999999999
 20
-0.9942843493082472
 11
0.3474965479389683
 21
-0.9538605828042583
  0
LINE
  5
A4
100
AcDbEntity
  8
icg
  6
ByLayer
 62
  256
370
   -1
100
AcDbLine
 10
0.354
 20
-0.9610866406498491
 11
0.3944175000227185
 21
-0.935675827224155
  0
LINE
  5
A5
100
AcDbEntity
  8
icg
  6
ByLayer
 62
  256
370
   -1
100
AcDbLine
 10
0.4247999999999999
 20
-0.9694341605322454
 11
0.4599032324866234
 21
-0.9473644706490267
  0
LINE
  5
A6
100
AcDbEntity
  8
icg
  6
ByLayer
 62
  256
370
   -1
100
AcDbLine
 10
0.4955999999999999
 20
-0.9870275456638895
 11
0.5532617560355556
 21
-0.9507751271918461
  0
LINE
  5
A7
100
AcDbEntity
  8
icg
  6
ByLayer
 62
  256
370
   -1
100
AcDbLine
 10
0.5663999999999998
 20
-0.9653731760412287
 11
0.61720976095198
 21
-0.9334286630201571
  0
LINE
  5
A8
100
AcDbEntity
  8
icg
  6
ByLayer
 62
  256
370
   -1
100
AcDbLine
 10
0.6371999999999999
 20
-0.955640039740179
 11
0.6726377506195916
 21
-0.9333600355658842
  0
LINE
  5
A9
100
AcDbEntity
  8
icg
  6
ByLayer
 62
  256
370
   -1
100
AcDbLine
 10
0.2007878495782312
 20
-0.9444048244897965
 11
0.2007878495782312
 21
-1.016000000000001
  0
LINE
  5
AA
100
AcDbEntity
  8
icg
  6
ByLayer
 62
  256
370
   -1
100
AcDbLine
 10
0.3474965479389683
 20
-0.9538605828042583
 11
0.3474965479389683
 21
-1.016000000000001
  0
LINE
  5
AB
100
AcDbEntity
  8
icg
  6
ByLayer
 62
  256
370
   -1
100
AcDbLine
 10
0.3944175000227185
 20
-0.935675827224155
 11
0.3944175000227185
 21
-1.016000000000001
  0
LINE
  5
AC
100
AcDbEntity
  8
icg
  6
ByLayer
 62
  256
370
   -1
100
AcDbLine
 10
0.4599032324866234
 20
-0.9473644706490267
 11
0.4599032324866234
 21
-1.016000000000001
  0
LINE
  5
AD
100
AcDbEntity
  8
icg
  6
ByLayer
 62
  256
370
   -1
100
AcDbLine
 10
0.5532617560355555
 20
-0.9507751271918461
 11
0.5532617560355555
 21
-1.016000000000001
  0
LINE
  5
AE
100
AcDbEntity
  8
icg
  6
ByLayer
 62
  256
370
   -1
100
AcDbLine
 10
0.61720976095198
 20
-0.9334286630201571
 11
0.61720976095198
 21
-1.016000000000001
  0
LINE
  5
AF
100
AcDbEntity
  8
icg
  6
ByLayer
 62
  256
370
   -1
100
AcDbLine
 10
0.6726377506195916
 20
-0.9333600355658842
 11
0.6726377506195916
 21
-1.016000000000001
  0
LINE
  5
B0
100
AcDbEntity
  8
icg
  6
ByLayer
 62
  256
370
   -1
100
AcDbLine
 10
0.1415999999999999
 20
-0.981616710476191
 11
0.1415999999999999
 21
-1.016000000000001
  0
LINE
  5
B1
100
AcDbEntity
  8
icg
  6
ByLayer
 62
  256
370
   -1
100
AcDbLine
 10
0.3540000000000001
 20
-0.9610866406498491
 11
0.3540000000000001
 21
-1.016000000000001
  0
LINE
  5
B2
100
AcDbEntity
  8
icg
  6
ByLayer
 62
  256
370
   -1
100
AcDbLine
 10
0.4248
 20
-0.9694341605322454
 11
0.4248
 21
-1.016000000000001
  0
LINE
  5
B3
100
AcDbEntity
  8
icg
  6
ByLayer
 62
  256
370
   -1
100
AcDbLine
 10
0.4955999999999999
 20
-0.9870275456638895
 11
0.4955999999999999
 21
-1.016000000000001
  0
LINE
  5
B4
100
AcDbEntity
  8
icg
  6
ByLayer
 62
  256
370
   -1
100
AcDbLine
 10
0.5663999999999998
 20
-0.9653731760412287
 11
0.5663999999999998
 21
-1.016000000000001
  0
LINE
  5
B5
100
AcDbEntity
  8
icg
  6
ByLayer
 62
  256
370
   -1
100
AcDbLine
 10
0.6371999999999998
 20
-0.955640039740179
 11
0.6371999999999998
 21
-1.016000000000001
  0
LINE
  5
B6
100
AcDbEntity
  8
icg
  6
ByLayer
 62
  256
370
   -1
100
AcDbLine
 10
0.2142452924119153
 20
-0.9572350189966929
 11
0.2381383845806471
 21
-0.9423018363912354
  0
LINE
  5
B7
100
AcDbEntity
  8
icg
  6
ByLayer
 62
  256
370
   -1
100
AcDbLine
 10
0.2381383845806471
 20
-0.9423018363912354
 11
0.2381383845806471
 21
-1.016000000000001
  0
LINE
  5
B8
100
AcDbEntity
  8
icg
  6
ByLayer
 62
  256
370
   -1
100
AcDbLine
 10
0.2142452924119153
 20
-0.9572350189966929
 11
0.2142452924119153
 21
-1.016000000000001
  0
CIRCLE
  5
B9
100
AcDbEntity
  8
sample
  6
ByLayer
 62
  256
370
   -1
100
AcDbCircle
 10
0.2832000000000001
 20
-0.8411261605322453
 40
0.000708
  0
CIRCLE
  5
BA
100
AcDbEntity
  8
sample
  6
ByLayer
 62
  256
370
   -1
100
AcDbCircle
 10
0.5663999999999999
 20
-0.8443434237663379
 40
0.000708
  0
CIRCLE
  5
BB
100
AcDbEntity
  8
sample
  6
ByLayer
 62
  256
370
   -1
100
AcDbCircle
 10
0.1416000000000001
 20
-0.8480000000000005
 40
0.000708
  0
CIRCLE
  5
BC
100
AcDbEntity
  8
sample
  6
ByLayer
 62
  256
370
   -1
100
AcDbCircle
 10
0.2124000000000002
 20
-0.8680000000000003
 40
0.000708
  0
CIRCLE
  5
BD
100
AcDbEntity
  8
sample
  6
ByLayer
 62
  256
370
   -1
100
AcDbCircle
 10
0.354
 20
-0.8487195456638899
 40
0.000708
  0
CIRCLE
  5
BE
100
AcDbEntity
  8
sample
  6
ByLayer
 62
  256
370
   -1
100
AcDbCircle
 10
0.4248
 20
-0.8570651760412291
 40
0.000708
  0
CIRCLE
  5
BF
100
AcDbEntity
  8
sample
  6
ByLayer
 62
  256
370
   -1
100
AcDbCircle
 10
0.4955999999999999
 20
-0.8473320397401793
 40
0.000708
  0
LINE
  5
C0
100
AcDbEntity
  8
sig
  6
ByLayer
 62
  256
370
   -1
100
AcDbLine
 10
0.1416000000000001
 20
-0.8487080000000009
 11
0.1416000000000001
 21
-0.8780000000000003
  0
LINE
  5
C1
100
AcDbEntity
  8
sig
  6
ByLayer
 62
  256
370
   -1
100
AcDbLine
 10
0.2124000000000002
 20
-0.8687080000000003
 11
0.2124000000000002
 21
-0.8780000000000003
  0
LINE
  5
C2
100
AcDbEntity
  8
sig
  6
ByLayer
 62
  256
370
   -1
100
AcDbLine
 10
0.2832000000000001
 20
-0.8418341605322452
 11
0.2832000000000001
 21
-0.8780000000000003
  0
LINE
  5
C3
100
AcDbEntity
  8
sig
  6
ByLayer
 62
  256
370
   -1
100
AcDbLine
 10
0.5663999999999999
 20
-0.8450514237663378
 11
0.5663999999999999
 21
-0.8780000000000003
  0
LINE
  5
C4
100
AcDbEntity
  8
sig
  6
ByLayer
 62
  256
370
   -1
100
AcDbLine
 10
0.4955999999999999
 20
-0.8480400397401793
 11
0.4955999999999999
 21
-0.8780000000000003
  0
LINE
  5
C5
100
AcDbEntity
  8
sig
  6
ByLayer
 62
  256
370
   -1
100
AcDbLine
 10
0.4248
 20
-0.857773176041229
 11
0.4248
 21
-0.8780000000000003
  0
LINE
  5
C6
100
AcDbEntity
  8
sig
  6
ByLayer
 62
  256
370
   -1
100
AcDbLine
 10
0.354
 20
-0.8494275456638898
 11
0.354
 21
-0.8780000000000003
  0
CIRCLE
  5
C7
100
AcDbEntity
  8
sample
  6
ByLayer
 62
  256
370
   -1
100
AcDbCircle
 10
0.6371999999999998
 20
-0.8473320397401793
 40
0.000708
  0
LINE
  5
C8
100
AcDbEntity
  8
sig
  6
ByLayer
 62
  256
370
   -1
100
AcDbLine
 10
0.6371999999999998
 20
-0.8480400397401793
 11
0.6371999999999998
 21
-0.8780000000000003
  0
LEADER
  5
C9
100
AcDbEntity
  8
axis
  6
ByLayer
 62
  256
370
   -1
100
AcDbLeader
  3
Standard
 71
    1
 72
    0
 73
    3
 74
    0
 75
    0
 40
1
 41
10
 76
2
 76
2
 10
2.60208521396521e-17
 20
-0.8180000000000003
 30
0
 10
2.60208521396521e-17
 20
-0.8780000000000003
 30
0
  0
LEADER
  5
CA
100
AcDbEntity
  8
axis
  6
ByLayer
 62
  256
370
   -1
100
AcDbLeader
  3
Standard
 71
    1
 72
    0
 73
    3
 74
    0
 75
    0
 40
1
 41
10
 76
2
 76
2
 10
0.708
 20
-0.8784000000000007
 30
0
 10
8.847089727481715e-17
 20
-0.8784000000000007
 30
0
  0
LEADER
  5
CB
100
AcDbEntity
  8
axis
  6
ByLayer
 62
  256
370
   -1
100
AcDbLeader
  3
Standard
 71
    1
 72
    0
 73
    3
 74
    0
 75
    0
 40
1
 41
10
 76
2
 76
2
 10
2.60208521396521e-17
 20
-0.7304000000000004
 30
0
 10
2.60208521396521e-17
 20
-0.7904000000000004
 30
0
  0
LEADER
  5
CC
100
AcDbEntity
  8
axis
  6
ByLayer
 62
  256
370
   -1
100
AcDbLeader
  3
Standard
 71
    1
 72
    0
 73
    3
 74
    0
 75
    0
 40
1
 41
10
 76
2
 76
2
 10
0.708
 20
-0.7908000000000008
 30
0
 10
8.847089727481715e-17
 20
-0.7908000000000008
 30
0
  0
LEADER
  5
CD
100
AcDbEntity
  8
axis
  6
ByLayer
 62
  256
370
   -1
100
AcDbLeader
  3
Standard
 71
    1
 72
    0
 73
    3
 74
    0
 75
    0
 40
1
 41
10
 76
2
 76
2
 10
0.708
 20
-1.016000000000001
 30
0
 10
8.847089727481715e-17
 20
-1.016000000000001
 30
0
  0
LEADER
  5
CE
100
AcDbEntity
  8
axis
  6
ByLayer
 62
  256
370
   -1
100
AcDbLeader
  3
Standard
 71
    1
 72
    0
 73
    3
 74
    0
 75
    0
 40
1
 41
10
 76
2
 76
2
 10
2.255140518769848e-17
 20
-0.9080000000000004
 30
0
 10
8.847089727481715e-17
 20
-1.016000000000001
 30
0
  0
MTEXT
  5
CF
100
AcDbEntity
  8
txt
  6
ByLayer
 62
  256
370
   -1
100
AcDbMText
 10
0.7140000000000002
 20
-0.783300000000001
 30
0
 40
0.0125
 41
0.005357138888888889
 71
    1
 72
    1
  1
t
  7
italicc
210
0
220
0
230
1
 50
0
 73
    2
 44
1
  0
MTEXT
  5
D0
100
AcDbEntity
  8
txt
  6
ByLayer
 62
  256
370
   -1
100
AcDbMText
 10
0.7140000000000002
 20
-0.8709000000000009
 30
0
 40
0.0125
 41
0.005357138888888889
 71
    1
 72
    1
  1
t
  7
italicc
210
0
220
0
230
1
 50
0
 73
    2
 44
1
  0
MTEXT
  5
D1
100
AcDbEntity
  8
txt
  6
ByLayer
 62
  256
370
   -1
100
AcDbMText
 10
0.7140000000000002
 20
-1.008500000000001
 30
0
 40
0.0125
 41
0.005357138888888889
 71
    1
 72
    1
  1
t
  7
italicc
210
0
220
0
230
1
 50
0
 73
    2
 44
1
  0
LINE
  5
D2
100
AcDbEntity
  8
0
  6
ByLayer
 62
  256
370
   -1
100
AcDbLine
 10
0.5636999999999999
 20
-0.8247164047696451
 11
0.5687
 21
-0.8247164047696451
  0
LINE
  5
D3
100
AcDbEntity
  8
0
  6
ByLayer
 62
  256
370
   -1
100
AcDbLine
 10
0.5636999999999999
 20
-0.8247164047696451
 11
0.5687
 21
-0.8247164047696451
  0
LINE
  5
D4
100
AcDbEntity
  8
mcmp
  6
ByLayer
 62
  256
370
   -1
100
AcDbLine
 10
0.2805000000000001
 20
-0.8214991415355526
 11
0.2855000000000001
 21
-0.8214991415355526
  0
LINE
  5
D5
100
AcDbEntity
  8
mcmp
  6
ByLayer
 62
  256
370
   -1
100
AcDbLine
 10
0.2805000000000001
 20
-0.8214991415355524
 11
0.2855000000000001
 21
-0.8214991415355526
  0
LINE
  5
D6
100
AcDbEntity
  8
mcmp
  6
ByLayer
 62
  256
370
   -1
100
AcDbLine
 10
0.1389999999999999
 20
-0.9666167104761911
 11
0.1439999999999999
 21
-0.9666167104761911
  0
LINE
  5
D7
100
AcDbEntity
  8
mcmp
  6
ByLayer
 62
  256
370
   -1
100
AcDbLine
 10
0.1439999999999999
 20
-0.9666167104761911
 11
0.1415999999999999
 21
-0.981616710476191
  0
LINE
  5
D8
100
AcDbEntity
  8
mcmp
  6
ByLayer
 62
  256
370
   -1
100
AcDbLine
 10
0.1415999999999999
 20
-0.981616710476191
 11
0.1389999999999999
 21
-0.9666167104761911
  0
LINE
  5
D9
100
AcDbEntity
  8
mcmp
  6
ByLayer
 62
  256
370
   -1
100
AcDbLine
 10
0.1389999999999999
 20
-0.9666167104761911
 11
0.1439999999999999
 21
-0.9666167104761911
  0
LINE
  5
DA
100
AcDbEntity
  8
mcmp
  6
ByLayer
 62
  256
370
   -1
100
AcDbLine
 10
0.2116452924119153
 20
-0.942235018996693
 11
0.2166452924119153
 21
-0.942235018996693
  0
LINE
  5
DB
100
AcDbEntity
  8
mcmp
  6
ByLayer
 62
  256
370
   -1
100
AcDbLine
 10
0.2166452924119153
 20
-0.942235018996693
 11
0.2142452924119153
 21
-0.9572350189966929
  0
LINE
  5
DC
100
AcDbEntity
  8
mcmp
  6
ByLayer
 62
  256
370
   -1
100
AcDbLine
 10
0.2142452924119153
 20
-0.9572350189966929
 11
0.2116452924119153
 21
-0.942235018996693
  0
LINE
  5
DD
100
AcDbEntity
  8
mcmp
  6
ByLayer
 62
  256
370
   -1
100
AcDbLine
 10
0.2116452924119153
 20
-0.942235018996693
 11
0.2166452924119153
 21
-0.942235018996693
  0
LINE
  5
DE
100
AcDbEntity
  8
mcmp
  6
ByLayer
 62
  256
370
   -1
100
AcDbLine
 10
0.2805999999999999
 20
-0.9792843493082473
 11
0.2855999999999999
 21
-0.9792843493082473
  0
LINE
  5
DF
100
AcDbEntity
  8
mcmp
  6
ByLayer
 62
  256
370
   -1
100
AcDbLine
 10
0.2855999999999999
 20
-0.9792843493082473
 11
0.2831999999999999
 21
-0.9942843493082472
  0
LINE
  5
E0
100
AcDbEntity
  8
mcmp
  6
ByLayer
 62
  256
370
   -1
100
AcDbLine
 10
0.2831999999999999
 20
-0.9942843493082472
 11
0.2805999999999999
 21
-0.9792843493082473
  0
LINE
  5
E1
100
AcDbEntity
  8
mcmp
  6
ByLayer
 62
  256
370
   -1
100
AcDbLine
 10
0.2805999999999999
 20
-0.9792843493082473
 11
0.2855999999999999
 21
-0.9792843493082473
  0
LINE
  5
E2
100
AcDbEntity
  8
mcmp
  6
ByLayer
 62
  256
370
   -1
100
AcDbLine
 10
0.3514000000000001
 20
-0.9460866406498492
 11
0.3564000000000001
 21
-0.9460866406498492
  0
LINE
  5
E3
100
AcDbEntity
  8
mcmp
  6
ByLayer
 62
  256
370
   -1
100
AcDbLine
 10
0.3564000000000001
 20
-0.9460866406498492
 11
0.3540000000000001
 21
-0.9610866406498491
  0
LINE
  5
E4
100
AcDbEntity
  8
mcmp
  6
ByLayer
 62
  256
370
   -1
100
AcDbLine
 10
0.3540000000000001
 20
-0.9610866406498491
 11
0.3514000000000001
 21
-0.9460866406498492
  0
LINE
  5
E5
100
AcDbEntity
  8
mcmp
  6
ByLayer
 62
  256
370
   -1
100
AcDbLine
 10
0.3514000000000001
 20
-0.9460866406498492
 11
0.3564000000000001
 21
-0.9460866406498492
  0
LINE
  5
E6
100
AcDbEntity
  8
mcmp
  6
ByLayer
 62
  256
370
   -1
100
AcDbLine
 10
0.4222
 20
-0.9544341605322455
 11
0.4272
 21
-0.9544341605322455
  0
LINE
  5
E7
100
AcDbEntity
  8
mcmp
  6
ByLayer
 62
  256
370
   -1
100
AcDbLine
 10
0.4272
 20
-0.9544341605322455
 11
0.4248
 21
-0.9694341605322454
  0
LINE
  5
E8
100
AcDbEntity
  8
mcmp
  6
ByLayer
 62
  256
370
   -1
100
AcDbLine
 10
0.4248
 20
-0.9694341605322454
 11
0.4222
 21
-0.9544341605322455
  0
LINE
  5
E9
100
AcDbEntity
  8
mcmp
  6
ByLayer
 62
  256
370
   -1
100
AcDbLine
 10
0.4222
 20
-0.9544341605322455
 11
0.4272
 21
-0.9544341605322455
  0
LINE
  5
EA
100
AcDbEntity
  8
mcmp
  6
ByLayer
 62
  256
370
   -1
100
AcDbLine
 10
0.4929999999999999
 20
-0.9720275456638896
 11
0.4979999999999999
 21
-0.9720275456638896
  0
LINE
  5
EB
100
AcDbEntity
  8
mcmp
  6
ByLayer
 62
  256
370
   -1
100
AcDbLine
 10
0.4979999999999999
 20
-0.9720275456638896
 11
0.4955999999999999
 21
-0.9870275456638895
  0
LINE
  5
EC
100
AcDbEntity
  8
mcmp
  6
ByLayer
 62
  256
370
   -1
100
AcDbLine
 10
0.4955999999999999
 20
-0.9870275456638895
 11
0.4929999999999999
 21
-0.9720275456638896
  0
LINE
  5
ED
100
AcDbEntity
  8
mcmp
  6
ByLayer
 62
  256
370
   -1
100
AcDbLine
 10
0.4929999999999999
 20
-0.9720275456638896
 11
0.4979999999999999
 21
-0.9720275456638896
  0
LINE
  5
EE
100
AcDbEntity
  8
mcmp
  6
ByLayer
 62
  256
370
   -1
100
AcDbLine
 10
0.5637999999999999
 20
-0.9503731760412288
 11
0.5687999999999998
 21
-0.9503731760412288
  0
LINE
  5
EF
100
AcDbEntity
  8
mcmp
  6
ByLayer
 62
  256
370
   -1
100
AcDbLine
 10
0.5687999999999998
 20
-0.9503731760412288
 11
0.5663999999999998
 21
-0.9653731760412287
  0
LINE
  5
F0
100
AcDbEntity
  8
mcmp
  6
ByLayer
 62
  256
370
   -1
100
AcDbLine
 10
0.5663999999999998
 20
-0.9653731760412287
 11
0.5637999999999999
 21
-0.9503731760412288
  0
LINE
  5
F1
100
AcDbEntity
  8
mcmp
  6
ByLayer
 62
  256
370
   -1
100
AcDbLine
 10
0.5637999999999999
 20
-0.9503731760412288
 11
0.5687999999999998
 21
-0.9503731760412288
  0
LINE
  5
F2
100
AcDbEntity
  8
mcmp
  6
ByLayer
 62
  256
370
   -1
100
AcDbLine
 10
0.6345999999999998
 20
-0.9406400397401791
 11
0.6395999999999997
 21
-0.9406400397401791
  0
LINE
  5
F3
100
AcDbEntity
  8
mcmp
  6
ByLayer
 62
  256
370
   -1
100
AcDbLine
 10
0.6395999999999997
 20
-0.9406400397401791
 11
0.6371999999999998
 21
-0.955640039740179
  0
LINE
  5
F4
100
AcDbEntity
  8
mcmp
  6
ByLayer
 62
  256
370
   -1
100
AcDbLine
 10
0.6371999999999998
 20
-0.955640039740179
 11
0.6345999999999998
 21
-0.9406400397401791
  0
LINE
  5
F5
100
AcDbEntity
  8
mcmp
  6
ByLayer
 62
  256
370
   -1
100
AcDbLine
 10
0.6345999999999998
 20
-0.9406400397401791
 11
0.6395999999999997
 21
-0.9406400397401791
  0
LINE
  5
F6
100
AcDbEntity
  8
mcmp
  6
ByLayer
 62
  256
370
   -1
100
AcDbLine
 10
0.6371999999999999
 20
-0.955640039740179
 11
0.6371999999999998
 21
-0.8780000000000003
  0
LINE
  5
F7
100
AcDbEntity
  8
mcmp
  6
ByLayer
 62
  256
370
   -1
100
AcDbLine
 10
0.5663999999999998
 20
-0.9653731760412287
 11
0.5663999999999999
 21
-0.8780000000000003
  0
LINE
  5
F8
100
AcDbEntity
  8
mcmp
  6
ByLayer
 62
  256
370
   -1
100
AcDbLine
 10
0.4955999999999999
 20
-0.9870275456638895
 11
0.4955999999999999
 21
-0.8780000000000003
  0
LINE
  5
F9
100
AcDbEntity
  8
mcmp
  6
ByLayer
 62
  256
370
   -1
100
AcDbLine
 10
0.4247999999999999
 20
-0.9694341605322454
 11
0.4248
 21
-0.8780000000000003
  0
LINE
  5
FA
100
AcDbEntity
  8
mcmp
  6
ByLayer
 62
  256
370
   -1
100
AcDbLine
 10
0.354
 20
-0.9610866406498491
 11
0.354
 21
-0.8780000000000003
  0
LINE
  5
FB
100
AcDbEntity
  8
mcmp
  6
ByLayer
 62
  256
370
   -1
100
AcDbLine
 10
0.2831999999999999
 20
-0.9942843493082472
 11
0.2832000000000001
 21
-0.8780000000000003
  0
LINE
  5
FC
100
AcDbEntity
  8
mcmp
  6
ByLayer
 62
  256
370
   -1
100
AcDbLine
 10
0.2142452924119153
 20
-0.9572350189966929
 11
0.2124000000000002
 21
-0.8780000000000003
  0
LINE
  5
FD
100
AcDbEntity
  8
mcmp
  6
ByLayer
 62
  256
370
   -1
100
AcDbLine
 10
0.1415999999999999
 20
-0.981616710476191
 11
0.1416000000000001
 21
-0.8780000000000003
  0
LINE
  5
FE
100
AcDbEntity
  8
mcmp
  6
ByLayer
 62
  256
370
   -1
100
AcDbLine
 10
0.1389000000000001
 20
-0.8283729810033083
 11
0.1439000000000001
 21
-0.8283729810033083
  0
LINE
  5
FF
100
AcDbEntity
  8
mcmp
  6
ByLayer
 62
  256
370
   -1
100
AcDbLine
 10
0.1439000000000001
 20
-0.8283729810033083
 11
0.1415000000000001
 21
-0.8433729810033082
  0
LINE
  5
100
100
AcDbEntity
  8
mcmp
  6
ByLayer
 62
  256
370
   -1
100
AcDbLine
 10
0.1415000000000001
 20
-0.8433729810033082
 11
0.1389000000000001
 21
-0.828372981003308
  0
LINE
  5
101
100
AcDbEntity
  8
mcmp
  6
ByLayer
 62
  256
370
   -1
100
AcDbLine
 10
0.1389000000000001
 20
-0.828372981003308
 11
0.1439000000000001
 21
-0.8283729810033083
  0
LINE
  5
102
100
AcDbEntity
  8
mcmp
  6
ByLayer
 62
  256
370
   -1
100
AcDbLine
 10
0.2097000000000002
 20
-0.8483729810033076
 11
0.2147000000000002
 21
-0.8483729810033076
  0
LINE
  5
103
100
AcDbEntity
  8
mcmp
  6
ByLayer
 62
  256
370
   -1
100
AcDbLine
 10
0.2147000000000002
 20
-0.8483729810033076
 11
0.2123000000000002
 21
-0.8633729810033075
  0
LINE
  5
104
100
AcDbEntity
  8
mcmp
  6
ByLayer
 62
  256
370
   -1
100
AcDbLine
 10
0.2123000000000002
 20
-0.8633729810033075
 11
0.2097000000000002
 21
-0.8483729810033074
  0
LINE
  5
105
100
AcDbEntity
  8
mcmp
  6
ByLayer
 62
  256
370
   -1
100
AcDbLine
 10
0.2097000000000002
 20
-0.8483729810033074
 11
0.2147000000000002
 21
-0.8483729810033076
  0
LINE
  5
106
100
AcDbEntity
  8
mcmp
  6
ByLayer
 62
  256
370
   -1
100
AcDbLine
 10
0.2855000000000001
 20
-0.8214991415355526
 11
0.2831000000000001
 21
-0.8364991415355525
  0
LINE
  5
107
100
AcDbEntity
  8
mcmp
  6
ByLayer
 62
  256
370
   -1
100
AcDbLine
 10
0.2831000000000001
 20
-0.8364991415355525
 11
0.2805000000000001
 21
-0.8214991415355524
  0
LINE
  5
108
100
AcDbEntity
  8
mcmp
  6
ByLayer
 62
  256
370
   -1
100
AcDbLine
 10
0.3513
 20
-0.8290925266671971
 11
0.3563
 21
-0.8290925266671971
  0
LINE
  5
109
100
AcDbEntity
  8
mcmp
  6
ByLayer
 62
  256
370
   -1
100
AcDbLine
 10
0.3563
 20
-0.8290925266671971
 11
0.3539
 21
-0.844092526667197
  0
LINE
  5
10A
100
AcDbEntity
  8
mcmp
  6
ByLayer
 62
  256
370
   -1
100
AcDbLine
 10
0.3539
 20
-0.844092526667197
 11
0.3513
 21
-0.8290925266671971
  0
LINE
  5
10B
100
AcDbEntity
  8
mcmp
  6
ByLayer
 62
  256
370
   -1
100
AcDbLine
 10
0.3513
 20
-0.8290925266671971
 11
0.3563
 21
-0.8290925266671971
  0
LINE
  5
10C
100
AcDbEntity
  8
mcmp
  6
ByLayer
 62
  256
370
   -1
100
AcDbLine
 10
0.4220999999999999
 20
-0.8374381570445364
 11
0.4270999999999999
 21
-0.8374381570445364
  0
LINE
  5
10D
100
AcDbEntity
  8
mcmp
  6
ByLayer
 62
  256
370
   -1
100
AcDbLine
 10
0.4270999999999999
 20
-0.8374381570445364
 11
0.4246999999999999
 21
-0.8524381570445363
  0
LINE
  5
10E
100
AcDbEntity
  8
mcmp
  6
ByLayer
 62
  256
370
   -1
100
AcDbLine
 10
0.4246999999999999
 20
-0.8524381570445363
 11
0.4220999999999999
 21
-0.8374381570445364
  0
LINE
  5
10F
100
AcDbEntity
  8
mcmp
  6
ByLayer
 62
  256
370
   -1
100
AcDbLine
 10
0.4220999999999999
 20
-0.8374381570445364
 11
0.4270999999999999
 21
-0.8374381570445364
  0
LINE
  5
110
100
AcDbEntity
  8
mcmp
  6
ByLayer
 62
  256
370
   -1
100
AcDbLine
 10
0.4928999999999998
 20
-0.8277050207434868
 11
0.4979
 21
-0.8277050207434868
  0
LINE
  5
111
100
AcDbEntity
  8
mcmp
  6
ByLayer
 62
  256
370
   -1
100
AcDbLine
 10
0.4979
 20
-0.8277050207434868
 11
0.4955
 21
-0.8427050207434867
  0
LINE
  5
112
100
AcDbEntity
  8
mcmp
  6
ByLayer
 62
  256
370
   -1
100
AcDbLine
 10
0.4955
 20
-0.8427050207434867
 11
0.4928999999999998
 21
-0.8277050207434866
  0
LINE
  5
113
100
AcDbEntity
  8
mcmp
  6
ByLayer
 62
  256
370
   -1
100
AcDbLine
 10
0.4928999999999998
 20
-0.8277050207434866
 11
0.4979
 21
-0.8277050207434868
  0
LINE
  5
114
100
AcDbEntity
  8
mcmp
  6
ByLayer
 62
  256
370
   -1
100
AcDbLine
 10
0.5687
 20
-0.8247164047696451
 11
0.5663
 21
-0.839716404769645
  0
LINE
  5
115
100
AcDbEntity
  8
mcmp
  6
ByLayer
 62
  256
370
   -1
100
AcDbLine
 10
0.5663
 20
-0.839716404769645
 11
0.5636999999999999
 21
-0.8247164047696451
  0
LINE
  5
116
100
AcDbEntity
  8
mcmp
  6
ByLayer
 62
  256
370
   -1
100
AcDbLine
 10
0.1415000000000001
 20
-0.8433729810033082
 11
0.1417226462059578
 21
-0.7908000000000008
  0
LINE
  5
117
100
AcDbEntity
  8
mcmp
  6
ByLayer
 62
  256
370
   -1
100
AcDbLine
 10
0.1370000000000001
 20
-0.844472981003308
 11
0.07104529241191548
 21
-0.7908000000000008
  0
LINE
  5
118
100
AcDbEntity
  8
mcmp
  6
ByLayer
 62
  256
370
   -1
100
AcDbLine
 10
0.2123000000000002
 20
-0.8633729810033075
 11
0.212522646205958
 21
-0.7908000000000008
  0
LINE
  5
119
100
AcDbEntity
  8
mcmp
  6
ByLayer
 62
  256
370
   -1
100
AcDbLine
 10
0.2078000000000002
 20
-0.8644729810033074
 11
0.1417226462059578
 21
-0.7908000000000008
  0
LINE
  5
11A
100
AcDbEntity
  8
mcmp
  6
ByLayer
 62
  256
370
   -1
100
AcDbLine
 10
0.2831000000000001
 20
-0.8364991415355525
 11
0.2833226462059579
 21
-0.7908000000000008
  0
LINE
  5
11B
100
AcDbEntity
  8
mcmp
  6
ByLayer
 62
  256
370
   -1
100
AcDbLine
 10
0.2786000000000001
 20
-0.8375991415355524
 11
0.212522646205958
 21
-0.7908000000000008
  0
LINE
  5
11C
100
AcDbEntity
  8
mcmp
  6
ByLayer
 62
  256
370
   -1
100
AcDbLine
 10
0.3539
 20
-0.844092526667197
 11
0.3541226462059578
 21
-0.7908000000000008
  0
LINE
  5
11D
100
AcDbEntity
  8
mcmp
  6
ByLayer
 62
  256
370
   -1
100
AcDbLine
 10
0.3494
 20
-0.8451925266671971
 11
0.2833226462059579
 21
-0.7908000000000008
  0
LINE
  5
11E
100
AcDbEntity
  8
mcmp
  6
ByLayer
 62
  256
370
   -1
100
AcDbLine
 10
0.4246999999999999
 20
-0.8524381570445363
 11
0.4249226462059577
 21
-0.7908000000000008
  0
LINE
  5
11F
100
AcDbEntity
  8
mcmp
  6
ByLayer
 62
  256
370
   -1
100
AcDbLine
 10
0.4201999999999999
 20
-0.8535381570445364
 11
0.3541226462059578
 21
-0.7908000000000008
  0
LINE
  5
120
100
AcDbEntity
  8
mcmp
  6
ByLayer
 62
  256
370
   -1
100
AcDbLine
 10
0.4955
 20
-0.8427050207434867
 11
0.4957226462059577
 21
-0.7908000000000008
  0
LINE
  5
121
100
AcDbEntity
  8
mcmp
  6
ByLayer
 62
  256
370
   -1
100
AcDbLine
 10
0.4909999999999998
 20
-0.8438050207434866
 11
0.4249226462059577
 21
-0.7908000000000008
  0
LINE
  5
122
100
AcDbEntity
  8
mcmp
  6
ByLayer
 62
  256
370
   -1
100
AcDbLine
 10
0.5663
 20
-0.839716404769645
 11
0.5665226462059576
 21
-0.7908000000000008
  0
LINE
  5
123
100
AcDbEntity
  8
mcmp
  6
ByLayer
 62
  256
370
   -1
100
AcDbLine
 10
0.5617999999999999
 20
-0.8408164047696451
 11
0.4957226462059577
 21
-0.7908000000000008
  0
LINE
  5
124
100
AcDbEntity
  8
mcmp
  6
ByLayer
 62
  256
370
   -1
100
AcDbLine
 10
0.5476739571977189
 20
-0.8337132424634519
 11
0.5510783370688448
 21
-0.8291954777846453
  0
LINE
  5
125
100
AcDbEntity
  8
mcmp
  6
ByLayer
 62
  256
370
   -1
100
AcDbLine
 10
0.5510783370688448
 20
-0.8291954777846453
 11
0.5617999999999999
 21
-0.8408164047696451
  0
LINE
  5
126
100
AcDbEntity
  8
mcmp
  6
ByLayer
 62
  256
370
   -1
100
AcDbLine
 10
0.5617999999999999
 20
-0.8408164047696451
 11
0.5476739571977189
 21
-0.8337132424634519
  0
LINE
  5
127
100
AcDbEntity
  8
mcmp
  6
ByLayer
 62
  256
370
   -1
100
AcDbLine
 10
0.4768739571977189
 20
-0.8367018584372934
 11
0.480278337068845
 21
-0.8321840937584868
  0
LINE
  5
128
100
AcDbEntity
  8
mcmp
  6
ByLayer
 62
  256
370
   -1
100
AcDbLine
 10
0.480278337068845
 20
-0.8321840937584868
 11
0.4909999999999998
 21
-0.8438050207434866
  0
LINE
  5
129
100
AcDbEntity
  8
mcmp
  6
ByLayer
 62
  256
370
   -1
100
AcDbLine
 10
0.4909999999999998
 20
-0.8438050207434866
 11
0.4768739571977189
 21
-0.8367018584372934
  0
LINE
  5
12A
100
AcDbEntity
  8
mcmp
  6
ByLayer
 62
  256
370
   -1
100
AcDbLine
 10
0.4070449083050312
 20
-0.8447664090718134
 11
0.4109744894599076
 21
-0.8406972086654387
  0
LINE
  5
12B
100
AcDbEntity
  8
mcmp
  6
ByLayer
 62
  256
370
   -1
100
AcDbLine
 10
0.4109744894599076
 20
-0.8406972086654387
 11
0.4201999999999999
 21
-0.8535381570445364
  0
LINE
  5
12C
100
AcDbEntity
  8
mcmp
  6
ByLayer
 62
  256
370
   -1
100
AcDbLine
 10
0.4201999999999999
 20
-0.8535381570445364
 11
0.4070449083050312
 21
-0.8447664090718134
  0
LINE
  5
12D
100
AcDbEntity
  8
mcmp
  6
ByLayer
 62
  256
370
   -1
100
AcDbLine
 10
0.3354000759380165
 20
-0.8378439127666921
 11
0.3388827831709612
 21
-0.8333862507865062
  0
LINE
  5
12E
100
AcDbEntity
  8
mcmp
  6
ByLayer
 62
  256
370
   -1
100
AcDbLine
 10
0.3388827831709612
 20
-0.8333862507865062
 11
0.3494
 21
-0.8451925266671971
  0
LINE
  5
12F
100
AcDbEntity
  8
mcmp
  6
ByLayer
 62
  256
370
   -1
100
AcDbLine
 10
0.3494
 20
-0.8451925266671971
 11
0.3354000759380165
 21
-0.8378439127666921
  0
LINE
  5
130
100
AcDbEntity
  8
mcmp
  6
ByLayer
 62
  256
370
   -1
100
AcDbLine
 10
0.2643521413869012
 20
-0.8307435945157191
 11
0.2676771568891208
 21
-0.8261671032931777
  0
LINE
  5
131
100
AcDbEntity
  8
mcmp
  6
ByLayer
 62
  256
370
   -1
100
AcDbLine
 10
0.2676771568891208
 20
-0.8261671032931777
 11
0.2786000000000001
 21
-0.8375991415355524
  0
LINE
  5
132
100
AcDbEntity
  8
mcmp
  6
ByLayer
 62
  256
370
   -1
100
AcDbLine
 10
0.2786000000000001
 20
-0.8375991415355524
 11
0.2643521413869012
 21
-0.8307435945157191
  0
LINE
  5
133
100
AcDbEntity
  8
mcmp
  6
ByLayer
 62
  256
370
   -1
100
AcDbLine
 10
0.1951220147190744
 20
-0.8550247701030032
 11
0.1992591760139608
 21
-0.8511668047817367
  0
LINE
  5
134
100
AcDbEntity
  8
mcmp
  6
ByLayer
 62
  256
370
   -1
100
AcDbLine
 10
0.1992591760139608
 20
-0.8511668047817367
 11
0.2078000000000002
 21
-0.8644729810033074
  0
LINE
  5
135
100
AcDbEntity
  8
mcmp
  6
ByLayer
 62
  256
370
   -1
100
AcDbLine
 10
0.1231304591908036
 20
-0.8368811539674732
 11
0.1266904329192061
 21
-0.8324849525329294
  0
LINE
  5
136
100
AcDbEntity
  8
mcmp
  6
ByLayer
 62
  256
370
   -1
100
AcDbLine
 10
0.1266904329192061
 20
-0.8324849525329294
 11
0.1370000000000001
 21
-0.844472981003308
  0
LINE
  5
137
100
AcDbEntity
  8
mcmp
  6
ByLayer
 62
  256
370
   -1
100
AcDbLine
 10
0.1370000000000001
 20
-0.844472981003308
 11
0.1231304591908036
 21
-0.8368811539674732
  0
LINE
  5
138
100
AcDbEntity
  8
mcmp
  6
ByLayer
 62
  256
370
   -1
100
AcDbLine
 10
0.6343773537940423
 20
-0.8289000000000002
 11
0.6393773537940421
 21
-0.8289000000000002
  0
LINE
  5
139
100
AcDbEntity
  8
mcmp
  6
ByLayer
 62
  256
370
   -1
100
AcDbLine
 10
0.6393773537940421
 20
-0.8289000000000002
 11
0.6369773537940422
 21
-0.8439000000000001
  0
LINE
  5
13A
100
AcDbEntity
  8
mcmp
  6
ByLayer
 62
  256
370
   -1
100
AcDbLine
 10
0.6369773537940422
 20
-0.8439000000000001
 11
0.6343773537940423
 21
-0.8289000000000002
  0
LINE
  5
13B
100
AcDbEntity
  8
mcmp
  6
ByLayer
 62
  256
370
   -1
100
AcDbLine
 10
0.6343773537940423
 20
-0.8289000000000002
 11
0.6393773537940421
 21
-0.8289000000000002
  0
LINE
  5
13C
100
AcDbEntity
  8
mcmp
  6
ByLayer
 62
  256
370
   -1
100
AcDbLine
 10
0.6369773537940422
 20
-0.8439000000000001
 11
0.6371999999999999
 21
-0.7908000000000008
  0
LINE
  5
13D
100
AcDbEntity
  8
mcmp
  6
ByLayer
 62
  256
370
   -1
100
AcDbLine
 10
0.6324773537940422
 20
-0.8450000000000002
 11
0.5665226462059576
 21
-0.7908000000000008
  0
LINE
  5
13E
100
AcDbEntity
  8
mcmp
  6
ByLayer
 62
  256
370
   -1
100
AcDbLine
 10
0.6188812128769673
 20
-0.8369287577063356
 11
0.6225924431830301
 21
-0.8326594756103196
  0
LINE
  5
13F
100
AcDbEntity
  8
mcmp
  6
ByLayer
 62
  256
370
   -1
100
AcDbLine
 10
0.6225924431830301
 20
-0.8326594756103196
 11
0.6324773537940422
 21
-0.8450000000000002
  0
LINE
  5
140
100
AcDbEntity
  8
mcmp
  6
ByLayer
 62
  256
370
   -1
100
AcDbLine
 10
0.6324773537940422
 20
-0.8450000000000002
 11
0.6188812128769673
 21
-0.8369287577063356
  0
MTEXT
  5
141
100
AcDbEntity
  8
txt
  6
ByLayer
 62
  256
370
   -1
100
AcDbMText
 10
0.68
 20
-0.77
 30
0
 40
0.008
 41
0.006857146666666667
 71
    1
 72
    1
  1
V
  7
romanp
210
0
220
0
230
1
 50
0
 73
    2
 44
1
  0
MTEXT
  5
142
100
AcDbEntity
  8
txt
  6
ByLayer
 62
  256
370
   -1
100
AcDbMText
 10
0.675
 20
-0.761
 30
0
 40
0.01
 41
0.0360714
 71
    1
 72
    1
  1
i [n]
  7
romanp
210
0
220
0
230
1
 50
0
 73
    2
 44
1
  0
MTEXT
  5
143
100
AcDbEntity
  8
txt
  6
ByLayer
 62
  256
370
   -1
100
AcDbMText
 10
0.68
 20
-0.86
 30
0
 40
0.008
 41
0.01523809777777778
 71
    1
 72
    1
  1
CG
  7
romanp
210
0
220
0
230
1
 50
0
 73
    2
 44
1
  0
MTEXT
  5
144
100
AcDbEntity
  8
txt
  6
ByLayer
 62
  256
370
   -1
100
AcDbMText
 10
0.675
 20
-0.85
 30
0
 40
0.01
 41
0.0435714
 71
    1
 72
    1
  1
i  [n]
  7
romanp
210
0
220
0
230
1
 50
0
 73
    2
 44
1
  0
LEADER
  5
145
100
AcDbEntity
  8
txt
  6
ByLayer
 62
  256
370
   -1
100
AcDbLeader
  3
Standard
 71
    1
 72
    0
 73
    3
 74
    0
 75
    0
 40
1
 41
10
 76
2
 76
2
 10
0.639
 20
-0.767
 30
0
 10
0.673
 20
-0.767
 30
0
  0
LEADER
  5
146
100
AcDbEntity
  8
txt
  6
ByLayer
 62
  256
370
   -1
100
AcDbLeader
  3
Standard
 71
    1
 72
    0
 73
    3
 74
    0
 75
    0
 40
1
 41
10
 76
2
 76
2
 10
0.639
 20
-0.856
 30
0
 10
0.673
 20
-0.856
 30
0
  0
LEADER
  5
147
100
AcDbEntity
  8
txt
  6
ByLayer
 62
  256
370
   -1
100
AcDbLeader
  3
Standard
 71
    1
 72
    0
 73
    3
 74
    0
 75
    0
 40
1
 41
10
 76
3
 76
3
 10
0.658
 20
-0.9410000000000001
 30
0
 10
0.658
 20
-0.91
 30
0
 10
0.676
 20
-0.91
 30
0
  0
MTEXT
  5
148
100
AcDbEntity
  8
txt
  6
ByLayer
 62
  256
370
   -1
100
AcDbMText
 10
0.6850000000000001
 20
-0.9139999999999999
 30
0
 40
0.008
 41
0.01523809777777778
 71
    1
 72
    1
  1
CG
  7
romanp
210
0
220
0
230
1
 50
0
 73
    2
 44
1
  0
MTEXT
  5
149
100
AcDbEntity
  8
txt
  6
ByLayer
 62
  256
370
   -1
100
AcDbMText
 10
0.6800000000000002
 20
-0.9039999999999999
 30
0
 40
0.01
 41
0.04023805555555555
 71
    1
 72
    1
  1
i  (t)
  7
romanp
210
0
220
0
230
1
 50
0
 73
    2
 44
1
  0
LEADER
  5
14A
100
AcDbEntity
  8
txt
  6
ByLayer
 62
  256
370
   -1
100
AcDbLeader
  3
Standard
 71
    1
 72
    0
 73
    3
 74
    0
 75
    0
 40
1
 41
10
 76
0
 76
0
  0
ENDSEC
  0
SECTION
  2
OBJECTS
  0
DICTIONARY
  5
C
330
0
100
AcDbDictionary
281
    1
  3
ACAD_GROUP
350
D
  0
DICTIONARY
  5
D
330
C
100
AcDbDictionary
281
    1
  0
ENDSEC
  0
EOF
