999
dxfrw 0.6.3
  0
SECTION
  2
HEADER
  9
$ACADVER
  1
AC1021
  9
$DWGCODEPAGE
  3
ANSI_1252
  9
$INSBASE
 10
0
 20
0
 30
0
  9
$EXTMIN
 10
-0.002497707946637045
 20
-1.021000000000001
 30
0
  9
$EXTMAX
 10
0.7193571388888891
 20
0.6900000000000002
 30
0
  9
$LIMMIN
 10
0
 20
0
  9
$LIMMAX
 10
420
 20
297
  9
$ORTHOMODE
 70
    0
  9
$REGENMODE
 70
    1
  9
$FILLMODE
 70
    1
  9
$QTEXTMODE
 70
    0
  9
$MIRRTEXT
 70
    0
  9
$LTSCALE
 40
1
  9
$ATTMODE
 70
    0
  9
$TEXTSIZE
 40
2.5
  9
$TRACEWID
 40
15.68
  9
$TEXTSTYLE
  7
STANDARD
  9
$CLAYER
  8
txt
  9
$CELTYPE
  6
BYLAYER
  9
$CECOLOR
 62
  256
  9
$CELTSCALE
 40
1
  9
$DISPSILH
 70
    0
  9
$DIMSCALE
 40
1
  9
$DIMASZ
 40
0.015
  9
$DIMEXO
 40
0.625
  9
$DIMDLI
 40
3.75
  9
$DIMRND
 40
0
  9
$DIMDLE
 40
0
  9
$DIMEXE
 40
1.25
  9
$DIMTP
 40
0
  9
$DIMTM
 40
0
  9
$DIMTXT
 40
1
  9
$DIMCEN
 40
2.5
  9
$DIMTSZ
 40
0
  9
$DIMTOL
 70
    0
  9
$DIMLIM
 70
    0
  9
$DIMTIH
 70
    0
  9
$DIMTOH
 70
    0
  9
$DIMSE1
 70
    0
  9
$DIMSE2
 70
    0
  9
$DIMTAD
 70
    1
  9
$DIMZIN
 70
    1
  9
$DIMBLK
  1

  9
$DIMASO
 70
    1
  9
$DIMSHO
 70
    1
  9
$DIMPOST
  1

  9
$DIMAPOST
  1

  9
$DIMALT
 70
    0
  9
$DIMALTD
 70
    3
  9
$DIMALTF
 40
0.03937
  9
$DIMLFAC
 40
1
  9
$DIMTOFL
 70
    1
  9
$DIMTVP
 40
0
  9
$DIMTIX
 70
    0
  9
$DIMSOXD
 70
    0
  9
$DIMSAH
 70
    0
  9
$DIMBLK1
  1

  9
$DIMBLK2
  1

  9
$DIMSTYLE
  2
STANDARD
  9
$DIMCLRD
 70
    0
  9
$DIMCLRE
 70
    0
  9
$DIMCLRT
 70
    0
  9
$DIMTFAC
 40
1
  9
$DIMGAP
 40
0.625
  9
$DIMJUST
 70
    0
  9
$DIMSD1
 70
    0
  9
$DIMSD2
 70
    0
  9
$DIMTOLJ
 70
    0
  9
$DIMTZIN
 70
    8
  9
$DIMALTZ
 70
    0
  9
$DIMALTTZ
 70
    0
  9
$DIMUPT
 70
    0
  9
$DIMDEC
 70
    4
  9
$DIMTDEC
 70
    2
  9
$DIMALTU
 70
    2
  9
$DIMALTTD
 70
    3
  9
$DIMTXSTY
  7
standard
  9
$DIMAUNIT
 70
    0
  9
$DIMADEC
 70
    2
  9
$DIMALTRND
 40
0
  9
$DIMAZIN
 70
    0
  9
$DIMDSEP
 70
   44
  9
$DIMATFIT
 70
    3
  9
$DIMFRAC
 70
    0
  9
$DIMLDRBLK
  1
STANDARD
  9
$DIMLUNIT
 70
    2
  9
$DIMLWD
 70
   -2
  9
$DIMLWE
 70
   -2
  9
$DIMTMOVE
 70
    0
  9
$DIMFXL
 40
1
  9
$DIMFXLON
 70
    0
  9
$DIMJOGANG
 40
0.7854
  9
$DIMTFILL
 70
    0
  9
$DIMTFILLCLR
 70
    0
  9
$DIMARCSYM
 70
    0
  9
$DIMLTYPE
  6

  9
$DIMLTEX1
  6

  9
$DIMLTEX2
  6

  9
$LUNITS
 70
    2
  9
$LUPREC
 70
    4
  9
$SKETCHINC
 40
1
  9
$FILLETRAD
 40
0
  9
$AUNITS
 70
    0
  9
$AUPREC
 70
    2
  9
$MENU
  1
.
  9
$ELEVATION
 40
0
  9
$PELEVATION
 40
0
  9
$THICKNESS
 40
0
  9
$LIMCHECK
 70
    0
  9
$CHAMFERA
 40
0
  9
$CHAMFERB
 40
0
  9
$CHAMFERC
 40
0
  9
$CHAMFERD
 40
0
  9
$SKPOLY
 70
    0
  9
$USRTIMER
 70
    1
  9
$ANGBASE
 50
0
  9
$ANGDIR
 70
    0
  9
$PDMODE
 70
   34
  9
$PDSIZE
 40
0
  9
$PLINEWID
 40
0
  9
$SPLFRAME
 70
    0
  9
$SPLINETYPE
 70
    2
  9
$SPLINESEGS
 70
    8
  9
$HANDSEED
  5
20000
  9
$SURFTAB1
 70
    6
  9
$SURFTAB2
 70
    6
  9
$SURFTYPE
 70
    6
  9
$SURFU
 70
    6
  9
$SURFV
 70
    6
  9
$UCSBASE
  2

  9
$UCSNAME
  2

  9
$UCSORG
 10
0
 20
0
 30
0
  9
$UCSXDIR
 10
1
 20
0
 30
0
  9
$UCSYDIR
 10
0
 20
1
 30
0
  9
$UCSORTHOREF
  2

  9
$UCSORTHOVIEW
 70
    0
  9
$UCSORGTOP
 10
0
 20
0
 30
0
  9
$UCSORGBOTTOM
 10
0
 20
0
 30
0
  9
$UCSORGLEFT
 10
0
 20
0
 30
0
  9
$UCSORGRIGHT
 10
0
 20
0
 30
0
  9
$UCSORGFRONT
 10
0
 20
0
 30
0
  9
$UCSORGBACK
 10
0
 20
0
 30
0
  9
$PUCSBASE
  2

  9
$PUCSNAME
  2

  9
$PUCSORG
 10
0
 20
0
 30
0
  9
$PUCSXDIR
 10
1
 20
0
 30
0
  9
$PUCSYDIR
 10
0
 20
1
 30
0
  9
$PUCSORTHOREF
  2

  9
$PUCSORTHOVIEW
 70
    0
  9
$PUCSORGTOP
 10
0
 20
0
 30
0
  9
$PUCSORGBOTTOM
 10
0
 20
0
 30
0
  9
$PUCSORGLEFT
 10
0
 20
0
 30
0
  9
$PUCSORGRIGHT
 10
0
 20
0
 30
0
  9
$PUCSORGFRONT
 10
0
 20
0
 30
0
  9
$PUCSORGBACK
 10
0
 20
0
 30
0
  9
$USERI1
 70
    0
  9
$USERI2
 70
    0
  9
$USERI3
 70
    0
  9
$USERI4
 70
    0
  9
$USERI5
 70
    0
  9
$USERR1
 40
0
  9
$USERR2
 40
0
  9
$USERR3
 40
0
  9
$USERR4
 40
0
  9
$USERR5
 40
0
  9
$WORLDVIEW
 70
    1
  9
$SHADEDGE
 70
    3
  9
$SHADEDIF
 70
   70
  9
$TILEMODE
 70
    1
  9
$MAXACTVP
 70
   64
  9
$PINSBASE
 10
0
 20
0
 30
0
  9
$PLIMCHECK
 70
    0
  9
$PEXTMIN
 10
0
 20
0
 30
0
  9
$PEXTMAX
 10
0
 20
0
 30
0
  9
$GRIDMODE
 70
    1
  9
$SNAPSTYLE
 70
    0
  9
$GRIDUNIT
 10
0
 20
0
  9
$PLIMMIN
 10
0
 20
0
  9
$PLIMMAX
 10
0.7083333333333334
 20
0.9166666666666665
  9
$UNITMODE
 70
    0
  9
$VISRETAIN
 70
    1
  9
$PLINEGEN
 70
    0
  9
$PSLTSCALE
 70
    1
  9
$TREEDEPTH
 70
 3020
  9
$CMLSTYLE
  2
Standard
  9
$CMLJUST
 70
    0
  9
$CMLSCALE
 40
20
  9
$PROXYGRAPHICS
 70
    1
  9
$MEASUREMENT
 70
    1
  9
$CELWEIGHT
370
   -1
  9
$ENDCAPS
280
    0
  9
$JOINSTYLE
280
    0
  9
$LWDISPLAY
290
    0
  9
$INSUNITS
 70
    2
  9
$HYPERLINKBASE
  1

  9
$STYLESHEET
  1

  9
$XEDIT
290
    1
  9
$CEPSNTYPE
380
    0
  9
$PSTYLEMODE
290
    1
  9
$EXTNAMES
290
    1
  9
$PSVPSCALE
 40
0
  9
$OLESTARTUP
290
    0
  9
$SORTENTS
280
  127
  9
$INDEXCTL
280
    0
  9
$HIDETEXT
280
    1
  9
$XCLIPFRAME
290
    0
  9
$HALOGAP
280
    0
  9
$OBSCOLOR
 70
  257
  9
$OBSLTYPE
280
    0
  9
$INTERSECTIONDISPLAY
280
    0
  9
$INTERSECTIONCOLOR
 70
  257
  9
$DIMASSOC
280
    1
  9
$PROJECTNAME
  1

  9
$CAMERADISPLAY
290
    0
  9
$LENSLENGTH
 40
50
  9
$CAMERAHEIGHT
 40
0
  9
$STEPSPERSEC
 40
2
  9
$STEPSIZE
 40
50
  9
$3DDWFPREC
 40
2
  9
$PSOLWIDTH
 40
5
  9
$PSOLHEIGHT
 40
80
  9
$LOFTANG1
 40
1.570796326794897
  9
$LOFTANG2
 40
1.570796326794897
  9
$LOFTMAG1
 40
0
  9
$LOFTMAG2
 40
0
  9
$LOFTPARAM
 70
    7
  9
$LOFTNORMALS
280
    1
  9
$LATITUDE
 40
1
  9
$LONGITUDE
 40
1
  9
$NORTHDIRECTION
 40
0
  9
$TIMEZONE
 70
-8000
  9
$LIGHTGLYPHDISPLAY
280
    1
  9
$TILEMODELIGHTSYNCH
280
    1
  9
$SOLIDHIST
280
    1
  9
$SHOWHIST
280
    1
  9
$DWFFRAME
280
    2
  9
$DGNFRAME
280
    0
  9
$REALWORLDSCALE
290
    1
  9
$INTERFERECOLOR
 62
    1
  9
$CSHADOW
280
    0
  9
$SHADOWPLANELOCATION
 40
0
  0
ENDSEC
  0
SECTION
  2
CLASSES
  0
ENDSEC
  0
SECTION
  2
TABLES
  0
TABLE
  2
VPORT
  5
8
330
0
100
AcDbSymbolTable
 70
    1
  0
VPORT
  5
31
330
2
100
AcDbSymbolTableRecord
100
AcDbViewportTableRecord
  2
*ACTIVE
 70
    0
 10
0
 20
0
 11
1
 21
1
 12
1.112121543152477
 22
0.5675090815792786
 13
0
 23
0
 14
10
 24
10
 15
10
 25
10
 16
0
 26
0
 36
1
 17
0
 27
0
 37
0
 40
2.371435643486899
 41
1.300689655172414
 42
50
 43
0
 44
0
 50
0
 51
0
 71
    0
 72
  100
 73
    1
 74
    3
 75
    0
 76
    1
 77
    0
 78
    0
281
    0
 65
    1
110
0
120
0
130
0
111
1
121
0
131
0
112
0
122
1
132
0
 79
    0
146
0
348
10020
 60
    7
 61
    5
292
1
282
    1
141
0
142
0
 63
  250
421
3358443
  0
ENDTAB
  0
TABLE
  2
LTYPE
  5
5
330
0
100
AcDbSymbolTable
 70
    4
  0
LTYPE
  5
14
330
5
100
AcDbSymbolTableRecord
100
AcDbLinetypeTableRecord
  2
ByBlock
 70
    0
  3

 72
   65
 73
    0
 40
0
  0
LTYPE
  5
15
330
5
100
AcDbSymbolTableRecord
100
AcDbLinetypeTableRecord
  2
ByLayer
 70
    0
  3

 72
   65
 73
    0
 40
0
  0
LTYPE
  5
16
330
5
100
AcDbSymbolTableRecord
100
AcDbLinetypeTableRecord
  2
Continuous
 70
    0
  3
Solid line
 72
   65
 73
    0
 40
0
  0
LTYPE
  5
32
330
5
100
AcDbSymbolTableRecord
100
AcDbLinetypeTableRecord
  2
DOT
 70
    0
  3
Dot . . . . . . . . . . . . . . . . . . . . . .
 72
   65
 73
    2
 40
6.35
 49
0
 74
    0
 49
-6.35
 74
    0
  0
LTYPE
  5
33
330
5
100
AcDbSymbolTableRecord
100
AcDbLinetypeTableRecord
  2
DOTTINY
 70
    0
  3
Dot (.15x) .....................................
 72
   65
 73
    2
 40
0.9525
 49
0
 74
    0
 49
-0.9525
 74
    0
  0
LTYPE
  5
34
330
5
100
AcDbSymbolTableRecord
100
AcDbLinetypeTableRecord
  2
DOT2
 70
    0
  3
Dot (.5x) .....................................
 72
   65
 73
    2
 40
3.175
 49
0
 74
    0
 49
-3.175
 74
    0
  0
LTYPE
  5
35
330
5
100
AcDbSymbolTableRecord
100
AcDbLinetypeTableRecord
  2
DOTX2
 70
    0
  3
Dot (2x) .  .  .  .  .  .  .  .  .  .  .  .  .
 72
   65
 73
    2
 40
12.7
 49
0
 74
    0
 49
-12.7
 74
    0
  0
LTYPE
  5
36
330
5
100
AcDbSymbolTableRecord
100
AcDbLinetypeTableRecord
  2
DASHED
 70
    0
  3
Dashed _ _ _ _ _ _ _ _ _ _ _ _ _ _ _ _ _
 72
   65
 73
    2
 40
19.05
 49
12.7
 74
    0
 49
-6.35
 74
    0
  0
LTYPE
  5
37
330
5
100
AcDbSymbolTableRecord
100
AcDbLinetypeTableRecord
  2
DASHEDTINY
 70
    0
  3
Dashed (.15x) _ _ _ _ _ _ _ _ _ _ _ _ _ _ _ _ _
 72
   65
 73
    2
 40
2.8575
 49
1.905
 74
    0
 49
-0.9525
 74
    0
  0
LTYPE
  5
38
330
5
100
AcDbSymbolTableRecord
100
AcDbLinetypeTableRecord
  2
DASHED2
 70
    0
  3
Dashed (.5x) _ _ _ _ _ _ _ _ _ _ _ _ _ _ _ _ _
 72
   65
 73
    2
 40
9.524999999999999
 49
6.35
 74
    0
 49
-3.175
 74
    0
  0
LTYPE
  5
39
330
5
100
AcDbSymbolTableRecord
100
AcDbLinetypeTableRecord
  2
DASHEDX2
 70
    0
  3
Dashed (2x) ____  ____  ____  ____  ____  ___
 72
   65
 73
    2
 40
38.09999999999999
 49
25.4
 74
    0
 49
-12.7
 74
    0
  0
LTYPE
  5
3A
330
5
100
AcDbSymbolTableRecord
100
AcDbLinetypeTableRecord
  2
DASHDOT
 70
    0
  3
Dash dot __ . __ . __ . __ . __ . __ . __ . __
 72
   65
 73
    4
 40
25.4
 49
12.7
 74
    0
 49
-6.35
 74
    0
 49
0
 74
    0
 49
-6.35
 74
    0
  0
LTYPE
  5
3B
330
5
100
AcDbSymbolTableRecord
100
AcDbLinetypeTableRecord
  2
DASHDOTTINY
 70
    0
  3
Dash dot (.15x) _._._._._._._._._._._._._._._.
 72
   65
 73
    4
 40
3.81
 49
1.905
 74
    0
 49
-0.9525
 74
    0
 49
0
 74
    0
 49
-0.9525
 74
    0
  0
LTYPE
  5
3C
330
5
100
AcDbSymbolTableRecord
100
AcDbLinetypeTableRecord
  2
DASHDOT2
 70
    0
  3
Dash dot (.5x) _._._._._._._._._._._._._._._.
 72
   65
 73
    4
 40
12.7
 49
6.35
 74
    0
 49
-3.175
 74
    0
 49
0
 74
    0
 49
-3.175
 74
    0
  0
LTYPE
  5
3D
330
5
100
AcDbSymbolTableRecord
100
AcDbLinetypeTableRecord
  2
DASHDOTX2
 70
    0
  3
Dash dot (2x) ____  .  ____  .  ____  .  ___
 72
   65
 73
    4
 40
50.8
 49
25.4
 74
    0
 49
-12.7
 74
    0
 49
0
 74
    0
 49
-12.7
 74
    0
  0
LTYPE
  5
3E
330
5
100
AcDbSymbolTableRecord
100
AcDbLinetypeTableRecord
  2
DIVIDE
 70
    0
  3
Divide ____ . . ____ . . ____ . . ____ . . ____
 72
   65
 73
    6
 40
31.75
 49
12.7
 74
    0
 49
-6.35
 74
    0
 49
0
 74
    0
 49
-6.35
 74
    0
 49
0
 74
    0
 49
-6.35
 74
    0
  0
LTYPE
  5
3F
330
5
100
AcDbSymbolTableRecord
100
AcDbLinetypeTableRecord
  2
DIVIDETINY
 70
    0
  3
Divide (.15x) __..__..__..__..__..__..__..__.._
 72
   65
 73
    6
 40
4.7625
 49
1.905
 74
    0
 49
-0.9525
 74
    0
 49
0
 74
    0
 49
-0.9525
 74
    0
 49
0
 74
    0
 49
-0.9525
 74
    0
  0
LTYPE
  5
40
330
5
100
AcDbSymbolTableRecord
100
AcDbLinetypeTableRecord
  2
DIVIDE2
 70
    0
  3
Divide (.5x) __..__..__..__..__..__..__..__.._
 72
   65
 73
    6
 40
15.875
 49
6.35
 74
    0
 49
-3.175
 74
    0
 49
0
 74
    0
 49
-3.175
 74
    0
 49
0
 74
    0
 49
-3.175
 74
    0
  0
LTYPE
  5
41
330
5
100
AcDbSymbolTableRecord
100
AcDbLinetypeTableRecord
  2
DIVIDEX2
 70
    0
  3
Divide (2x) ________  .  .  ________  .  .  _
 72
   65
 73
    6
 40
63.5
 49
25.4
 74
    0
 49
-12.7
 74
    0
 49
0
 74
    0
 49
-12.7
 74
    0
 49
0
 74
    0
 49
-12.7
 74
    0
  0
LTYPE
  5
42
330
5
100
AcDbSymbolTableRecord
100
AcDbLinetypeTableRecord
  2
BORDER
 70
    0
  3
Border __ __ . __ __ . __ __ . __ __ . __ __ .
 72
   65
 73
    6
 40
44.45
 49
12.7
 74
    0
 49
-6.35
 74
    0
 49
12.7
 74
    0
 49
-6.35
 74
    0
 49
0
 74
    0
 49
-6.35
 74
    0
  0
LTYPE
  5
43
330
5
100
AcDbSymbolTableRecord
100
AcDbLinetypeTableRecord
  2
BORDERTINY
 70
    0
  3
Border (.15x) __.__.__.__.__.__.__.__.__.__.__.
 72
   65
 73
    6
 40
6.6675
 49
1.905
 74
    0
 49
-0.9525
 74
    0
 49
1.905
 74
    0
 49
-0.9525
 74
    0
 49
0
 74
    0
 49
-0.9525
 74
    0
  0
LTYPE
  5
44
330
5
100
AcDbSymbolTableRecord
100
AcDbLinetypeTableRecord
  2
BORDER2
 70
    0
  3
Border (.5x) __.__.__.__.__.__.__.__.__.__.__.
 72
   65
 73
    6
 40
22.225
 49
6.35
 74
    0
 49
-3.175
 74
    0
 49
6.35
 74
    0
 49
-3.175
 74
    0
 49
0
 74
    0
 49
-3.175
 74
    0
  0
LTYPE
  5
45
330
5
100
AcDbSymbolTableRecord
100
AcDbLinetypeTableRecord
  2
BORDERX2
 70
    0
  3
Border (2x) ____  ____  .  ____  ____  .  ___
 72
   65
 73
    6
 40
88.89999999999999
 49
25.4
 74
    0
 49
-12.7
 74
    0
 49
25.4
 74
    0
 49
-12.7
 74
    0
 49
0
 74
    0
 49
-12.7
 74
    0
  0
LTYPE
  5
46
330
5
100
AcDbSymbolTableRecord
100
AcDbLinetypeTableRecord
  2
CENTER
 70
    0
  3
Center ____ _ ____ _ ____ _ ____ _ ____ _ ____
 72
   65
 73
    4
 40
50.8
 49
31.75
 74
    0
 49
-6.35
 74
    0
 49
6.35
 74
    0
 49
-6.35
 74
    0
  0
LTYPE
  5
47
330
5
100
AcDbSymbolTableRecord
100
AcDbLinetypeTableRecord
  2
CENTERTINY
 70
    0
  3
Center (.15x) ___ _ ___ _ ___ _ ___ _ ___ _ ___
 72
   65
 73
    4
 40
7.619999999999999
 49
4.7625
 74
    0
 49
-0.9525
 74
    0
 49
0.9525
 74
    0
 49
-0.9525
 74
    0
  0
LTYPE
  5
48
330
5
100
AcDbSymbolTableRecord
100
AcDbLinetypeTableRecord
  2
CENTER2
 70
    0
  3
Center (.5x) ___ _ ___ _ ___ _ ___ _ ___ _ ___
 72
   65
 73
    4
 40
28.575
 49
19.05
 74
    0
 49
-3.175
 74
    0
 49
3.175
 74
    0
 49
-3.175
 74
    0
  0
LTYPE
  5
49
330
5
100
AcDbSymbolTableRecord
100
AcDbLinetypeTableRecord
  2
CENTERX2
 70
    0
  3
Center (2x) ________  __  ________  __  _____
 72
   65
 73
    4
 40
101.6
 49
63.5
 74
    0
 49
-12.7
 74
    0
 49
12.7
 74
    0
 49
-12.7
 74
    0
  0
ENDTAB
  0
TABLE
  2
LAYER
  5
2
330
0
100
AcDbSymbolTable
 70
    1
  0
LAYER
  5
10
330
2
100
AcDbSymbolTableRecord
100
AcDbLayerTableRecord
  2
0
 70
    0
 62
    7
  6
DOTTINY
370
   13
390
F
  0
LAYER
  5
4A
330
2
100
AcDbSymbolTableRecord
100
AcDbLayerTableRecord
  2
axis
 70
    0
 62
    8
  6
CONTINUOUS
370
   35
390
F
  0
LAYER
  5
4B
330
2
100
AcDbSymbolTableRecord
100
AcDbLayerTableRecord
  2
delim
 70
    0
 62
  253
420
10526884
  6
DASHEDTINY
370
   13
390
F
  0
LAYER
  5
4C
330
2
100
AcDbSymbolTableRecord
100
AcDbLayerTableRecord
  2
ic
 70
    0
 62
  216
420
8388736
  6
CONTINUOUS
370
   35
390
F
  0
LAYER
  5
4D
330
2
100
AcDbSymbolTableRecord
100
AcDbLayerTableRecord
  2
icg
 70
    0
 62
  136
420
32896
  6
CONTINUOUS
370
   50
390
F
  0
LAYER
  5
4E
330
2
100
AcDbSymbolTableRecord
100
AcDbLayerTableRecord
  2
idiscg
 70
    0
 62
    4
  6
DASHEDTINY
370
   50
390
F
  0
LAYER
  5
4F
330
2
100
AcDbSymbolTableRecord
100
AcDbLayerTableRecord
  2
mcmp
 70
    0
 62
    7
  6
DASHEDTINY
370
   25
390
F
  0
LAYER
  5
50
330
2
100
AcDbSymbolTableRecord
100
AcDbLayerTableRecord
  2
sample
 70
    0
 62
    1
  6
CONTINUOUS
370
  140
390
F
  0
LAYER
  5
51
330
2
100
AcDbSymbolTableRecord
100
AcDbLayerTableRecord
  2
sig
 70
    0
 62
    6
  6
CONTINUOUS
370
   50
390
F
  0
LAYER
  5
52
330
2
100
AcDbSymbolTableRecord
100
AcDbLayerTableRecord
  2
txt
 70
    0
 62
    7
  6
CONTINUOUS
370
   35
390
F
  0
ENDTAB
  0
TABLE
  2
STYLE
  5
3
330
0
100
AcDbSymbolTable
 70
    3
  0
STYLE
  5
53
330
2
100
AcDbSymbolTableRecord
100
AcDbTextStyleTableRecord
  2
romanp
 70
    0
 40
0
 41
1
 50
0
 71
    0
 42
1
  3
romanp
  4

  0
STYLE
  5
54
330
2
100
AcDbSymbolTableRecord
100
AcDbTextStyleTableRecord
  2
italicc
 70
    0
 40
0
 41
1
 50
0
 71
    0
 42
1
  3
italicc
  4

  0
STYLE
  5
55
330
2
100
AcDbSymbolTableRecord
100
AcDbTextStyleTableRecord
  2
Standard
 70
    0
 40
0
 41
1
 50
0
 71
    0
 42
1
  3
txt
  4

  0
ENDTAB
  0
TABLE
  2
VIEW
  5
6
330
0
100
AcDbSymbolTable
 70
    0
  0
ENDTAB
  0
TABLE
  2
UCS
  5
7
330
0
100
AcDbSymbolTable
 70
    0
  0
ENDTAB
  0
TABLE
  2
APPID
  5
9
330
0
100
AcDbSymbolTable
 70
    1
  0
APPID
  5
12
330
9
100
AcDbSymbolTableRecord
100
AcDbRegAppTableRecord
  2
ACAD
 70
    0
  0
APPID
  5
56
330
9
100
AcDbSymbolTableRecord
100
AcDbRegAppTableRecord
  2
LibreCad
 70
    0
  0
ENDTAB
  0
TABLE
  2
DIMSTYLE
  5
A
330
0
100
AcDbSymbolTable
 70
    1
100
AcDbDimStyleTable
 71
    1
  0
DIMSTYLE
105
57
330
A
100
AcDbSymbolTableRecord
100
AcDbDimStyleTableRecord
  2
Standard
 70
    0
 40
1
 41
0.015
 42
0.625
 43
0.38
 44
1.25
 45
0
 46
0
 47
0
 48
0
 49
1
140
1
141
0.09
142
0
143
25.4
144
1
145
0
146
1
147
0.625
148
0
 71
    0
 72
    0
 73
    0
 74
    1
 75
    0
 76
    0
 77
    0
 78
    1
 79
    0
170
    0
171
    2
172
    0
173
    0
174
    0
175
    0
176
    0
177
    0
178
    0
179
    2
271
    4
272
    4
273
    2
274
    2
275
    0
276
    0
277
    2
278
   44
279
    0
280
    0
281
    0
282
    0
283
    1
284
    0
285
    0
286
    0
288
    0
289
    3
340
standard
341

371
   -2
372
   -2
  0
ENDTAB
  0
TABLE
  2
BLOCK_RECORD
  5
1
330
0
100
AcDbSymbolTable
 70
    2
  0
BLOCK_RECORD
  5
1F
330
1
100
AcDbSymbolTableRecord
100
AcDbBlockTableRecord
  2
*Model_Space
 70
    0
280
    1
281
    0
  0
BLOCK_RECORD
  5
1E
330
1
100
AcDbSymbolTableRecord
100
AcDbBlockTableRecord
  2
*Paper_Space
 70
    0
280
    1
281
    0
  0
BLOCK_RECORD
  5
58
330
1
100
AcDbSymbolTableRecord
100
AcDbBlockTableRecord
  2
*D6
 70
    0
280
    1
281
    0
  0
BLOCK_RECORD
  5
5B
330
1
100
AcDbSymbolTableRecord
100
AcDbBlockTableRecord
  2
*D21
 70
    0
280
    1
281
    0
  0
BLOCK_RECORD
  5
5E
330
1
100
AcDbSymbolTableRecord
100
AcDbBlockTableRecord
  2
*D2
 70
    0
280
    1
281
    0
  0
BLOCK_RECORD
  5
61
330
1
100
AcDbSymbolTableRecord
100
AcDbBlockTableRecord
  2
*D23
 70
    0
280
    1
281
    0
  0
BLOCK_RECORD
  5
64
330
1
100
AcDbSymbolTableRecord
100
AcDbBlockTableRecord
  2
*D3
 70
    0
280
    1
281
    0
  0
BLOCK_RECORD
  5
67
330
1
100
AcDbSymbolTableRecord
100
AcDbBlockTableRecord
  2
*D12
 70
    0
280
    1
281
    0
  0
BLOCK_RECORD
  5
6A
330
1
100
AcDbSymbolTableRecord
100
AcDbBlockTableRecord
  2
*D18
 70
    0
280
    1
281
    0
  0
BLOCK_RECORD
  5
6D
330
1
100
AcDbSymbolTableRecord
100
AcDbBlockTableRecord
  2
*D11
 70
    0
280
    1
281
    0
  0
BLOCK_RECORD
  5
70
330
1
100
AcDbSymbolTableRecord
100
AcDbBlockTableRecord
  2
*D8
 70
    0
280
    1
281
    0
  0
BLOCK_RECORD
  5
73
330
1
100
AcDbSymbolTableRecord
100
AcDbBlockTableRecord
  2
*D20
 70
    0
280
    1
281
    0
  0
BLOCK_RECORD
  5
76
330
1
100
AcDbSymbolTableRecord
100
AcDbBlockTableRecord
  2
*D15
 70
    0
280
    1
281
    0
  0
BLOCK_RECORD
  5
79
330
1
100
AcDbSymbolTableRecord
100
AcDbBlockTableRecord
  2
*D17
 70
    0
280
    1
281
    0
  0
BLOCK_RECORD
  5
7C
330
1
100
AcDbSymbolTableRecord
100
AcDbBlockTableRecord
  2
*D10
 70
    0
280
    1
281
    0
  0
BLOCK_RECORD
  5
7F
330
1
100
AcDbSymbolTableRecord
100
AcDbBlockTableRecord
  2
*D22
 70
    0
280
    1
281
    0
  0
BLOCK_RECORD
  5
82
330
1
100
AcDbSymbolTableRecord
100
AcDbBlockTableRecord
  2
*D4
 70
    0
280
    1
281
    0
  0
BLOCK_RECORD
  5
85
330
1
100
AcDbSymbolTableRecord
100
AcDbBlockTableRecord
  2
*D14
 70
    0
280
    1
281
    0
  0
BLOCK_RECORD
  5
88
330
1
100
AcDbSymbolTableRecord
100
AcDbBlockTableRecord
  2
*D1
 70
    0
280
    1
281
    0
  0
BLOCK_RECORD
  5
8B
330
1
100
AcDbSymbolTableRecord
100
AcDbBlockTableRecord
  2
*D13
 70
    0
280
    1
281
    0
  0
BLOCK_RECORD
  5
8E
330
1
100
AcDbSymbolTableRecord
100
AcDbBlockTableRecord
  2
*D16
 70
    0
280
    1
281
    0
  0
BLOCK_RECORD
  5
91
330
1
100
AcDbSymbolTableRecord
100
AcDbBlockTableRecord
  2
*D7
 70
    0
280
    1
281
    0
  0
BLOCK_RECORD
  5
94
330
1
100
AcDbSymbolTableRecord
100
AcDbBlockTableRecord
  2
*D9
 70
    0
280
    1
281
    0
  0
BLOCK_RECORD
  5
97
330
1
100
AcDbSymbolTableRecord
100
AcDbBlockTableRecord
  2
*D19
 70
    0
280
    1
281
    0
  0
BLOCK_RECORD
  5
9A
330
1
100
AcDbSymbolTableRecord
100
AcDbBlockTableRecord
  2
*D5
 70
    0
280
    1
281
    0
  0
ENDTAB
  0
ENDSEC
  0
SECTION
  2
BLOCKS
  0
BLOCK
  5
20
330
1F
100
AcDbEntity
  8
0
100
AcDbBlockBegin
  2
*Model_Space
 70
    0
 10
0
 20
0
 30
0
  3
*Model_Space
  1

  0
ENDBLK
  5
21
330
1F
100
AcDbEntity
  8
0
100
AcDbBlockEnd
  0
BLOCK
  5
1C
330
1B
100
AcDbEntity
  8
0
100
AcDbBlockBegin
  2
*Paper_Space
 70
    0
 10
0
 20
0
 30
0
  3
*Paper_Space
  1

  0
ENDBLK
  5
1D
330
1F
100
AcDbEntity
  8
0
100
AcDbBlockEnd
  0
BLOCK
  5
59
330
58
100
AcDbEntity
  8
0
100
AcDbBlockBegin
  2
*D6
 70
    1
 10
0
 20
0
  3
*D6
  1

  0
LINE
  5
9D
100
AcDbEntity
  8
axis
  6
CONTINUOUS
 62
    7
370
    0
100
AcDbLine
 10
6.938893903907228e-18
 20
0.6900000000000002
 11
-2.949029909160571e-17
 21
0.5700000000000001
  0
SOLID
  5
9E
100
AcDbEntity
  8
axis
  6
CONTINUOUS
 62
    7
370
    0
100
AcDbTrace
 10
6.938893903907228e-18
 20
0.6900000000000002
 30
0
 11
0.002497707946637046
 21
0.6750000000000002
 31
0
 12
-0.00249770794663704
 22
0.6750000000000002
 32
0
 13
-0.00249770794663704
 23
0.6750000000000002
 33
0
  0
ENDBLK
  5
5A
330
58
100
AcDbEntity
  8
0
100
AcDbBlockEnd
  0
BLOCK
  5
5C
330
5B
100
AcDbEntity
  8
0
100
AcDbBlockBegin
  2
*D21
 70
    1
 10
0
 20
0
  3
*D21
  1

  0
LINE
  5
9F
100
AcDbEntity
  8
axis
  6
CONTINUOUS
 62
    7
370
    0
100
AcDbLine
 10
0.708
 20
-0.7908000000000008
 11
8.847089727481715e-17
 21
-0.7908000000000008
  0
SOLID
  5
A0
100
AcDbEntity
  8
axis
  6
CONTINUOUS
 62
    7
370
    0
100
AcDbTrace
 10
0.708
 20
-0.7908000000000008
 30
0
 11
0.6929999999999999
 21
-0.7932977079466379
 31
0
 12
0.6929999999999999
 22
-0.7883022920533638
 32
0
 13
0.6929999999999999
 23
-0.7883022920533638
 33
0
  0
ENDBLK
  5
5D
330
5B
100
AcDbEntity
  8
0
100
AcDbBlockEnd
  0
BLOCK
  5
5F
330
5E
100
AcDbEntity
  8
0
100
AcDbBlockBegin
  2
*D2
 70
    1
 10
0
 20
0
  3
*D2
  1

  0
LINE
  5
A1
100
AcDbEntity
  8
axis
  6
CONTINUOUS
 62
    7
370
    0
100
AcDbLine
 10
0.708
 20
0.21
 11
8.673617379884039e-18
 21
0.21
  0
SOLID
  5
A2
100
AcDbEntity
  8
axis
  6
CONTINUOUS
 62
    7
370
    0
100
AcDbTrace
 10
0.708
 20
0.21
 30
0
 11
0.6929999999999999
 21
0.207502292053363
 31
0
 12
0.6929999999999999
 22
0.212497707946637
 32
0
 13
0.6929999999999999
 23
0.212497707946637
 33
0
  0
ENDBLK
  5
60
330
5E
100
AcDbEntity
  8
0
100
AcDbBlockEnd
  0
BLOCK
  5
62
330
61
100
AcDbEntity
  8
0
100
AcDbBlockBegin
  2
*D23
 70
    1
 10
0
 20
0
  3
*D23
  1

  0
LINE
  5
A3
100
AcDbEntity
  8
axis
  6
CONTINUOUS
 62
    7
370
    0
100
AcDbLine
 10
2.255140518769848e-17
 20
-0.9080000000000004
 11
8.847089727481715e-17
 21
-1.016000000000001
  0
SOLID
  5
A4
100
AcDbEntity
  8
axis
  6
CONTINUOUS
 62
    7
370
    0
100
AcDbTrace
 10
2.255140518769848e-17
 20
-0.9080000000000004
 30
0
 11
0.002497707946637074
 21
-0.9230000000000004
 31
0
 12
-0.002497707946637011
 22
-0.9230000000000004
 32
0
 13
-0.002497707946637011
 23
-0.9230000000000004
 33
0
  0
ENDBLK
  5
63
330
61
100
AcDbEntity
  8
0
100
AcDbBlockEnd
  0
BLOCK
  5
65
330
64
100
AcDbEntity
  8
0
100
AcDbBlockBegin
  2
*D3
 70
    1
 10
0
 20
0
  3
*D3
  1

  0
LINE
  5
A5
100
AcDbEntity
  8
axis
  6
CONTINUOUS
 62
    7
370
    0
100
AcDbLine
 10
2.60208521396521e-17
 20
0.51
 11
-1.040834085586084e-17
 21
0.39
  0
SOLID
  5
A6
100
AcDbEntity
  8
axis
  6
CONTINUOUS
 62
    7
370
    0
100
AcDbTrace
 10
2.60208521396521e-17
 20
0.51
 30
0
 11
0.002497707946637065
 21
0.495
 31
0
 12
-0.002497707946637021
 22
0.495
 32
0
 13
-0.002497707946637021
 23
0.495
 33
0
  0
ENDBLK
  5
66
330
64
100
AcDbEntity
  8
0
100
AcDbBlockEnd
  0
BLOCK
  5
68
330
67
100
AcDbEntity
  8
0
100
AcDbBlockBegin
  2
*D12
 70
    1
 10
0
 20
0
  3
*D12
  1

  0
LINE
  5
A7
100
AcDbEntity
  8
axis
  6
CONTINUOUS
 62
    7
370
    0
100
AcDbLine
 10
-1.734723475976807e-18
 20
-0.4300000000000001
 11
-1.734723475976807e-18
 21
-0.4900000000000002
  0
SOLID
  5
A8
100
AcDbEntity
  8
axis
  6
CONTINUOUS
 62
    7
370
    0
100
AcDbTrace
 10
-1.734723475976807e-18
 20
-0.4300000000000001
 30
0
 11
0.00249770794663704
 21
-0.4450000000000001
 31
0
 12
-0.002497707946637045
 22
-0.4450000000000001
 32
0
 13
-0.002497707946637045
 23
-0.4450000000000001
 33
0
  0
ENDBLK
  5
69
330
67
100
AcDbEntity
  8
0
100
AcDbBlockEnd
  0
BLOCK
  5
6B
330
6A
100
AcDbEntity
  8
0
100
AcDbBlockBegin
  2
*D18
 70
    1
 10
0
 20
0
  3
*D18
  1

  0
LINE
  5
A9
100
AcDbEntity
  8
axis
  6
CONTINUOUS
 62
    7
370
    0
100
AcDbLine
 10
2.60208521396521e-17
 20
-0.8180000000000003
 11
2.60208521396521e-17
 21
-0.8780000000000003
  0
SOLID
  5
AA
100
AcDbEntity
  8
axis
  6
CONTINUOUS
 62
    7
370
    0
100
AcDbTrace
 10
2.60208521396521e-17
 20
-0.8180000000000003
 30
0
 11
0.002497707946637068
 21
-0.8330000000000003
 31
0
 12
-0.002497707946637018
 22
-0.8330000000000003
 32
0
 13
-0.002497707946637018
 23
-0.8330000000000003
 33
0
  0
ENDBLK
  5
6C
330
6A
100
AcDbEntity
  8
0
100
AcDbBlockEnd
  0
BLOCK
  5
6E
330
6D
100
AcDbEntity
  8
0
100
AcDbBlockBegin
  2
*D11
 70
    1
 10
0
 20
0
  3
*D11
  1

  0
LINE
  5
AB
100
AcDbEntity
  8
axis
  6
CONTINUOUS
 62
    7
370
    0
100
AcDbLine
 10
3.642919299551294e-17
 20
0.13
 11
0
 21
0.009999999999999981
  0
SOLID
  5
AC
100
AcDbEntity
  8
axis
  6
CONTINUOUS
 62
    7
370
    0
100
AcDbTrace
 10
3.642919299551294e-17
 20
0.13
 30
0
 11
0.002497707946637075
 21
0.115
 31
0
 12
-0.002497707946637011
 22
0.115
 32
0
 13
-0.002497707946637011
 23
0.115
 33
0
  0
ENDBLK
  5
6F
330
6D
100
AcDbEntity
  8
0
100
AcDbBlockEnd
  0
BLOCK
  5
71
330
70
100
AcDbEntity
  8
0
100
AcDbBlockBegin
  2
*D8
 70
    1
 10
0
 20
0
  3
*D8
  1

  0
LINE
  5
AD
100
AcDbEntity
  8
axis
  6
CONTINUOUS
 62
    7
370
    0
100
AcDbLine
 10
0.708
 20
-0.17
 11
5.204170427930421e-18
 21
-0.17
  0
SOLID
  5
AE
100
AcDbEntity
  8
axis
  6
CONTINUOUS
 62
    7
370
    0
100
AcDbTrace
 10
0.708
 20
-0.17
 30
0
 11
0.6929999999999999
 21
-0.172497707946637
 31
0
 12
0.6929999999999999
 22
-0.167502292053363
 32
0
 13
0.6929999999999999
 23
-0.167502292053363
 33
0
  0
ENDBLK
  5
72
330
70
100
AcDbEntity
  8
0
100
AcDbBlockEnd
  0
BLOCK
  5
74
330
73
100
AcDbEntity
  8
0
100
AcDbBlockBegin
  2
*D20
 70
    1
 10
0
 20
0
  3
*D20
  1

  0
LINE
  5
AF
100
AcDbEntity
  8
axis
  6
CONTINUOUS
 62
    7
370
    0
100
AcDbLine
 10
2.60208521396521e-17
 20
-0.7304000000000004
 11
2.60208521396521e-17
 21
-0.7904000000000004
  0
SOLID
  5
B0
100
AcDbEntity
  8
axis
  6
CONTINUOUS
 62
    7
370
    0
100
AcDbTrace
 10
2.60208521396521e-17
 20
-0.7304000000000004
 30
0
 11
0.002497707946637068
 21
-0.7454000000000004
 31
0
 12
-0.002497707946637018
 22
-0.7454000000000004
 32
0
 13
-0.002497707946637018
 23
-0.7454000000000004
 33
0
  0
ENDBLK
  5
75
330
73
100
AcDbEntity
  8
0
100
AcDbBlockEnd
  0
BLOCK
  5
77
330
76
100
AcDbEntity
  8
0
100
AcDbBlockBegin
  2
*D15
 70
    1
 10
0
 20
0
  3
*D15
  1

  0
LINE
  5
B1
100
AcDbEntity
  8
axis
  6
CONTINUOUS
 62
    7
370
    0
100
AcDbLine
 10
0.708
 20
-0.4028000000000005
 11
6.071532165918825e-17
 21
-0.4028000000000005
  0
SOLID
  5
B2
100
AcDbEntity
  8
axis
  6
CONTINUOUS
 62
    7
370
    0
100
AcDbTrace
 10
0.708
 20
-0.4028000000000005
 30
0
 11
0.6929999999999999
 21
-0.4052977079466376
 31
0
 12
0.6929999999999999
 22
-0.4003022920533634
 32
0
 13
0.6929999999999999
 23
-0.4003022920533634
 33
0
  0
ENDBLK
  5
78
330
76
100
AcDbEntity
  8
0
100
AcDbBlockEnd
  0
BLOCK
  5
7A
330
79
100
AcDbEntity
  8
0
100
AcDbBlockBegin
  2
*D17
 70
    1
 10
0
 20
0
  3
*D17
  1

  0
LINE
  5
B3
100
AcDbEntity
  8
axis
  6
CONTINUOUS
 62
    7
370
    0
100
AcDbLine
 10
-5.204170427930418e-18
 20
-0.52
 11
6.071532165918825e-17
 21
-0.6280000000000006
  0
SOLID
  5
B4
100
AcDbEntity
  8
axis
  6
CONTINUOUS
 62
    7
370
    0
100
AcDbTrace
 10
-5.204170427930418e-18
 20
-0.52
 30
0
 11
0.002497707946637047
 21
-0.535
 31
0
 12
-0.002497707946637039
 22
-0.535
 32
0
 13
-0.002497707946637039
 23
-0.535
 33
0
  0
ENDBLK
  5
7B
330
79
100
AcDbEntity
  8
0
100
AcDbBlockEnd
  0
BLOCK
  5
7D
330
7C
100
AcDbEntity
  8
0
100
AcDbBlockBegin
  2
*D10
 70
    1
 10
0
 20
0
  3
*D10
  1

  0
LINE
  5
B5
100
AcDbEntity
  8
axis
  6
CONTINUOUS
 62
    7
370
    0
100
AcDbLine
 10
0.708
 20
0.009999999999999981
 11
0
 21
0.009999999999999981
  0
SOLID
  5
B6
100
AcDbEntity
  8
axis
  6
CONTINUOUS
 62
    7
370
    0
100
AcDbTrace
 10
0.708
 20
0.009999999999999981
 30
0
 11
0.6929999999999999
 21
0.007502292053362939
 31
0
 12
0.6929999999999999
 22
0.01249770794663702
 32
0
 13
0.6929999999999999
 23
0.01249770794663702
 33
0
  0
ENDBLK
  5
7E
330
7C
100
AcDbEntity
  8
0
100
AcDbBlockEnd
  0
BLOCK
  5
80
330
7F
100
AcDbEntity
  8
0
100
AcDbBlockBegin
  2
*D22
 70
    1
 10
0
 20
0
  3
*D22
  1

  0
LINE
  5
B7
100
AcDbEntity
  8
axis
  6
CONTINUOUS
 62
    7
370
    0
100
AcDbLine
 10
0.708
 20
-1.016000000000001
 11
8.847089727481715e-17
 21
-1.016000000000001
  0
SOLID
  5
B8
100
AcDbEntity
  8
axis
  6
CONTINUOUS
 62
    7
370
    0
100
AcDbTrace
 10
0.708
 20
-1.016000000000001
 30
0
 11
0.6929999999999999
 21
-1.018497707946638
 31
0
 12
0.6929999999999999
 22
-1.013502292053364
 32
0
 13
0.6929999999999999
 23
-1.013502292053364
 33
0
  0
ENDBLK
  5
81
330
7F
100
AcDbEntity
  8
0
100
AcDbBlockEnd
  0
BLOCK
  5
83
330
82
100
AcDbEntity
  8
0
100
AcDbBlockBegin
  2
*D4
 70
    1
 10
0
 20
0
  3
*D4
  1

  0
LINE
  5
B9
100
AcDbEntity
  8
axis
  6
CONTINUOUS
 62
    7
370
    0
100
AcDbLine
 10
0.708
 20
0.39
 11
-1.040834085586084e-17
 21
0.39
  0
SOLID
  5
BA
100
AcDbEntity
  8
axis
  6
CONTINUOUS
 62
    7
370
    0
100
AcDbTrace
 10
0.708
 20
0.39
 30
0
 11
0.6929999999999999
 21
0.387502292053363
 31
0
 12
0.6929999999999999
 22
0.3924977079466371
 32
0
 13
0.6929999999999999
 23
0.3924977079466371
 33
0
  0
ENDBLK
  5
84
330
82
100
AcDbEntity
  8
0
100
AcDbBlockEnd
  0
BLOCK
  5
86
330
85
100
AcDbEntity
  8
0
100
AcDbBlockBegin
  2
*D14
 70
    1
 10
0
 20
0
  3
*D14
  1

  0
LINE
  5
BB
100
AcDbEntity
  8
axis
  6
CONTINUOUS
 62
    7
370
    0
100
AcDbLine
 10
-1.734723475976807e-18
 20
-0.3424000000000002
 11
-1.734723475976807e-18
 21
-0.4024000000000003
  0
SOLID
  5
BC
100
AcDbEntity
  8
axis
  6
CONTINUOUS
 62
    7
370
    0
100
AcDbTrace
 10
-1.734723475976807e-18
 20
-0.3424000000000002
 30
0
 11
0.00249770794663704
 21
-0.3574000000000002
 31
0
 12
-0.002497707946637045
 22
-0.3574000000000002
 32
0
 13
-0.002497707946637045
 23
-0.3574000000000002
 33
0
  0
ENDBLK
  5
87
330
85
100
AcDbEntity
  8
0
100
AcDbBlockEnd
  0
BLOCK
  5
89
330
88
100
AcDbEntity
  8
0
100
AcDbBlockBegin
  2
*D1
 70
    1
 10
0
 20
0
  3
*D1
  1

  0
LINE
  5
BD
100
AcDbEntity
  8
axis
  6
CONTINUOUS
 62
    7
370
    0
100
AcDbLine
 10
4.510281037539697e-17
 20
0.3300000000000001
 11
8.673617379884039e-18
 21
0.21
  0
SOLID
  5
BE
100
AcDbEntity
  8
axis
  6
CONTINUOUS
 62
    7
370
    0
100
AcDbTrace
 10
4.510281037539697e-17
 20
0.3300000000000001
 30
0
 11
0.002497707946637084
 21
0.3150000000000001
 31
0
 12
-0.002497707946637002
 22
0.3150000000000001
 32
0
 13
-0.002497707946637002
 23
0.3150000000000001
 33
0
  0
ENDBLK
  5
8A
330
88
100
AcDbEntity
  8
0
100
AcDbBlockEnd
  0
BLOCK
  5
8C
330
8B
100
AcDbEntity
  8
0
100
AcDbBlockBegin
  2
*D13
 70
    1
 10
0
 20
0
  3
*D13
  1

  0
LINE
  5
BF
100
AcDbEntity
  8
axis
  6
CONTINUOUS
 62
    7
370
    0
100
AcDbLine
 10
0.708
 20
-0.4904000000000004
 11
6.071532165918825e-17
 21
-0.4904000000000004
  0
SOLID
  5
C0
100
AcDbEntity
  8
axis
  6
CONTINUOUS
 62
    7
370
    0
100
AcDbTrace
 10
0.708
 20
-0.4904000000000004
 30
0
 11
0.6929999999999999
 21
-0.4928977079466375
 31
0
 12
0.6929999999999999
 22
-0.4879022920533633
 32
0
 13
0.6929999999999999
 23
-0.4879022920533633
 33
0
  0
ENDBLK
  5
8D
330
8B
100
AcDbEntity
  8
0
100
AcDbBlockEnd
  0
BLOCK
  5
8F
330
8E
100
AcDbEntity
  8
0
100
AcDbBlockBegin
  2
*D16
 70
    1
 10
0
 20
0
  3
*D16
  1

  0
LINE
  5
C1
100
AcDbEntity
  8
axis
  6
CONTINUOUS
 62
    7
370
    0
100
AcDbLine
 10
0.708
 20
-0.6280000000000006
 11
6.071532165918825e-17
 21
-0.6280000000000006
  0
SOLID
  5
C2
100
AcDbEntity
  8
axis
  6
CONTINUOUS
 62
    7
370
    0
100
AcDbTrace
 10
0.708
 20
-0.6280000000000006
 30
0
 11
0.6929999999999999
 21
-0.6304977079466376
 31
0
 12
0.6929999999999999
 22
-0.6255022920533635
 32
0
 13
0.6929999999999999
 23
-0.6255022920533635
 33
0
  0
ENDBLK
  5
90
330
8E
100
AcDbEntity
  8
0
100
AcDbBlockEnd
  0
BLOCK
  5
92
330
91
100
AcDbEntity
  8
0
100
AcDbBlockBegin
  2
*D7
 70
    1
 10
0
 20
0
  3
*D7
  1

  0
LINE
  5
C3
100
AcDbEntity
  8
axis
  6
CONTINUOUS
 62
    7
370
    0
100
AcDbLine
 10
2.77555756156289e-17
 20
-0.04999999999999999
 11
-8.673617379884039e-18
 21
-0.17
  0
SOLID
  5
C4
100
AcDbEntity
  8
axis
  6
CONTINUOUS
 62
    7
370
    0
100
AcDbTrace
 10
2.77555756156289e-17
 20
-0.04999999999999999
 30
0
 11
0.002497707946637067
 21
-0.06499999999999999
 31
0
 12
-0.002497707946637019
 22
-0.06499999999999999
 32
0
 13
-0.002497707946637019
 23
-0.06499999999999999
 33
0
  0
ENDBLK
  5
93
330
91
100
AcDbEntity
  8
0
100
AcDbBlockEnd
  0
BLOCK
  5
95
330
94
100
AcDbEntity
  8
0
100
AcDbBlockBegin
  2
*D9
 70
    1
 10
0
 20
0
  3
*D9
  1

  0
ENDBLK
  5
96
330
94
100
AcDbEntity
  8
0
100
AcDbBlockEnd
  0
BLOCK
  5
98
330
97
100
AcDbEntity
  8
0
100
AcDbBlockBegin
  2
*D19
 70
    1
 10
0
 20
0
  3
*D19
  1

  0
LINE
  5
C5
100
AcDbEntity
  8
axis
  6
CONTINUOUS
 62
    7
370
    0
100
AcDbLine
 10
0.708
 20
-0.8784000000000007
 11
8.847089727481715e-17
 21
-0.8784000000000007
  0
SOLID
  5
C6
100
AcDbEntity
  8
axis
  6
CONTINUOUS
 62
    7
370
    0
100
AcDbTrace
 10
0.708
 20
-0.8784000000000007
 30
0
 11
0.6929999999999999
 21
-0.8808977079466378
 31
0
 12
0.6929999999999999
 22
-0.8759022920533637
 32
0
 13
0.6929999999999999
 23
-0.8759022920533637
 33
0
  0
ENDBLK
  5
99
330
97
100
AcDbEntity
  8
0
100
AcDbBlockEnd
  0
BLOCK
  5
9B
330
9A
100
AcDbEntity
  8
0
100
AcDbBlockBegin
  2
*D5
 70
    1
 10
0
 20
0
  3
*D5
  1

  0
LINE
  5
C7
100
AcDbEntity
  8
axis
  6
CONTINUOUS
 62
    7
370
    0
100
AcDbLine
 10
0.708
 20
0.5700000000000001
 11
-2.949029909160571e-17
 21
0.5700000000000001
  0
SOLID
  5
C8
100
AcDbEntity
  8
axis
  6
CONTINUOUS
 62
    7
370
    0
100
AcDbTrace
 10
0.708
 20
0.5700000000000001
 30
0
 11
0.6929999999999999
 21
0.567502292053363
 31
0
 12
0.6929999999999999
 22
0.5724977079466371
 32
0
 13
0.6929999999999999
 23
0.5724977079466371
 33
0
  0
ENDBLK
  5
9C
330
9A
100
AcDbEntity
  8
0
100
AcDbBlockEnd
  0
ENDSEC
  0
SECTION
  2
ENTITIES
  0
LINE
  5
C9
100
AcDbEntity
  8
axis
  6
ByLayer
 62
  256
370
   -1
100
AcDbLine
 10
8.673617379884039e-18
 20
0.21
 11
0.708
 21
0.21
  0
LINE
  5
CA
100
AcDbEntity
  8
ic
  6
ByLayer
 62
  256
370
   -1
100
AcDbLine
 10
0.6372
 20
0.30204
 11
0.6372
 21
0.21
  0
LINE
  5
CB
100
AcDbEntity
  8
ic
  6
ByLayer
 62
  256
370
   -1
100
AcDbLine
 10
0.5664
 20
0.3091200000000001
 11
0.5664
 21
0.21
  0
LINE
  5
CC
100
AcDbEntity
  8
ic
  6
ByLayer
 62
  256
370
   -1
100
AcDbLine
 10
0.354
 20
0.29496
 11
0.354
 21
0.21
  0
LINE
  5
CD
100
AcDbEntity
  8
ic
  6
ByLayer
 62
  256
370
   -1
100
AcDbLine
 10
0.1416
 20
0.29496
 11
0.1416
 21
0.21
  0
LINE
  5
CE
100
AcDbEntity
  8
ic
  6
ByLayer
 62
  256
370
   -1
100
AcDbLine
 10
0.0007080000000000086
 20
0.30204
 11
0.07009200000000002
 21
0.30204
  0
LINE
  5
CF
100
AcDbEntity
  8
ic
  6
ByLayer
 62
  256
370
   -1
100
AcDbLine
 10
0.142308
 20
0.29496
 11
0.211692
 21
0.29496
  0
LINE
  5
D0
100
AcDbEntity
  8
ic
  6
ByLayer
 62
  256
370
   -1
100
AcDbLine
 10
0.283908
 20
0.3091200000000001
 11
0.354
 21
0.3091200000000001
  0
LINE
  5
D1
100
AcDbEntity
  8
ic
  6
ByLayer
 62
  256
370
   -1
100
AcDbLine
 10
0.4255080000000001
 20
0.30204
 11
0.4956
 21
0.30204
  0
LINE
  5
D2
100
AcDbEntity
  8
ic
  6
ByLayer
 62
  256
370
   -1
100
AcDbLine
 10
0.4956
 20
0.30204
 11
0.4956
 21
0.308412
  0
LINE
  5
D3
100
AcDbEntity
  8
ic
  6
ByLayer
 62
  256
370
   -1
100
AcDbLine
 10
0.5671079999999999
 20
0.3091200000000001
 11
0.6372
 21
0.3091200000000001
  0
LINE
  5
D4
100
AcDbEntity
  8
ic
  6
ByLayer
 62
  256
370
   -1
100
AcDbLine
 10
0.6372
 20
0.3091200000000001
 11
0.6372
 21
0.302748
  0
LINE
  5
D5
100
AcDbEntity
  8
ic
  6
ByLayer
 62
  256
370
   -1
100
AcDbLine
 10
0.6379079999999999
 20
0.30204
 11
0.708
 21
0.30204
  0
LINE
  5
D6
100
AcDbEntity
  8
ic
  6
ByLayer
 62
  256
370
   -1
100
AcDbLine
 10
0.07150800000000002
 20
0.3091200000000001
 11
0.1416
 21
0.3091200000000001
  0
LINE
  5
D7
100
AcDbEntity
  8
ic
  6
ByLayer
 62
  256
370
   -1
100
AcDbLine
 10
0.213108
 20
0.30204
 11
0.2832000000000001
 21
0.30204
  0
LINE
  5
D8
100
AcDbEntity
  8
ic
  6
ByLayer
 62
  256
370
   -1
100
AcDbLine
 10
0.4963080000000001
 20
0.3162
 11
0.565692
 21
0.3162
  0
LINE
  5
D9
100
AcDbEntity
  8
ic
  6
ByLayer
 62
  256
370
   -1
100
AcDbLine
 10
0.07080000000000002
 20
0.308412
 11
0.07080000000000002
 21
0.30204
  0
LINE
  5
DA
100
AcDbEntity
  8
ic
  6
ByLayer
 62
  256
370
   -1
100
AcDbLine
 10
0.1416
 20
0.30204
 11
0.1416
 21
0.3091200000000001
  0
LINE
  5
DB
100
AcDbEntity
  8
ic
  6
ByLayer
 62
  256
370
   -1
100
AcDbLine
 10
0.2124
 20
0.301332
 11
0.2124
 21
0.29496
  0
LINE
  5
DC
100
AcDbEntity
  8
ic
  6
ByLayer
 62
  256
370
   -1
100
AcDbLine
 10
0.2124
 20
0.29496
 11
0.211692
 21
0.29496
  0
LINE
  5
DD
100
AcDbEntity
  8
ic
  6
ByLayer
 62
  256
370
   -1
100
AcDbLine
 10
0.4956
 20
0.308412
 11
0.4956
 21
0.315492
  0
LINE
  5
DE
100
AcDbEntity
  8
ic
  6
ByLayer
 62
  256
370
   -1
100
AcDbLine
 10
0.565692
 20
0.3162
 11
0.5664
 21
0.3162
  0
LINE
  5
DF
100
AcDbEntity
  8
ic
  6
ByLayer
 62
  256
370
   -1
100
AcDbLine
 10
0.5664
 20
0.3162
 11
0.5664
 21
0.309828
  0
LINE
  5
E0
100
AcDbEntity
  8
ic
  6
ByLayer
 62
  256
370
   -1
100
AcDbLine
 10
0.2832000000000001
 20
0.30204
 11
0.2832000000000001
 21
0.308412
  0
LINE
  5
E1
100
AcDbEntity
  8
ic
  6
ByLayer
 62
  256
370
   -1
100
AcDbLine
 10
0.3547080000000001
 20
0.29496
 11
0.4240920000000001
 21
0.29496
  0
LINE
  5
E2
100
AcDbEntity
  8
ic
  6
ByLayer
 62
  256
370
   -1
100
AcDbLine
 10
0.354
 20
0.3091200000000001
 11
0.354
 21
0.295668
  0
LINE
  5
E3
100
AcDbEntity
  8
ic
  6
ByLayer
 62
  256
370
   -1
100
AcDbLine
 10
0.4956
 20
0.315492
 11
0.4956
 21
0.21
  0
LINE
  5
E4
100
AcDbEntity
  8
ic
  6
ByLayer
 62
  256
370
   -1
100
AcDbLine
 10
0.4248000000000001
 20
0.30204
 11
0.4248000000000001
 21
0.21
  0
LINE
  5
E5
100
AcDbEntity
  8
ic
  6
ByLayer
 62
  256
370
   -1
100
AcDbLine
 10
0.2832000000000001
 20
0.3091200000000001
 11
0.2832000000000001
 21
0.21
  0
LINE
  5
E6
100
AcDbEntity
  8
ic
  6
ByLayer
 62
  256
370
   -1
100
AcDbLine
 10
0.2124
 20
0.30204
 11
0.2124
 21
0.21
  0
LINE
  5
E7
100
AcDbEntity
  8
ic
  6
ByLayer
 62
  256
370
   -1
100
AcDbLine
 10
0.07080000000000002
 20
0.308412
 11
0.07080000000000002
 21
0.21
  0
LINE
  5
E8
100
AcDbEntity
  8
ic
  6
ByLayer
 62
  256
370
   -1
100
AcDbLine
 10
0.1416
 20
0.30204
 11
0.1416
 21
0.295668
  0
LEADER
  5
E9
100
AcDbEntity
  8
axis
  6
ByLayer
 62
  256
370
   -1
100
AcDbLeader
  3
Standard
 71
    1
 72
    0
 73
    3
 74
    0
 75
    0
 40
1
 41
10
 76
2
 76
2
 10
4.510281037539697e-17
 20
0.3300000000000001
 30
0
 10
8.673617379884039e-18
 20
0.21
 30
0
  0
LEADER
  5
EA
100
AcDbEntity
  8
axis
  6
ByLayer
 62
  256
370
   -1
100
AcDbLeader
  3
Standard
 71
    1
 72
    0
 73
    3
 74
    0
 75
    0
 40
1
 41
10
 76
2
 76
2
 10
0.708
 20
0.21
 30
0
 10
8.673617379884039e-18
 20
0.21
 30
0
  0
MTEXT
  5
EB
100
AcDbEntity
  8
txt
  6
ByLayer
 62
  256
370
   -1
100
AcDbMText
 10
0.7140000000000001
 20
0.2174999999999999
 30
0
 40
0.0125
 41
0.005357138888888889
 71
    1
 72
    1
  1
t
  7
italicc
210
0
220
0
230
1
 50
0
 73
    2
 44
1
  0
CIRCLE
  5
EC
100
AcDbEntity
  8
sample
  6
ByLayer
 62
  256
370
   -1
100
AcDbCircle
 10
0.1416
 20
0.29496
 40
0.000708
  0
CIRCLE
  5
ED
100
AcDbEntity
  8
sample
  6
ByLayer
 62
  256
370
   -1
100
AcDbCircle
 10
0.2832000000000001
 20
0.3091200000000001
 40
0.000708
  0
CIRCLE
  5
EE
100
AcDbEntity
  8
sample
  6
ByLayer
 62
  256
370
   -1
100
AcDbCircle
 10
0.4248000000000001
 20
0.30204
 40
0.000708
  0
CIRCLE
  5
EF
100
AcDbEntity
  8
sample
  6
ByLayer
 62
  256
370
   -1
100
AcDbCircle
 10
0.6371999999999999
 20
0.30204
 40
0.000708
  0
CIRCLE
  5
F0
100
AcDbEntity
  8
sample
  6
ByLayer
 62
  256
370
   -1
100
AcDbCircle
 10
0.5663999999999999
 20
0.3091200000000001
 40
0.000708
  0
CIRCLE
  5
F1
100
AcDbEntity
  8
sample
  6
ByLayer
 62
  256
370
   -1
100
AcDbCircle
 10
0.07080000000000002
 20
0.3091200000000001
 40
0.000708
  0
CIRCLE
  5
F2
100
AcDbEntity
  8
sample
  6
ByLayer
 62
  256
370
   -1
100
AcDbCircle
 10
0.2124
 20
0.30204
 40
0.000708
  0
CIRCLE
  5
F3
100
AcDbEntity
  8
sample
  6
ByLayer
 62
  256
370
   -1
100
AcDbCircle
 10
0.4956
 20
0.3161999999999999
 40
0.000708
  0
CIRCLE
  5
F4
100
AcDbEntity
  8
sample
  6
ByLayer
 62
  256
370
   -1
100
AcDbCircle
 10
0.354
 20
0.29496
 40
0.000708
  0
LINE
  5
F5
100
AcDbEntity
  8
axis
  6
ByLayer
 62
  256
370
   -1
100
AcDbLine
 10
-1.040834085586084e-17
 20
0.39
 11
0.708
 21
0.39
  0
LINE
  5
F6
100
AcDbEntity
  8
ic
  6
ByLayer
 62
  256
370
   -1
100
AcDbLine
 10
0.6372
 20
0.4820400000000001
 11
0.6372
 21
0.39
  0
LINE
  5
F7
100
AcDbEntity
  8
ic
  6
ByLayer
 62
  256
370
   -1
100
AcDbLine
 10
0.5664
 20
0.48912
 11
0.5664
 21
0.39
  0
LINE
  5
F8
100
AcDbEntity
  8
ic
  6
ByLayer
 62
  256
370
   -1
100
AcDbLine
 10
0.4956
 20
0.495492
 11
0.4956
 21
0.39
  0
LINE
  5
F9
100
AcDbEntity
  8
ic
  6
ByLayer
 62
  256
370
   -1
100
AcDbLine
 10
0.4248000000000001
 20
0.4820400000000001
 11
0.4248000000000001
 21
0.39
  0
LINE
  5
FA
100
AcDbEntity
  8
ic
  6
ByLayer
 62
  256
370
   -1
100
AcDbLine
 10
0.354
 20
0.47496
 11
0.354
 21
0.39
  0
LINE
  5
FB
100
AcDbEntity
  8
ic
  6
ByLayer
 62
  256
370
   -1
100
AcDbLine
 10
0.2832
 20
0.48912
 11
0.2832
 21
0.39
  0
LINE
  5
FC
100
AcDbEntity
  8
ic
  6
ByLayer
 62
  256
370
   -1
100
AcDbLine
 10
0.2124
 20
0.4820400000000001
 11
0.2124
 21
0.39
  0
LINE
  5
FD
100
AcDbEntity
  8
ic
  6
ByLayer
 62
  256
370
   -1
100
AcDbLine
 10
0.1416
 20
0.47496
 11
0.1416
 21
0.39
  0
LINE
  5
FE
100
AcDbEntity
  8
ic
  6
ByLayer
 62
  256
370
   -1
100
AcDbLine
 10
0.0708
 20
0.4884120000000001
 11
0.0708
 21
0.39
  0
CIRCLE
  5
FF
100
AcDbEntity
  8
sample
  6
ByLayer
 62
  256
370
   -1
100
AcDbCircle
 10
0.1416
 20
0.47496
 40
0.000708
  0
CIRCLE
  5
100
100
AcDbEntity
  8
sample
  6
ByLayer
 62
  256
370
   -1
100
AcDbCircle
 10
0.2832
 20
0.48912
 40
0.000708
  0
CIRCLE
  5
101
100
AcDbEntity
  8
sample
  6
ByLayer
 62
  256
370
   -1
100
AcDbCircle
 10
0.4248000000000001
 20
0.4820400000000001
 40
0.000708
  0
CIRCLE
  5
102
100
AcDbEntity
  8
sample
  6
ByLayer
 62
  256
370
   -1
100
AcDbCircle
 10
0.6372
 20
0.4820400000000001
 40
0.000708
  0
CIRCLE
  5
103
100
AcDbEntity
  8
sample
  6
ByLayer
 62
  256
370
   -1
100
AcDbCircle
 10
0.5664
 20
0.48912
 40
0.000708
  0
CIRCLE
  5
104
100
AcDbEntity
  8
sample
  6
ByLayer
 62
  256
370
   -1
100
AcDbCircle
 10
0.0708
 20
0.48912
 40
0.000708
  0
CIRCLE
  5
105
100
AcDbEntity
  8
sample
  6
ByLayer
 62
  256
370
   -1
100
AcDbCircle
 10
0.2124
 20
0.4820400000000001
 40
0.000708
  0
CIRCLE
  5
106
100
AcDbEntity
  8
sample
  6
ByLayer
 62
  256
370
   -1
100
AcDbCircle
 10
0.4956
 20
0.4962000000000001
 40
0.000708
  0
CIRCLE
  5
107
100
AcDbEntity
  8
sample
  6
ByLayer
 62
  256
370
   -1
100
AcDbCircle
 10
0.354
 20
0.47496
 40
0.000708
  0
LEADER
  5
108
100
AcDbEntity
  8
axis
  6
ByLayer
 62
  256
370
   -1
100
AcDbLeader
  3
Standard
 71
    1
 72
    0
 73
    3
 74
    0
 75
    0
 40
1
 41
10
 76
2
 76
2
 10
2.60208521396521e-17
 20
0.51
 30
0
 10
-1.040834085586084e-17
 20
0.39
 30
0
  0
LEADER
  5
109
100
AcDbEntity
  8
axis
  6
ByLayer
 62
  256
370
   -1
100
AcDbLeader
  3
Standard
 71
    1
 72
    0
 73
    3
 74
    0
 75
    0
 40
1
 41
10
 76
2
 76
2
 10
0.708
 20
0.39
 30
0
 10
-1.040834085586084e-17
 20
0.39
 30
0
  0
MTEXT
  5
10A
100
AcDbEntity
  8
txt
  6
ByLayer
 62
  256
370
   -1
100
AcDbMText
 10
0.7140000000000001
 20
0.3975
 30
0
 40
0.0125
 41
0.005357138888888889
 71
    1
 72
    1
  1
t
  7
italicc
210
0
220
0
230
1
 50
0
 73
    2
 44
1
  0
SPLINE
  5
10B
100
AcDbEntity
  8
0
  6
DOTTINY
 62
  256
370
   -1
100
AcDbSpline
210
0
220
0
230
0
 70
    8
 71
    2
 72
   24
 73
   21
 74
    0
 42
1e-07
 43
1e-07
 40
0
 40
0
 40
0
 40
0.05263157894736842
 40
0.1052631578947368
 40
0.1578947368421053
 40
0.2105263157894737
 40
0.2631578947368421
 40
0.3157894736842105
 40
0.3684210526315789
 40
0.4210526315789473
 40
0.4736842105263158
 40
0.5263157894736842
 40
0.5789473684210527
 40
0.631578947368421
 40
0.6842105263157895
 40
0.7368421052631579
 40
0.7894736842105263
 40
0.8421052631578947
 40
0.8947368421052632
 40
0.9473684210526315
 40
1
 40
1
 40
1
 10
-1.040834085586084e-17
 20
0.4820399999999999
 30
0
 10
0.03377854207909302
 20
0.4902215113809322
 30
0
 10
0.07181040974799009
 20
0.4881006005856342
 30
0
 10
0.1019502104094717
 20
0.4941458753868417
 30
0
 10
0.1409733009718412
 20
0.4703674783677368
 30
0
 10
0.1806914890515405
 20
0.4838650075858749
 30
0
 10
0.2164876319895028
 20
0.4796729064835378
 30
0
 10
0.2515121107611001
 20
0.5007331222362064
 30
0
 10
0.2847783792205703
 20
0.4849433790037594
 30
0
 10
0.319863571911084
 20
0.5025839550923277
 30
0
 10
0.3541325391021816
 20
0.4669866648489922
 30
0
 10
0.3932970008140264
 20
0.4944081436424475
 30
0
 10
0.427313691101168
 20
0.4772012712475306
 30
0
 10
0.4586061873829907
 20
0.4993137771754951
 30
0
 10
0.4974373267612076
 20
0.4952158684855282
 30
0
 10
0.5355688444173504
 20
0.498841273032062
 30
0
 10
0.5678718589991903
 20
0.4855160227864398
 30
0
 10
0.6025496385046859
 20
0.5011961793444561
 30
0
 10
0.6348903267402307
 20
0.4764416889609311
 30
0
 10
0.6813940434024279
 20
0.4966863409940266
 30
0
 10
0.7079999999999999
 20
0.4678799999999999
 30
0
  0
LINE
  5
10C
100
AcDbEntity
  8
axis
  6
ByLayer
 62
  256
370
   -1
100
AcDbLine
 10
-2.949029909160571e-17
 20
0.5700000000000001
 11
0.708
 21
0.5700000000000001
  0
SPLINE
  5
10D
100
AcDbEntity
  8
ic
  6
ByLayer
 62
  256
370
   -1
100
AcDbSpline
210
0
220
0
230
0
 70
    8
 71
    2
 72
   24
 73
   21
 74
    0
 42
1e-07
 43
1e-07
 40
0
 40
0
 40
0
 40
0.05263157894736842
 40
0.1052631578947368
 40
0.1578947368421053
 40
0.2105263157894737
 40
0.2631578947368421
 40
0.3157894736842105
 40
0.3684210526315789
 40
0.4210526315789473
 40
0.4736842105263158
 40
0.5263157894736842
 40
0.5789473684210527
 40
0.631578947368421
 40
0.6842105263157895
 40
0.7368421052631579
 40
0.7894736842105263
 40
0.8421052631578947
 40
0.8947368421052632
 40
0.9473684210526315
 40
1
 40
1
 40
1
 10
-2.949029909160571e-17
 20
0.6620400000000002
 30
0
 10
0.033778542079093
 20
0.6702215113809324
 30
0
 10
0.07181040974799008
 20
0.6681006005856345
 30
0
 10
0.1019502104094717
 20
0.6741458753868419
 30
0
 10
0.1409733009718412
 20
0.6503674783677371
 30
0
 10
0.1806914890515405
 20
0.6638650075858752
 30
0
 10
0.2164876319895028
 20
0.659672906483538
 30
0
 10
0.2515121107611001
 20
0.6807331222362065
 30
0
 10
0.2847783792205703
 20
0.6649433790037595
 30
0
 10
0.319863571911084
 20
0.6825839550923278
 30
0
 10
0.3541325391021816
 20
0.6469866648489924
 30
0
 10
0.3932970008140264
 20
0.6744081436424476
 30
0
 10
0.427313691101168
 20
0.6572012712475308
 30
0
 10
0.4586061873829907
 20
0.6793137771754953
 30
0
 10
0.4974373267612076
 20
0.6752158684855283
 30
0
 10
0.5355688444173504
 20
0.6788412730320621
 30
0
 10
0.5678718589991903
 20
0.6655160227864401
 30
0
 10
0.6025496385046859
 20
0.6811961793444563
 30
0
 10
0.6348903267402307
 20
0.6564416889609312
 30
0
 10
0.6813940434024279
 20
0.6766863409940269
 30
0
 10
0.7079999999999999
 20
0.64788
 30
0
  0
LEADER
  5
10E
100
AcDbEntity
  8
axis
  6
ByLayer
 62
  256
370
   -1
100
AcDbLeader
  3
Standard
 71
    1
 72
    0
 73
    3
 74
    0
 75
    0
 40
1
 41
10
 76
2
 76
2
 10
0.708
 20
0.5700000000000001
 30
0
 10
-2.949029909160571e-17
 20
0.5700000000000001
 30
0
  0
LEADER
  5
10F
100
AcDbEntity
  8
axis
  6
ByLayer
 62
  256
370
   -1
100
AcDbLeader
  3
Standard
 71
    1
 72
    0
 73
    3
 74
    0
 75
    0
 40
1
 41
10
 76
2
 76
2
 10
6.938893903907228e-18
 20
0.6900000000000002
 30
0
 10
-2.949029909160571e-17
 20
0.5700000000000001
 30
0
  0
MTEXT
  5
110
100
AcDbEntity
  8
txt
  6
ByLayer
 62
  256
370
   -1
100
AcDbMText
 10
0.7140000000000001
 20
0.5775
 30
0
 40
0.0125
 41
0.005357138888888889
 71
    1
 72
    1
  1
t
  7
italicc
210
0
220
0
230
1
 50
0
 73
    2
 44
1
  0
MTEXT
  5
111
100
AcDbEntity
  8
txt
  6
ByLayer
 62
  256
370
   -1
100
AcDbMText
 10
0.06
 20
0.3725000000000001
 30
0
 40
0.0125
 41
0.4456846805555556
 71
    1
 72
    1
  1
b) Sampled peak current control input
  7
romanp
210
0
220
0
230
1
 50
0
 73
    2
 44
1
  0
MTEXT
  5
112
100
AcDbEntity
  8
txt
  6
ByLayer
 62
  256
370
   -1
100
AcDbMText
 10
0.06
 20
0.5525
 30
0
 40
0.0125
 41
0.3416668055555556
 71
    1
 72
    1
  1
a) Peak current control input
  7
romanp
210
0
220
0
230
1
 50
0
 73
    2
 44
1
  0
LINE
  5
113
100
AcDbEntity
  8
axis
  6
ByLayer
 62
  256
370
   -1
100
AcDbLine
 10
-8.673617379884039e-18
 20
-0.17
 11
0.708
 21
-0.17
  0
CIRCLE
  5
114
100
AcDbEntity
  8
sample
  6
ByLayer
 62
  256
370
   -1
100
AcDbCircle
 10
0.07079999999999999
 20
-0.1349087104761905
 40
0.000708
  0
CIRCLE
  5
115
100
AcDbEntity
  8
sample
  6
ByLayer
 62
  256
370
   -1
100
AcDbCircle
 10
0.1417226462059577
 20
-0.1105270189966921
 40
0.000708
  0
CIRCLE
  5
116
100
AcDbEntity
  8
sample
  6
ByLayer
 62
  256
370
   -1
100
AcDbCircle
 10
0.2124
 20
-0.1475763493082464
 40
0.000708
  0
CIRCLE
  5
117
100
AcDbEntity
  8
sample
  6
ByLayer
 62
  256
370
   -1
100
AcDbCircle
 10
0.2832000000000001
 20
-0.1143786406498484
 40
0.000708
  0
CIRCLE
  5
118
100
AcDbEntity
  8
sample
  6
ByLayer
 62
  256
370
   -1
100
AcDbCircle
 10
0.354
 20
-0.1227261605322445
 40
0.000708
  0
CIRCLE
  5
119
100
AcDbEntity
  8
sample
  6
ByLayer
 62
  256
370
   -1
100
AcDbCircle
 10
0.4248
 20
-0.1403195456638889
 40
0.000708
  0
CIRCLE
  5
11A
100
AcDbEntity
  8
sample
  6
ByLayer
 62
  256
370
   -1
100
AcDbCircle
 10
0.4955999999999998
 20
-0.1186651760412281
 40
0.000708
  0
CIRCLE
  5
11B
100
AcDbEntity
  8
sample
  6
ByLayer
 62
  256
370
   -1
100
AcDbCircle
 10
0.5663999999999999
 20
-0.1089320397401783
 40
0.000708
  0
CIRCLE
  5
11C
100
AcDbEntity
  8
sample
  6
ByLayer
 62
  256
370
   -1
100
AcDbCircle
 10
0.6371999999999999
 20
-0.1259434237663371
 40
0.000708
  0
LINE
  5
11D
100
AcDbEntity
  8
sig
  6
ByLayer
 62
  256
370
   -1
100
AcDbLine
 10
0.07079999999999999
 20
-0.1356167104761906
 11
0.07079999999999999
 21
-0.17
  0
LINE
  5
11E
100
AcDbEntity
  8
sig
  6
ByLayer
 62
  256
370
   -1
100
AcDbLine
 10
0.1417226462059577
 20
-0.1112350189966921
 11
0.1417226462059577
 21
-0.17
  0
LINE
  5
11F
100
AcDbEntity
  8
sig
  6
ByLayer
 62
  256
370
   -1
100
AcDbLine
 10
0.2124
 20
-0.1482843493082465
 11
0.2124
 21
-0.17
  0
LINE
  5
120
100
AcDbEntity
  8
sig
  6
ByLayer
 62
  256
370
   -1
100
AcDbLine
 10
0.2832000000000001
 20
-0.1150866406498484
 11
0.2832000000000001
 21
-0.17
  0
LINE
  5
121
100
AcDbEntity
  8
sig
  6
ByLayer
 62
  256
370
   -1
100
AcDbLine
 10
0.354
 20
-0.1234341605322445
 11
0.354
 21
-0.17
  0
LINE
  5
122
100
AcDbEntity
  8
sig
  6
ByLayer
 62
  256
370
   -1
100
AcDbLine
 10
0.4248
 20
-0.1410275456638889
 11
0.4248
 21
-0.17
  0
LINE
  5
123
100
AcDbEntity
  8
sig
  6
ByLayer
 62
  256
370
   -1
100
AcDbLine
 10
0.4955999999999998
 20
-0.119373176041228
 11
0.4955999999999998
 21
-0.17
  0
LINE
  5
124
100
AcDbEntity
  8
sig
  6
ByLayer
 62
  256
370
   -1
100
AcDbLine
 10
0.5663999999999999
 20
-0.1096400397401784
 11
0.5663999999999999
 21
-0.17
  0
LINE
  5
125
100
AcDbEntity
  8
sig
  6
ByLayer
 62
  256
370
   -1
100
AcDbLine
 10
0.6371999999999999
 20
-0.1266514237663371
 11
0.6371999999999999
 21
-0.17
  0
LEADER
  5
126
100
AcDbEntity
  8
axis
  6
ByLayer
 62
  256
370
   -1
100
AcDbLeader
  3
Standard
 71
    1
 72
    0
 73
    3
 74
    0
 75
    0
 40
1
 41
10
 76
2
 76
2
 10
2.77555756156289e-17
 20
-0.04999999999999999
 30
0
 10
-8.673617379884039e-18
 20
-0.17
 30
0
  0
LINE
  5
127
100
AcDbEntity
  8
axis
  6
ByLayer
 62
  256
370
   -1
100
AcDbLine
 10
5.204170427930421e-18
 20
-0.17
 11
0.708
 21
-0.17
  0
LEADER
  5
128
100
AcDbEntity
  8
axis
  6
ByLayer
 62
  256
370
   -1
100
AcDbLeader
  3
Standard
 71
    1
 72
    0
 73
    3
 74
    0
 75
    0
 40
1
 41
10
 76
2
 76
2
 10
0.708
 20
-0.17
 30
0
 10
5.204170427930421e-18
 20
-0.17
 30
0
  0
MTEXT
  5
129
100
AcDbEntity
  8
txt
  6
ByLayer
 62
  256
370
   -1
100
AcDbMText
 10
0.7140000000000002
 20
-0.1625000000000001
 30
0
 40
0.0125
 41
0.005357138888888889
 71
    1
 72
    1
  1
t
  7
italicc
210
0
220
0
230
1
 50
0
 73
    2
 44
1
  0
LINE
  5
12A
100
AcDbEntity
  8
axis
  6
ByLayer
 62
  256
370
   -1
100
AcDbLine
 10
0
 20
0.009999999999999981
 11
0.708
 21
0.009999999999999981
  0
LINE
  5
12B
100
AcDbEntity
  8
sig
  6
ByLayer
 62
  256
370
   -1
100
AcDbLine
 10
0
 20
0.06663999999999998
 11
0.03236571428571427
 21
0.08708805142857144
  0
LINE
  5
12C
100
AcDbEntity
  8
sig
  6
ByLayer
 62
  256
370
   -1
100
AcDbLine
 10
0.03236571428571427
 20
0.08708805142857144
 11
0.0708
 21
0.04438328952380947
  0
LINE
  5
12D
100
AcDbEntity
  8
sig
  6
ByLayer
 62
  256
370
   -1
100
AcDbLine
 10
0.1299878495782313
 20
0.08159517551020405
 11
0.1416
 21
0.06869278615268332
  0
LINE
  5
12E
100
AcDbEntity
  8
sig
  6
ByLayer
 62
  256
370
   -1
100
AcDbLine
 10
0.0708
 20
0.04438328952380954
 11
0.1299878495782313
 21
0.08159517551020405
  0
LINE
  5
12F
100
AcDbEntity
  8
sig
  6
ByLayer
 62
  256
370
   -1
100
AcDbLine
 10
0.1417226462059577
 20
0.06876498100330788
 11
0.1656157383746895
 21
0.08369816360876517
  0
LINE
  5
130
100
AcDbEntity
  8
sig
  6
ByLayer
 62
  256
370
   -1
100
AcDbLine
 10
0.1656157383746895
 20
0.08369816360876517
 11
0.2124
 21
0.03171565069175358
  0
LINE
  5
131
100
AcDbEntity
  8
sig
  6
ByLayer
 62
  256
370
   -1
100
AcDbLine
 10
0.2124
 20
0.03171565069175358
 11
0.2766965479389683
 21
0.07213941719574243
  0
LINE
  5
132
100
AcDbEntity
  8
sig
  6
ByLayer
 62
  256
370
   -1
100
AcDbLine
 10
0.2766965479389683
 20
0.07213941719574243
 11
0.2832
 21
0.06491335935015155
  0
LINE
  5
133
100
AcDbEntity
  8
sig
  6
ByLayer
 62
  256
370
   -1
100
AcDbLine
 10
0.2832000000000001
 20
0.06491335935015155
 11
0.3236175000227186
 21
0.09032417277584597
  0
LINE
  5
134
100
AcDbEntity
  8
sig
  6
ByLayer
 62
  256
370
   -1
100
AcDbLine
 10
0.3236175000227186
 20
0.09032417277584597
 11
0.354
 21
0.05656583946775552
  0
LINE
  5
135
100
AcDbEntity
  8
sig
  6
ByLayer
 62
  256
370
   -1
100
AcDbLine
 10
0.3539999999999999
 20
0.05656583946775552
 11
0.3891032324866235
 21
0.07863552935097379
  0
LINE
  5
136
100
AcDbEntity
  8
sig
  6
ByLayer
 62
  256
370
   -1
100
AcDbLine
 10
0.3891032324866235
 20
0.07863552935097379
 11
0.4248
 21
0.03897245433611109
  0
LINE
  5
137
100
AcDbEntity
  8
sig
  6
ByLayer
 62
  256
370
   -1
100
AcDbLine
 10
0.4247999999999999
 20
0.03897245433611109
 11
0.4824617560355557
 21
0.07522487280815442
  0
LINE
  5
138
100
AcDbEntity
  8
sig
  6
ByLayer
 62
  256
370
   -1
100
AcDbLine
 10
0.4824617560355555
 20
0.0752248728081545
 11
0.4956
 21
0.06062682395877189
  0
LINE
  5
139
100
AcDbEntity
  8
sig
  6
ByLayer
 62
  256
370
   -1
100
AcDbLine
 10
0.4955999999999999
 20
0.06062682395877186
 11
0.5464097609519801
 21
0.09257133697984363
  0
LINE
  5
13A
100
AcDbEntity
  8
sig
  6
ByLayer
 62
  256
370
   -1
100
AcDbLine
 10
0.5464097609519801
 20
0.09257133697984363
 11
0.5664
 21
0.07035996025982172
  0
LINE
  5
13B
100
AcDbEntity
  8
sig
  6
ByLayer
 62
  256
370
   -1
100
AcDbLine
 10
0.5664
 20
0.07035996025982155
 11
0.6018377506195918
 21
0.09263996443411651
  0
LINE
  5
13C
100
AcDbEntity
  8
sig
  6
ByLayer
 62
  256
370
   -1
100
AcDbLine
 10
0.6018377506195918
 20
0.09263996443411651
 11
0.6372
 21
0.05334857623366301
  0
LINE
  5
13D
100
AcDbEntity
  8
sig
  6
ByLayer
 62
  256
370
   -1
100
AcDbLine
 10
0.6372
 20
0.05334857623366297
 11
0.6817178731577941
 21
0.08133732784584993
  0
LINE
  5
13E
100
AcDbEntity
  8
sig
  6
ByLayer
 62
  256
370
   -1
100
AcDbLine
 10
0.6817178731577941
 20
0.08133732784584993
 11
0.708
 21
0.05213496468784329
  0
LINE
  5
13F
100
AcDbEntity
  8
mcmp
  6
ByLayer
 62
  256
370
   -1
100
AcDbLine
 10
0.07079999999999992
 20
0.04438328952380954
 11
0.1299878495782313
 21
0.10912
  0
LINE
  5
140
100
AcDbEntity
  8
mcmp
  6
ByLayer
 62
  256
370
   -1
100
AcDbLine
 10
0
 20
0.06663999999999998
 11
0.03236571428571427
 21
0.10204
  0
LINE
  5
141
100
AcDbEntity
  8
mcmp
  6
ByLayer
 62
  256
370
   -1
100
AcDbLine
 10
0.1416
 20
0.06869278615268332
 11
0.1656157383746895
 21
0.09495999999999997
  0
LINE
  5
142
100
AcDbEntity
  8
mcmp
  6
ByLayer
 62
  256
370
   -1
100
AcDbLine
 10
0.2123999999999999
 20
0.03171565069175358
 11
0.2766965479389683
 21
0.10204
  0
LINE
  5
143
100
AcDbEntity
  8
mcmp
  6
ByLayer
 62
  256
370
   -1
100
AcDbLine
 10
0.2832
 20
0.06491335935015155
 11
0.3236175000227186
 21
0.10912
  0
LINE
  5
144
100
AcDbEntity
  8
mcmp
  6
ByLayer
 62
  256
370
   -1
100
AcDbLine
 10
0.3539999999999999
 20
0.05656583946775544
 11
0.3891032324866235
 21
0.09495999999999997
  0
LINE
  5
145
100
AcDbEntity
  8
mcmp
  6
ByLayer
 62
  256
370
   -1
100
AcDbLine
 10
0.4247999999999999
 20
0.03897245433611109
 11
0.4824617560355557
 21
0.10204
  0
LINE
  5
146
100
AcDbEntity
  8
mcmp
  6
ByLayer
 62
  256
370
   -1
100
AcDbLine
 10
0.4955999999999999
 20
0.06062682395877186
 11
0.5464097609519801
 21
0.1162
  0
LINE
  5
147
100
AcDbEntity
  8
mcmp
  6
ByLayer
 62
  256
370
   -1
100
AcDbLine
 10
0.5663999999999999
 20
0.07035996025982155
 11
0.6018377506195918
 21
0.10912
  0
LINE
  5
148
100
AcDbEntity
  8
mcmp
  6
ByLayer
 62
  256
370
   -1
100
AcDbLine
 10
0.6372
 20
0.05334857623366297
 11
0.6817178731577941
 21
0.10204
  0
LINE
  5
149
100
AcDbEntity
  8
mcmp
  6
ByLayer
 62
  256
370
   -1
100
AcDbLine
 10
0.03236571428571427
 20
0.10204
 11
0.03236571428571427
 21
0.009999999999999981
  0
LINE
  5
14A
100
AcDbEntity
  8
mcmp
  6
ByLayer
 62
  256
370
   -1
100
AcDbLine
 10
0.1299878495782313
 20
0.10912
 11
0.1299878495782313
 21
0.009999999999999981
  0
LINE
  5
14B
100
AcDbEntity
  8
mcmp
  6
ByLayer
 62
  256
370
   -1
100
AcDbLine
 10
0.1656157383746895
 20
0.09495999999999997
 11
0.1656157383746895
 21
0.009999999999999981
  0
LINE
  5
14C
100
AcDbEntity
  8
mcmp
  6
ByLayer
 62
  256
370
   -1
100
AcDbLine
 10
0.2766965479389683
 20
0.10204
 11
0.2766965479389683
 21
0.009999999999999981
  0
LINE
  5
14D
100
AcDbEntity
  8
mcmp
  6
ByLayer
 62
  256
370
   -1
100
AcDbLine
 10
0.3236175000227186
 20
0.10912
 11
0.3236175000227186
 21
0.009999999999999981
  0
LINE
  5
14E
100
AcDbEntity
  8
mcmp
  6
ByLayer
 62
  256
370
   -1
100
AcDbLine
 10
0.3891032324866235
 20
0.09495999999999997
 11
0.3891032324866235
 21
0.009999999999999981
  0
LINE
  5
14F
100
AcDbEntity
  8
mcmp
  6
ByLayer
 62
  256
370
   -1
100
AcDbLine
 10
0.4824617560355557
 20
0.10204
 11
0.4824617560355557
 21
0.009999999999999981
  0
LINE
  5
150
100
AcDbEntity
  8
mcmp
  6
ByLayer
 62
  256
370
   -1
100
AcDbLine
 10
0.5464097609519801
 20
0.1162
 11
0.5464097609519801
 21
0.009999999999999981
  0
LINE
  5
151
100
AcDbEntity
  8
mcmp
  6
ByLayer
 62
  256
370
   -1
100
AcDbLine
 10
0.6018377506195918
 20
0.10912
 11
0.6018377506195918
 21
0.009999999999999981
  0
LINE
  5
152
100
AcDbEntity
  8
mcmp
  6
ByLayer
 62
  256
370
   -1
100
AcDbLine
 10
0.6817178731577941
 20
0.10204
 11
0.6817178731577941
 21
0.009999999999999981
  0
CIRCLE
  5
153
100
AcDbEntity
  8
sample
  6
ByLayer
 62
  256
370
   -1
100
AcDbCircle
 10
0.07079999999999999
 20
0.04410728952380955
 40
0.000708
  0
CIRCLE
  5
154
100
AcDbEntity
  8
sample
  6
ByLayer
 62
  256
370
   -1
100
AcDbCircle
 10
0.1417226462059577
 20
0.06848898100330794
 40
0.000708
  0
CIRCLE
  5
155
100
AcDbEntity
  8
sample
  6
ByLayer
 62
  256
370
   -1
100
AcDbCircle
 10
0.2124
 20
0.03143965069175364
 40
0.000708
  0
CIRCLE
  5
156
100
AcDbEntity
  8
sample
  6
ByLayer
 62
  256
370
   -1
100
AcDbCircle
 10
0.2832000000000002
 20
0.06463735935015161
 40
0.000708
  0
CIRCLE
  5
157
100
AcDbEntity
  8
sample
  6
ByLayer
 62
  256
370
   -1
100
AcDbCircle
 10
0.354
 20
0.05628983946775551
 40
0.000708
  0
CIRCLE
  5
158
100
AcDbEntity
  8
sample
  6
ByLayer
 62
  256
370
   -1
100
AcDbCircle
 10
0.4247999999999999
 20
0.0386964543361111
 40
0.000708
  0
CIRCLE
  5
159
100
AcDbEntity
  8
sample
  6
ByLayer
 62
  256
370
   -1
100
AcDbCircle
 10
0.4955999999999999
 20
0.06035082395877189
 40
0.000708
  0
CIRCLE
  5
15A
100
AcDbEntity
  8
sample
  6
ByLayer
 62
  256
370
   -1
100
AcDbCircle
 10
0.5663999999999999
 20
0.07008396025982155
 40
0.000708
  0
CIRCLE
  5
15B
100
AcDbEntity
  8
sample
  6
ByLayer
 62
  256
370
   -1
100
AcDbCircle
 10
0.6371999999999999
 20
0.05307257623366296
 40
0.000708
  0
LEADER
  5
15C
100
AcDbEntity
  8
0
  6
ByLayer
 62
  256
370
   -1
100
AcDbLeader
  3
Standard
 71
    1
 72
    0
 73
    3
 74
    0
 75
    0
 40
1
 41
10
 76
0
 76
0
  0
LEADER
  5
15D
100
AcDbEntity
  8
axis
  6
ByLayer
 62
  256
370
   -1
100
AcDbLeader
  3
Standard
 71
    1
 72
    0
 73
    3
 74
    0
 75
    0
 40
1
 41
10
 76
2
 76
2
 10
0.708
 20
0.009999999999999981
 30
0
 10
0
 20
0.009999999999999981
 30
0
  0
MTEXT
  5
15E
100
AcDbEntity
  8
txt
  6
ByLayer
 62
  256
370
   -1
100
AcDbMText
 10
0.7140000000000001
 20
0.01749999999999993
 30
0
 40
0.0125
 41
0.005357138888888889
 71
    1
 72
    1
  1
t
  7
italicc
210
0
220
0
230
1
 50
0
 73
    2
 44
1
  0
LEADER
  5
15F
100
AcDbEntity
  8
axis
  6
ByLayer
 62
  256
370
   -1
100
AcDbLeader
  3
Standard
 71
    1
 72
    0
 73
    3
 74
    0
 75
    0
 40
1
 41
10
 76
2
 76
2
 10
3.642919299551294e-17
 20
0.13
 30
0
 10
0
 20
0.009999999999999981
 30
0
  0
LINE
  5
160
100
AcDbEntity
  8
0
  6
DOTTINY
 62
  256
370
   -1
100
AcDbLine
 10
0.1416
 20
0.09495999999999997
 11
0.1416
 21
0.009999999999999981
  0
LINE
  5
161
100
AcDbEntity
  8
0
  6
DOTTINY
 62
  256
370
   -1
100
AcDbLine
 10
0.2124
 20
0.09495999999999997
 11
0.2124
 21
0.009999999999999981
  0
LINE
  5
162
100
AcDbEntity
  8
0
  6
DOTTINY
 62
  256
370
   -1
100
AcDbLine
 10
0.354
 20
0.10204
 11
0.354
 21
0.009999999999999981
  0
LINE
  5
163
100
AcDbEntity
  8
0
  6
DOTTINY
 62
  256
370
   -1
100
AcDbLine
 10
0.5664
 20
0.10912
 11
0.5664
 21
0.009999999999999981
  0
LINE
  5
164
100
AcDbEntity
  8
0
  6
DOTTINY
 62
  256
370
   -1
100
AcDbLine
 10
0.6372
 20
0.10204
 11
0.6372
 21
0.009999999999999981
  0
LINE
  5
165
100
AcDbEntity
  8
0
  6
DOTTINY
 62
  256
370
   -1
100
AcDbLine
 10
0.000708
 20
0.10204
 11
0.070092
 21
0.10204
  0
LINE
  5
166
100
AcDbEntity
  8
0
  6
DOTTINY
 62
  256
370
   -1
100
AcDbLine
 10
0.1416
 20
0.10204
 11
0.1416
 21
0.09566799999999998
  0
LINE
  5
167
100
AcDbEntity
  8
0
  6
DOTTINY
 62
  256
370
   -1
100
AcDbLine
 10
0.142308
 20
0.09495999999999997
 11
0.211692
 21
0.09495999999999997
  0
LINE
  5
168
100
AcDbEntity
  8
0
  6
DOTTINY
 62
  256
370
   -1
100
AcDbLine
 10
0.283908
 20
0.10912
 11
0.354
 21
0.10912
  0
LINE
  5
169
100
AcDbEntity
  8
0
  6
DOTTINY
 62
  256
370
   -1
100
AcDbLine
 10
0.425508
 20
0.10204
 11
0.4956
 21
0.10204
  0
LINE
  5
16A
100
AcDbEntity
  8
0
  6
DOTTINY
 62
  256
370
   -1
100
AcDbLine
 10
0.4956
 20
0.10204
 11
0.4956
 21
0.108412
  0
LINE
  5
16B
100
AcDbEntity
  8
0
  6
DOTTINY
 62
  256
370
   -1
100
AcDbLine
 10
0.5671079999999999
 20
0.10912
 11
0.6372
 21
0.10912
  0
LINE
  5
16C
100
AcDbEntity
  8
0
  6
DOTTINY
 62
  256
370
   -1
100
AcDbLine
 10
0.6372
 20
0.10912
 11
0.6372
 21
0.102748
  0
LINE
  5
16D
100
AcDbEntity
  8
0
  6
DOTTINY
 62
  256
370
   -1
100
AcDbLine
 10
0.6379079999999999
 20
0.10204
 11
0.708
 21
0.10204
  0
LINE
  5
16E
100
AcDbEntity
  8
0
  6
DOTTINY
 62
  256
370
   -1
100
AcDbLine
 10
0.071508
 20
0.10912
 11
0.1416
 21
0.10912
  0
LINE
  5
16F
100
AcDbEntity
  8
0
  6
DOTTINY
 62
  256
370
   -1
100
AcDbLine
 10
0.213108
 20
0.10204
 11
0.2832
 21
0.10204
  0
LINE
  5
170
100
AcDbEntity
  8
0
  6
DOTTINY
 62
  256
370
   -1
100
AcDbLine
 10
0.496308
 20
0.1162
 11
0.565692
 21
0.1162
  0
LINE
  5
171
100
AcDbEntity
  8
0
  6
DOTTINY
 62
  256
370
   -1
100
AcDbLine
 10
0.0708
 20
0.108412
 11
0.0708
 21
0.10204
  0
LINE
  5
172
100
AcDbEntity
  8
0
  6
DOTTINY
 62
  256
370
   -1
100
AcDbLine
 10
0.0708
 20
0.10204
 11
0.070092
 21
0.10204
  0
LINE
  5
173
100
AcDbEntity
  8
0
  6
DOTTINY
 62
  256
370
   -1
100
AcDbLine
 10
0.1416
 20
0.10204
 11
0.1416
 21
0.10912
  0
LINE
  5
174
100
AcDbEntity
  8
0
  6
DOTTINY
 62
  256
370
   -1
100
AcDbLine
 10
0.2124
 20
0.101332
 11
0.2124
 21
0.09495999999999997
  0
LINE
  5
175
100
AcDbEntity
  8
0
  6
DOTTINY
 62
  256
370
   -1
100
AcDbLine
 10
0.4956
 20
0.108412
 11
0.4956
 21
0.115492
  0
LINE
  5
176
100
AcDbEntity
  8
0
  6
DOTTINY
 62
  256
370
   -1
100
AcDbLine
 10
0.565692
 20
0.1162
 11
0.5664
 21
0.1162
  0
LINE
  5
177
100
AcDbEntity
  8
0
  6
DOTTINY
 62
  256
370
   -1
100
AcDbLine
 10
0.5664
 20
0.1162
 11
0.5664
 21
0.109828
  0
LINE
  5
178
100
AcDbEntity
  8
0
  6
DOTTINY
 62
  256
370
   -1
100
AcDbLine
 10
0.2832
 20
0.10204
 11
0.2832
 21
0.108412
  0
LINE
  5
179
100
AcDbEntity
  8
0
  6
DOTTINY
 62
  256
370
   -1
100
AcDbLine
 10
0.354708
 20
0.09495999999999997
 11
0.424092
 21
0.09495999999999997
  0
LINE
  5
17A
100
AcDbEntity
  8
0
  6
DOTTINY
 62
  256
370
   -1
100
AcDbLine
 10
0.354
 20
0.10912
 11
0.354
 21
0.09566799999999998
  0
LINE
  5
17B
100
AcDbEntity
  8
0
  6
DOTTINY
 62
  256
370
   -1
100
AcDbLine
 10
0.4248
 20
0.10204
 11
0.4248
 21
0.009999999999999981
  0
LINE
  5
17C
100
AcDbEntity
  8
0
  6
DOTTINY
 62
  256
370
   -1
100
AcDbLine
 10
0.0708
 20
0.10204
 11
0.07099999999999999
 21
0.01058799999999997
  0
LINE
  5
17D
100
AcDbEntity
  8
0
  6
DOTTINY
 62
  256
370
   -1
100
AcDbLine
 10
0.4248
 20
0.1020400000000001
 11
0.4248
 21
0.01000000000000009
  0
LINE
  5
17E
100
AcDbEntity
  8
0
  6
DOTTINY
 62
  256
370
   -1
100
AcDbLine
 10
0.354
 20
0.09496000000000013
 11
0.354
 21
0.01000000000000009
  0
LINE
  5
17F
100
AcDbEntity
  8
0
  6
DOTTINY
 62
  256
370
   -1
100
AcDbLine
 10
0.2124
 20
0.1020400000000001
 11
0.2124
 21
0.01000000000000009
  0
LINE
  5
180
100
AcDbEntity
  8
0
  6
DOTTINY
 62
  256
370
   -1
100
AcDbLine
 10
0.1416
 20
0.09496000000000013
 11
0.1416
 21
0.01000000000000009
  0
LINE
  5
181
100
AcDbEntity
  8
0
  6
DOTTINY
 62
  256
370
   -1
100
AcDbLine
 10
0.07079999999999997
 20
0.1084120000000001
 11
0.07079999999999997
 21
0.01000000000000009
  0
LINE
  5
182
100
AcDbEntity
  8
0
  6
DOTTINY
 62
  256
370
   -1
100
AcDbLine
 10
0.2832
 20
0.10204
 11
0.2832
 21
0.01000000000000009
  0
LINE
  5
183
100
AcDbEntity
  8
0
  6
DOTTINY
 62
  256
370
   -1
100
AcDbLine
 10
0.4956
 20
0.10204
 11
0.4956
 21
0.009999999999999981
  0
MTEXT
  5
184
100
AcDbEntity
  8
txt
  6
ByLayer
 62
  256
370
   -1
100
AcDbMText
 10
0.06
 20
-0.01000000000000001
 30
0
 40
0.0125
 41
0.6449408055555556
 71
    1
 72
    1
  1
d) Switched inductor current computed from resampled\P    peak current control signal
  7
romanp
210
0
220
0
230
1
 50
0
 73
    2
 44
1
  0
LINE
  5
185
100
AcDbEntity
  8
axis
  6
ByLayer
 62
  256
370
   -1
100
AcDbLine
 10
6.071532165918825e-17
 20
-0.4028000000000005
 11
0.708
 21
-0.4028000000000005
  0
CIRCLE
  5
186
100
AcDbEntity
  8
sample
  6
ByLayer
 62
  256
370
   -1
100
AcDbCircle
 10
0.07080000000000006
 20
-0.3677087104761909
 40
0.000708
  0
CIRCLE
  5
187
100
AcDbEntity
  8
sample
  6
ByLayer
 62
  256
370
   -1
100
AcDbCircle
 10
0.1417226462059577
 20
-0.3433270189966927
 40
0.000708
  0
CIRCLE
  5
188
100
AcDbEntity
  8
sample
  6
ByLayer
 62
  256
370
   -1
100
AcDbCircle
 10
0.2124
 20
-0.3803763493082468
 40
0.000708
  0
CIRCLE
  5
189
100
AcDbEntity
  8
sample
  6
ByLayer
 62
  256
370
   -1
100
AcDbCircle
 10
0.2832000000000002
 20
-0.3471786406498489
 40
0.000708
  0
CIRCLE
  5
18A
100
AcDbEntity
  8
sample
  6
ByLayer
 62
  256
370
   -1
100
AcDbCircle
 10
0.3540000000000001
 20
-0.355526160532245
 40
0.000708
  0
CIRCLE
  5
18B
100
AcDbEntity
  8
sample
  6
ByLayer
 62
  256
370
   -1
100
AcDbCircle
 10
0.4248
 20
-0.3731195456638893
 40
0.000708
  0
CIRCLE
  5
18C
100
AcDbEntity
  8
sample
  6
ByLayer
 62
  256
370
   -1
100
AcDbCircle
 10
0.4955999999999999
 20
-0.3514651760412286
 40
0.000708
  0
CIRCLE
  5
18D
100
AcDbEntity
  8
sample
  6
ByLayer
 62
  256
370
   -1
100
AcDbCircle
 10
0.5663999999999999
 20
-0.3417320397401788
 40
0.000708
  0
CIRCLE
  5
18E
100
AcDbEntity
  8
sample
  6
ByLayer
 62
  256
370
   -1
100
AcDbCircle
 10
0.6371999999999999
 20
-0.3587434237663376
 40
0.000708
  0
LINE
  5
18F
100
AcDbEntity
  8
sig
  6
ByLayer
 62
  256
370
   -1
100
AcDbLine
 10
0.07080000000000006
 20
-0.368416710476191
 11
0.07080000000000006
 21
-0.4028000000000005
  0
LINE
  5
190
100
AcDbEntity
  8
sig
  6
ByLayer
 62
  256
370
   -1
100
AcDbLine
 10
0.1417226462059577
 20
-0.3440350189966925
 11
0.1417226462059577
 21
-0.4028000000000005
  0
LINE
  5
191
100
AcDbEntity
  8
sig
  6
ByLayer
 62
  256
370
   -1
100
AcDbLine
 10
0.2124
 20
-0.3810843493082469
 11
0.2124
 21
-0.4028000000000005
  0
LINE
  5
192
100
AcDbEntity
  8
sig
  6
ByLayer
 62
  256
370
   -1
100
AcDbLine
 10
0.2832000000000002
 20
-0.3478866406498488
 11
0.2832000000000002
 21
-0.4028000000000005
  0
LINE
  5
193
100
AcDbEntity
  8
sig
  6
ByLayer
 62
  256
370
   -1
100
AcDbLine
 10
0.3540000000000001
 20
-0.356234160532245
 11
0.3540000000000001
 21
-0.4028000000000005
  0
LINE
  5
194
100
AcDbEntity
  8
sig
  6
ByLayer
 62
  256
370
   -1
100
AcDbLine
 10
0.4248
 20
-0.3738275456638893
 11
0.4248
 21
-0.4028000000000005
  0
LINE
  5
195
100
AcDbEntity
  8
sig
  6
ByLayer
 62
  256
370
   -1
100
AcDbLine
 10
0.4955999999999999
 20
-0.3521731760412285
 11
0.4955999999999999
 21
-0.4028000000000005
  0
LINE
  5
196
100
AcDbEntity
  8
sig
  6
ByLayer
 62
  256
370
   -1
100
AcDbLine
 10
0.5663999999999999
 20
-0.3424400397401787
 11
0.5663999999999999
 21
-0.4028000000000005
  0
LINE
  5
197
100
AcDbEntity
  8
sig
  6
ByLayer
 62
  256
370
   -1
100
AcDbLine
 10
0.6371999999999999
 20
-0.3594514237663375
 11
0.6371999999999999
 21
-0.4028000000000005
  0
LINE
  5
198
100
AcDbEntity
  8
axis
  6
ByLayer
 62
  256
370
   -1
100
AcDbLine
 10
6.071532165918825e-17
 20
-0.4904000000000004
 11
0.708
 21
-0.4904000000000004
  0
LINE
  5
199
100
AcDbEntity
  8
axis
  6
ByLayer
 62
  256
370
   -1
100
AcDbLine
 10
6.071532165918825e-17
 20
-0.6280000000000006
 11
0.708
 21
-0.6280000000000006
  0
CIRCLE
  5
19A
100
AcDbEntity
  8
sample
  6
ByLayer
 62
  256
370
   -1
100
AcDbCircle
 10
0.3538773537940424
 20
-0.4531261605322449
 40
0.000708
  0
CIRCLE
  5
19B
100
AcDbEntity
  8
sample
  6
ByLayer
 62
  256
370
   -1
100
AcDbCircle
 10
0.6370773537940422
 20
-0.4563434237663375
 40
0.000708
  0
CIRCLE
  5
19C
100
AcDbEntity
  8
sample
  6
ByLayer
 62
  256
370
   -1
100
AcDbCircle
 10
0.1416000000000001
 20
-0.4705270189966923
 40
0.000708
  0
CIRCLE
  5
19D
100
AcDbEntity
  8
sample
  6
ByLayer
 62
  256
370
   -1
100
AcDbCircle
 10
0.2122773537940424
 20
-0.4600000000000002
 40
0.000708
  0
CIRCLE
  5
19E
100
AcDbEntity
  8
sample
  6
ByLayer
 62
  256
370
   -1
100
AcDbCircle
 10
0.2830773537940425
 20
-0.4799999999999999
 40
0.000708
  0
CIRCLE
  5
19F
100
AcDbEntity
  8
sample
  6
ByLayer
 62
  256
370
   -1
100
AcDbCircle
 10
0.4246773537940423
 20
-0.4607195456638896
 40
0.000708
  0
CIRCLE
  5
1A0
100
AcDbEntity
  8
sample
  6
ByLayer
 62
  256
370
   -1
100
AcDbCircle
 10
0.4954773537940422
 20
-0.4690651760412287
 40
0.000708
  0
CIRCLE
  5
1A1
100
AcDbEntity
  8
sample
  6
ByLayer
 62
  256
370
   -1
100
AcDbCircle
 10
0.5662773537940422
 20
-0.4593320397401791
 40
0.000708
  0
LINE
  5
1A2
100
AcDbEntity
  8
sig
  6
ByLayer
 62
  256
370
   -1
100
AcDbLine
 10
0.2122773537940424
 20
-0.4607080000000005
 11
0.2122773537940424
 21
-0.49
  0
LINE
  5
1A3
100
AcDbEntity
  8
sig
  6
ByLayer
 62
  256
370
   -1
100
AcDbLine
 10
0.2830773537940425
 20
-0.4807079999999999
 11
0.2830773537940425
 21
-0.49
  0
LINE
  5
1A4
100
AcDbEntity
  8
sig
  6
ByLayer
 62
  256
370
   -1
100
AcDbLine
 10
0.3538773537940424
 20
-0.453834160532245
 11
0.3538773537940424
 21
-0.49
  0
LINE
  5
1A5
100
AcDbEntity
  8
sig
  6
ByLayer
 62
  256
370
   -1
100
AcDbLine
 10
0.1416000000000001
 20
-0.4712350189966923
 11
0.1416000000000001
 21
-0.49
  0
LINE
  5
1A6
100
AcDbEntity
  8
sig
  6
ByLayer
 62
  256
370
   -1
100
AcDbLine
 10
0.6370773537940422
 20
-0.4570514237663374
 11
0.6370773537940422
 21
-0.49
  0
LINE
  5
1A7
100
AcDbEntity
  8
sig
  6
ByLayer
 62
  256
370
   -1
100
AcDbLine
 10
0.5662773537940422
 20
-0.4600400397401789
 11
0.5662773537940422
 21
-0.49
  0
LINE
  5
1A8
100
AcDbEntity
  8
sig
  6
ByLayer
 62
  256
370
   -1
100
AcDbLine
 10
0.4954773537940422
 20
-0.4697731760412288
 11
0.4954773537940422
 21
-0.49
  0
LINE
  5
1A9
100
AcDbEntity
  8
sig
  6
ByLayer
 62
  256
370
   -1
100
AcDbLine
 10
0.4246773537940423
 20
-0.4614275456638894
 11
0.4246773537940423
 21
-0.49
  0
LINE
  5
1AA
100
AcDbEntity
  8
idiscg
  6
CONTINUOUS
 62
  256
370
   -1
100
AcDbLine
 10
0.2006652033722736
 20
-0.5564048244897963
 11
0.2122773537940423
 21
-0.569307213847317
  0
LINE
  5
1AB
100
AcDbEntity
  8
idiscg
  6
CONTINUOUS
 62
  256
370
   -1
100
AcDbLine
 10
0.2362930921687318
 20
-0.5543018363912351
 11
0.2830773537940423
 21
-0.6062843493082468
  0
LINE
  5
1AC
100
AcDbEntity
  8
idiscg
  6
CONTINUOUS
 62
  256
370
   -1
100
AcDbLine
 10
0.3473739017330107
 20
-0.565860582804258
 11
0.3538773537940423
 21
-0.5730866406498487
  0
LINE
  5
1AD
100
AcDbEntity
  8
idiscg
  6
CONTINUOUS
 62
  256
370
   -1
100
AcDbLine
 10
0.3942948538167609
 20
-0.5476758272241544
 11
0.4246773537940423
 21
-0.5814341605322451
  0
LINE
  5
1AE
100
AcDbEntity
  8
idiscg
  6
CONTINUOUS
 62
  256
370
   -1
100
AcDbLine
 10
0.4597805862806658
 20
-0.5593644706490266
 11
0.4954773537940425
 21
-0.5990275456638892
  0
LINE
  5
1AF
100
AcDbEntity
  8
idiscg
  6
CONTINUOUS
 62
  256
370
   -1
100
AcDbLine
 10
0.5531391098295978
 20
-0.5627751271918457
 11
0.5662773537940423
 21
-0.5773731760412284
  0
LINE
  5
1B0
100
AcDbEntity
  8
idiscg
  6
CONTINUOUS
 62
  256
370
   -1
100
AcDbLine
 10
0.6170871147460224
 20
-0.5454286630201568
 11
0.6370773537940423
 21
-0.5676400397401786
  0
LINE
  5
1B1
100
AcDbEntity
  8
idiscg
  6
CONTINUOUS
 62
  256
370
   -1
100
AcDbLine
 10
0.2006652033722736
 20
-0.5564048244897963
 11
0.2006652033722736
 21
-0.6280000000000006
  0
LINE
  5
1B2
100
AcDbEntity
  8
idiscg
  6
CONTINUOUS
 62
  256
370
   -1
100
AcDbLine
 10
0.2362930921687318
 20
-0.5543018363912351
 11
0.2362930921687318
 21
-0.6280000000000006
  0
LINE
  5
1B3
100
AcDbEntity
  8
idiscg
  6
CONTINUOUS
 62
  256
370
   -1
100
AcDbLine
 10
0.3473739017330107
 20
-0.565860582804258
 11
0.3473739017330107
 21
-0.6280000000000006
  0
LINE
  5
1B4
100
AcDbEntity
  8
idiscg
  6
CONTINUOUS
 62
  256
370
   -1
100
AcDbLine
 10
0.3942948538167609
 20
-0.5476758272241544
 11
0.3942948538167609
 21
-0.6280000000000006
  0
LINE
  5
1B5
100
AcDbEntity
  8
idiscg
  6
CONTINUOUS
 62
  256
370
   -1
100
AcDbLine
 10
0.4597805862806658
 20
-0.5593644706490266
 11
0.4597805862806658
 21
-0.6280000000000006
  0
LINE
  5
1B6
100
AcDbEntity
  8
idiscg
  6
CONTINUOUS
 62
  256
370
   -1
100
AcDbLine
 10
0.5531391098295978
 20
-0.5627751271918457
 11
0.5531391098295978
 21
-0.6280000000000006
  0
LINE
  5
1B7
100
AcDbEntity
  8
idiscg
  6
CONTINUOUS
 62
  256
370
   -1
100
AcDbLine
 10
0.6170871147460224
 20
-0.5454286630201568
 11
0.6170871147460224
 21
-0.6280000000000006
  0
LINE
  5
1B8
100
AcDbEntity
  8
idiscg
  6
CONTINUOUS
 62
  256
370
   -1
100
AcDbLine
 10
0.2124
 20
-0.5692350189966926
 11
0.2124
 21
-0.6280000000000006
  0
LINE
  5
1B9
100
AcDbEntity
  8
idiscg
  6
CONTINUOUS
 62
  256
370
   -1
100
AcDbLine
 10
0.3538773537940425
 20
-0.5730866406498487
 11
0.3538773537940425
 21
-0.6280000000000006
  0
LINE
  5
1BA
100
AcDbEntity
  8
idiscg
  6
CONTINUOUS
 62
  256
370
   -1
100
AcDbLine
 10
0.4246773537940424
 20
-0.5814341605322451
 11
0.4246773537940424
 21
-0.6280000000000006
  0
LINE
  5
1BB
100
AcDbEntity
  8
idiscg
  6
CONTINUOUS
 62
  256
370
   -1
100
AcDbLine
 10
0.4954773537940423
 20
-0.5990275456638892
 11
0.4954773537940423
 21
-0.6280000000000006
  0
LINE
  5
1BC
100
AcDbEntity
  8
idiscg
  6
CONTINUOUS
 62
  256
370
   -1
100
AcDbLine
 10
0.5662773537940422
 20
-0.5773731760412284
 11
0.5662773537940422
 21
-0.6280000000000006
  0
LINE
  5
1BD
100
AcDbEntity
  8
idiscg
  6
CONTINUOUS
 62
  256
370
   -1
100
AcDbLine
 10
0.6370773537940422
 20
-0.5676400397401788
 11
0.6370773537940422
 21
-0.6280000000000006
  0
LINE
  5
1BE
100
AcDbEntity
  8
idiscg
  6
CONTINUOUS
 62
  256
370
   -1
100
AcDbLine
 10
0.2830773537940423
 20
-0.6062843493082468
 11
0.2830773537940423
 21
-0.6280000000000006
  0
LINE
  5
1BF
100
AcDbEntity
  8
axis
  6
ByLayer
 62
  256
370
   -1
100
AcDbLine
 10
8.847089727481715e-17
 20
-0.7908000000000008
 11
0.708
 21
-0.7908000000000008
  0
CIRCLE
  5
1C0
100
AcDbEntity
  8
sample
  6
ByLayer
 62
  256
370
   -1
100
AcDbCircle
 10
0.07080000000000009
 20
-0.7557087104761913
 40
0.000708
  0
CIRCLE
  5
1C1
100
AcDbEntity
  8
sample
  6
ByLayer
 62
  256
370
   -1
100
AcDbCircle
 10
0.1417226462059578
 20
-0.7313270189966929
 40
0.000708
  0
CIRCLE
  5
1C2
100
AcDbEntity
  8
sample
  6
ByLayer
 62
  256
370
   -1
100
AcDbCircle
 10
0.2124000000000001
 20
-0.7683763493082472
 40
0.000708
  0
CIRCLE
  5
1C3
100
AcDbEntity
  8
sample
  6
ByLayer
 62
  256
370
   -1
100
AcDbCircle
 10
0.2832000000000002
 20
-0.7351786406498493
 40
0.000708
  0
CIRCLE
  5
1C4
100
AcDbEntity
  8
sample
  6
ByLayer
 62
  256
370
   -1
100
AcDbCircle
 10
0.3540000000000001
 20
-0.7435261605322454
 40
0.000708
  0
CIRCLE
  5
1C5
100
AcDbEntity
  8
sample
  6
ByLayer
 62
  256
370
   -1
100
AcDbCircle
 10
0.4248
 20
-0.7611195456638897
 40
0.000708
  0
CIRCLE
  5
1C6
100
AcDbEntity
  8
sample
  6
ByLayer
 62
  256
370
   -1
100
AcDbCircle
 10
0.4955999999999999
 20
-0.739465176041229
 40
0.000708
  0
CIRCLE
  5
1C7
100
AcDbEntity
  8
sample
  6
ByLayer
 62
  256
370
   -1
100
AcDbCircle
 10
0.5663999999999999
 20
-0.7297320397401792
 40
0.000708
  0
CIRCLE
  5
1C8
100
AcDbEntity
  8
sample
  6
ByLayer
 62
  256
370
   -1
100
AcDbCircle
 10
0.6371999999999999
 20
-0.746743423766338
 40
0.000708
  0
LINE
  5
1C9
100
AcDbEntity
  8
sig
  6
ByLayer
 62
  256
370
   -1
100
AcDbLine
 10
0.07080000000000009
 20
-0.7564167104761914
 11
0.07080000000000009
 21
-0.7908000000000008
  0
LINE
  5
1CA
100
AcDbEntity
  8
sig
  6
ByLayer
 62
  256
370
   -1
100
AcDbLine
 10
0.1417226462059578
 20
-0.7320350189966929
 11
0.1417226462059578
 21
-0.7908000000000008
  0
LINE
  5
1CB
100
AcDbEntity
  8
sig
  6
ByLayer
 62
  256
370
   -1
100
AcDbLine
 10
0.2124000000000001
 20
-0.7690843493082473
 11
0.2124000000000001
 21
-0.7908000000000008
  0
LINE
  5
1CC
100
AcDbEntity
  8
sig
  6
ByLayer
 62
  256
370
   -1
100
AcDbLine
 10
0.2832000000000002
 20
-0.7358866406498492
 11
0.2832000000000002
 21
-0.7908000000000008
  0
LINE
  5
1CD
100
AcDbEntity
  8
sig
  6
ByLayer
 62
  256
370
   -1
100
AcDbLine
 10
0.3540000000000001
 20
-0.7442341605322453
 11
0.3540000000000001
 21
-0.7908000000000008
  0
LINE
  5
1CE
100
AcDbEntity
  8
sig
  6
ByLayer
 62
  256
370
   -1
100
AcDbLine
 10
0.4248
 20
-0.7618275456638897
 11
0.4248
 21
-0.7908000000000008
  0
LINE
  5
1CF
100
AcDbEntity
  8
sig
  6
ByLayer
 62
  256
370
   -1
100
AcDbLine
 10
0.4955999999999999
 20
-0.7401731760412289
 11
0.4955999999999999
 21
-0.7908000000000008
  0
LINE
  5
1D0
100
AcDbEntity
  8
sig
  6
ByLayer
 62
  256
370
   -1
100
AcDbLine
 10
0.5663999999999999
 20
-0.7304400397401791
 11
0.5663999999999999
 21
-0.7908000000000008
  0
LINE
  5
1D1
100
AcDbEntity
  8
sig
  6
ByLayer
 62
  256
370
   -1
100
AcDbLine
 10
0.6371999999999999
 20
-0.7474514237663379
 11
0.6371999999999999
 21
-0.7908000000000008
  0
LINE
  5
1D2
100
AcDbEntity
  8
axis
  6
ByLayer
 62
  256
370
   -1
100
AcDbLine
 10
8.847089727481715e-17
 20
-0.8784000000000007
 11
0.708
 21
-0.8784000000000007
  0
LINE
  5
1D3
100
AcDbEntity
  8
axis
  6
ByLayer
 62
  256
370
   -1
100
AcDbLine
 10
8.847089727481715e-17
 20
-1.016000000000001
 11
0.708
 21
-1.016000000000001
  0
LINE
  5
1D4
100
AcDbEntity
  8
icg
  6
ByLayer
 62
  256
370
   -1
100
AcDbLine
 10
0.2831999999999999
 20
-0.9942843493082472
 11
0.2831999999999999
 21
-1.016000000000001
  0
LINE
  5
1D5
100
AcDbEntity
  8
icg
  6
DASHEDTINY
 62
  256
370
   -1
100
AcDbLine
 10
0.07079999999999995
 20
-0.9593600000000007
 11
0.1031657142857142
 21
-0.9389119485714292
  0
LINE
  5
1D6
100
AcDbEntity
  8
icg
  6
DASHEDTINY
 62
  256
370
   -1
100
AcDbLine
 10
0.1031657142857142
 20
-0.9389119485714292
 11
0.1031657142857142
 21
-1.016000000000001
  0
LINE
  5
1D7
100
AcDbEntity
  8
icg
  6
DASHEDTINY
 62
  256
370
   -1
100
AcDbLine
 10
0.07079999999999995
 20
-0.9593600000000007
 11
0.07079999999999995
 21
-1.016000000000001
  0
LINE
  5
1D8
100
AcDbEntity
  8
icg
  6
ByLayer
 62
  256
370
   -1
100
AcDbLine
 10
0.1415999999999999
 20
-0.981616710476191
 11
0.2007878495782312
 21
-0.9444048244897965
  0
LINE
  5
1D9
100
AcDbEntity
  8
icg
  6
ByLayer
 62
  256
370
   -1
100
AcDbLine
 10
0.2831999999999999
 20
-0.9942843493082472
 11
0.3474965479389683
 21
-0.9538605828042583
  0
LINE
  5
1DA
100
AcDbEntity
  8
icg
  6
ByLayer
 62
  256
370
   -1
100
AcDbLine
 10
0.354
 20
-0.9610866406498491
 11
0.3944175000227185
 21
-0.935675827224155
  0
LINE
  5
1DB
100
AcDbEntity
  8
icg
  6
ByLayer
 62
  256
370
   -1
100
AcDbLine
 10
0.4247999999999999
 20
-0.9694341605322454
 11
0.4599032324866234
 21
-0.9473644706490267
  0
LINE
  5
1DC
100
AcDbEntity
  8
icg
  6
ByLayer
 62
  256
370
   -1
100
AcDbLine
 10
0.4955999999999999
 20
-0.9870275456638895
 11
0.5532617560355556
 21
-0.9507751271918461
  0
LINE
  5
1DD
100
AcDbEntity
  8
icg
  6
ByLayer
 62
  256
370
   -1
100
AcDbLine
 10
0.5663999999999998
 20
-0.9653731760412287
 11
0.61720976095198
 21
-0.9334286630201571
  0
LINE
  5
1DE
100
AcDbEntity
  8
icg
  6
ByLayer
 62
  256
370
   -1
100
AcDbLine
 10
0.6371999999999999
 20
-0.955640039740179
 11
0.6726377506195916
 21
-0.9333600355658842
  0
LINE
  5
1DF
100
AcDbEntity
  8
icg
  6
ByLayer
 62
  256
370
   -1
100
AcDbLine
 10
0.2007878495782312
 20
-0.9444048244897965
 11
0.2007878495782312
 21
-1.016000000000001
  0
LINE
  5
1E0
100
AcDbEntity
  8
icg
  6
ByLayer
 62
  256
370
   -1
100
AcDbLine
 10
0.3474965479389683
 20
-0.9538605828042583
 11
0.3474965479389683
 21
-1.016000000000001
  0
LINE
  5
1E1
100
AcDbEntity
  8
icg
  6
ByLayer
 62
  256
370
   -1
100
AcDbLine
 10
0.3944175000227185
 20
-0.935675827224155
 11
0.3944175000227185
 21
-1.016000000000001
  0
LINE
  5
1E2
100
AcDbEntity
  8
icg
  6
ByLayer
 62
  256
370
   -1
100
AcDbLine
 10
0.4599032324866234
 20
-0.9473644706490267
 11
0.4599032324866234
 21
-1.016000000000001
  0
LINE
  5
1E3
100
AcDbEntity
  8
icg
  6
ByLayer
 62
  256
370
   -1
100
AcDbLine
 10
0.5532617560355555
 20
-0.9507751271918461
 11
0.5532617560355555
 21
-1.016000000000001
  0
LINE
  5
1E4
100
AcDbEntity
  8
icg
  6
ByLayer
 62
  256
370
   -1
100
AcDbLine
 10
0.61720976095198
 20
-0.9334286630201571
 11
0.61720976095198
 21
-1.016000000000001
  0
LINE
  5
1E5
100
AcDbEntity
  8
icg
  6
ByLayer
 62
  256
370
   -1
100
AcDbLine
 10
0.6726377506195916
 20
-0.9333600355658842
 11
0.6726377506195916
 21
-1.016000000000001
  0
LINE
  5
1E6
100
AcDbEntity
  8
icg
  6
ByLayer
 62
  256
370
   -1
100
AcDbLine
 10
0.1415999999999999
 20
-0.981616710476191
 11
0.1415999999999999
 21
-1.016000000000001
  0
LINE
  5
1E7
100
AcDbEntity
  8
icg
  6
ByLayer
 62
  256
370
   -1
100
AcDbLine
 10
0.3540000000000001
 20
-0.9610866406498491
 11
0.3540000000000001
 21
-1.016000000000001
  0
LINE
  5
1E8
100
AcDbEntity
  8
icg
  6
ByLayer
 62
  256
370
   -1
100
AcDbLine
 10
0.4248
 20
-0.9694341605322454
 11
0.4248
 21
-1.016000000000001
  0
LINE
  5
1E9
100
AcDbEntity
  8
icg
  6
ByLayer
 62
  256
370
   -1
100
AcDbLine
 10
0.4955999999999999
 20
-0.9870275456638895
 11
0.4955999999999999
 21
-1.016000000000001
  0
LINE
  5
1EA
100
AcDbEntity
  8
icg
  6
ByLayer
 62
  256
370
   -1
100
AcDbLine
 10
0.5663999999999998
 20
-0.9653731760412287
 11
0.5663999999999998
 21
-1.016000000000001
  0
LINE
  5
1EB
100
AcDbEntity
  8
icg
  6
ByLayer
 62
  256
370
   -1
100
AcDbLine
 10
0.6371999999999998
 20
-0.955640039740179
 11
0.6371999999999998
 21
-1.016000000000001
  0
LINE
  5
1EC
100
AcDbEntity
  8
icg
  6
ByLayer
 62
  256
370
   -1
100
AcDbLine
 10
0.2142452924119153
 20
-0.9572350189966929
 11
0.2381383845806471
 21
-0.9423018363912354
  0
LINE
  5
1ED
100
AcDbEntity
  8
icg
  6
ByLayer
 62
  256
370
   -1
100
AcDbLine
 10
0.2381383845806471
 20
-0.9423018363912354
 11
0.2381383845806471
 21
-1.016000000000001
  0
LINE
  5
1EE
100
AcDbEntity
  8
icg
  6
ByLayer
 62
  256
370
   -1
100
AcDbLine
 10
0.2142452924119153
 20
-0.9572350189966929
 11
0.2142452924119153
 21
-1.016000000000001
  0
CIRCLE
  5
1EF
100
AcDbEntity
  8
sample
  6
ByLayer
 62
  256
370
   -1
100
AcDbCircle
 10
0.2832000000000001
 20
-0.8411261605322453
 40
0.000708
  0
CIRCLE
  5
1F0
100
AcDbEntity
  8
sample
  6
ByLayer
 62
  256
370
   -1
100
AcDbCircle
 10
0.5663999999999999
 20
-0.8443434237663379
 40
0.000708
  0
CIRCLE
  5
1F1
100
AcDbEntity
  8
sample
  6
ByLayer
 62
  256
370
   -1
100
AcDbCircle
 10
0.1416000000000001
 20
-0.8480000000000005
 40
0.000708
  0
CIRCLE
  5
1F2
100
AcDbEntity
  8
sample
  6
ByLayer
 62
  256
370
   -1
100
AcDbCircle
 10
0.2124000000000002
 20
-0.8680000000000003
 40
0.000708
  0
CIRCLE
  5
1F3
100
AcDbEntity
  8
sample
  6
ByLayer
 62
  256
370
   -1
100
AcDbCircle
 10
0.354
 20
-0.8487195456638899
 40
0.000708
  0
CIRCLE
  5
1F4
100
AcDbEntity
  8
sample
  6
ByLayer
 62
  256
370
   -1
100
AcDbCircle
 10
0.4248
 20
-0.8570651760412291
 40
0.000708
  0
CIRCLE
  5
1F5
100
AcDbEntity
  8
sample
  6
ByLayer
 62
  256
370
   -1
100
AcDbCircle
 10
0.4955999999999999
 20
-0.8473320397401793
 40
0.000708
  0
LINE
  5
1F6
100
AcDbEntity
  8
sig
  6
ByLayer
 62
  256
370
   -1
100
AcDbLine
 10
0.1416000000000001
 20
-0.8487080000000009
 11
0.1416000000000001
 21
-0.8780000000000003
  0
LINE
  5
1F7
100
AcDbEntity
  8
sig
  6
ByLayer
 62
  256
370
   -1
100
AcDbLine
 10
0.2124000000000002
 20
-0.8687080000000003
 11
0.2124000000000002
 21
-0.8780000000000003
  0
LINE
  5
1F8
100
AcDbEntity
  8
sig
  6
ByLayer
 62
  256
370
   -1
100
AcDbLine
 10
0.2832000000000001
 20
-0.8418341605322452
 11
0.2832000000000001
 21
-0.8780000000000003
  0
LINE
  5
1F9
100
AcDbEntity
  8
sig
  6
ByLayer
 62
  256
370
   -1
100
AcDbLine
 10
0.5663999999999999
 20
-0.8450514237663378
 11
0.5663999999999999
 21
-0.8780000000000003
  0
LINE
  5
1FA
100
AcDbEntity
  8
sig
  6
ByLayer
 62
  256
370
   -1
100
AcDbLine
 10
0.4955999999999999
 20
-0.8480400397401793
 11
0.4955999999999999
 21
-0.8780000000000003
  0
LINE
  5
1FB
100
AcDbEntity
  8
sig
  6
ByLayer
 62
  256
370
   -1
100
AcDbLine
 10
0.4248
 20
-0.857773176041229
 11
0.4248
 21
-0.8780000000000003
  0
LINE
  5
1FC
100
AcDbEntity
  8
sig
  6
ByLayer
 62
  256
370
   -1
100
AcDbLine
 10
0.354
 20
-0.8494275456638898
 11
0.354
 21
-0.8780000000000003
  0
CIRCLE
  5
1FD
100
AcDbEntity
  8
sample
  6
ByLayer
 62
  256
370
   -1
100
AcDbCircle
 10
0.6371999999999998
 20
-0.8473320397401793
 40
0.000708
  0
LINE
  5
1FE
100
AcDbEntity
  8
sig
  6
ByLayer
 62
  256
370
   -1
100
AcDbLine
 10
0.6371999999999998
 20
-0.8480400397401793
 11
0.6371999999999998
 21
-0.8780000000000003
  0
LEADER
  5
1FF
100
AcDbEntity
  8
axis
  6
ByLayer
 62
  256
370
   -1
100
AcDbLeader
  3
Standard
 71
    1
 72
    0
 73
    3
 74
    0
 75
    0
 40
1
 41
10
 76
2
 76
2
 10
-1.734723475976807e-18
 20
-0.4300000000000001
 30
0
 10
-1.734723475976807e-18
 20
-0.4900000000000002
 30
0
  0
LEADER
  5
200
100
AcDbEntity
  8
axis
  6
ByLayer
 62
  256
370
   -1
100
AcDbLeader
  3
Standard
 71
    1
 72
    0
 73
    3
 74
    0
 75
    0
 40
1
 41
10
 76
2
 76
2
 10
0.708
 20
-0.4904000000000004
 30
0
 10
6.071532165918825e-17
 20
-0.4904000000000004
 30
0
  0
LEADER
  5
201
100
AcDbEntity
  8
axis
  6
ByLayer
 62
  256
370
   -1
100
AcDbLeader
  3
Standard
 71
    1
 72
    0
 73
    3
 74
    0
 75
    0
 40
1
 41
10
 76
2
 76
2
 10
-1.734723475976807e-18
 20
-0.3424000000000002
 30
0
 10
-1.734723475976807e-18
 20
-0.4024000000000003
 30
0
  0
LEADER
  5
202
100
AcDbEntity
  8
axis
  6
ByLayer
 62
  256
370
   -1
100
AcDbLeader
  3
Standard
 71
    1
 72
    0
 73
    3
 74
    0
 75
    0
 40
1
 41
10
 76
2
 76
2
 10
0.708
 20
-0.4028000000000005
 30
0
 10
6.071532165918825e-17
 20
-0.4028000000000005
 30
0
  0
LEADER
  5
203
100
AcDbEntity
  8
axis
  6
ByLayer
 62
  256
370
   -1
100
AcDbLeader
  3
Standard
 71
    1
 72
    0
 73
    3
 74
    0
 75
    0
 40
1
 41
10
 76
2
 76
2
 10
0.708
 20
-0.6280000000000006
 30
0
 10
6.071532165918825e-17
 20
-0.6280000000000006
 30
0
  0
LEADER
  5
204
100
AcDbEntity
  8
axis
  6
ByLayer
 62
  256
370
   -1
100
AcDbLeader
  3
Standard
 71
    1
 72
    0
 73
    3
 74
    0
 75
    0
 40
1
 41
10
 76
2
 76
2
 10
-5.204170427930418e-18
 20
-0.52
 30
0
 10
6.071532165918825e-17
 20
-0.6280000000000006
 30
0
  0
LINE
  5
205
100
AcDbEntity
  8
mcmp
  6
DOTTINY
 62
  256
370
   25
100
AcDbLine
 10
0.672515104413634
 20
-0.5453600355658839
 11
0.7078773537940423
 21
-0.5846514237663374
  0
LINE
  5
206
100
AcDbEntity
  8
mcmp
  6
DOTTINY
 62
  256
370
   25
100
AcDbLine
 10
0.672515104413634
 20
-0.5453600355658839
 11
0.672515104413634
 21
-0.6280000000000006
  0
LEADER
  5
207
100
AcDbEntity
  8
axis
  6
ByLayer
 62
  256
370
   -1
100
AcDbLeader
  3
Standard
 71
    1
 72
    0
 73
    3
 74
    0
 75
    0
 40
1
 41
10
 76
2
 76
2
 10
2.60208521396521e-17
 20
-0.8180000000000003
 30
0
 10
2.60208521396521e-17
 20
-0.8780000000000003
 30
0
  0
LEADER
  5
208
100
AcDbEntity
  8
axis
  6
ByLayer
 62
  256
370
   -1
100
AcDbLeader
  3
Standard
 71
    1
 72
    0
 73
    3
 74
    0
 75
    0
 40
1
 41
10
 76
2
 76
2
 10
0.708
 20
-0.8784000000000007
 30
0
 10
8.847089727481715e-17
 20
-0.8784000000000007
 30
0
  0
LEADER
  5
209
100
AcDbEntity
  8
axis
  6
ByLayer
 62
  256
370
   -1
100
AcDbLeader
  3
Standard
 71
    1
 72
    0
 73
    3
 74
    0
 75
    0
 40
1
 41
10
 76
2
 76
2
 10
2.60208521396521e-17
 20
-0.7304000000000004
 30
0
 10
2.60208521396521e-17
 20
-0.7904000000000004
 30
0
  0
LEADER
  5
20A
100
AcDbEntity
  8
axis
  6
ByLayer
 62
  256
370
   -1
100
AcDbLeader
  3
Standard
 71
    1
 72
    0
 73
    3
 74
    0
 75
    0
 40
1
 41
10
 76
2
 76
2
 10
0.708
 20
-0.7908000000000008
 30
0
 10
8.847089727481715e-17
 20
-0.7908000000000008
 30
0
  0
LEADER
  5
20B
100
AcDbEntity
  8
axis
  6
ByLayer
 62
  256
370
   -1
100
AcDbLeader
  3
Standard
 71
    1
 72
    0
 73
    3
 74
    0
 75
    0
 40
1
 41
10
 76
2
 76
2
 10
0.708
 20
-1.016000000000001
 30
0
 10
8.847089727481715e-17
 20
-1.016000000000001
 30
0
  0
LEADER
  5
20C
100
AcDbEntity
  8
axis
  6
ByLayer
 62
  256
370
   -1
100
AcDbLeader
  3
Standard
 71
    1
 72
    0
 73
    3
 74
    0
 75
    0
 40
1
 41
10
 76
2
 76
2
 10
2.255140518769848e-17
 20
-0.9080000000000004
 30
0
 10
8.847089727481715e-17
 20
-1.016000000000001
 30
0
  0
MTEXT
  5
20D
100
AcDbEntity
  8
txt
  6
ByLayer
 62
  256
370
   -1
100
AcDbMText
 10
0.7140000000000002
 20
-0.3953000000000006
 30
0
 40
0.0125
 41
0.005357138888888889
 71
    1
 72
    1
  1
t
  7
italicc
210
0
220
0
230
1
 50
0
 73
    2
 44
1
  0
MTEXT
  5
20E
100
AcDbEntity
  8
txt
  6
ByLayer
 62
  256
370
   -1
100
AcDbMText
 10
0.7140000000000002
 20
-0.4829000000000005
 30
0
 40
0.0125
 41
0.005357138888888889
 71
    1
 72
    1
  1
t
  7
italicc
210
0
220
0
230
1
 50
0
 73
    2
 44
1
  0
MTEXT
  5
20F
100
AcDbEntity
  8
txt
  6
ByLayer
 62
  256
370
   -1
100
AcDbMText
 10
0.7140000000000002
 20
-0.6205000000000007
 30
0
 40
0.0125
 41
0.005357138888888889
 71
    1
 72
    1
  1
t
  7
italicc
210
0
220
0
230
1
 50
0
 73
    2
 44
1
  0
MTEXT
  5
210
100
AcDbEntity
  8
txt
  6
ByLayer
 62
  256
370
   -1
100
AcDbMText
 10
0.7140000000000002
 20
-0.783300000000001
 30
0
 40
0.0125
 41
0.005357138888888889
 71
    1
 72
    1
  1
t
  7
italicc
210
0
220
0
230
1
 50
0
 73
    2
 44
1
  0
MTEXT
  5
211
100
AcDbEntity
  8
txt
  6
ByLayer
 62
  256
370
   -1
100
AcDbMText
 10
0.7140000000000002
 20
-0.8709000000000009
 30
0
 40
0.0125
 41
0.005357138888888889
 71
    1
 72
    1
  1
t
  7
italicc
210
0
220
0
230
1
 50
0
 73
    2
 44
1
  0
MTEXT
  5
212
100
AcDbEntity
  8
txt
  6
ByLayer
 62
  256
370
   -1
100
AcDbMText
 10
0.7140000000000002
 20
-1.008500000000001
 30
0
 40
0.0125
 41
0.005357138888888889
 71
    1
 72
    1
  1
t
  7
italicc
210
0
220
0
230
1
 50
0
 73
    2
 44
1
  0
LINE
  5
213
100
AcDbEntity
  8
0
  6
ByLayer
 62
  256
370
   -1
100
AcDbLine
 10
0.124
 20
-0.458
 11
0.128
 21
-0.454
  0
LINE
  5
214
100
AcDbEntity
  8
0
  6
ByLayer
 62
  256
370
   -1
100
AcDbLine
 10
0.128
 20
-0.454
 11
0.137
 21
-0.467
  0
LINE
  5
215
100
AcDbEntity
  8
0
  6
ByLayer
 62
  256
370
   -1
100
AcDbLine
 10
0.137
 20
-0.467
 11
0.124
 21
-0.458
  0
LINE
  5
216
100
AcDbEntity
  8
0
  6
ByLayer
 62
  256
370
   -1
100
AcDbLine
 10
0.1389
 20
-0.4509
 11
0.1439
 21
-0.4509
  0
LINE
  5
217
100
AcDbEntity
  8
0
  6
ByLayer
 62
  256
370
   -1
100
AcDbLine
 10
0.1439
 20
-0.4509
 11
0.1415
 21
-0.4658999999999999
  0
LINE
  5
218
100
AcDbEntity
  8
0
  6
ByLayer
 62
  256
370
   -1
100
AcDbLine
 10
0.1415
 20
-0.4658999999999999
 11
0.1389
 21
-0.4509
  0
LINE
  5
219
100
AcDbEntity
  8
0
  6
ByLayer
 62
  256
370
   -1
100
AcDbLine
 10
0.1389
 20
-0.4509
 11
0.1439
 21
-0.4509
  0
LINE
  5
21A
100
AcDbEntity
  8
0
  6
ByLayer
 62
  256
370
   -1
100
AcDbLine
 10
0.2095773537940423
 20
-0.440372981003308
 11
0.2145773537940423
 21
-0.440372981003308
  0
LINE
  5
21B
100
AcDbEntity
  8
0
  6
ByLayer
 62
  256
370
   -1
100
AcDbLine
 10
0.2145773537940423
 20
-0.440372981003308
 11
0.2121773537940423
 21
-0.4553729810033079
  0
LINE
  5
21C
100
AcDbEntity
  8
0
  6
ByLayer
 62
  256
370
   -1
100
AcDbLine
 10
0.2121773537940423
 20
-0.4553729810033079
 11
0.2095773537940423
 21
-0.4403729810033079
  0
LINE
  5
21D
100
AcDbEntity
  8
0
  6
ByLayer
 62
  256
370
   -1
100
AcDbLine
 10
0.2095773537940423
 20
-0.4403729810033079
 11
0.2145773537940423
 21
-0.440372981003308
  0
LINE
  5
21E
100
AcDbEntity
  8
0
  6
ByLayer
 62
  256
370
   -1
100
AcDbLine
 10
0.2803773537940424
 20
-0.4603729810033073
 11
0.2853773537940424
 21
-0.4603729810033073
  0
LINE
  5
21F
100
AcDbEntity
  8
0
  6
ByLayer
 62
  256
370
   -1
100
AcDbLine
 10
0.2853773537940424
 20
-0.4603729810033073
 11
0.2829773537940424
 21
-0.4753729810033072
  0
LINE
  5
220
100
AcDbEntity
  8
0
  6
ByLayer
 62
  256
370
   -1
100
AcDbLine
 10
0.2829773537940424
 20
-0.4753729810033072
 11
0.2803773537940424
 21
-0.4603729810033072
  0
LINE
  5
221
100
AcDbEntity
  8
0
  6
ByLayer
 62
  256
370
   -1
100
AcDbLine
 10
0.2803773537940424
 20
-0.4603729810033072
 11
0.2853773537940424
 21
-0.4603729810033073
  0
LINE
  5
222
100
AcDbEntity
  8
0
  6
ByLayer
 62
  256
370
   -1
100
AcDbLine
 10
0.3511773537940423
 20
-0.4334991415355523
 11
0.3561773537940423
 21
-0.4334991415355523
  0
LINE
  5
223
100
AcDbEntity
  8
0
  6
ByLayer
 62
  256
370
   -1
100
AcDbLine
 10
0.3561773537940423
 20
-0.4334991415355523
 11
0.3537773537940423
 21
-0.4484991415355522
  0
LINE
  5
224
100
AcDbEntity
  8
0
  6
ByLayer
 62
  256
370
   -1
100
AcDbLine
 10
0.3537773537940423
 20
-0.4484991415355522
 11
0.3511773537940423
 21
-0.4334991415355522
  0
LINE
  5
225
100
AcDbEntity
  8
0
  6
ByLayer
 62
  256
370
   -1
100
AcDbLine
 10
0.3511773537940423
 20
-0.4334991415355522
 11
0.3561773537940423
 21
-0.4334991415355523
  0
LINE
  5
226
100
AcDbEntity
  8
0
  6
ByLayer
 62
  256
370
   -1
100
AcDbLine
 10
0.4219773537940422
 20
-0.4410925266671968
 11
0.4269773537940422
 21
-0.4410925266671968
  0
LINE
  5
227
100
AcDbEntity
  8
0
  6
ByLayer
 62
  256
370
   -1
100
AcDbLine
 10
0.4269773537940422
 20
-0.4410925266671968
 11
0.4245773537940423
 21
-0.4560925266671967
  0
LINE
  5
228
100
AcDbEntity
  8
0
  6
ByLayer
 62
  256
370
   -1
100
AcDbLine
 10
0.4245773537940423
 20
-0.4560925266671967
 11
0.4219773537940422
 21
-0.4410925266671968
  0
LINE
  5
229
100
AcDbEntity
  8
0
  6
ByLayer
 62
  256
370
   -1
100
AcDbLine
 10
0.4219773537940422
 20
-0.4410925266671968
 11
0.4269773537940422
 21
-0.4410925266671968
  0
LINE
  5
22A
100
AcDbEntity
  8
0
  6
ByLayer
 62
  256
370
   -1
100
AcDbLine
 10
0.4927773537940421
 20
-0.4494381570445362
 11
0.4977773537940421
 21
-0.4494381570445362
  0
LINE
  5
22B
100
AcDbEntity
  8
0
  6
ByLayer
 62
  256
370
   -1
100
AcDbLine
 10
0.4977773537940421
 20
-0.4494381570445362
 11
0.4953773537940421
 21
-0.4644381570445361
  0
LINE
  5
22C
100
AcDbEntity
  8
0
  6
ByLayer
 62
  256
370
   -1
100
AcDbLine
 10
0.4953773537940421
 20
-0.4644381570445361
 11
0.4927773537940421
 21
-0.4494381570445361
  0
LINE
  5
22D
100
AcDbEntity
  8
0
  6
ByLayer
 62
  256
370
   -1
100
AcDbLine
 10
0.4927773537940421
 20
-0.4494381570445361
 11
0.4977773537940421
 21
-0.4494381570445362
  0
LINE
  5
22E
100
AcDbEntity
  8
0
  6
ByLayer
 62
  256
370
   -1
100
AcDbLine
 10
0.5635773537940421
 20
-0.4397050207434866
 11
0.5685773537940422
 21
-0.4397050207434866
  0
LINE
  5
22F
100
AcDbEntity
  8
0
  6
ByLayer
 62
  256
370
   -1
100
AcDbLine
 10
0.5685773537940422
 20
-0.4397050207434866
 11
0.5661773537940422
 21
-0.4547050207434865
  0
LINE
  5
230
100
AcDbEntity
  8
0
  6
ByLayer
 62
  256
370
   -1
100
AcDbLine
 10
0.5661773537940422
 20
-0.4547050207434865
 11
0.5635773537940421
 21
-0.4397050207434864
  0
LINE
  5
231
100
AcDbEntity
  8
0
  6
ByLayer
 62
  256
370
   -1
100
AcDbLine
 10
0.5635773537940421
 20
-0.4397050207434864
 11
0.5685773537940422
 21
-0.4397050207434866
  0
LINE
  5
232
100
AcDbEntity
  8
0
  6
ByLayer
 62
  256
370
   -1
100
AcDbLine
 10
0.634377353794042
 20
-0.436716404769645
 11
0.6393773537940421
 21
-0.436716404769645
  0
LINE
  5
233
100
AcDbEntity
  8
0
  6
ByLayer
 62
  256
370
   -1
100
AcDbLine
 10
0.6393773537940421
 20
-0.436716404769645
 11
0.6369773537940422
 21
-0.4517164047696449
  0
LINE
  5
234
100
AcDbEntity
  8
0
  6
ByLayer
 62
  256
370
   -1
100
AcDbLine
 10
0.6369773537940422
 20
-0.4517164047696449
 11
0.634377353794042
 21
-0.4367164047696449
  0
LINE
  5
235
100
AcDbEntity
  8
0
  6
ByLayer
 62
  256
370
   -1
100
AcDbLine
 10
0.634377353794042
 20
-0.4367164047696449
 11
0.6393773537940421
 21
-0.436716404769645
  0
LINE
  5
236
100
AcDbEntity
  8
0
  6
ByLayer
 62
  256
370
   -1
100
AcDbLine
 10
0.1415
 20
-0.4658999999999999
 11
0.1417226462059577
 21
-0.4028000000000005
  0
LINE
  5
237
100
AcDbEntity
  8
0
  6
ByLayer
 62
  256
370
   -1
100
AcDbLine
 10
0.137
 20
-0.467
 11
0.07080000000000006
 21
-0.4028000000000005
  0
LINE
  5
238
100
AcDbEntity
  8
0
  6
ByLayer
 62
  256
370
   -1
100
AcDbLine
 10
0.2121773537940423
 20
-0.4553729810033079
 11
0.2124
 21
-0.4028000000000005
  0
LINE
  5
239
100
AcDbEntity
  8
0
  6
ByLayer
 62
  256
370
   -1
100
AcDbLine
 10
0.2076773537940423
 20
-0.4564729810033079
 11
0.1417226462059577
 21
-0.4028000000000005
  0
LINE
  5
23A
100
AcDbEntity
  8
0
  6
ByLayer
 62
  256
370
   -1
100
AcDbLine
 10
0.2829773537940424
 20
-0.4753729810033072
 11
0.2832000000000002
 21
-0.4028000000000005
  0
LINE
  5
23B
100
AcDbEntity
  8
0
  6
ByLayer
 62
  256
370
   -1
100
AcDbLine
 10
0.2784773537940424
 20
-0.4764729810033072
 11
0.2124
 21
-0.4028000000000005
  0
LINE
  5
23C
100
AcDbEntity
  8
0
  6
ByLayer
 62
  256
370
   -1
100
AcDbLine
 10
0.3537773537940423
 20
-0.4484991415355522
 11
0.3540000000000001
 21
-0.4028000000000005
  0
LINE
  5
23D
100
AcDbEntity
  8
0
  6
ByLayer
 62
  256
370
   -1
100
AcDbLine
 10
0.3492773537940423
 20
-0.4495991415355522
 11
0.2832000000000002
 21
-0.4028000000000005
  0
LINE
  5
23E
100
AcDbEntity
  8
0
  6
ByLayer
 62
  256
370
   -1
100
AcDbLine
 10
0.4245773537940423
 20
-0.4560925266671967
 11
0.4248
 21
-0.4028000000000005
  0
LINE
  5
23F
100
AcDbEntity
  8
0
  6
ByLayer
 62
  256
370
   -1
100
AcDbLine
 10
0.4200773537940422
 20
-0.4571925266671968
 11
0.3540000000000001
 21
-0.4028000000000005
  0
LINE
  5
240
100
AcDbEntity
  8
0
  6
ByLayer
 62
  256
370
   -1
100
AcDbLine
 10
0.4953773537940421
 20
-0.4644381570445361
 11
0.4955999999999999
 21
-0.4028000000000005
  0
LINE
  5
241
100
AcDbEntity
  8
0
  6
ByLayer
 62
  256
370
   -1
100
AcDbLine
 10
0.4908773537940421
 20
-0.4655381570445361
 11
0.4248
 21
-0.4028000000000005
  0
LINE
  5
242
100
AcDbEntity
  8
0
  6
ByLayer
 62
  256
370
   -1
100
AcDbLine
 10
0.5661773537940422
 20
-0.4547050207434865
 11
0.5663999999999999
 21
-0.4028000000000005
  0
LINE
  5
243
100
AcDbEntity
  8
0
  6
ByLayer
 62
  256
370
   -1
100
AcDbLine
 10
0.561677353794042
 20
-0.4558050207434864
 11
0.4955999999999999
 21
-0.4028000000000005
  0
LINE
  5
244
100
AcDbEntity
  8
0
  6
ByLayer
 62
  256
370
   -1
100
AcDbLine
 10
0.6369773537940422
 20
-0.4517164047696449
 11
0.6371999999999999
 21
-0.4028000000000005
  0
LINE
  5
245
100
AcDbEntity
  8
0
  6
ByLayer
 62
  256
370
   -1
100
AcDbLine
 10
0.632477353794042
 20
-0.4528164047696449
 11
0.5663999999999999
 21
-0.4028000000000005
  0
LINE
  5
246
100
AcDbEntity
  8
0
  6
ByLayer
 62
  256
370
   -1
100
AcDbLine
 10
0.6183513109917611
 20
-0.4457132424634516
 11
0.6217556908628871
 21
-0.441195477784645
  0
LINE
  5
247
100
AcDbEntity
  8
0
  6
ByLayer
 62
  256
370
   -1
100
AcDbLine
 10
0.6217556908628871
 20
-0.441195477784645
 11
0.632477353794042
 21
-0.4528164047696449
  0
LINE
  5
248
100
AcDbEntity
  8
0
  6
ByLayer
 62
  256
370
   -1
100
AcDbLine
 10
0.632477353794042
 20
-0.4528164047696449
 11
0.6183513109917611
 21
-0.4457132424634516
  0
LINE
  5
249
100
AcDbEntity
  8
0
  6
ByLayer
 62
  256
370
   -1
100
AcDbLine
 10
0.5475513109917611
 20
-0.4487018584372932
 11
0.5509556908628872
 21
-0.4441840937584866
  0
LINE
  5
24A
100
AcDbEntity
  8
0
  6
ByLayer
 62
  256
370
   -1
100
AcDbLine
 10
0.5509556908628872
 20
-0.4441840937584866
 11
0.561677353794042
 21
-0.4558050207434864
  0
LINE
  5
24B
100
AcDbEntity
  8
0
  6
ByLayer
 62
  256
370
   -1
100
AcDbLine
 10
0.561677353794042
 20
-0.4558050207434864
 11
0.5475513109917611
 21
-0.4487018584372932
  0
LINE
  5
24C
100
AcDbEntity
  8
0
  6
ByLayer
 62
  256
370
   -1
100
AcDbLine
 10
0.4777222620990734
 20
-0.4567664090718133
 11
0.4816518432539498
 21
-0.4526972086654386
  0
LINE
  5
24D
100
AcDbEntity
  8
0
  6
ByLayer
 62
  256
370
   -1
100
AcDbLine
 10
0.4816518432539498
 20
-0.4526972086654386
 11
0.4908773537940421
 21
-0.4655381570445361
  0
LINE
  5
24E
100
AcDbEntity
  8
0
  6
ByLayer
 62
  256
370
   -1
100
AcDbLine
 10
0.4908773537940421
 20
-0.4655381570445361
 11
0.4777222620990734
 21
-0.4567664090718133
  0
LINE
  5
24F
100
AcDbEntity
  8
0
  6
ByLayer
 62
  256
370
   -1
100
AcDbLine
 10
0.4060774297320587
 20
-0.4498439127666918
 11
0.4095601369650034
 21
-0.4453862507865059
  0
LINE
  5
250
100
AcDbEntity
  8
0
  6
ByLayer
 62
  256
370
   -1
100
AcDbLine
 10
0.4095601369650034
 20
-0.4453862507865059
 11
0.4200773537940422
 21
-0.4571925266671968
  0
LINE
  5
251
100
AcDbEntity
  8
0
  6
ByLayer
 62
  256
370
   -1
100
AcDbLine
 10
0.4200773537940422
 20
-0.4571925266671968
 11
0.4060774297320587
 21
-0.4498439127666918
  0
LINE
  5
252
100
AcDbEntity
  8
0
  6
ByLayer
 62
  256
370
   -1
100
AcDbLine
 10
0.3350294951809434
 20
-0.4427435945157189
 11
0.338354510683163
 21
-0.4381671032931775
  0
LINE
  5
253
100
AcDbEntity
  8
0
  6
ByLayer
 62
  256
370
   -1
100
AcDbLine
 10
0.338354510683163
 20
-0.4381671032931775
 11
0.3492773537940423
 21
-0.4495991415355522
  0
LINE
  5
254
100
AcDbEntity
  8
0
  6
ByLayer
 62
  256
370
   -1
100
AcDbLine
 10
0.3492773537940423
 20
-0.4495991415355522
 11
0.3350294951809434
 21
-0.4427435945157189
  0
LINE
  5
255
100
AcDbEntity
  8
0
  6
ByLayer
 62
  256
370
   -1
100
AcDbLine
 10
0.2657993685131166
 20
-0.4670247701030029
 11
0.269936529808003
 21
-0.4631668047817365
  0
LINE
  5
256
100
AcDbEntity
  8
0
  6
ByLayer
 62
  256
370
   -1
100
AcDbLine
 10
0.269936529808003
 20
-0.4631668047817365
 11
0.2784773537940424
 21
-0.4764729810033072
  0
LINE
  5
257
100
AcDbEntity
  8
0
  6
ByLayer
 62
  256
370
   -1
100
AcDbLine
 10
0.2784773537940424
 20
-0.4764729810033072
 11
0.2657993685131166
 21
-0.4670247701030029
  0
LINE
  5
258
100
AcDbEntity
  8
0
  6
ByLayer
 62
  256
370
   -1
100
AcDbLine
 10
0.1938078129848459
 20
-0.4488811539674729
 11
0.1973677867132483
 21
-0.4444849525329292
  0
LINE
  5
259
100
AcDbEntity
  8
0
  6
ByLayer
 62
  256
370
   -1
100
AcDbLine
 10
0.1973677867132483
 20
-0.4444849525329292
 11
0.2076773537940423
 21
-0.4564729810033079
  0
LINE
  5
25A
100
AcDbEntity
  8
0
  6
ByLayer
 62
  256
370
   -1
100
AcDbLine
 10
0.2076773537940423
 20
-0.4564729810033079
 11
0.1938078129848459
 21
-0.4488811539674729
  0
LINE
  5
25B
100
AcDbEntity
  8
0
  6
ByLayer
 62
  256
370
   -1
100
AcDbLine
 10
0.2006652033722736
 20
-0.5564048244897963
 11
0.1416000000000001
 21
-0.49
  0
LINE
  5
25C
100
AcDbEntity
  8
0
  6
ByLayer
 62
  256
370
   -1
100
AcDbLine
 10
0.2362930921687318
 20
-0.5543018363912351
 11
0.2122773537940424
 21
-0.49
  0
LINE
  5
25D
100
AcDbEntity
  8
0
  6
ByLayer
 62
  256
370
   -1
100
AcDbLine
 10
0.3473739017330107
 20
-0.565860582804258
 11
0.2830773537940425
 21
-0.49
  0
LINE
  5
25E
100
AcDbEntity
  8
0
  6
ByLayer
 62
  256
370
   -1
100
AcDbLine
 10
0.3942948538167609
 20
-0.5476758272241544
 11
0.3538773537940424
 21
-0.49
  0
LINE
  5
25F
100
AcDbEntity
  8
0
  6
ByLayer
 62
  256
370
   -1
100
AcDbLine
 10
0.4597805862806658
 20
-0.5593644706490266
 11
0.4246773537940423
 21
-0.49
  0
LINE
  5
260
100
AcDbEntity
  8
0
  6
ByLayer
 62
  256
370
   -1
100
AcDbLine
 10
0.5531391098295978
 20
-0.5627751271918457
 11
0.4954773537940422
 21
-0.49
  0
LINE
  5
261
100
AcDbEntity
  8
0
  6
ByLayer
 62
  256
370
   -1
100
AcDbLine
 10
0.6170871147460224
 20
-0.5454286630201568
 11
0.5662773537940422
 21
-0.49
  0
LINE
  5
262
100
AcDbEntity
  8
0
  6
ByLayer
 62
  256
370
   -1
100
AcDbLine
 10
0.672515104413634
 20
-0.5453600355658839
 11
0.6370773537940422
 21
-0.49
  0
LINE
  5
263
100
AcDbEntity
  8
0
  6
ByLayer
 62
  256
370
   -1
100
AcDbLine
 10
0.6616703908214544
 20
-0.5338538551786487
 11
0.6664146279876607
 21
-0.5307729115389845
  0
LINE
  5
264
100
AcDbEntity
  8
0
  6
ByLayer
 62
  256
370
   -1
100
AcDbLine
 10
0.6664146279876607
 20
-0.5307729115389845
 11
0.6725151044136339
 21
-0.5453600355658839
  0
LINE
  5
265
100
AcDbEntity
  8
0
  6
ByLayer
 62
  256
370
   -1
100
AcDbLine
 10
0.6725151044136339
 20
-0.5453600355658839
 11
0.6616703908214544
 21
-0.5338538551786487
  0
LINE
  5
266
100
AcDbEntity
  8
0
  6
ByLayer
 62
  256
370
   -1
100
AcDbLine
 10
0.6044091294650966
 20
-0.5359804521198523
 11
0.6085462907599831
 21
-0.5321224867985861
  0
LINE
  5
267
100
AcDbEntity
  8
0
  6
ByLayer
 62
  256
370
   -1
100
AcDbLine
 10
0.6085462907599831
 20
-0.5321224867985861
 11
0.6170871147460223
 21
-0.5454286630201568
  0
LINE
  5
268
100
AcDbEntity
  8
0
  6
ByLayer
 62
  256
370
   -1
100
AcDbLine
 10
0.6170871147460223
 20
-0.5454286630201568
 11
0.6044091294650966
 21
-0.5359804521198523
  0
LINE
  5
269
100
AcDbEntity
  8
0
  6
ByLayer
 62
  256
370
   -1
100
AcDbLine
 10
0.5411510813592191
 20
-0.5524655601110517
 11
0.5455472827937629
 21
-0.5489055863826493
  0
LINE
  5
26A
100
AcDbEntity
  8
0
  6
ByLayer
 62
  256
370
   -1
100
AcDbLine
 10
0.5455472827937629
 20
-0.5489055863826493
 11
0.5531391098295977
 21
-0.5627751271918457
  0
LINE
  5
26B
100
AcDbEntity
  8
0
  6
ByLayer
 62
  256
370
   -1
100
AcDbLine
 10
0.5531391098295977
 20
-0.5627751271918457
 11
0.5411510813592191
 21
-0.5524655601110517
  0
LINE
  5
26C
100
AcDbEntity
  8
0
  6
ByLayer
 62
  256
370
   -1
100
AcDbLine
 10
0.4501980045182034
 20
-0.5467877410754958
 11
0.4552382985608838
 21
-0.5442195829878151
  0
LINE
  5
26D
100
AcDbEntity
  8
0
  6
ByLayer
 62
  256
370
   -1
100
AcDbLine
 10
0.4552382985608838
 20
-0.5442195829878151
 11
0.4597805862806658
 21
-0.5593644706490266
  0
LINE
  5
26E
100
AcDbEntity
  8
0
  6
ByLayer
 62
  256
370
   -1
100
AcDbLine
 10
0.4597805862806658
 20
-0.5593644706490266
 11
0.4501980045182034
 21
-0.5467877410754958
  0
LINE
  5
26F
100
AcDbEntity
  8
0
  6
ByLayer
 62
  256
370
   -1
100
AcDbLine
 10
0.3830551866266045
 20
-0.5365551311373744
 11
0.387689010349321
 21
-0.5333104928359933
  0
LINE
  5
270
100
AcDbEntity
  8
0
  6
ByLayer
 62
  256
370
   -1
100
AcDbLine
 10
0.387689010349321
 20
-0.5333104928359933
 11
0.3942948538167608
 21
-0.5476758272241544
  0
LINE
  5
271
100
AcDbEntity
  8
0
  6
ByLayer
 62
  256
370
   -1
100
AcDbLine
 10
0.3942948538167608
 20
-0.5476758272241544
 11
0.3830551866266045
 21
-0.5365551311373744
  0
LINE
  5
272
100
AcDbEntity
  8
0
  6
ByLayer
 62
  256
370
   -1
100
AcDbLine
 10
0.335207772342547
 20
-0.5557618058657128
 11
0.3395411741059045
 21
-0.5521256500443363
  0
LINE
  5
273
100
AcDbEntity
  8
0
  6
ByLayer
 62
  256
370
   -1
100
AcDbLine
 10
0.3395411741059045
 20
-0.5521256500443363
 11
0.3473739017330106
 21
-0.565860582804258
  0
LINE
  5
274
100
AcDbEntity
  8
0
  6
ByLayer
 62
  256
370
   -1
100
AcDbLine
 10
0.3473739017330106
 20
-0.565860582804258
 11
0.335207772342547
 21
-0.5557618058657128
  0
LINE
  5
275
100
AcDbEntity
  8
0
  6
ByLayer
 62
  256
370
   -1
100
AcDbLine
 10
0.2280776310070602
 20
-0.5407923509124664
 11
0.2333587594099338
 21
-0.538765115654199
  0
LINE
  5
276
100
AcDbEntity
  8
0
  6
ByLayer
 62
  256
370
   -1
100
AcDbLine
 10
0.2333587594099338
 20
-0.538765115654199
 11
0.2362930921687318
 21
-0.5543018363912351
  0
LINE
  5
277
100
AcDbEntity
  8
0
  6
ByLayer
 62
  256
370
   -1
100
AcDbLine
 10
0.2362930921687318
 20
-0.5543018363912351
 11
0.2280776310070602
 21
-0.5407923509124664
  0
LINE
  5
278
100
AcDbEntity
  8
0
  6
ByLayer
 62
  256
370
   -1
100
AcDbLine
 10
0.1881540430266507
 20
-0.546736791245847
 11
0.1923579049906407
 21
-0.5429516169318003
  0
LINE
  5
279
100
AcDbEntity
  8
0
  6
ByLayer
 62
  256
370
   -1
100
AcDbLine
 10
0.1923579049906407
 20
-0.5429516169318003
 11
0.2006652033722736
 21
-0.5564048244897963
  0
LINE
  5
27A
100
AcDbEntity
  8
0
  6
ByLayer
 62
  256
370
   -1
100
AcDbLine
 10
0.2006652033722736
 20
-0.5564048244897963
 11
0.1881540430266507
 21
-0.546736791245847
  0
LINE
  5
27B
100
AcDbEntity
  8
0
  6
ByLayer
 62
  256
370
   -1
100
AcDbLine
 10
0.1389999999999999
 20
-0.9666167104761911
 11
0.1439999999999999
 21
-0.9666167104761911
  0
LINE
  5
27C
100
AcDbEntity
  8
0
  6
ByLayer
 62
  256
370
   -1
100
AcDbLine
 10
0.1439999999999999
 20
-0.9666167104761911
 11
0.1415999999999999
 21
-0.981616710476191
  0
LINE
  5
27D
100
AcDbEntity
  8
0
  6
ByLayer
 62
  256
370
   -1
100
AcDbLine
 10
0.1415999999999999
 20
-0.981616710476191
 11
0.1389999999999999
 21
-0.9666167104761911
  0
LINE
  5
27E
100
AcDbEntity
  8
0
  6
ByLayer
 62
  256
370
   -1
100
AcDbLine
 10
0.1389999999999999
 20
-0.9666167104761911
 11
0.1439999999999999
 21
-0.9666167104761911
  0
LINE
  5
27F
100
AcDbEntity
  8
0
  6
ByLayer
 62
  256
370
   -1
100
AcDbLine
 10
0.2116452924119153
 20
-0.942235018996693
 11
0.2166452924119153
 21
-0.942235018996693
  0
LINE
  5
280
100
AcDbEntity
  8
0
  6
ByLayer
 62
  256
370
   -1
100
AcDbLine
 10
0.2166452924119153
 20
-0.942235018996693
 11
0.2142452924119153
 21
-0.9572350189966929
  0
LINE
  5
281
100
AcDbEntity
  8
0
  6
ByLayer
 62
  256
370
   -1
100
AcDbLine
 10
0.2142452924119153
 20
-0.9572350189966929
 11
0.2116452924119153
 21
-0.942235018996693
  0
LINE
  5
282
100
AcDbEntity
  8
0
  6
ByLayer
 62
  256
370
   -1
100
AcDbLine
 10
0.2116452924119153
 20
-0.942235018996693
 11
0.2166452924119153
 21
-0.942235018996693
  0
LINE
  5
283
100
AcDbEntity
  8
0
  6
ByLayer
 62
  256
370
   -1
100
AcDbLine
 10
0.2805999999999999
 20
-0.9792843493082473
 11
0.2855999999999999
 21
-0.9792843493082473
  0
LINE
  5
284
100
AcDbEntity
  8
0
  6
ByLayer
 62
  256
370
   -1
100
AcDbLine
 10
0.2855999999999999
 20
-0.9792843493082473
 11
0.2831999999999999
 21
-0.9942843493082472
  0
LINE
  5
285
100
AcDbEntity
  8
0
  6
ByLayer
 62
  256
370
   -1
100
AcDbLine
 10
0.2831999999999999
 20
-0.9942843493082472
 11
0.2805999999999999
 21
-0.9792843493082473
  0
LINE
  5
286
100
AcDbEntity
  8
0
  6
ByLayer
 62
  256
370
   -1
100
AcDbLine
 10
0.2805999999999999
 20
-0.9792843493082473
 11
0.2855999999999999
 21
-0.9792843493082473
  0
LINE
  5
287
100
AcDbEntity
  8
0
  6
ByLayer
 62
  256
370
   -1
100
AcDbLine
 10
0.3514000000000001
 20
-0.9460866406498492
 11
0.3564000000000001
 21
-0.9460866406498492
  0
LINE
  5
288
100
AcDbEntity
  8
0
  6
ByLayer
 62
  256
370
   -1
100
AcDbLine
 10
0.3564000000000001
 20
-0.9460866406498492
 11
0.3540000000000001
 21
-0.9610866406498491
  0
LINE
  5
289
100
AcDbEntity
  8
0
  6
ByLayer
 62
  256
370
   -1
100
AcDbLine
 10
0.3540000000000001
 20
-0.9610866406498491
 11
0.3514000000000001
 21
-0.9460866406498492
  0
LINE
  5
28A
100
AcDbEntity
  8
0
  6
ByLayer
 62
  256
370
   -1
100
AcDbLine
 10
0.3514000000000001
 20
-0.9460866406498492
 11
0.3564000000000001
 21
-0.9460866406498492
  0
LINE
  5
28B
100
AcDbEntity
  8
0
  6
ByLayer
 62
  256
370
   -1
100
AcDbLine
 10
0.4222
 20
-0.9544341605322455
 11
0.4272
 21
-0.9544341605322455
  0
LINE
  5
28C
100
AcDbEntity
  8
0
  6
ByLayer
 62
  256
370
   -1
100
AcDbLine
 10
0.4272
 20
-0.9544341605322455
 11
0.4248
 21
-0.9694341605322454
  0
LINE
  5
28D
100
AcDbEntity
  8
0
  6
ByLayer
 62
  256
370
   -1
100
AcDbLine
 10
0.4248
 20
-0.9694341605322454
 11
0.4222
 21
-0.9544341605322455
  0
LINE
  5
28E
100
AcDbEntity
  8
0
  6
ByLayer
 62
  256
370
   -1
100
AcDbLine
 10
0.4222
 20
-0.9544341605322455
 11
0.4272
 21
-0.9544341605322455
  0
LINE
  5
28F
100
AcDbEntity
  8
0
  6
ByLayer
 62
  256
370
   -1
100
AcDbLine
 10
0.4929999999999999
 20
-0.9720275456638896
 11
0.4979999999999999
 21
-0.9720275456638896
  0
LINE
  5
290
100
AcDbEntity
  8
0
  6
ByLayer
 62
  256
370
   -1
100
AcDbLine
 10
0.4979999999999999
 20
-0.9720275456638896
 11
0.4955999999999999
 21
-0.9870275456638895
  0
LINE
  5
291
100
AcDbEntity
  8
0
  6
ByLayer
 62
  256
370
   -1
100
AcDbLine
 10
0.4955999999999999
 20
-0.9870275456638895
 11
0.4929999999999999
 21
-0.9720275456638896
  0
LINE
  5
292
100
AcDbEntity
  8
0
  6
ByLayer
 62
  256
370
   -1
100
AcDbLine
 10
0.4929999999999999
 20
-0.9720275456638896
 11
0.4979999999999999
 21
-0.9720275456638896
  0
LINE
  5
293
100
AcDbEntity
  8
0
  6
ByLayer
 62
  256
370
   -1
100
AcDbLine
 10
0.5637999999999999
 20
-0.9503731760412288
 11
0.5687999999999998
 21
-0.9503731760412288
  0
LINE
  5
294
100
AcDbEntity
  8
0
  6
ByLayer
 62
  256
370
   -1
100
AcDbLine
 10
0.5687999999999998
 20
-0.9503731760412288
 11
0.5663999999999998
 21
-0.9653731760412287
  0
LINE
  5
295
100
AcDbEntity
  8
0
  6
ByLayer
 62
  256
370
   -1
100
AcDbLine
 10
0.5663999999999998
 20
-0.9653731760412287
 11
0.5637999999999999
 21
-0.9503731760412288
  0
LINE
  5
296
100
AcDbEntity
  8
0
  6
ByLayer
 62
  256
370
   -1
100
AcDbLine
 10
0.5637999999999999
 20
-0.9503731760412288
 11
0.5687999999999998
 21
-0.9503731760412288
  0
LINE
  5
297
100
AcDbEntity
  8
0
  6
ByLayer
 62
  256
370
   -1
100
AcDbLine
 10
0.6345999999999998
 20
-0.9406400397401791
 11
0.6395999999999997
 21
-0.9406400397401791
  0
LINE
  5
298
100
AcDbEntity
  8
0
  6
ByLayer
 62
  256
370
   -1
100
AcDbLine
 10
0.6395999999999997
 20
-0.9406400397401791
 11
0.6371999999999998
 21
-0.955640039740179
  0
LINE
  5
299
100
AcDbEntity
  8
0
  6
ByLayer
 62
  256
370
   -1
100
AcDbLine
 10
0.6371999999999998
 20
-0.955640039740179
 11
0.6345999999999998
 21
-0.9406400397401791
  0
LINE
  5
29A
100
AcDbEntity
  8
0
  6
ByLayer
 62
  256
370
   -1
100
AcDbLine
 10
0.6345999999999998
 20
-0.9406400397401791
 11
0.6395999999999997
 21
-0.9406400397401791
  0
LINE
  5
29B
100
AcDbEntity
  8
0
  6
ByLayer
 62
  256
370
   -1
100
AcDbLine
 10
0.6371999999999999
 20
-0.955640039740179
 11
0.6371999999999998
 21
-0.8780000000000003
  0
LINE
  5
29C
100
AcDbEntity
  8
0
  6
ByLayer
 62
  256
370
   -1
100
AcDbLine
 10
0.5663999999999998
 20
-0.9653731760412287
 11
0.5663999999999999
 21
-0.8780000000000003
  0
LINE
  5
29D
100
AcDbEntity
  8
0
  6
ByLayer
 62
  256
370
   -1
100
AcDbLine
 10
0.4955999999999999
 20
-0.9870275456638895
 11
0.4955999999999999
 21
-0.8780000000000003
  0
LINE
  5
29E
100
AcDbEntity
  8
0
  6
ByLayer
 62
  256
370
   -1
100
AcDbLine
 10
0.4247999999999999
 20
-0.9694341605322454
 11
0.4248
 21
-0.8780000000000003
  0
LINE
  5
29F
100
AcDbEntity
  8
0
  6
ByLayer
 62
  256
370
   -1
100
AcDbLine
 10
0.354
 20
-0.9610866406498491
 11
0.354
 21
-0.8780000000000003
  0
LINE
  5
2A0
100
AcDbEntity
  8
0
  6
ByLayer
 62
  256
370
   -1
100
AcDbLine
 10
0.2831999999999999
 20
-0.9942843493082472
 11
0.2832000000000001
 21
-0.8780000000000003
  0
LINE
  5
2A1
100
AcDbEntity
  8
0
  6
ByLayer
 62
  256
370
   -1
100
AcDbLine
 10
0.2142452924119153
 20
-0.9572350189966929
 11
0.2124000000000002
 21
-0.8780000000000003
  0
LINE
  5
2A2
100
AcDbEntity
  8
0
  6
ByLayer
 62
  256
370
   -1
100
AcDbLine
 10
0.1415999999999999
 20
-0.981616710476191
 11
0.1416000000000001
 21
-0.8780000000000003
  0
LINE
  5
2A3
100
AcDbEntity
  8
0
  6
ByLayer
 62
  256
370
   -1
100
AcDbLine
 10
0.1389000000000001
 20
-0.8283729810033083
 11
0.1439000000000001
 21
-0.8283729810033083
  0
LINE
  5
2A4
100
AcDbEntity
  8
0
  6
ByLayer
 62
  256
370
   -1
100
AcDbLine
 10
0.1439000000000001
 20
-0.8283729810033083
 11
0.1415000000000001
 21
-0.8433729810033082
  0
LINE
  5
2A5
100
AcDbEntity
  8
0
  6
ByLayer
 62
  256
370
   -1
100
AcDbLine
 10
0.1415000000000001
 20
-0.8433729810033082
 11
0.1389000000000001
 21
-0.828372981003308
  0
LINE
  5
2A6
100
AcDbEntity
  8
0
  6
ByLayer
 62
  256
370
   -1
100
AcDbLine
 10
0.1389000000000001
 20
-0.828372981003308
 11
0.1439000000000001
 21
-0.8283729810033083
  0
LINE
  5
2A7
100
AcDbEntity
  8
0
  6
ByLayer
 62
  256
370
   -1
100
AcDbLine
 10
0.2097000000000002
 20
-0.8483729810033076
 11
0.2147000000000002
 21
-0.8483729810033076
  0
LINE
  5
2A8
100
AcDbEntity
  8
0
  6
ByLayer
 62
  256
370
   -1
100
AcDbLine
 10
0.2147000000000002
 20
-0.8483729810033076
 11
0.2123000000000002
 21
-0.8633729810033075
  0
LINE
  5
2A9
100
AcDbEntity
  8
0
  6
ByLayer
 62
  256
370
   -1
100
AcDbLine
 10
0.2123000000000002
 20
-0.8633729810033075
 11
0.2097000000000002
 21
-0.8483729810033074
  0
LINE
  5
2AA
100
AcDbEntity
  8
0
  6
ByLayer
 62
  256
370
   -1
100
AcDbLine
 10
0.2097000000000002
 20
-0.8483729810033074
 11
0.2147000000000002
 21
-0.8483729810033076
  0
LINE
  5
2AB
100
AcDbEntity
  8
0
  6
ByLayer
 62
  256
370
   -1
100
AcDbLine
 10
0.2805000000000001
 20
-0.8214991415355526
 11
0.2855000000000001
 21
-0.8214991415355526
  0
LINE
  5
2AC
100
AcDbEntity
  8
0
  6
ByLayer
 62
  256
370
   -1
100
AcDbLine
 10
0.2855000000000001
 20
-0.8214991415355526
 11
0.2831000000000001
 21
-0.8364991415355525
  0
LINE
  5
2AD
100
AcDbEntity
  8
0
  6
ByLayer
 62
  256
370
   -1
100
AcDbLine
 10
0.2831000000000001
 20
-0.8364991415355525
 11
0.2805000000000001
 21
-0.8214991415355524
  0
LINE
  5
2AE
100
AcDbEntity
  8
0
  6
ByLayer
 62
  256
370
   -1
100
AcDbLine
 10
0.2805000000000001
 20
-0.8214991415355524
 11
0.2855000000000001
 21
-0.8214991415355526
  0
LINE
  5
2AF
100
AcDbEntity
  8
0
  6
ByLayer
 62
  256
370
   -1
100
AcDbLine
 10
0.3513
 20
-0.8290925266671971
 11
0.3563
 21
-0.8290925266671971
  0
LINE
  5
2B0
100
AcDbEntity
  8
0
  6
ByLayer
 62
  256
370
   -1
100
AcDbLine
 10
0.3563
 20
-0.8290925266671971
 11
0.3539
 21
-0.844092526667197
  0
LINE
  5
2B1
100
AcDbEntity
  8
0
  6
ByLayer
 62
  256
370
   -1
100
AcDbLine
 10
0.3539
 20
-0.844092526667197
 11
0.3513
 21
-0.8290925266671971
  0
LINE
  5
2B2
100
AcDbEntity
  8
0
  6
ByLayer
 62
  256
370
   -1
100
AcDbLine
 10
0.3513
 20
-0.8290925266671971
 11
0.3563
 21
-0.8290925266671971
  0
LINE
  5
2B3
100
AcDbEntity
  8
0
  6
ByLayer
 62
  256
370
   -1
100
AcDbLine
 10
0.4220999999999999
 20
-0.8374381570445364
 11
0.4270999999999999
 21
-0.8374381570445364
  0
LINE
  5
2B4
100
AcDbEntity
  8
0
  6
ByLayer
 62
  256
370
   -1
100
AcDbLine
 10
0.4270999999999999
 20
-0.8374381570445364
 11
0.4246999999999999
 21
-0.8524381570445363
  0
LINE
  5
2B5
100
AcDbEntity
  8
0
  6
ByLayer
 62
  256
370
   -1
100
AcDbLine
 10
0.4246999999999999
 20
-0.8524381570445363
 11
0.4220999999999999
 21
-0.8374381570445364
  0
LINE
  5
2B6
100
AcDbEntity
  8
0
  6
ByLayer
 62
  256
370
   -1
100
AcDbLine
 10
0.4220999999999999
 20
-0.8374381570445364
 11
0.4270999999999999
 21
-0.8374381570445364
  0
LINE
  5
2B7
100
AcDbEntity
  8
0
  6
ByLayer
 62
  256
370
   -1
100
AcDbLine
 10
0.4928999999999998
 20
-0.8277050207434868
 11
0.4979
 21
-0.8277050207434868
  0
LINE
  5
2B8
100
AcDbEntity
  8
0
  6
ByLayer
 62
  256
370
   -1
100
AcDbLine
 10
0.4979
 20
-0.8277050207434868
 11
0.4955
 21
-0.8427050207434867
  0
LINE
  5
2B9
100
AcDbEntity
  8
0
  6
ByLayer
 62
  256
370
   -1
100
AcDbLine
 10
0.4955
 20
-0.8427050207434867
 11
0.4928999999999998
 21
-0.8277050207434866
  0
LINE
  5
2BA
100
AcDbEntity
  8
0
  6
ByLayer
 62
  256
370
   -1
100
AcDbLine
 10
0.4928999999999998
 20
-0.8277050207434866
 11
0.4979
 21
-0.8277050207434868
  0
LINE
  5
2BB
100
AcDbEntity
  8
0
  6
ByLayer
 62
  256
370
   -1
100
AcDbLine
 10
0.5636999999999999
 20
-0.8247164047696451
 11
0.5687
 21
-0.8247164047696451
  0
LINE
  5
2BC
100
AcDbEntity
  8
0
  6
ByLayer
 62
  256
370
   -1
100
AcDbLine
 10
0.5687
 20
-0.8247164047696451
 11
0.5663
 21
-0.839716404769645
  0
LINE
  5
2BD
100
AcDbEntity
  8
0
  6
ByLayer
 62
  256
370
   -1
100
AcDbLine
 10
0.5663
 20
-0.839716404769645
 11
0.5636999999999999
 21
-0.8247164047696451
  0
LINE
  5
2BE
100
AcDbEntity
  8
0
  6
ByLayer
 62
  256
370
   -1
100
AcDbLine
 10
0.5636999999999999
 20
-0.8247164047696451
 11
0.5687
 21
-0.8247164047696451
  0
LINE
  5
2BF
100
AcDbEntity
  8
0
  6
ByLayer
 62
  256
370
   -1
100
AcDbLine
 10
0.1415000000000001
 20
-0.8433729810033082
 11
0.1417226462059578
 21
-0.7908000000000008
  0
LINE
  5
2C0
100
AcDbEntity
  8
0
  6
ByLayer
 62
  256
370
   -1
100
AcDbLine
 10
0.1370000000000001
 20
-0.844472981003308
 11
0.07104529241191548
 21
-0.7908000000000008
  0
LINE
  5
2C1
100
AcDbEntity
  8
0
  6
ByLayer
 62
  256
370
   -1
100
AcDbLine
 10
0.2123000000000002
 20
-0.8633729810033075
 11
0.212522646205958
 21
-0.7908000000000008
  0
LINE
  5
2C2
100
AcDbEntity
  8
0
  6
ByLayer
 62
  256
370
   -1
100
AcDbLine
 10
0.2078000000000002
 20
-0.8644729810033074
 11
0.1417226462059578
 21
-0.7908000000000008
  0
LINE
  5
2C3
100
AcDbEntity
  8
0
  6
ByLayer
 62
  256
370
   -1
100
AcDbLine
 10
0.2831000000000001
 20
-0.8364991415355525
 11
0.2833226462059579
 21
-0.7908000000000008
  0
LINE
  5
2C4
100
AcDbEntity
  8
0
  6
ByLayer
 62
  256
370
   -1
100
AcDbLine
 10
0.2786000000000001
 20
-0.8375991415355524
 11
0.212522646205958
 21
-0.7908000000000008
  0
LINE
  5
2C5
100
AcDbEntity
  8
0
  6
ByLayer
 62
  256
370
   -1
100
AcDbLine
 10
0.3539
 20
-0.844092526667197
 11
0.3541226462059578
 21
-0.7908000000000008
  0
LINE
  5
2C6
100
AcDbEntity
  8
0
  6
ByLayer
 62
  256
370
   -1
100
AcDbLine
 10
0.3494
 20
-0.8451925266671971
 11
0.2833226462059579
 21
-0.7908000000000008
  0
LINE
  5
2C7
100
AcDbEntity
  8
0
  6
ByLayer
 62
  256
370
   -1
100
AcDbLine
 10
0.4246999999999999
 20
-0.8524381570445363
 11
0.4249226462059577
 21
-0.7908000000000008
  0
LINE
  5
2C8
100
AcDbEntity
  8
0
  6
ByLayer
 62
  256
370
   -1
100
AcDbLine
 10
0.4201999999999999
 20
-0.8535381570445364
 11
0.3541226462059578
 21
-0.7908000000000008
  0
LINE
  5
2C9
100
AcDbEntity
  8
0
  6
ByLayer
 62
  256
370
   -1
100
AcDbLine
 10
0.4955
 20
-0.8427050207434867
 11
0.4957226462059577
 21
-0.7908000000000008
  0
LINE
  5
2CA
100
AcDbEntity
  8
0
  6
ByLayer
 62
  256
370
   -1
100
AcDbLine
 10
0.4909999999999998
 20
-0.8438050207434866
 11
0.4249226462059577
 21
-0.7908000000000008
  0
LINE
  5
2CB
100
AcDbEntity
  8
0
  6
ByLayer
 62
  256
370
   -1
100
AcDbLine
 10
0.5663
 20
-0.839716404769645
 11
0.5665226462059576
 21
-0.7908000000000008
  0
LINE
  5
2CC
100
AcDbEntity
  8
0
  6
ByLayer
 62
  256
370
   -1
100
AcDbLine
 10
0.5617999999999999
 20
-0.8408164047696451
 11
0.4957226462059577
 21
-0.7908000000000008
  0
LINE
  5
2CD
100
AcDbEntity
  8
0
  6
ByLayer
 62
  256
370
   -1
100
AcDbLine
 10
0.5476739571977189
 20
-0.8337132424634519
 11
0.5510783370688448
 21
-0.8291954777846453
  0
LINE
  5
2CE
100
AcDbEntity
  8
0
  6
ByLayer
 62
  256
370
   -1
100
AcDbLine
 10
0.5510783370688448
 20
-0.8291954777846453
 11
0.5617999999999999
 21
-0.8408164047696451
  0
LINE
  5
2CF
100
AcDbEntity
  8
0
  6
ByLayer
 62
  256
370
   -1
100
AcDbLine
 10
0.5617999999999999
 20
-0.8408164047696451
 11
0.5476739571977189
 21
-0.8337132424634519
  0
LINE
  5
2D0
100
AcDbEntity
  8
0
  6
ByLayer
 62
  256
370
   -1
100
AcDbLine
 10
0.4768739571977189
 20
-0.8367018584372934
 11
0.480278337068845
 21
-0.8321840937584868
  0
LINE
  5
2D1
100
AcDbEntity
  8
0
  6
ByLayer
 62
  256
370
   -1
100
AcDbLine
 10
0.480278337068845
 20
-0.8321840937584868
 11
0.4909999999999998
 21
-0.8438050207434866
  0
LINE
  5
2D2
100
AcDbEntity
  8
0
  6
ByLayer
 62
  256
370
   -1
100
AcDbLine
 10
0.4909999999999998
 20
-0.8438050207434866
 11
0.4768739571977189
 21
-0.8367018584372934
  0
LINE
  5
2D3
100
AcDbEntity
  8
0
  6
ByLayer
 62
  256
370
   -1
100
AcDbLine
 10
0.4070449083050312
 20
-0.8447664090718134
 11
0.4109744894599076
 21
-0.8406972086654387
  0
LINE
  5
2D4
100
AcDbEntity
  8
0
  6
ByLayer
 62
  256
370
   -1
100
AcDbLine
 10
0.4109744894599076
 20
-0.8406972086654387
 11
0.4201999999999999
 21
-0.8535381570445364
  0
LINE
  5
2D5
100
AcDbEntity
  8
0
  6
ByLayer
 62
  256
370
   -1
100
AcDbLine
 10
0.4201999999999999
 20
-0.8535381570445364
 11
0.4070449083050312
 21
-0.8447664090718134
  0
LINE
  5
2D6
100
AcDbEntity
  8
0
  6
ByLayer
 62
  256
370
   -1
100
AcDbLine
 10
0.3354000759380165
 20
-0.8378439127666921
 11
0.3388827831709612
 21
-0.8333862507865062
  0
LINE
  5
2D7
100
AcDbEntity
  8
0
  6
ByLayer
 62
  256
370
   -1
100
AcDbLine
 10
0.3388827831709612
 20
-0.8333862507865062
 11
0.3494
 21
-0.8451925266671971
  0
LINE
  5
2D8
100
AcDbEntity
  8
0
  6
ByLayer
 62
  256
370
   -1
100
AcDbLine
 10
0.3494
 20
-0.8451925266671971
 11
0.3354000759380165
 21
-0.8378439127666921
  0
LINE
  5
2D9
100
AcDbEntity
  8
0
  6
ByLayer
 62
  256
370
   -1
100
AcDbLine
 10
0.2643521413869012
 20
-0.8307435945157191
 11
0.2676771568891208
 21
-0.8261671032931777
  0
LINE
  5
2DA
100
AcDbEntity
  8
0
  6
ByLayer
 62
  256
370
   -1
100
AcDbLine
 10
0.2676771568891208
 20
-0.8261671032931777
 11
0.2786000000000001
 21
-0.8375991415355524
  0
LINE
  5
2DB
100
AcDbEntity
  8
0
  6
ByLayer
 62
  256
370
   -1
100
AcDbLine
 10
0.2786000000000001
 20
-0.8375991415355524
 11
0.2643521413869012
 21
-0.8307435945157191
  0
LINE
  5
2DC
100
AcDbEntity
  8
0
  6
ByLayer
 62
  256
370
   -1
100
AcDbLine
 10
0.1951220147190744
 20
-0.8550247701030032
 11
0.1992591760139608
 21
-0.8511668047817367
  0
LINE
  5
2DD
100
AcDbEntity
  8
0
  6
ByLayer
 62
  256
370
   -1
100
AcDbLine
 10
0.1992591760139608
 20
-0.8511668047817367
 11
0.2078000000000002
 21
-0.8644729810033074
  0
LINE
  5
2DE
100
AcDbEntity
  8
0
  6
ByLayer
 62
  256
370
   -1
100
AcDbLine
 10
0.1231304591908036
 20
-0.8368811539674732
 11
0.1266904329192061
 21
-0.8324849525329294
  0
LINE
  5
2DF
100
AcDbEntity
  8
0
  6
ByLayer
 62
  256
370
   -1
100
AcDbLine
 10
0.1266904329192061
 20
-0.8324849525329294
 11
0.1370000000000001
 21
-0.844472981003308
  0
LINE
  5
2E0
100
AcDbEntity
  8
0
  6
ByLayer
 62
  256
370
   -1
100
AcDbLine
 10
0.1370000000000001
 20
-0.844472981003308
 11
0.1231304591908036
 21
-0.8368811539674732
  0
LINE
  5
2E1
100
AcDbEntity
  8
0
  6
ByLayer
 62
  256
370
   -1
100
AcDbLine
 10
0.6343773537940423
 20
-0.8289000000000002
 11
0.6393773537940421
 21
-0.8289000000000002
  0
LINE
  5
2E2
100
AcDbEntity
  8
0
  6
ByLayer
 62
  256
370
   -1
100
AcDbLine
 10
0.6393773537940421
 20
-0.8289000000000002
 11
0.6369773537940422
 21
-0.8439000000000001
  0
LINE
  5
2E3
100
AcDbEntity
  8
0
  6
ByLayer
 62
  256
370
   -1
100
AcDbLine
 10
0.6369773537940422
 20
-0.8439000000000001
 11
0.6343773537940423
 21
-0.8289000000000002
  0
LINE
  5
2E4
100
AcDbEntity
  8
0
  6
ByLayer
 62
  256
370
   -1
100
AcDbLine
 10
0.6343773537940423
 20
-0.8289000000000002
 11
0.6393773537940421
 21
-0.8289000000000002
  0
LINE
  5
2E5
100
AcDbEntity
  8
0
  6
ByLayer
 62
  256
370
   -1
100
AcDbLine
 10
0.6369773537940422
 20
-0.8439000000000001
 11
0.6371999999999999
 21
-0.7908000000000008
  0
LINE
  5
2E6
100
AcDbEntity
  8
0
  6
ByLayer
 62
  256
370
   -1
100
AcDbLine
 10
0.6324773537940422
 20
-0.8450000000000002
 11
0.5665226462059576
 21
-0.7908000000000008
  0
LINE
  5
2E7
100
AcDbEntity
  8
0
  6
ByLayer
 62
  256
370
   -1
100
AcDbLine
 10
0.6188812128769673
 20
-0.8369287577063356
 11
0.6225924431830301
 21
-0.8326594756103196
  0
LINE
  5
2E8
100
AcDbEntity
  8
0
  6
ByLayer
 62
  256
370
   -1
100
AcDbLine
 10
0.6225924431830301
 20
-0.8326594756103196
 11
0.6324773537940422
 21
-0.8450000000000002
  0
LINE
  5
2E9
100
AcDbEntity
  8
0
  6
ByLayer
 62
  256
370
   -1
100
AcDbLine
 10
0.6324773537940422
 20
-0.8450000000000002
 11
0.6188812128769673
 21
-0.8369287577063356
  0
MTEXT
  5
2EA
100
AcDbEntity
  8
txt
  6
ByLayer
 62
  256
370
   -1
100
AcDbMText
 10
0.06
 20
-0.2
 30
0
 40
0.0125
 41
0.6074404902777778
 71
    1
 72
    1
  1
e) Valley currents are expressed as a discrete time\P    IIR filter for which (b) is the input, and steps shown \P    in (c) and (d) may be considered analogous to\P    computations performed between samples
  7
romanp
210
0
220
0
230
1
 50
0
 73
    2
 44
1
  0
MTEXT
  5
2EB
100
AcDbEntity
  8
txt
  6
ByLayer
 62
  256
370
   -1
100
AcDbMText
 10
0.05999999999999999
 20
0.19
 30
0
 40
0.0125
 41
0.6583336111111111
 71
    1
 72
    1
  1
c) Time domain convolution of the sampled peak current \Pcontrol signal with a Zero-Order-Hold impulse response.
  7
romanp
210
0
220
0
230
1
 50
0
 73
    2
 44
1
  0
ENDSEC
  0
SECTION
  2
OBJECTS
  0
DICTIONARY
  5
C
330
0
100
AcDbDictionary
281
    1
  3
ACAD_GROUP
350
D
  0
DICTIONARY
  5
D
330
C
100
AcDbDictionary
281
    1
  0
ENDSEC
  0
EOF
