999
dxfrw 0.6.3
  0
SECTION
  2
HEADER
  9
$ACADVER
  1
AC1021
  9
$DWGCODEPAGE
  3
ANSI_1252
  9
$INSBASE
 10
0
 20
0
 30
0
  9
$EXTMIN
 10
-0.7000000000000008
 20
-5
 30
0
  9
$EXTMAX
 10
9.367287958346257
 20
8.300000000000001
 30
0
  9
$LIMMIN
 10
0
 20
0
  9
$LIMMAX
 10
420
 20
297
  9
$ORTHOMODE
 70
    0
  9
$REGENMODE
 70
    1
  9
$FILLMODE
 70
    1
  9
$QTEXTMODE
 70
    0
  9
$MIRRTEXT
 70
    0
  9
$LTSCALE
 40
1
  9
$ATTMODE
 70
    0
  9
$TEXTSIZE
 40
2.5
  9
$TRACEWID
 40
15.68
  9
$TEXTSTYLE
  7
STANDARD
  9
$CLAYER
  8
ic
  9
$CELTYPE
  6
BYLAYER
  9
$CECOLOR
 62
  256
  9
$CELTSCALE
 40
1
  9
$DISPSILH
 70
    0
  9
$DIMSCALE
 40
1
  9
$DIMASZ
 40
0.125
  9
$DIMEXO
 40
0.625
  9
$DIMDLI
 40
3.75
  9
$DIMRND
 40
0
  9
$DIMDLE
 40
0
  9
$DIMEXE
 40
1.25
  9
$DIMTP
 40
0
  9
$DIMTM
 40
0
  9
$DIMTXT
 40
0.25
  9
$DIMCEN
 40
2.5
  9
$DIMTSZ
 40
0
  9
$DIMTOL
 70
    0
  9
$DIMLIM
 70
    0
  9
$DIMTIH
 70
    0
  9
$DIMTOH
 70
    0
  9
$DIMSE1
 70
    0
  9
$DIMSE2
 70
    0
  9
$DIMTAD
 70
    1
  9
$DIMZIN
 70
    1
  9
$DIMBLK
  1

  9
$DIMASO
 70
    1
  9
$DIMSHO
 70
    1
  9
$DIMPOST
  1

  9
$DIMAPOST
  1

  9
$DIMALT
 70
    0
  9
$DIMALTD
 70
    3
  9
$DIMALTF
 40
0.03937
  9
$DIMLFAC
 40
1
  9
$DIMTOFL
 70
    1
  9
$DIMTVP
 40
0
  9
$DIMTIX
 70
    0
  9
$DIMSOXD
 70
    0
  9
$DIMSAH
 70
    0
  9
$DIMBLK1
  1

  9
$DIMBLK2
  1

  9
$DIMSTYLE
  2
STANDARD
  9
$DIMCLRD
 70
    0
  9
$DIMCLRE
 70
    0
  9
$DIMCLRT
 70
    0
  9
$DIMTFAC
 40
1
  9
$DIMGAP
 40
0.625
  9
$DIMJUST
 70
    0
  9
$DIMSD1
 70
    0
  9
$DIMSD2
 70
    0
  9
$DIMTOLJ
 70
    0
  9
$DIMTZIN
 70
    8
  9
$DIMALTZ
 70
    0
  9
$DIMALTTZ
 70
    0
  9
$DIMUPT
 70
    0
  9
$DIMDEC
 70
    4
  9
$DIMTDEC
 70
    2
  9
$DIMALTU
 70
    2
  9
$DIMALTTD
 70
    3
  9
$DIMTXSTY
  7
standard
  9
$DIMAUNIT
 70
    0
  9
$DIMADEC
 70
    2
  9
$DIMALTRND
 40
0
  9
$DIMAZIN
 70
    0
  9
$DIMDSEP
 70
   44
  9
$DIMATFIT
 70
    3
  9
$DIMFRAC
 70
    0
  9
$DIMLDRBLK
  1
STANDARD
  9
$DIMLUNIT
 70
    2
  9
$DIMLWD
 70
   -2
  9
$DIMLWE
 70
   -2
  9
$DIMTMOVE
 70
    0
  9
$DIMFXL
 40
1
  9
$DIMFXLON
 70
    0
  9
$DIMJOGANG
 40
0.7854
  9
$DIMTFILL
 70
    0
  9
$DIMTFILLCLR
 70
    0
  9
$DIMARCSYM
 70
    0
  9
$DIMLTYPE
  6

  9
$DIMLTEX1
  6

  9
$DIMLTEX2
  6

  9
$LUNITS
 70
    2
  9
$LUPREC
 70
    4
  9
$SKETCHINC
 40
1
  9
$FILLETRAD
 40
0
  9
$AUNITS
 70
    0
  9
$AUPREC
 70
    2
  9
$MENU
  1
.
  9
$ELEVATION
 40
0
  9
$PELEVATION
 40
0
  9
$THICKNESS
 40
0
  9
$LIMCHECK
 70
    0
  9
$CHAMFERA
 40
0
  9
$CHAMFERB
 40
0
  9
$CHAMFERC
 40
0
  9
$CHAMFERD
 40
0
  9
$SKPOLY
 70
    0
  9
$USRTIMER
 70
    1
  9
$ANGBASE
 50
0
  9
$ANGDIR
 70
    0
  9
$PDMODE
 70
   34
  9
$PDSIZE
 40
0
  9
$PLINEWID
 40
0
  9
$SPLFRAME
 70
    0
  9
$SPLINETYPE
 70
    2
  9
$SPLINESEGS
 70
    8
  9
$HANDSEED
  5
20000
  9
$SURFTAB1
 70
    6
  9
$SURFTAB2
 70
    6
  9
$SURFTYPE
 70
    6
  9
$SURFU
 70
    6
  9
$SURFV
 70
    6
  9
$UCSBASE
  2

  9
$UCSNAME
  2

  9
$UCSORG
 10
0
 20
0
 30
0
  9
$UCSXDIR
 10
1
 20
0
 30
0
  9
$UCSYDIR
 10
0
 20
1
 30
0
  9
$UCSORTHOREF
  2

  9
$UCSORTHOVIEW
 70
    0
  9
$UCSORGTOP
 10
0
 20
0
 30
0
  9
$UCSORGBOTTOM
 10
0
 20
0
 30
0
  9
$UCSORGLEFT
 10
0
 20
0
 30
0
  9
$UCSORGRIGHT
 10
0
 20
0
 30
0
  9
$UCSORGFRONT
 10
0
 20
0
 30
0
  9
$UCSORGBACK
 10
0
 20
0
 30
0
  9
$PUCSBASE
  2

  9
$PUCSNAME
  2

  9
$PUCSORG
 10
0
 20
0
 30
0
  9
$PUCSXDIR
 10
1
 20
0
 30
0
  9
$PUCSYDIR
 10
0
 20
1
 30
0
  9
$PUCSORTHOREF
  2

  9
$PUCSORTHOVIEW
 70
    0
  9
$PUCSORGTOP
 10
0
 20
0
 30
0
  9
$PUCSORGBOTTOM
 10
0
 20
0
 30
0
  9
$PUCSORGLEFT
 10
0
 20
0
 30
0
  9
$PUCSORGRIGHT
 10
0
 20
0
 30
0
  9
$PUCSORGFRONT
 10
0
 20
0
 30
0
  9
$PUCSORGBACK
 10
0
 20
0
 30
0
  9
$USERI1
 70
    0
  9
$USERI2
 70
    0
  9
$USERI3
 70
    0
  9
$USERI4
 70
    0
  9
$USERI5
 70
    0
  9
$USERR1
 40
0
  9
$USERR2
 40
0
  9
$USERR3
 40
0
  9
$USERR4
 40
0
  9
$USERR5
 40
0
  9
$WORLDVIEW
 70
    1
  9
$SHADEDGE
 70
    3
  9
$SHADEDIF
 70
   70
  9
$TILEMODE
 70
    1
  9
$MAXACTVP
 70
   64
  9
$PINSBASE
 10
0
 20
0
 30
0
  9
$PLIMCHECK
 70
    0
  9
$PEXTMIN
 10
0
 20
0
 30
0
  9
$PEXTMAX
 10
0
 20
0
 30
0
  9
$GRIDMODE
 70
    1
  9
$SNAPSTYLE
 70
    0
  9
$GRIDUNIT
 10
0
 20
0
  9
$PLIMMIN
 10
0
 20
0
  9
$PLIMMAX
 10
2.1380196e-24
 20
1.511681e-24
  9
$UNITMODE
 70
    0
  9
$VISRETAIN
 70
    1
  9
$PLINEGEN
 70
    0
  9
$PSLTSCALE
 70
    1
  9
$TREEDEPTH
 70
 3020
  9
$CMLSTYLE
  2
Standard
  9
$CMLJUST
 70
    0
  9
$CMLSCALE
 40
20
  9
$PROXYGRAPHICS
 70
    1
  9
$MEASUREMENT
 70
    1
  9
$CELWEIGHT
370
   -1
  9
$ENDCAPS
280
    0
  9
$JOINSTYLE
280
    0
  9
$LWDISPLAY
290
    0
  9
$INSUNITS
 70
    1
  9
$HYPERLINKBASE
  1

  9
$STYLESHEET
  1

  9
$XEDIT
290
    1
  9
$CEPSNTYPE
380
    0
  9
$PSTYLEMODE
290
    1
  9
$EXTNAMES
290
    1
  9
$PSVPSCALE
 40
0
  9
$OLESTARTUP
290
    0
  9
$SORTENTS
280
  127
  9
$INDEXCTL
280
    0
  9
$HIDETEXT
280
    1
  9
$XCLIPFRAME
290
    0
  9
$HALOGAP
280
    0
  9
$OBSCOLOR
 70
  257
  9
$OBSLTYPE
280
    0
  9
$INTERSECTIONDISPLAY
280
    0
  9
$INTERSECTIONCOLOR
 70
  257
  9
$DIMASSOC
280
    1
  9
$PROJECTNAME
  1

  9
$CAMERADISPLAY
290
    0
  9
$LENSLENGTH
 40
50
  9
$CAMERAHEIGHT
 40
0
  9
$STEPSPERSEC
 40
2
  9
$STEPSIZE
 40
50
  9
$3DDWFPREC
 40
2
  9
$PSOLWIDTH
 40
5
  9
$PSOLHEIGHT
 40
80
  9
$LOFTANG1
 40
1.570796326794897
  9
$LOFTANG2
 40
1.570796326794897
  9
$LOFTMAG1
 40
0
  9
$LOFTMAG2
 40
0
  9
$LOFTPARAM
 70
    7
  9
$LOFTNORMALS
280
    1
  9
$LATITUDE
 40
1
  9
$LONGITUDE
 40
1
  9
$NORTHDIRECTION
 40
0
  9
$TIMEZONE
 70
-8000
  9
$LIGHTGLYPHDISPLAY
280
    1
  9
$TILEMODELIGHTSYNCH
280
    1
  9
$SOLIDHIST
280
    1
  9
$SHOWHIST
280
    1
  9
$DWFFRAME
280
    2
  9
$DGNFRAME
280
    0
  9
$REALWORLDSCALE
290
    1
  9
$INTERFERECOLOR
 62
    1
  9
$CSHADOW
280
    0
  9
$SHADOWPLANELOCATION
 40
0
  0
ENDSEC
  0
SECTION
  2
CLASSES
  0
ENDSEC
  0
SECTION
  2
TABLES
  0
TABLE
  2
VPORT
  5
8
330
0
100
AcDbSymbolTable
 70
    1
  0
VPORT
  5
31
330
2
100
AcDbSymbolTableRecord
100
AcDbViewportTableRecord
  2
*ACTIVE
 70
    0
 10
0
 20
0
 11
1
 21
1
 12
5.21291873266477
 22
-0.7632934294108281
 13
0
 23
0
 14
10
 24
10
 15
10
 25
10
 16
0
 26
0
 36
1
 17
0
 27
0
 37
0
 40
4.039198672357628
 41
1.970260223048327
 42
50
 43
0
 44
0
 50
0
 51
0
 71
    0
 72
  100
 73
    1
 74
    3
 75
    0
 76
    1
 77
    0
 78
    0
281
    0
 65
    1
110
0
120
0
130
0
111
1
121
0
131
0
112
0
122
1
132
0
 79
    0
146
0
348
10020
 60
    7
 61
    5
292
1
282
    1
141
0
142
0
 63
  250
421
3358443
  0
ENDTAB
  0
TABLE
  2
LTYPE
  5
5
330
0
100
AcDbSymbolTable
 70
    4
  0
LTYPE
  5
14
330
5
100
AcDbSymbolTableRecord
100
AcDbLinetypeTableRecord
  2
ByBlock
 70
    0
  3

 72
   65
 73
    0
 40
0
  0
LTYPE
  5
15
330
5
100
AcDbSymbolTableRecord
100
AcDbLinetypeTableRecord
  2
ByLayer
 70
    0
  3

 72
   65
 73
    0
 40
0
  0
LTYPE
  5
16
330
5
100
AcDbSymbolTableRecord
100
AcDbLinetypeTableRecord
  2
Continuous
 70
    0
  3
Solid line
 72
   65
 73
    0
 40
0
  0
LTYPE
  5
32
330
5
100
AcDbSymbolTableRecord
100
AcDbLinetypeTableRecord
  2
DOT
 70
    0
  3
Dot . . . . . . . . . . . . . . . . . . . . . .
 72
   65
 73
    2
 40
6.35
 49
0
 74
    0
 49
-6.35
 74
    0
  0
LTYPE
  5
33
330
5
100
AcDbSymbolTableRecord
100
AcDbLinetypeTableRecord
  2
DOTTINY
 70
    0
  3
Dot (.15x) .....................................
 72
   65
 73
    2
 40
0.9525
 49
0
 74
    0
 49
-0.9525
 74
    0
  0
LTYPE
  5
34
330
5
100
AcDbSymbolTableRecord
100
AcDbLinetypeTableRecord
  2
DOT2
 70
    0
  3
Dot (.5x) .....................................
 72
   65
 73
    2
 40
3.175
 49
0
 74
    0
 49
-3.175
 74
    0
  0
LTYPE
  5
35
330
5
100
AcDbSymbolTableRecord
100
AcDbLinetypeTableRecord
  2
DOTX2
 70
    0
  3
Dot (2x) .  .  .  .  .  .  .  .  .  .  .  .  .
 72
   65
 73
    2
 40
12.7
 49
0
 74
    0
 49
-12.7
 74
    0
  0
LTYPE
  5
36
330
5
100
AcDbSymbolTableRecord
100
AcDbLinetypeTableRecord
  2
DASHED
 70
    0
  3
Dashed _ _ _ _ _ _ _ _ _ _ _ _ _ _ _ _ _
 72
   65
 73
    2
 40
19.05
 49
12.7
 74
    0
 49
-6.35
 74
    0
  0
LTYPE
  5
37
330
5
100
AcDbSymbolTableRecord
100
AcDbLinetypeTableRecord
  2
DASHEDTINY
 70
    0
  3
Dashed (.15x) _ _ _ _ _ _ _ _ _ _ _ _ _ _ _ _ _
 72
   65
 73
    2
 40
2.8575
 49
1.905
 74
    0
 49
-0.9525
 74
    0
  0
LTYPE
  5
38
330
5
100
AcDbSymbolTableRecord
100
AcDbLinetypeTableRecord
  2
DASHED2
 70
    0
  3
Dashed (.5x) _ _ _ _ _ _ _ _ _ _ _ _ _ _ _ _ _
 72
   65
 73
    2
 40
9.524999999999999
 49
6.35
 74
    0
 49
-3.175
 74
    0
  0
LTYPE
  5
39
330
5
100
AcDbSymbolTableRecord
100
AcDbLinetypeTableRecord
  2
DASHEDX2
 70
    0
  3
Dashed (2x) ____  ____  ____  ____  ____  ___
 72
   65
 73
    2
 40
38.09999999999999
 49
25.4
 74
    0
 49
-12.7
 74
    0
  0
LTYPE
  5
3A
330
5
100
AcDbSymbolTableRecord
100
AcDbLinetypeTableRecord
  2
DASHDOT
 70
    0
  3
Dash dot __ . __ . __ . __ . __ . __ . __ . __
 72
   65
 73
    4
 40
25.4
 49
12.7
 74
    0
 49
-6.35
 74
    0
 49
0
 74
    0
 49
-6.35
 74
    0
  0
LTYPE
  5
3B
330
5
100
AcDbSymbolTableRecord
100
AcDbLinetypeTableRecord
  2
DASHDOTTINY
 70
    0
  3
Dash dot (.15x) _._._._._._._._._._._._._._._.
 72
   65
 73
    4
 40
3.81
 49
1.905
 74
    0
 49
-0.9525
 74
    0
 49
0
 74
    0
 49
-0.9525
 74
    0
  0
LTYPE
  5
3C
330
5
100
AcDbSymbolTableRecord
100
AcDbLinetypeTableRecord
  2
DASHDOT2
 70
    0
  3
Dash dot (.5x) _._._._._._._._._._._._._._._.
 72
   65
 73
    4
 40
12.7
 49
6.35
 74
    0
 49
-3.175
 74
    0
 49
0
 74
    0
 49
-3.175
 74
    0
  0
LTYPE
  5
3D
330
5
100
AcDbSymbolTableRecord
100
AcDbLinetypeTableRecord
  2
DASHDOTX2
 70
    0
  3
Dash dot (2x) ____  .  ____  .  ____  .  ___
 72
   65
 73
    4
 40
50.8
 49
25.4
 74
    0
 49
-12.7
 74
    0
 49
0
 74
    0
 49
-12.7
 74
    0
  0
LTYPE
  5
3E
330
5
100
AcDbSymbolTableRecord
100
AcDbLinetypeTableRecord
  2
DIVIDE
 70
    0
  3
Divide ____ . . ____ . . ____ . . ____ . . ____
 72
   65
 73
    6
 40
31.75
 49
12.7
 74
    0
 49
-6.35
 74
    0
 49
0
 74
    0
 49
-6.35
 74
    0
 49
0
 74
    0
 49
-6.35
 74
    0
  0
LTYPE
  5
3F
330
5
100
AcDbSymbolTableRecord
100
AcDbLinetypeTableRecord
  2
DIVIDETINY
 70
    0
  3
Divide (.15x) __..__..__..__..__..__..__..__.._
 72
   65
 73
    6
 40
4.7625
 49
1.905
 74
    0
 49
-0.9525
 74
    0
 49
0
 74
    0
 49
-0.9525
 74
    0
 49
0
 74
    0
 49
-0.9525
 74
    0
  0
LTYPE
  5
40
330
5
100
AcDbSymbolTableRecord
100
AcDbLinetypeTableRecord
  2
DIVIDE2
 70
    0
  3
Divide (.5x) __..__..__..__..__..__..__..__.._
 72
   65
 73
    6
 40
15.875
 49
6.35
 74
    0
 49
-3.175
 74
    0
 49
0
 74
    0
 49
-3.175
 74
    0
 49
0
 74
    0
 49
-3.175
 74
    0
  0
LTYPE
  5
41
330
5
100
AcDbSymbolTableRecord
100
AcDbLinetypeTableRecord
  2
DIVIDEX2
 70
    0
  3
Divide (2x) ________  .  .  ________  .  .  _
 72
   65
 73
    6
 40
63.5
 49
25.4
 74
    0
 49
-12.7
 74
    0
 49
0
 74
    0
 49
-12.7
 74
    0
 49
0
 74
    0
 49
-12.7
 74
    0
  0
LTYPE
  5
42
330
5
100
AcDbSymbolTableRecord
100
AcDbLinetypeTableRecord
  2
BORDER
 70
    0
  3
Border __ __ . __ __ . __ __ . __ __ . __ __ .
 72
   65
 73
    6
 40
44.45
 49
12.7
 74
    0
 49
-6.35
 74
    0
 49
12.7
 74
    0
 49
-6.35
 74
    0
 49
0
 74
    0
 49
-6.35
 74
    0
  0
LTYPE
  5
43
330
5
100
AcDbSymbolTableRecord
100
AcDbLinetypeTableRecord
  2
BORDERTINY
 70
    0
  3
Border (.15x) __.__.__.__.__.__.__.__.__.__.__.
 72
   65
 73
    6
 40
6.6675
 49
1.905
 74
    0
 49
-0.9525
 74
    0
 49
1.905
 74
    0
 49
-0.9525
 74
    0
 49
0
 74
    0
 49
-0.9525
 74
    0
  0
LTYPE
  5
44
330
5
100
AcDbSymbolTableRecord
100
AcDbLinetypeTableRecord
  2
BORDER2
 70
    0
  3
Border (.5x) __.__.__.__.__.__.__.__.__.__.__.
 72
   65
 73
    6
 40
22.225
 49
6.35
 74
    0
 49
-3.175
 74
    0
 49
6.35
 74
    0
 49
-3.175
 74
    0
 49
0
 74
    0
 49
-3.175
 74
    0
  0
LTYPE
  5
45
330
5
100
AcDbSymbolTableRecord
100
AcDbLinetypeTableRecord
  2
BORDERX2
 70
    0
  3
Border (2x) ____  ____  .  ____  ____  .  ___
 72
   65
 73
    6
 40
88.89999999999999
 49
25.4
 74
    0
 49
-12.7
 74
    0
 49
25.4
 74
    0
 49
-12.7
 74
    0
 49
0
 74
    0
 49
-12.7
 74
    0
  0
LTYPE
  5
46
330
5
100
AcDbSymbolTableRecord
100
AcDbLinetypeTableRecord
  2
CENTER
 70
    0
  3
Center ____ _ ____ _ ____ _ ____ _ ____ _ ____
 72
   65
 73
    4
 40
50.8
 49
31.75
 74
    0
 49
-6.35
 74
    0
 49
6.35
 74
    0
 49
-6.35
 74
    0
  0
LTYPE
  5
47
330
5
100
AcDbSymbolTableRecord
100
AcDbLinetypeTableRecord
  2
CENTERTINY
 70
    0
  3
Center (.15x) ___ _ ___ _ ___ _ ___ _ ___ _ ___
 72
   65
 73
    4
 40
7.619999999999999
 49
4.7625
 74
    0
 49
-0.9525
 74
    0
 49
0.9525
 74
    0
 49
-0.9525
 74
    0
  0
LTYPE
  5
48
330
5
100
AcDbSymbolTableRecord
100
AcDbLinetypeTableRecord
  2
CENTER2
 70
    0
  3
Center (.5x) ___ _ ___ _ ___ _ ___ _ ___ _ ___
 72
   65
 73
    4
 40
28.575
 49
19.05
 74
    0
 49
-3.175
 74
    0
 49
3.175
 74
    0
 49
-3.175
 74
    0
  0
LTYPE
  5
49
330
5
100
AcDbSymbolTableRecord
100
AcDbLinetypeTableRecord
  2
CENTERX2
 70
    0
  3
Center (2x) ________  __  ________  __  _____
 72
   65
 73
    4
 40
101.6
 49
63.5
 74
    0
 49
-12.7
 74
    0
 49
12.7
 74
    0
 49
-12.7
 74
    0
  0
ENDTAB
  0
TABLE
  2
LAYER
  5
2
330
0
100
AcDbSymbolTable
 70
    1
  0
LAYER
  5
10
330
2
100
AcDbSymbolTableRecord
100
AcDbLayerTableRecord
  2
0
 70
    0
 62
    7
  6
CONTINUOUS
370
   50
390
F
  0
LAYER
  5
4A
330
2
100
AcDbSymbolTableRecord
100
AcDbLayerTableRecord
  2
axis
 70
    0
 62
    8
  6
CONTINUOUS
370
   50
390
F
  0
LAYER
  5
4B
330
2
100
AcDbSymbolTableRecord
100
AcDbLayerTableRecord
  2
delim
 70
    0
 62
  253
420
10526884
  6
DASHEDTINY
370
   13
390
F
  0
LAYER
  5
4C
330
2
100
AcDbSymbolTableRecord
100
AcDbLayerTableRecord
  2
dim
 70
    0
 62
    7
  6
CONTINUOUS
370
   13
390
F
  0
LAYER
  5
4D
330
2
100
AcDbSymbolTableRecord
100
AcDbLayerTableRecord
  2
ic
 70
    0
 62
  216
420
8388736
  6
CONTINUOUS
370
   18
390
F
  0
LAYER
  5
4E
330
2
100
AcDbSymbolTableRecord
100
AcDbLayerTableRecord
  2
mcmp
 70
    0
 62
    7
  6
DASHED2
370
   25
390
F
  0
LAYER
  5
4F
330
2
100
AcDbSymbolTableRecord
100
AcDbLayerTableRecord
  2
sig
 70
    0
 62
    6
  6
CONTINUOUS
370
  211
390
F
  0
ENDTAB
  0
TABLE
  2
STYLE
  5
3
330
0
100
AcDbSymbolTable
 70
    3
  0
STYLE
  5
50
330
2
100
AcDbSymbolTableRecord
100
AcDbTextStyleTableRecord
  2
romant
 70
    0
 40
0
 41
1
 50
0
 71
    0
 42
1
  3
romant
  4

  0
STYLE
  5
51
330
2
100
AcDbSymbolTableRecord
100
AcDbTextStyleTableRecord
  2
romanc
 70
    0
 40
0
 41
1
 50
0
 71
    0
 42
1
  3
romanc
  4

  0
STYLE
  5
52
330
2
100
AcDbSymbolTableRecord
100
AcDbTextStyleTableRecord
  2
Standard
 70
    0
 40
0
 41
1
 50
0
 71
    0
 42
1
  3
txt
  4

  0
ENDTAB
  0
TABLE
  2
VIEW
  5
6
330
0
100
AcDbSymbolTable
 70
    0
  0
ENDTAB
  0
TABLE
  2
UCS
  5
7
330
0
100
AcDbSymbolTable
 70
    0
  0
ENDTAB
  0
TABLE
  2
APPID
  5
9
330
0
100
AcDbSymbolTable
 70
    1
  0
APPID
  5
12
330
9
100
AcDbSymbolTableRecord
100
AcDbRegAppTableRecord
  2
ACAD
 70
    0
  0
APPID
  5
53
330
9
100
AcDbSymbolTableRecord
100
AcDbRegAppTableRecord
  2
LibreCad
 70
    0
  0
ENDTAB
  0
TABLE
  2
DIMSTYLE
  5
A
330
0
100
AcDbSymbolTable
 70
    1
100
AcDbDimStyleTable
 71
    1
  0
DIMSTYLE
105
54
330
A
100
AcDbSymbolTableRecord
100
AcDbDimStyleTableRecord
  2
Standard
 70
    0
 40
1
 41
0.125
 42
0.625
 43
0.38
 44
1.25
 45
0
 46
0
 47
0
 48
0
 49
1
140
0.25
141
0.09
142
0
143
25.4
144
1
145
0
146
1
147
0.625
148
0
 71
    0
 72
    0
 73
    0
 74
    1
 75
    0
 76
    0
 77
    0
 78
    1
 79
    0
170
    0
171
    2
172
    0
173
    0
174
    0
175
    0
176
    0
177
    0
178
    0
179
    2
271
    4
272
    4
273
    2
274
    2
275
    0
276
    0
277
    2
278
   44
279
    0
280
    0
281
    0
282
    0
283
    1
284
    0
285
    0
286
    0
288
    0
289
    3
340
standard
341

371
   -2
372
   -2
  0
ENDTAB
  0
TABLE
  2
BLOCK_RECORD
  5
1
330
0
100
AcDbSymbolTable
 70
    2
  0
BLOCK_RECORD
  5
1F
330
1
100
AcDbSymbolTableRecord
100
AcDbBlockTableRecord
  2
*Model_Space
 70
    0
280
    1
281
    0
  0
BLOCK_RECORD
  5
1E
330
1
100
AcDbSymbolTableRecord
100
AcDbBlockTableRecord
  2
*Paper_Space
 70
    0
280
    1
281
    0
  0
BLOCK_RECORD
  5
55
330
1
100
AcDbSymbolTableRecord
100
AcDbBlockTableRecord
  2
*D4
 70
    0
280
    1
281
    0
  0
BLOCK_RECORD
  5
58
330
1
100
AcDbSymbolTableRecord
100
AcDbBlockTableRecord
  2
*D3
 70
    0
280
    1
281
    0
  0
BLOCK_RECORD
  5
5B
330
1
100
AcDbSymbolTableRecord
100
AcDbBlockTableRecord
  2
*D10
 70
    0
280
    1
281
    0
  0
BLOCK_RECORD
  5
5E
330
1
100
AcDbSymbolTableRecord
100
AcDbBlockTableRecord
  2
*D8
 70
    0
280
    1
281
    0
  0
BLOCK_RECORD
  5
61
330
1
100
AcDbSymbolTableRecord
100
AcDbBlockTableRecord
  2
*D9
 70
    0
280
    1
281
    0
  0
BLOCK_RECORD
  5
64
330
1
100
AcDbSymbolTableRecord
100
AcDbBlockTableRecord
  2
*D14
 70
    0
280
    1
281
    0
  0
BLOCK_RECORD
  5
67
330
1
100
AcDbSymbolTableRecord
100
AcDbBlockTableRecord
  2
*D23
 70
    0
280
    1
281
    0
  0
BLOCK_RECORD
  5
6A
330
1
100
AcDbSymbolTableRecord
100
AcDbBlockTableRecord
  2
*D6
 70
    0
280
    1
281
    0
  0
BLOCK_RECORD
  5
6D
330
1
100
AcDbSymbolTableRecord
100
AcDbBlockTableRecord
  2
*D26
 70
    0
280
    1
281
    0
  0
BLOCK_RECORD
  5
70
330
1
100
AcDbSymbolTableRecord
100
AcDbBlockTableRecord
  2
*D17
 70
    0
280
    1
281
    0
  0
BLOCK_RECORD
  5
73
330
1
100
AcDbSymbolTableRecord
100
AcDbBlockTableRecord
  2
*D5
 70
    0
280
    1
281
    0
  0
BLOCK_RECORD
  5
76
330
1
100
AcDbSymbolTableRecord
100
AcDbBlockTableRecord
  2
*D15
 70
    0
280
    1
281
    0
  0
BLOCK_RECORD
  5
79
330
1
100
AcDbSymbolTableRecord
100
AcDbBlockTableRecord
  2
*D20
 70
    0
280
    1
281
    0
  0
BLOCK_RECORD
  5
7C
330
1
100
AcDbSymbolTableRecord
100
AcDbBlockTableRecord
  2
*D1
 70
    0
280
    1
281
    0
  0
BLOCK_RECORD
  5
7F
330
1
100
AcDbSymbolTableRecord
100
AcDbBlockTableRecord
  2
*D16
 70
    0
280
    1
281
    0
  0
BLOCK_RECORD
  5
82
330
1
100
AcDbSymbolTableRecord
100
AcDbBlockTableRecord
  2
*D11
 70
    0
280
    1
281
    0
  0
BLOCK_RECORD
  5
85
330
1
100
AcDbSymbolTableRecord
100
AcDbBlockTableRecord
  2
*D21
 70
    0
280
    1
281
    0
  0
BLOCK_RECORD
  5
88
330
1
100
AcDbSymbolTableRecord
100
AcDbBlockTableRecord
  2
*D2
 70
    0
280
    1
281
    0
  0
BLOCK_RECORD
  5
8B
330
1
100
AcDbSymbolTableRecord
100
AcDbBlockTableRecord
  2
*D24
 70
    0
280
    1
281
    0
  0
BLOCK_RECORD
  5
8E
330
1
100
AcDbSymbolTableRecord
100
AcDbBlockTableRecord
  2
*D18
 70
    0
280
    1
281
    0
  0
BLOCK_RECORD
  5
91
330
1
100
AcDbSymbolTableRecord
100
AcDbBlockTableRecord
  2
*D22
 70
    0
280
    1
281
    0
  0
BLOCK_RECORD
  5
94
330
1
100
AcDbSymbolTableRecord
100
AcDbBlockTableRecord
  2
*D12
 70
    0
280
    1
281
    0
  0
BLOCK_RECORD
  5
97
330
1
100
AcDbSymbolTableRecord
100
AcDbBlockTableRecord
  2
*D25
 70
    0
280
    1
281
    0
  0
BLOCK_RECORD
  5
9A
330
1
100
AcDbSymbolTableRecord
100
AcDbBlockTableRecord
  2
*D13
 70
    0
280
    1
281
    0
  0
BLOCK_RECORD
  5
9D
330
1
100
AcDbSymbolTableRecord
100
AcDbBlockTableRecord
  2
*D19
 70
    0
280
    1
281
    0
  0
BLOCK_RECORD
  5
A0
330
1
100
AcDbSymbolTableRecord
100
AcDbBlockTableRecord
  2
*D7
 70
    0
280
    1
281
    0
  0
ENDTAB
  0
ENDSEC
  0
SECTION
  2
BLOCKS
  0
BLOCK
  5
20
330
1F
100
AcDbEntity
  8
0
100
AcDbBlockBegin
  2
*Model_Space
 70
    0
 10
0
 20
0
 30
0
  3
*Model_Space
  1

  0
ENDBLK
  5
21
330
1F
100
AcDbEntity
  8
0
100
AcDbBlockEnd
  0
BLOCK
  5
1C
330
1B
100
AcDbEntity
  8
0
100
AcDbBlockBegin
  2
*Paper_Space
 70
    0
 10
0
 20
0
 30
0
  3
*Paper_Space
  1

  0
ENDBLK
  5
1D
330
1F
100
AcDbEntity
  8
0
100
AcDbBlockEnd
  0
BLOCK
  5
56
330
55
100
AcDbEntity
  8
0
100
AcDbBlockBegin
  2
*D4
 70
    1
 10
0
 20
0
  3
*D4
  1

  0
LINE
  5
A3
100
AcDbEntity
  8
ic
  6
CONTINUOUS
 62
    7
370
    0
100
AcDbLine
 10
1.9
 20
7.200000000000001
 11
1.3
 21
7.200000000000001
  0
SOLID
  5
A4
100
AcDbEntity
  8
ic
  6
CONTINUOUS
 62
    7
370
    0
100
AcDbTrace
 10
1.9
 20
7.200000000000001
 30
0
 11
1.775
 21
7.179185767111359
 31
0
 12
1.775
 22
7.220814232888643
 32
0
 13
1.775
 23
7.220814232888643
 33
0
  0
ENDBLK
  5
57
330
55
100
AcDbEntity
  8
0
100
AcDbBlockEnd
  0
BLOCK
  5
59
330
58
100
AcDbEntity
  8
0
100
AcDbBlockBegin
  2
*D3
 70
    1
 10
0
 20
0
  3
*D3
  1

  0
LINE
  5
A5
100
AcDbEntity
  8
ic
  6
CONTINUOUS
 62
    7
370
    0
100
AcDbLine
 10
4.96
 20
7.000000000000002
 11
4.76
 21
7.000000000000002
  0
SOLID
  5
A6
100
AcDbEntity
  8
ic
  6
CONTINUOUS
 62
    7
370
    0
100
AcDbTrace
 10
4.96
 20
7.000000000000002
 30
0
 11
4.835
 21
6.97918576711136
 31
0
 12
4.835
 22
7.020814232888644
 32
0
 13
4.835
 23
7.020814232888644
 33
0
  0
ENDBLK
  5
5A
330
58
100
AcDbEntity
  8
0
100
AcDbBlockEnd
  0
BLOCK
  5
5C
330
5B
100
AcDbEntity
  8
0
100
AcDbBlockBegin
  2
*D10
 70
    1
 10
0
 20
0
  3
*D10
  1

  0
LINE
  5
A7
100
AcDbEntity
  8
ic
  6
CONTINUOUS
 62
    7
370
    0
100
AcDbLine
 10
5.860000000000001
 20
0.9600000000000009
 11
5.860000000000001
 21
0.7600000000000007
  0
SOLID
  5
A8
100
AcDbEntity
  8
ic
  6
CONTINUOUS
 62
    7
370
    0
100
AcDbTrace
 10
5.860000000000001
 20
0.9600000000000009
 30
0
 11
5.880814232888643
 21
0.8350000000000009
 31
0
 12
5.839185767111359
 22
0.8350000000000009
 32
0
 13
5.839185767111359
 23
0.8350000000000009
 33
0
  0
ENDBLK
  5
5D
330
5B
100
AcDbEntity
  8
0
100
AcDbBlockEnd
  0
BLOCK
  5
5F
330
5E
100
AcDbEntity
  8
0
100
AcDbBlockBegin
  2
*D8
 70
    1
 10
0
 20
0
  3
*D8
  1

  0
LINE
  5
A9
100
AcDbEntity
  8
ic
  6
CONTINUOUS
 62
    7
370
    0
100
AcDbLine
 10
1.345371982500505
 20
4.440773879586807
 11
0.6453719825005048
 21
4.440773879586807
  0
SOLID
  5
AA
100
AcDbEntity
  8
ic
  6
CONTINUOUS
 62
    7
370
    0
100
AcDbTrace
 10
1.345371982500505
 20
4.440773879586807
 30
0
 11
1.220371982500505
 21
4.419959646698165
 31
0
 12
1.220371982500505
 22
4.461588112475449
 32
0
 13
1.220371982500505
 23
4.461588112475449
 33
0
  0
ENDBLK
  5
60
330
5E
100
AcDbEntity
  8
0
100
AcDbBlockEnd
  0
BLOCK
  5
62
330
61
100
AcDbEntity
  8
0
100
AcDbBlockBegin
  2
*D9
 70
    1
 10
0
 20
0
  3
*D9
  1

  0
LINE
  5
AB
100
AcDbEntity
  8
ic
  6
CONTINUOUS
 62
    7
370
    0
100
AcDbLine
 10
5.860000000000001
 20
-0.6599999999999993
 11
5.860000000000001
 21
-0.4599999999999991
  0
SOLID
  5
AC
100
AcDbEntity
  8
ic
  6
CONTINUOUS
 62
    7
370
    0
100
AcDbTrace
 10
5.860000000000001
 20
-0.6599999999999993
 30
0
 11
5.839185767111359
 21
-0.5349999999999993
 31
0
 12
5.880814232888643
 22
-0.5349999999999993
 32
0
 13
5.880814232888643
 23
-0.5349999999999993
 33
0
  0
ENDBLK
  5
63
330
61
100
AcDbEntity
  8
0
100
AcDbBlockEnd
  0
BLOCK
  5
65
330
64
100
AcDbEntity
  8
0
100
AcDbBlockBegin
  2
*D14
 70
    1
 10
0
 20
0
  3
*D14
  1

  0
LINE
  5
AD
100
AcDbEntity
  8
ic
  6
CONTINUOUS
 62
    7
370
    0
100
AcDbLine
 10
2.16
 20
0.26
 11
1.86
 21
0.06000000000000005
  0
SOLID
  5
AE
100
AcDbEntity
  8
ic
  6
CONTINUOUS
 62
    7
370
    0
100
AcDbTrace
 10
2.16
 20
0.26
 30
0
 11
2.067539372275377
 21
0.1733439868704353
 31
0
 12
2.044448054140162
 22
0.2079809640732574
 32
0
 13
2.044448054140162
 23
0.2079809640732574
 33
0
  0
ENDBLK
  5
66
330
64
100
AcDbEntity
  8
0
100
AcDbBlockEnd
  0
BLOCK
  5
68
330
67
100
AcDbEntity
  8
0
100
AcDbBlockBegin
  2
*D23
 70
    1
 10
0
 20
0
  3
*D23
  1

  0
LINE
  5
AF
100
AcDbEntity
  8
ic
  6
CONTINUOUS
 62
    7
370
    0
100
AcDbLine
 10
5.86
 20
4.200000000000002
 11
5.66
 21
4.200000000000002
  0
SOLID
  5
B0
100
AcDbEntity
  8
ic
  6
CONTINUOUS
 62
    7
370
    0
100
AcDbTrace
 10
5.86
 20
4.200000000000002
 30
0
 11
5.735
 21
4.17918576711136
 31
0
 12
5.735
 22
4.220814232888644
 32
0
 13
5.735
 23
4.220814232888644
 33
0
  0
ENDBLK
  5
69
330
67
100
AcDbEntity
  8
0
100
AcDbBlockEnd
  0
BLOCK
  5
6B
330
6A
100
AcDbEntity
  8
0
100
AcDbBlockBegin
  2
*D6
 70
    1
 10
0
 20
0
  3
*D6
  1

  0
LINE
  5
B1
100
AcDbEntity
  8
ic
  6
CONTINUOUS
 62
    7
370
    0
100
AcDbLine
 10
1.76
 20
4.459999999999999
 11
1.46
 21
4.26
  0
SOLID
  5
B2
100
AcDbEntity
  8
ic
  6
CONTINUOUS
 62
    7
370
    0
100
AcDbTrace
 10
1.76
 20
4.459999999999999
 30
0
 11
1.667539372275377
 21
4.373343986870434
 31
0
 12
1.644448054140162
 22
4.407980964073257
 32
0
 13
1.644448054140162
 23
4.407980964073257
 33
0
  0
ENDBLK
  5
6C
330
6A
100
AcDbEntity
  8
0
100
AcDbBlockEnd
  0
BLOCK
  5
6E
330
6D
100
AcDbEntity
  8
0
100
AcDbBlockBegin
  2
*D26
 70
    1
 10
0
 20
0
  3
*D26
  1

  0
LINE
  5
B3
100
AcDbEntity
  8
ic
  6
CONTINUOUS
 62
    7
370
    0
100
AcDbLine
 10
6.299999999999998
 20
-3.239999999999998
 11
6.299999999999998
 21
-3.439999999999999
  0
SOLID
  5
B4
100
AcDbEntity
  8
ic
  6
CONTINUOUS
 62
    7
370
    0
100
AcDbTrace
 10
6.299999999999998
 20
-3.239999999999998
 30
0
 11
6.32081423288864
 21
-3.364999999999998
 31
0
 12
6.279185767111356
 22
-3.364999999999998
 32
0
 13
6.279185767111356
 23
-3.364999999999998
 33
0
  0
ENDBLK
  5
6F
330
6D
100
AcDbEntity
  8
0
100
AcDbBlockEnd
  0
BLOCK
  5
71
330
70
100
AcDbEntity
  8
0
100
AcDbBlockBegin
  2
*D17
 70
    1
 10
0
 20
0
  3
*D17
  1

  0
ENDBLK
  5
72
330
70
100
AcDbEntity
  8
0
100
AcDbBlockEnd
  0
BLOCK
  5
74
330
73
100
AcDbEntity
  8
0
100
AcDbBlockBegin
  2
*D5
 70
    1
 10
0
 20
0
  3
*D5
  1

  0
LINE
  5
B5
100
AcDbEntity
  8
ic
  6
CONTINUOUS
 62
    7
370
    0
100
AcDbLine
 10
1.76
 20
4.06
 11
1.46
 21
4.259999999999999
  0
SOLID
  5
B6
100
AcDbEntity
  8
ic
  6
CONTINUOUS
 62
    7
370
    0
100
AcDbTrace
 10
1.76
 20
4.06
 30
0
 11
1.644448054140162
 21
4.112019035926742
 31
0
 12
1.667539372275377
 22
4.146656013129564
 32
0
 13
1.667539372275377
 23
4.146656013129564
 33
0
  0
ENDBLK
  5
75
330
73
100
AcDbEntity
  8
0
100
AcDbBlockEnd
  0
BLOCK
  5
77
330
76
100
AcDbEntity
  8
0
100
AcDbBlockBegin
  2
*D15
 70
    1
 10
0
 20
0
  3
*D15
  1

  0
LINE
  5
B7
100
AcDbEntity
  8
ic
  6
CONTINUOUS
 62
    7
370
    0
100
AcDbLine
 10
1.64
 20
-0.05999999999999894
 11
1.04
 21
-0.05999999999999894
  0
SOLID
  5
B8
100
AcDbEntity
  8
ic
  6
CONTINUOUS
 62
    7
370
    0
100
AcDbTrace
 10
1.64
 20
-0.05999999999999894
 30
0
 11
1.515
 21
-0.08081423288864097
 31
0
 12
1.515
 22
-0.03918576711135692
 32
0
 13
1.515
 23
-0.03918576711135692
 33
0
  0
ENDBLK
  5
78
330
76
100
AcDbEntity
  8
0
100
AcDbBlockEnd
  0
BLOCK
  5
7A
330
79
100
AcDbEntity
  8
0
100
AcDbBlockBegin
  2
*D20
 70
    1
 10
0
 20
0
  3
*D20
  1

  0
LINE
  5
B9
100
AcDbEntity
  8
ic
  6
CONTINUOUS
 62
    7
370
    0
100
AcDbLine
 10
1.4
 20
-3.699999999999999
 11
1.2
 21
-3.999999999999998
  0
SOLID
  5
BA
100
AcDbEntity
  8
ic
  6
CONTINUOUS
 62
    7
370
    0
100
AcDbTrace
 10
1.4
 20
-3.699999999999999
 30
0
 11
1.347980964073257
 21
-3.815551945859836
 31
0
 12
1.313343986870435
 22
-3.792460627724622
 32
0
 13
1.313343986870435
 23
-3.792460627724622
 33
0
  0
ENDBLK
  5
7B
330
79
100
AcDbEntity
  8
0
100
AcDbBlockEnd
  0
BLOCK
  5
7D
330
7C
100
AcDbEntity
  8
0
100
AcDbBlockBegin
  2
*D1
 70
    1
 10
0
 20
0
  3
*D1
  1

  0
LINE
  5
BB
100
AcDbEntity
  8
ic
  6
CONTINUOUS
 62
    7
370
    0
100
AcDbLine
 10
0.7000000000000001
 20
7.2
 11
1
 21
7.000000000000001
  0
SOLID
  5
BC
100
AcDbEntity
  8
ic
  6
CONTINUOUS
 62
    7
370
    0
100
AcDbTrace
 10
0.7000000000000001
 20
7.2
 30
0
 11
0.8155519458598379
 21
7.147980964073258
 31
0
 12
0.7924606277246233
 22
7.113343986870436
 32
0
 13
0.7924606277246233
 23
7.113343986870436
 33
0
  0
ENDBLK
  5
7E
330
7C
100
AcDbEntity
  8
0
100
AcDbBlockEnd
  0
BLOCK
  5
80
330
7F
100
AcDbEntity
  8
0
100
AcDbBlockBegin
  2
*D16
 70
    1
 10
0
 20
0
  3
*D16
  1

  0
LINE
  5
BD
100
AcDbEntity
  8
ic
  6
CONTINUOUS
 62
    7
370
    0
100
AcDbLine
 10
1.745371982500505
 20
0.2407738795868071
 11
1.045371982500505
 21
0.2407738795868071
  0
SOLID
  5
BE
100
AcDbEntity
  8
ic
  6
CONTINUOUS
 62
    7
370
    0
100
AcDbTrace
 10
1.745371982500505
 20
0.2407738795868071
 30
0
 11
1.620371982500505
 21
0.2199596466981651
 31
0
 12
1.620371982500505
 22
0.2615881124754491
 32
0
 13
1.620371982500505
 23
0.2615881124754491
 33
0
  0
ENDBLK
  5
81
330
7F
100
AcDbEntity
  8
0
100
AcDbBlockEnd
  0
BLOCK
  5
83
330
82
100
AcDbEntity
  8
0
100
AcDbBlockBegin
  2
*D11
 70
    1
 10
0
 20
0
  3
*D11
  1

  0
LINE
  5
BF
100
AcDbEntity
  8
ic
  6
CONTINUOUS
 62
    7
370
    0
100
AcDbLine
 10
2
 20
6.900000000000001
 11
1.3
 21
6.900000000000001
  0
SOLID
  5
C0
100
AcDbEntity
  8
ic
  6
CONTINUOUS
 62
    7
370
    0
100
AcDbTrace
 10
2
 20
6.900000000000001
 30
0
 11
1.875
 21
6.879185767111359
 31
0
 12
1.875
 22
6.920814232888644
 32
0
 13
1.875
 23
6.920814232888644
 33
0
  0
ENDBLK
  5
84
330
82
100
AcDbEntity
  8
0
100
AcDbBlockEnd
  0
BLOCK
  5
86
330
85
100
AcDbEntity
  8
0
100
AcDbBlockBegin
  2
*D21
 70
    1
 10
0
 20
0
  3
*D21
  1

  0
LINE
  5
C1
100
AcDbEntity
  8
ic
  6
CONTINUOUS
 62
    7
370
    0
100
AcDbLine
 10
0.8400000000000006
 20
-3.479999999999999
 11
0.8400000000000006
 21
-2.879999999999998
  0
SOLID
  5
C2
100
AcDbEntity
  8
ic
  6
CONTINUOUS
 62
    7
370
    0
100
AcDbTrace
 10
0.8400000000000006
 20
-3.479999999999999
 30
0
 11
0.8191857671113586
 21
-3.354999999999999
 31
0
 12
0.8608142328886427
 22
-3.354999999999999
 32
0
 13
0.8608142328886427
 23
-3.354999999999999
 33
0
  0
ENDBLK
  5
87
330
85
100
AcDbEntity
  8
0
100
AcDbBlockEnd
  0
BLOCK
  5
89
330
88
100
AcDbEntity
  8
0
100
AcDbBlockBegin
  2
*D2
 70
    1
 10
0
 20
0
  3
*D2
  1

  0
LINE
  5
C3
100
AcDbEntity
  8
ic
  6
CONTINUOUS
 62
    7
370
    0
100
AcDbLine
 10
0.7000000000000001
 20
6.800000000000001
 11
1
 21
7
  0
SOLID
  5
C4
100
AcDbEntity
  8
ic
  6
CONTINUOUS
 62
    7
370
    0
100
AcDbTrace
 10
0.7000000000000001
 20
6.800000000000001
 30
0
 11
0.7924606277246233
 21
6.886656013129565
 31
0
 12
0.8155519458598379
 22
6.852019035926743
 32
0
 13
0.8155519458598379
 23
6.852019035926743
 33
0
  0
ENDBLK
  5
8A
330
88
100
AcDbEntity
  8
0
100
AcDbBlockEnd
  0
BLOCK
  5
8C
330
8B
100
AcDbEntity
  8
0
100
AcDbBlockBegin
  2
*D24
 70
    1
 10
0
 20
0
  3
*D24
  1

  0
LINE
  5
C5
100
AcDbEntity
  8
ic
  6
CONTINUOUS
 62
    7
370
    0
100
AcDbLine
 10
5.2
 20
3.54
 11
5.2
 21
3.74
  0
SOLID
  5
C6
100
AcDbEntity
  8
ic
  6
CONTINUOUS
 62
    7
370
    0
100
AcDbTrace
 10
5.2
 20
3.54
 30
0
 11
5.179185767111358
 21
3.665
 31
0
 12
5.220814232888642
 22
3.665
 32
0
 13
5.220814232888642
 23
3.665
 33
0
  0
ENDBLK
  5
8D
330
8B
100
AcDbEntity
  8
0
100
AcDbBlockEnd
  0
BLOCK
  5
8F
330
8E
100
AcDbEntity
  8
0
100
AcDbBlockBegin
  2
*D18
 70
    1
 10
0
 20
0
  3
*D18
  1

  0
LINE
  5
C7
100
AcDbEntity
  8
ic
  6
CONTINUOUS
 62
    7
370
    0
100
AcDbLine
 10
5.500000000000001
 20
-3.560000000000001
 11
5.500000000000001
 21
-3.360000000000001
  0
SOLID
  5
C8
100
AcDbEntity
  8
ic
  6
CONTINUOUS
 62
    7
370
    0
100
AcDbTrace
 10
5.500000000000001
 20
-3.560000000000001
 30
0
 11
5.479185767111359
 21
-3.435000000000001
 31
0
 12
5.520814232888643
 22
-3.435000000000001
 32
0
 13
5.520814232888643
 23
-3.435000000000001
 33
0
  0
ENDBLK
  5
90
330
8E
100
AcDbEntity
  8
0
100
AcDbBlockEnd
  0
BLOCK
  5
92
330
91
100
AcDbEntity
  8
0
100
AcDbBlockBegin
  2
*D22
 70
    1
 10
0
 20
0
  3
*D22
  1

  0
LINE
  5
C9
100
AcDbEntity
  8
ic
  6
CONTINUOUS
 62
    7
370
    0
100
AcDbLine
 10
1.620773879586807
 20
-2.772836894116378
 11
1.620773879586807
 21
-3.472836894116379
  0
SOLID
  5
CA
100
AcDbEntity
  8
ic
  6
CONTINUOUS
 62
    7
370
    0
100
AcDbTrace
 10
1.620773879586807
 20
-2.772836894116378
 30
0
 11
1.641588112475449
 21
-2.897836894116378
 31
0
 12
1.599959646698165
 22
-2.897836894116378
 32
0
 13
1.599959646698165
 23
-2.897836894116378
 33
0
  0
ENDBLK
  5
93
330
91
100
AcDbEntity
  8
0
100
AcDbBlockEnd
  0
BLOCK
  5
95
330
94
100
AcDbEntity
  8
0
100
AcDbBlockBegin
  2
*D12
 70
    1
 10
0
 20
0
  3
*D12
  1

  0
ENDBLK
  5
96
330
94
100
AcDbEntity
  8
0
100
AcDbBlockEnd
  0
BLOCK
  5
98
330
97
100
AcDbEntity
  8
0
100
AcDbBlockBegin
  2
*D25
 70
    1
 10
0
 20
0
  3
*D25
  1

  0
LINE
  5
CB
100
AcDbEntity
  8
ic
  6
CONTINUOUS
 62
    7
370
    0
100
AcDbLine
 10
5.5
 20
6.66
 11
5.5
 21
6.46
  0
SOLID
  5
CC
100
AcDbEntity
  8
ic
  6
CONTINUOUS
 62
    7
370
    0
100
AcDbTrace
 10
5.5
 20
6.66
 30
0
 11
5.520814232888642
 21
6.535
 31
0
 12
5.479185767111358
 22
6.535
 32
0
 13
5.479185767111358
 23
6.535
 33
0
  0
ENDBLK
  5
99
330
97
100
AcDbEntity
  8
0
100
AcDbBlockEnd
  0
BLOCK
  5
9B
330
9A
100
AcDbEntity
  8
0
100
AcDbBlockBegin
  2
*D13
 70
    1
 10
0
 20
0
  3
*D13
  1

  0
LINE
  5
CD
100
AcDbEntity
  8
ic
  6
CONTINUOUS
 62
    7
370
    0
100
AcDbLine
 10
2.16
 20
-0.1399999999999999
 11
1.86
 21
0.05999999999999894
  0
SOLID
  5
CE
100
AcDbEntity
  8
ic
  6
CONTINUOUS
 62
    7
370
    0
100
AcDbTrace
 10
2.16
 20
-0.1399999999999999
 30
0
 11
2.044448054140162
 21
-0.08798096407325753
 31
0
 12
2.067539372275377
 22
-0.05334398687043544
 32
0
 13
2.067539372275377
 23
-0.05334398687043544
 33
0
  0
ENDBLK
  5
9C
330
9A
100
AcDbEntity
  8
0
100
AcDbBlockEnd
  0
BLOCK
  5
9E
330
9D
100
AcDbEntity
  8
0
100
AcDbBlockBegin
  2
*D19
 70
    1
 10
0
 20
0
  3
*D19
  1

  0
LINE
  5
CF
100
AcDbEntity
  8
ic
  6
CONTINUOUS
 62
    7
370
    0
100
AcDbLine
 10
0.9999999999999986
 20
-3.699999999999999
 11
1.199999999999998
 21
-3.999999999999998
  0
SOLID
  5
D0
100
AcDbEntity
  8
ic
  6
CONTINUOUS
 62
    7
370
    0
100
AcDbTrace
 10
0.9999999999999986
 20
-3.699999999999999
 30
0
 11
1.086656013129563
 21
-3.792460627724622
 31
0
 12
1.052019035926741
 22
-3.815551945859837
 32
0
 13
1.052019035926741
 23
-3.815551945859837
 33
0
  0
ENDBLK
  5
9F
330
9D
100
AcDbEntity
  8
0
100
AcDbBlockEnd
  0
BLOCK
  5
A1
330
A0
100
AcDbEntity
  8
0
100
AcDbBlockBegin
  2
*D7
 70
    1
 10
0
 20
0
  3
*D7
  1

  0
LINE
  5
D1
100
AcDbEntity
  8
ic
  6
CONTINUOUS
 62
    7
370
    0
100
AcDbLine
 10
1.24
 20
4.140000000000001
 11
0.6400000000000003
 21
4.140000000000001
  0
SOLID
  5
D2
100
AcDbEntity
  8
ic
  6
CONTINUOUS
 62
    7
370
    0
100
AcDbTrace
 10
1.24
 20
4.140000000000001
 30
0
 11
1.115
 21
4.119185767111358
 31
0
 12
1.115
 22
4.160814232888643
 32
0
 13
1.115
 23
4.160814232888643
 33
0
  0
ENDBLK
  5
A2
330
A0
100
AcDbEntity
  8
0
100
AcDbBlockEnd
  0
ENDSEC
  0
SECTION
  2
ENTITIES
  0
LINE
  5
D3
100
AcDbEntity
  8
ic
  6
ByLayer
 62
  256
370
   -1
100
AcDbLine
 10
2.140000000000001
 20
6.5
 11
2.47
 21
6.5
  0
LINE
  5
D4
100
AcDbEntity
  8
ic
  6
ByLayer
 62
  256
370
   -1
100
AcDbLine
 10
2.140000000000001
 20
6.6
 11
2.47
 21
6.6
  0
LINE
  5
D5
100
AcDbEntity
  8
ic
  6
ByLayer
 62
  256
370
   -1
100
AcDbLine
 10
2.3
 20
7
 11
2.3
 21
6.6
  0
LWPOLYLINE
  5
D6
100
AcDbEntity
  8
ic
  6
ByLayer
 62
  256
370
   -1
100
AcDbPolyline
 90
    4
 70
    1
 43
0
 10
2.7
 20
6.8
 10
2.9
 20
6.8
 10
2.9
 20
6.3
 10
2.7
 20
6.3
  0
LINE
  5
D7
100
AcDbEntity
  8
ic
  6
ByLayer
 62
  256
370
   -1
100
AcDbLine
 10
2.3
 20
7
 11
2.8
 21
7
  0
LINE
  5
D8
100
AcDbEntity
  8
ic
  6
ByLayer
 62
  256
370
   -1
100
AcDbLine
 10
2.8
 20
7
 11
2.8
 21
6.8
  0
LINE
  5
D9
100
AcDbEntity
  8
ic
  6
ByLayer
 62
  256
370
   -1
100
AcDbLine
 10
2.8
 20
6.3
 11
2.8
 21
6.1
  0
LINE
  5
DA
100
AcDbEntity
  8
ic
  6
ByLayer
 62
  256
370
   -1
100
AcDbLine
 10
2.8
 20
6.1
 11
2.8
 21
5.9
  0
LINE
  5
DB
100
AcDbEntity
  8
ic
  6
ByLayer
 62
  256
370
   -1
100
AcDbLine
 10
2.8
 20
5.9
 11
2.7
 21
5.9
  0
LINE
  5
DC
100
AcDbEntity
  8
ic
  6
ByLayer
 62
  256
370
   -1
100
AcDbLine
 10
2.7
 20
5.9
 11
2.8
 21
5.7
  0
LINE
  5
DD
100
AcDbEntity
  8
ic
  6
ByLayer
 62
  256
370
   -1
100
AcDbLine
 10
2.8
 20
5.7
 11
2.9
 21
5.9
  0
LINE
  5
DE
100
AcDbEntity
  8
ic
  6
ByLayer
 62
  256
370
   -1
100
AcDbLine
 10
2.9
 20
5.9
 11
2.8
 21
5.9
  0
LINE
  5
DF
100
AcDbEntity
  8
ic
  6
ByLayer
 62
  256
370
   -1
100
AcDbLine
 10
0
 20
6.000000000000001
 11
0.7000000000000001
 21
6.000000000000001
  0
LINE
  5
E0
100
AcDbEntity
  8
ic
  6
ByLayer
 62
  256
370
   -1
100
AcDbLine
 10
2.3
 20
6.5
 11
2.3
 21
6.000000000000001
  0
LINE
  5
E1
100
AcDbEntity
  8
ic
  6
ByLayer
 62
  256
370
   -1
100
AcDbLine
 10
0.7000000000000001
 20
6.000000000000001
 11
2.3
 21
6.000000000000001
  0
LINE
  5
E2
100
AcDbEntity
  8
ic
  6
ByLayer
 62
  256
370
   -1
100
AcDbLine
 10
2.8
 20
6.000000000000001
 11
2.3
 21
6.000000000000001
  0
LINE
  5
E3
100
AcDbEntity
  8
ic
  6
ByLayer
 62
  256
370
   -1
100
AcDbLine
 10
3.7
 20
8.300000000000001
 11
-0.7
 21
8.300000000000001
  0
LINE
  5
E4
100
AcDbEntity
  8
ic
  6
ByLayer
 62
  256
370
   -1
100
AcDbLine
 10
-5.551115123125783e-17
 20
6.300000000000001
 11
5.551115123125783e-17
 21
6.000000000000001
  0
CIRCLE
  5
E5
100
AcDbEntity
  8
ic
  6
ByLayer
 62
  256
370
   -1
100
AcDbCircle
 10
-1.87717472568372e-17
 20
6.500000000000001
 40
0.2000000000000002
  0
MTEXT
  5
E6
100
AcDbEntity
  8
ic
  6
ByLayer
 62
  256
370
   -1
100
AcDbMText
 10
-0.03812425171284006
 20
6.626070321532379
 30
0
 40
0.1
 41
0.08571433333333334
 71
    1
 72
    1
  1
+\P-
  7
romanc
210
0
220
0
230
1
 50
0
 73
    2
 44
1
  0
MTEXT
  5
E7
100
AcDbEntity
  8
ic
  6
ByLayer
 62
  256
370
   -1
100
AcDbMText
 10
-0.4572409726500538
 20
6.545122223200122
 30
0
 40
0.1
 41
0.1857144444444445
 71
    1
 72
    1
  1
VS
  7
romanc
210
0
220
0
230
1
 50
0
 73
    2
 44
1
  0
LINE
  5
E8
100
AcDbEntity
  8
ic
  6
ByLayer
 62
  256
370
   -1
100
AcDbLine
 10
2.1
 20
7
 11
2.3
 21
7
  0
ARC
  5
E9
100
AcDbEntity
  8
ic
  6
ByLayer
 62
  256
370
   -1
100
AcDbCircle
 10
1.3
 20
7
 40
0.1
100
AcDbArc
 50
0
 51
180
  0
ARC
  5
EA
100
AcDbEntity
  8
ic
  6
ByLayer
 62
  256
370
   -1
100
AcDbCircle
 10
1.5
 20
7
 40
0.1
100
AcDbArc
 50
0
 51
180
  0
ARC
  5
EB
100
AcDbEntity
  8
ic
  6
ByLayer
 62
  256
370
   -1
100
AcDbCircle
 10
1.7
 20
7
 40
0.1
100
AcDbArc
 50
0
 51
180
  0
ARC
  5
EC
100
AcDbEntity
  8
ic
  6
ByLayer
 62
  256
370
   -1
100
AcDbCircle
 10
1.9
 20
7
 40
0.1
100
AcDbArc
 50
2.544443745170813e-14
 51
180
  0
LINE
  5
ED
100
AcDbEntity
  8
ic
  6
ByLayer
 62
  256
370
   -1
100
AcDbLine
 10
2
 20
7
 11
2.1
 21
7
  0
LINE
  5
EE
100
AcDbEntity
  8
ic
  6
ByLayer
 62
  256
370
   -1
100
AcDbLine
 10
1
 20
7
 11
1.2
 21
7
  0
LINE
  5
EF
100
AcDbEntity
  8
ic
  6
ByLayer
 62
  256
370
   -1
100
AcDbLine
 10
0.7
 20
6.720000000000001
 11
0.7000000000000001
 21
6.000000000000001
  0
CIRCLE
  5
F0
100
AcDbEntity
  8
ic
  6
ByLayer
 62
  256
370
   -1
100
AcDbCircle
 10
0.7
 20
6.760000000000001
 40
0.04000000000000004
  0
CIRCLE
  5
F1
100
AcDbEntity
  8
ic
  6
ByLayer
 62
  256
370
   -1
100
AcDbCircle
 10
0.7000000000000001
 20
7.24
 40
0.04000000000000004
  0
LINE
  5
F2
100
AcDbEntity
  8
ic
  6
ByLayer
 62
  256
370
   -1
100
AcDbLine
 10
-6.525279265363653e-18
 20
6.700000000000001
 11
-1.387778780781446e-17
 21
7.239999999999998
  0
LINE
  5
F3
100
AcDbEntity
  8
ic
  6
ByLayer
 62
  256
370
   -1
100
AcDbLine
 10
0.66
 20
7.239999999999999
 11
-1.387778780781446e-17
 21
7.239999999999998
  0
LEADER
  5
F4
100
AcDbEntity
  8
ic
  6
ByLayer
 62
  256
370
   -1
100
AcDbLeader
  3
Standard
 71
    1
 72
    0
 73
    3
 74
    0
 75
    0
 40
1
 41
10
 76
2
 76
2
 10
0.7000000000000001
 20
7.2
 30
0
 10
1
 20
7.000000000000001
 30
0
  0
LEADER
  5
F5
100
AcDbEntity
  8
ic
  6
DASHED2
 62
  256
370
   13
100
AcDbLeader
  3
Standard
 71
    1
 72
    0
 73
    3
 74
    0
 75
    0
 40
1
 41
10
 76
2
 76
2
 10
0.7000000000000001
 20
6.800000000000001
 30
0
 10
1
 20
7
 30
0
  0
LINE
  5
F6
100
AcDbEntity
  8
ic
  6
ByLayer
 62
  256
370
   -1
100
AcDbLine
 10
4.4
 20
6.300000000000001
 11
4.4
 21
6.000000000000001
  0
CIRCLE
  5
F7
100
AcDbEntity
  8
ic
  6
ByLayer
 62
  256
370
   -1
100
AcDbCircle
 10
4.4
 20
6.500000000000001
 40
0.2000000000000002
  0
MTEXT
  5
F8
100
AcDbEntity
  8
ic
  6
ByLayer
 62
  256
370
   -1
100
AcDbMText
 10
4.36187574828716
 20
6.626070321532379
 30
0
 40
0.1
 41
0.08571433333333334
 71
    1
 72
    1
  1
+\P-
  7
romanc
210
0
220
0
230
1
 50
0
 73
    2
 44
1
  0
MTEXT
  5
F9
100
AcDbEntity
  8
ic
  6
ByLayer
 62
  256
370
   -1
100
AcDbMText
 10
3.942759027349946
 20
6.545122223200122
 30
0
 40
0.1
 41
0.1857144444444445
 71
    1
 72
    1
  1
VS
  7
romanc
210
0
220
0
230
1
 50
0
 73
    2
 44
1
  0
CIRCLE
  5
FA
100
AcDbEntity
  8
ic
  6
ByLayer
 62
  256
370
   -1
100
AcDbCircle
 10
4.800000000000001
 20
7
 40
0.2000000000000002
  0
LEADER
  5
FB
100
AcDbEntity
  8
ic
  6
ByLayer
 62
  256
370
   -1
100
AcDbLeader
  3
Standard
 71
    1
 72
    0
 73
    3
 74
    0
 75
    0
 40
1
 41
10
 76
2
 76
2
 10
4.96
 20
7.000000000000002
 30
0
 10
4.76
 20
7.000000000000002
 30
0
  0
LINE
  5
FC
100
AcDbEntity
  8
ic
  6
ByLayer
 62
  256
370
   -1
100
AcDbLine
 10
4.76
 20
7.000000000000002
 11
4.66
 21
7.000000000000002
  0
LINE
  5
FD
100
AcDbEntity
  8
ic
  6
ByLayer
 62
  256
370
   -1
100
AcDbLine
 10
4.4
 20
7
 11
4.6
 21
7
  0
LINE
  5
FE
100
AcDbEntity
  8
ic
  6
ByLayer
 62
  256
370
   -1
100
AcDbLine
 10
4.4
 20
6.7
 11
4.4
 21
7
  0
MTEXT
  5
FF
100
AcDbEntity
  8
ic
  6
ByLayer
 62
  256
370
   -1
100
AcDbMText
 10
4.755062352064551
 20
7.384469151767116
 30
0
 40
0.1
 41
0.03333322222222222
 71
    1
 72
    1
  1
i
  7
romanc
210
0
220
0
230
1
 50
0
 73
    2
 44
1
  0
MTEXT
  5
100
100
AcDbEntity
  8
ic
  6
ByLayer
 62
  256
370
   -1
100
AcDbMText
 10
4.644324072088549
 20
7.378895616565528
 30
0
 40
0.1
 41
0.07619044444444445
 71
    1
 72
    1
  1
<
  7
romanc
210
0
220
0
230
1
 50
0
 73
    2
 44
1
  0
MTEXT
  5
101
100
AcDbEntity
  8
ic
  6
ByLayer
 62
  256
370
   -1
100
AcDbMText
 10
4.818053242990302
 20
7.378835272088904
 30
0
 40
0.1
 41
0.07619044444444445
 71
    1
 72
    1
  1
>
  7
romanc
210
0
220
0
230
1
 50
0
 73
    2
 44
1
  0
MTEXT
  5
102
100
AcDbEntity
  8
ic
  6
ByLayer
 62
  256
370
   -1
100
AcDbMText
 10
4.878543877540125
 20
7.320294159728883
 30
0
 40
0.1
 41
0.06190488888888889
 71
    1
 72
    1
  1
c
  7
romanc
210
0
220
0
230
1
 50
0
 73
    2
 44
1
  0
LEADER
  5
103
100
AcDbEntity
  8
ic
  6
ByLayer
 62
  256
370
   -1
100
AcDbLeader
  3
Standard
 71
    1
 72
    0
 73
    3
 74
    0
 75
    0
 40
1
 41
10
 76
2
 76
2
 10
1.9
 20
7.200000000000001
 30
0
 10
1.3
 20
7.200000000000001
 30
0
  0
MTEXT
  5
104
100
AcDbEntity
  8
ic
  6
ByLayer
 62
  256
370
   -1
100
AcDbMText
 10
1.485379959723359
 20
6.85323581417191
 30
0
 40
0.1
 41
0.03333322222222222
 71
    1
 72
    1
  1
i
  7
romanc
210
0
220
0
230
1
 50
0
 73
    2
 44
1
  0
MTEXT
  5
105
100
AcDbEntity
  8
ic
  6
ByLayer
 62
  256
370
   -1
100
AcDbMText
 10
1.482715176025486
 20
7.383956423027038
 30
0
 40
0.1
 41
0.03333322222222222
 71
    1
 72
    1
  1
i
  7
romanc
210
0
220
0
230
1
 50
0
 73
    2
 44
1
  0
MTEXT
  5
106
100
AcDbEntity
  8
ic
  6
ByLayer
 62
  256
370
   -1
100
AcDbMText
 10
1.534984806202648
 20
7.328202150838066
 30
0
 40
0.1
 41
0.06190488888888889
 71
    1
 72
    1
  1
c
  7
romanc
210
0
220
0
230
1
 50
0
 73
    2
 44
1
  0
MTEXT
  5
107
100
AcDbEntity
  8
ic
  6
ByLayer
 62
  256
370
   -1
100
AcDbMText
 10
1.524530880167215
 20
6.756720860901098
 30
0
 40
0.1
 41
0.07619044444444445
 71
    1
 72
    1
  1
d
  7
romanc
210
0
220
0
230
1
 50
0
 73
    2
 44
1
  0
LINE
  5
108
100
AcDbEntity
  8
ic
  6
ByLayer
 62
  256
370
   -1
100
AcDbLine
 10
2.140000000000001
 20
3.7
 11
2.47
 21
3.7
  0
LINE
  5
109
100
AcDbEntity
  8
ic
  6
ByLayer
 62
  256
370
   -1
100
AcDbLine
 10
2.140000000000001
 20
3.8
 11
2.47
 21
3.8
  0
LWPOLYLINE
  5
10A
100
AcDbEntity
  8
ic
  6
ByLayer
 62
  256
370
   -1
100
AcDbPolyline
 90
    4
 70
    1
 43
0
 10
2.7
 20
4
 10
2.899999999999999
 20
4
 10
2.899999999999999
 20
3.5
 10
2.7
 20
3.5
  0
LINE
  5
10B
100
AcDbEntity
  8
ic
  6
ByLayer
 62
  256
370
   -1
100
AcDbLine
 10
2.8
 20
3.5
 11
2.8
 21
3.3
  0
LINE
  5
10C
100
AcDbEntity
  8
ic
  6
ByLayer
 62
  256
370
   -1
100
AcDbLine
 10
2.8
 20
3.3
 11
2.8
 21
3.100000000000001
  0
LINE
  5
10D
100
AcDbEntity
  8
ic
  6
ByLayer
 62
  256
370
   -1
100
AcDbLine
 10
2.8
 20
3.100000000000001
 11
2.7
 21
3.100000000000001
  0
LINE
  5
10E
100
AcDbEntity
  8
ic
  6
ByLayer
 62
  256
370
   -1
100
AcDbLine
 10
2.7
 20
3.100000000000001
 11
2.8
 21
2.9
  0
LINE
  5
10F
100
AcDbEntity
  8
ic
  6
ByLayer
 62
  256
370
   -1
100
AcDbLine
 10
2.8
 20
2.9
 11
2.899999999999999
 21
3.100000000000001
  0
LINE
  5
110
100
AcDbEntity
  8
ic
  6
ByLayer
 62
  256
370
   -1
100
AcDbLine
 10
2.899999999999999
 20
3.100000000000001
 11
2.8
 21
3.100000000000001
  0
LINE
  5
111
100
AcDbEntity
  8
ic
  6
ByLayer
 62
  256
370
   -1
100
AcDbLine
 10
-2.220446049250313e-16
 20
3.200000000000001
 11
0.6999999999999998
 21
3.200000000000001
  0
LINE
  5
112
100
AcDbEntity
  8
ic
  6
ByLayer
 62
  256
370
   -1
100
AcDbLine
 10
2.3
 20
3.7
 11
2.3
 21
3.200000000000001
  0
LINE
  5
113
100
AcDbEntity
  8
ic
  6
ByLayer
 62
  256
370
   -1
100
AcDbLine
 10
0.6999999999999998
 20
3.200000000000001
 11
2.3
 21
3.200000000000001
  0
LINE
  5
114
100
AcDbEntity
  8
ic
  6
ByLayer
 62
  256
370
   -1
100
AcDbLine
 10
2.8
 20
3.200000000000001
 11
2.3
 21
3.200000000000001
  0
LINE
  5
115
100
AcDbEntity
  8
ic
  6
ByLayer
 62
  256
370
   -1
100
AcDbLine
 10
-2.775557561562891e-16
 20
3.500000000000001
 11
-1.665334536937735e-16
 21
3.200000000000001
  0
CIRCLE
  5
116
100
AcDbEntity
  8
ic
  6
ByLayer
 62
  256
370
   -1
100
AcDbCircle
 10
-2.408163521818685e-16
 20
3.700000000000001
 40
0.2000000000000002
  0
MTEXT
  5
117
100
AcDbEntity
  8
ic
  6
ByLayer
 62
  256
370
   -1
100
AcDbMText
 10
-0.03812425171284028
 20
3.826070321532379
 30
0
 40
0.1
 41
0.08571433333333334
 71
    1
 72
    1
  1
+\P-
  7
romanc
210
0
220
0
230
1
 50
0
 73
    2
 44
1
  0
MTEXT
  5
118
100
AcDbEntity
  8
ic
  6
ByLayer
 62
  256
370
   -1
100
AcDbMText
 10
-0.457240972650054
 20
3.745122223200123
 30
0
 40
0.1
 41
0.1857144444444445
 71
    1
 72
    1
  1
VS
  7
romanc
210
0
220
0
230
1
 50
0
 73
    2
 44
1
  0
LINE
  5
119
100
AcDbEntity
  8
ic
  6
ByLayer
 62
  256
370
   -1
100
AcDbLine
 10
2.3
 20
4.5
 11
2.8
 21
4.5
  0
LINE
  5
11A
100
AcDbEntity
  8
ic
  6
ByLayer
 62
  256
370
   -1
100
AcDbLine
 10
2.8
 20
4.5
 11
2.8
 21
4
  0
LINE
  5
11B
100
AcDbEntity
  8
ic
  6
ByLayer
 62
  256
370
   -1
100
AcDbLine
 10
2.3
 20
4.5
 11
2.3
 21
3.8
  0
ARC
  5
11C
100
AcDbEntity
  8
ic
  6
ByLayer
 62
  256
370
   -1
100
AcDbCircle
 10
1.16
 20
4.26
 40
0.1
100
AcDbArc
 50
0
 51
180
  0
ARC
  5
11D
100
AcDbEntity
  8
ic
  6
ByLayer
 62
  256
370
   -1
100
AcDbCircle
 10
0.96
 20
4.26
 40
0.1
100
AcDbArc
 50
0
 51
180
  0
ARC
  5
11E
100
AcDbEntity
  8
ic
  6
ByLayer
 62
  256
370
   -1
100
AcDbCircle
 10
0.7599999999999998
 20
4.26
 40
0.1
100
AcDbArc
 50
0
 51
180
  0
ARC
  5
11F
100
AcDbEntity
  8
ic
  6
ByLayer
 62
  256
370
   -1
100
AcDbCircle
 10
0.5600000000000001
 20
4.26
 40
0.1
100
AcDbArc
 50
0
 51
180
  0
LINE
  5
120
100
AcDbEntity
  8
ic
  6
ByLayer
 62
  256
370
   -1
100
AcDbLine
 10
1.46
 20
4.26
 11
1.26
 21
4.26
  0
CIRCLE
  5
121
100
AcDbEntity
  8
ic
  6
ByLayer
 62
  256
370
   -1
100
AcDbCircle
 10
1.76
 20
4.02
 40
0.04000000000000004
  0
CIRCLE
  5
122
100
AcDbEntity
  8
ic
  6
ByLayer
 62
  256
370
   -1
100
AcDbCircle
 10
1.76
 20
4.5
 40
0.04000000000000004
  0
LINE
  5
123
100
AcDbEntity
  8
ic
  6
ByLayer
 62
  256
370
   -1
100
AcDbLine
 10
-2.28569884190395e-16
 20
3.900000000000001
 11
-2.220446049250313e-16
 21
4.259999999999999
  0
LINE
  5
124
100
AcDbEntity
  8
ic
  6
ByLayer
 62
  256
370
   -1
100
AcDbLine
 10
0.4600000000000001
 20
4.26
 11
-2.220446049250313e-16
 21
4.259999999999999
  0
LINE
  5
125
100
AcDbEntity
  8
ic
  6
ByLayer
 62
  256
370
   -1
100
AcDbLine
 10
1.76
 20
3.98
 11
1.76
 21
3.2
  0
LEADER
  5
126
100
AcDbEntity
  8
ic
  6
ByLayer
 62
  256
370
   -1
100
AcDbLeader
  3
Standard
 71
    1
 72
    0
 73
    3
 74
    0
 75
    0
 40
1
 41
10
 76
2
 76
2
 10
1.76
 20
4.06
 30
0
 10
1.46
 20
4.259999999999999
 30
0
  0
LEADER
  5
127
100
AcDbEntity
  8
ic
  6
DASHED2
 62
  256
370
   13
100
AcDbLeader
  3
Standard
 71
    1
 72
    0
 73
    3
 74
    0
 75
    0
 40
1
 41
10
 76
2
 76
2
 10
1.76
 20
4.459999999999999
 30
0
 10
1.46
 20
4.26
 30
0
  0
LINE
  5
128
100
AcDbEntity
  8
ic
  6
ByLayer
 62
  256
370
   -1
100
AcDbLine
 10
1.8
 20
4.5
 11
2.3
 21
4.5
  0
LEADER
  5
129
100
AcDbEntity
  8
ic
  6
ByLayer
 62
  256
370
   -1
100
AcDbLeader
  3
Standard
 71
    1
 72
    0
 73
    3
 74
    0
 75
    0
 40
1
 41
10
 76
2
 76
2
 10
1.24
 20
4.140000000000001
 30
0
 10
0.6400000000000003
 20
4.140000000000001
 30
0
  0
LEADER
  5
12A
100
AcDbEntity
  8
ic
  6
DASHED2
 62
  256
370
   13
100
AcDbLeader
  3
Standard
 71
    1
 72
    0
 73
    3
 74
    0
 75
    0
 40
1
 41
10
 76
2
 76
2
 10
1.345371982500505
 20
4.440773879586807
 30
0
 10
0.6453719825005048
 20
4.440773879586807
 30
0
  0
MTEXT
  5
12B
100
AcDbEntity
  8
ic
  6
ByLayer
 62
  256
370
   -1
100
AcDbMText
 10
0.8999535178645857
 20
4.69576513684199
 30
0
 40
0.1
 41
0.03333322222222222
 71
    1
 72
    1
  1
i
  7
romanc
210
0
220
0
230
1
 50
0
 73
    2
 44
1
  0
MTEXT
  5
12C
100
AcDbEntity
  8
ic
  6
ByLayer
 62
  256
370
   -1
100
AcDbMText
 10
0.9391044383084421
 20
4.599250183571178
 30
0
 40
0.1
 41
0.07619044444444445
 71
    1
 72
    1
  1
d
  7
romanc
210
0
220
0
230
1
 50
0
 73
    2
 44
1
  0
MTEXT
  5
12D
100
AcDbEntity
  8
ic
  6
ByLayer
 62
  256
370
   -1
100
AcDbMText
 10
0.9134012740564605
 20
4.08193579160669
 30
0
 40
0.1
 41
0.03333322222222222
 71
    1
 72
    1
  1
i
  7
romanc
210
0
220
0
230
1
 50
0
 73
    2
 44
1
  0
MTEXT
  5
12E
100
AcDbEntity
  8
ic
  6
ByLayer
 62
  256
370
   -1
100
AcDbMText
 10
0.9656709042336222
 20
4.026181519417718
 30
0
 40
0.1
 41
0.06190488888888889
 71
    1
 72
    1
  1
c
  7
romanc
210
0
220
0
230
1
 50
0
 73
    2
 44
1
  0
LINE
  5
12F
100
AcDbEntity
  8
ic
  6
ByLayer
 62
  256
370
   -1
100
AcDbLine
 10
4.4
 20
3.500000000000001
 11
4.4
 21
3.200000000000001
  0
CIRCLE
  5
130
100
AcDbEntity
  8
ic
  6
ByLayer
 62
  256
370
   -1
100
AcDbCircle
 10
4.4
 20
3.700000000000001
 40
0.2000000000000002
  0
MTEXT
  5
131
100
AcDbEntity
  8
ic
  6
ByLayer
 62
  256
370
   -1
100
AcDbMText
 10
4.36187574828716
 20
3.826070321532379
 30
0
 40
0.1
 41
0.08571433333333334
 71
    1
 72
    1
  1
+\P-
  7
romanc
210
0
220
0
230
1
 50
0
 73
    2
 44
1
  0
MTEXT
  5
132
100
AcDbEntity
  8
ic
  6
ByLayer
 62
  256
370
   -1
100
AcDbMText
 10
3.942759027349946
 20
3.745122223200123
 30
0
 40
0.1
 41
0.1857144444444445
 71
    1
 72
    1
  1
VS
  7
romanc
210
0
220
0
230
1
 50
0
 73
    2
 44
1
  0
LINE
  5
133
100
AcDbEntity
  8
ic
  6
ByLayer
 62
  256
370
   -1
100
AcDbLine
 10
4.4
 20
3.9
 11
4.4
 21
4.2
  0
LINE
  5
134
100
AcDbEntity
  8
ic
  6
ByLayer
 62
  256
370
   -1
100
AcDbLine
 10
4.600000000000001
 20
-0.6999999999999993
 11
4.600000000000001
 21
-0.9999999999999982
  0
CIRCLE
  5
135
100
AcDbEntity
  8
ic
  6
ByLayer
 62
  256
370
   -1
100
AcDbCircle
 10
4.600000000000001
 20
-0.4999999999999982
 40
0.2000000000000002
  0
MTEXT
  5
136
100
AcDbEntity
  8
ic
  6
ByLayer
 62
  256
370
   -1
100
AcDbMText
 10
4.561875748287161
 20
-0.3739296784676212
 30
0
 40
0.1
 41
0.08571433333333334
 71
    1
 72
    1
  1
+\P-
  7
romanc
210
0
220
0
230
1
 50
0
 73
    2
 44
1
  0
MTEXT
  5
137
100
AcDbEntity
  8
ic
  6
ByLayer
 62
  256
370
   -1
100
AcDbMText
 10
4.142759027349947
 20
-0.4548777767998766
 30
0
 40
0.1
 41
0.1857144444444445
 71
    1
 72
    1
  1
VS
  7
romanc
210
0
220
0
230
1
 50
0
 73
    2
 44
1
  0
CIRCLE
  5
138
100
AcDbEntity
  8
ic
  6
ByLayer
 62
  256
370
   -1
100
AcDbCircle
 10
5.860000000000001
 20
-0.4999999999999982
 40
0.2000000000000002
  0
LEADER
  5
139
100
AcDbEntity
  8
ic
  6
ByLayer
 62
  256
370
   -1
100
AcDbLeader
  3
Standard
 71
    1
 72
    0
 73
    3
 74
    0
 75
    0
 40
1
 41
10
 76
2
 76
2
 10
5.860000000000001
 20
-0.6599999999999993
 30
0
 10
5.860000000000001
 20
-0.4599999999999991
 30
0
  0
LINE
  5
13A
100
AcDbEntity
  8
ic
  6
ByLayer
 62
  256
370
   -1
100
AcDbLine
 10
5.860000000000001
 20
-0.4599999999999991
 11
5.860000000000001
 21
-0.3599999999999994
  0
MTEXT
  5
13B
100
AcDbEntity
  8
ic
  6
ByLayer
 62
  256
370
   -1
100
AcDbMText
 10
6.215062352064551
 20
-0.6155308482328827
 30
0
 40
0.1
 41
0.03333322222222222
 71
    1
 72
    1
  1
i
  7
romanc
210
0
220
0
230
1
 50
0
 73
    2
 44
1
  0
MTEXT
  5
13C
100
AcDbEntity
  8
ic
  6
ByLayer
 62
  256
370
   -1
100
AcDbMText
 10
6.10432407208855
 20
-0.6211043834344707
 30
0
 40
0.1
 41
0.07619044444444445
 71
    1
 72
    1
  1
<
  7
romanc
210
0
220
0
230
1
 50
0
 73
    2
 44
1
  0
MTEXT
  5
13D
100
AcDbEntity
  8
ic
  6
ByLayer
 62
  256
370
   -1
100
AcDbMText
 10
6.278053242990303
 20
-0.6211647279110943
 30
0
 40
0.1
 41
0.07619044444444445
 71
    1
 72
    1
  1
>
  7
romanc
210
0
220
0
230
1
 50
0
 73
    2
 44
1
  0
MTEXT
  5
13E
100
AcDbEntity
  8
ic
  6
ByLayer
 62
  256
370
   -1
100
AcDbMText
 10
6.338543877540125
 20
-0.6797058402711151
 30
0
 40
0.1
 41
0.06190488888888889
 71
    1
 72
    1
  1
c
  7
romanc
210
0
220
0
230
1
 50
0
 73
    2
 44
1
  0
CIRCLE
  5
13F
100
AcDbEntity
  8
ic
  6
ByLayer
 62
  256
370
   -1
100
AcDbCircle
 10
5.860000000000001
 20
0.8000000000000016
 40
0.2000000000000002
  0
LEADER
  5
140
100
AcDbEntity
  8
ic
  6
ByLayer
 62
  256
370
   -1
100
AcDbLeader
  3
Standard
 71
    1
 72
    0
 73
    3
 74
    0
 75
    0
 40
1
 41
10
 76
2
 76
2
 10
5.860000000000001
 20
0.9600000000000009
 30
0
 10
5.860000000000001
 20
0.7600000000000007
 30
0
  0
LINE
  5
141
100
AcDbEntity
  8
ic
  6
ByLayer
 62
  256
370
   -1
100
AcDbLine
 10
5.860000000000001
 20
0.7600000000000007
 11
5.860000000000001
 21
0.660000000000001
  0
MTEXT
  5
142
100
AcDbEntity
  8
ic
  6
ByLayer
 62
  256
370
   -1
100
AcDbMText
 10
6.164075556737785
 20
0.6829314952326229
 30
0
 40
0.1
 41
0.03333322222222222
 71
    1
 72
    1
  1
i
  7
romanc
210
0
220
0
230
1
 50
0
 73
    2
 44
1
  0
MTEXT
  5
143
100
AcDbEntity
  8
ic
  6
ByLayer
 62
  256
370
   -1
100
AcDbMText
 10
6.053337276761784
 20
0.6773579600310349
 30
0
 40
0.1
 41
0.07619044444444445
 71
    1
 72
    1
  1
<
  7
romanc
210
0
220
0
230
1
 50
0
 73
    2
 44
1
  0
MTEXT
  5
144
100
AcDbEntity
  8
ic
  6
ByLayer
 62
  256
370
   -1
100
AcDbMText
 10
6.227066447663537
 20
0.6772976155544104
 30
0
 40
0.1
 41
0.07619044444444445
 71
    1
 72
    1
  1
>
  7
romanc
210
0
220
0
230
1
 50
0
 73
    2
 44
1
  0
MTEXT
  5
145
100
AcDbEntity
  8
ic
  6
ByLayer
 62
  256
370
   -1
100
AcDbMText
 10
6.259892061562396
 20
0.5827104475392435
 30
0
 40
0.1
 41
0.07619044444444445
 71
    1
 72
    1
  1
d
  7
romanc
210
0
220
0
230
1
 50
0
 73
    2
 44
1
  0
LINE
  5
146
100
AcDbEntity
  8
ic
  6
ByLayer
 62
  256
370
   -1
100
AcDbLine
 10
5.860000000000001
 20
0.05999999999999961
 11
4.600000000000001
 21
0.05999999999999961
  0
LINE
  5
147
100
AcDbEntity
  8
ic
  6
ByLayer
 62
  256
370
   -1
100
AcDbLine
 10
5.860000000000001
 20
1.600000000000001
 11
4.600000000000001
 21
1.6
  0
LINE
  5
148
100
AcDbEntity
  8
ic
  6
ByLayer
 62
  256
370
   -1
100
AcDbLine
 10
5.860000000000001
 20
1.600000000000001
 11
5.860000000000001
 21
1.000000000000002
  0
LINE
  5
149
100
AcDbEntity
  8
ic
  6
ByLayer
 62
  256
370
   -1
100
AcDbLine
 10
5.860000000000001
 20
0.6000000000000014
 11
5.860000000000001
 21
-0.299999999999998
  0
LINE
  5
14A
100
AcDbEntity
  8
ic
  6
ByLayer
 62
  256
370
   -1
100
AcDbLine
 10
5.860000000000001
 20
-1.099999999999999
 11
5.760000000000001
 21
-1.099999999999999
  0
LINE
  5
14B
100
AcDbEntity
  8
ic
  6
ByLayer
 62
  256
370
   -1
100
AcDbLine
 10
5.760000000000001
 20
-1.099999999999999
 11
5.860000000000001
 21
-1.3
  0
LINE
  5
14C
100
AcDbEntity
  8
ic
  6
ByLayer
 62
  256
370
   -1
100
AcDbLine
 10
5.860000000000001
 20
-1.3
 11
5.96
 21
-1.099999999999999
  0
LINE
  5
14D
100
AcDbEntity
  8
ic
  6
ByLayer
 62
  256
370
   -1
100
AcDbLine
 10
5.96
 20
-1.099999999999999
 11
5.860000000000001
 21
-1.099999999999999
  0
LINE
  5
14E
100
AcDbEntity
  8
ic
  6
ByLayer
 62
  256
370
   -1
100
AcDbLine
 10
4.600000000000001
 20
-0.9999999999999982
 11
5.860000000000001
 21
-0.9999999999999991
  0
LINE
  5
14F
100
AcDbEntity
  8
ic
  6
ByLayer
 62
  256
370
   -1
100
AcDbLine
 10
5.860000000000001
 20
-0.6999999999999984
 11
5.860000000000001
 21
-1.099999999999999
  0
LEADER
  5
150
100
AcDbEntity
  8
ic
  6
DASHED2
 62
  256
370
   13
100
AcDbLeader
  3
Standard
 71
    1
 72
    0
 73
    3
 74
    0
 75
    0
 40
1
 41
10
 76
2
 76
2
 10
2
 20
6.900000000000001
 30
0
 10
1.3
 20
6.900000000000001
 30
0
  0
MTEXT
  5
151
100
AcDbEntity
  8
ic
  6
ByLayer
 62
  256
370
   -1
100
AcDbMText
 10
1.3
 20
7.600000000000001
 30
0
 40
0.1
 41
0.5690478888888889
 71
    1
 72
    1
  1
+ Vc -
  7
romanc
210
0
220
0
230
1
 50
0
 73
    2
 44
1
  0
MTEXT
  5
152
100
AcDbEntity
  8
ic
  6
ByLayer
 62
  256
370
   -1
100
AcDbMText
 10
1.3
 20
6.500000000000001
 30
0
 40
0.1
 41
0.5833334444444445
 71
    1
 72
    1
  1
- Vd +
  7
romanc
210
0
220
0
230
1
 50
0
 73
    2
 44
1
  0
LEADER
  5
153
100
AcDbEntity
  8
ic
  6
ByLayer
 62
  256
370
   -1
100
AcDbLeader
  3
Standard
 71
    1
 72
    0
 73
    3
 74
    0
 75
    0
 40
1
 41
10
 76
0
 76
0
  0
MTEXT
  5
154
100
AcDbEntity
  8
ic
  6
ByLayer
 62
  256
370
   -1
100
AcDbMText
 10
4.818970244509566
 20
8.718929028521201
 30
0
 40
0.1
 41
0
 71
    1
 72
    1
  1

  7
romanc
210
0
220
0
230
1
 50
0
 73
    2
 44
1
  0
MTEXT
  5
155
100
AcDbEntity
  8
ic
  6
ByLayer
 62
  256
370
   -1
100
AcDbMText
 10
4.299999999999999
 20
9.100000000000001
 30
0
 40
0.1
 41
0
 71
    1
 72
    1
  1

  7
romanc
210
0
220
0
230
1
 50
0
 73
    2
 44
1
  0
LINE
  5
156
100
AcDbEntity
  8
ic
  6
ByLayer
 62
  256
370
   -1
100
AcDbLine
 10
-5.551115123125783e-16
 20
-0.6999999999999991
 11
-5.551115123125783e-16
 21
-0.999999999999998
  0
CIRCLE
  5
157
100
AcDbEntity
  8
ic
  6
ByLayer
 62
  256
370
   -1
100
AcDbCircle
 10
-5.551115123125783e-16
 20
-0.499999999999998
 40
0.2000000000000002
  0
MTEXT
  5
158
100
AcDbEntity
  8
ic
  6
ByLayer
 62
  256
370
   -1
100
AcDbMText
 10
-0.03812425171284056
 20
-0.3739296784676209
 30
0
 40
0.1
 41
0.08571433333333334
 71
    1
 72
    1
  1
+\P-
  7
romanc
210
0
220
0
230
1
 50
0
 73
    2
 44
1
  0
MTEXT
  5
159
100
AcDbEntity
  8
ic
  6
ByLayer
 62
  256
370
   -1
100
AcDbMText
 10
-0.4572409726500543
 20
-0.454877776799876
 30
0
 40
0.1
 41
0.1857144444444445
 71
    1
 72
    1
  1
VS
  7
romanc
210
0
220
0
230
1
 50
0
 73
    2
 44
1
  0
ARC
  5
15A
100
AcDbEntity
  8
ic
  6
ByLayer
 62
  256
370
   -1
100
AcDbCircle
 10
1.56
 20
0.06000000000000005
 40
0.1
100
AcDbArc
 50
0
 51
180
  0
ARC
  5
15B
100
AcDbEntity
  8
ic
  6
ByLayer
 62
  256
370
   -1
100
AcDbCircle
 10
1.359999999999999
 20
0.06000000000000005
 40
0.1
100
AcDbArc
 50
0
 51
180
  0
ARC
  5
15C
100
AcDbEntity
  8
ic
  6
ByLayer
 62
  256
370
   -1
100
AcDbCircle
 10
1.16
 20
0.06000000000000005
 40
0.1
100
AcDbArc
 50
0
 51
180
  0
ARC
  5
15D
100
AcDbEntity
  8
ic
  6
ByLayer
 62
  256
370
   -1
100
AcDbCircle
 10
0.9599999999999996
 20
0.06000000000000005
 40
0.1
100
AcDbArc
 50
0
 51
180
  0
LINE
  5
15E
100
AcDbEntity
  8
ic
  6
ByLayer
 62
  256
370
   -1
100
AcDbLine
 10
1.86
 20
0.06000000000000005
 11
1.66
 21
0.06000000000000005
  0
CIRCLE
  5
15F
100
AcDbEntity
  8
ic
  6
ByLayer
 62
  256
370
   -1
100
AcDbCircle
 10
2.16
 20
-0.1799999999999999
 40
0.04000000000000004
  0
CIRCLE
  5
160
100
AcDbEntity
  8
ic
  6
ByLayer
 62
  256
370
   -1
100
AcDbCircle
 10
2.16
 20
0.3
 40
0.04000000000000004
  0
LINE
  5
161
100
AcDbEntity
  8
ic
  6
ByLayer
 62
  256
370
   -1
100
AcDbLine
 10
2.16
 20
-0.22
 11
2.16
 21
-0.9999999999999991
  0
LEADER
  5
162
100
AcDbEntity
  8
ic
  6
ByLayer
 62
  256
370
   -1
100
AcDbLeader
  3
Standard
 71
    1
 72
    0
 73
    3
 74
    0
 75
    0
 40
1
 41
10
 76
2
 76
2
 10
2.16
 20
-0.1399999999999999
 30
0
 10
1.86
 20
0.05999999999999894
 30
0
  0
LEADER
  5
163
100
AcDbEntity
  8
ic
  6
DASHED2
 62
  256
370
   13
100
AcDbLeader
  3
Standard
 71
    1
 72
    0
 73
    3
 74
    0
 75
    0
 40
1
 41
10
 76
2
 76
2
 10
2.16
 20
0.26
 30
0
 10
1.86
 20
0.06000000000000005
 30
0
  0
LEADER
  5
164
100
AcDbEntity
  8
ic
  6
ByLayer
 62
  256
370
   -1
100
AcDbLeader
  3
Standard
 71
    1
 72
    0
 73
    3
 74
    0
 75
    0
 40
1
 41
10
 76
2
 76
2
 10
1.64
 20
-0.05999999999999894
 30
0
 10
1.04
 20
-0.05999999999999894
 30
0
  0
LEADER
  5
165
100
AcDbEntity
  8
ic
  6
DASHED2
 62
  256
370
   13
100
AcDbLeader
  3
Standard
 71
    1
 72
    0
 73
    3
 74
    0
 75
    0
 40
1
 41
10
 76
2
 76
2
 10
1.745371982500505
 20
0.2407738795868071
 30
0
 10
1.045371982500505
 20
0.2407738795868071
 30
0
  0
MTEXT
  5
166
100
AcDbEntity
  8
ic
  6
ByLayer
 62
  256
370
   -1
100
AcDbMText
 10
1.299953517864586
 20
0.4957651368419904
 30
0
 40
0.1
 41
0.03333322222222222
 71
    1
 72
    1
  1
i
  7
romanc
210
0
220
0
230
1
 50
0
 73
    2
 44
1
  0
MTEXT
  5
167
100
AcDbEntity
  8
ic
  6
ByLayer
 62
  256
370
   -1
100
AcDbMText
 10
1.339104438308442
 20
0.399250183571179
 30
0
 40
0.1
 41
0.07619044444444445
 71
    1
 72
    1
  1
d
  7
romanc
210
0
220
0
230
1
 50
0
 73
    2
 44
1
  0
MTEXT
  5
168
100
AcDbEntity
  8
ic
  6
ByLayer
 62
  256
370
   -1
100
AcDbMText
 10
1.31340127405646
 20
-0.118064208393309
 30
0
 40
0.1
 41
0.03333322222222222
 71
    1
 72
    1
  1
i
  7
romanc
210
0
220
0
230
1
 50
0
 73
    2
 44
1
  0
MTEXT
  5
169
100
AcDbEntity
  8
ic
  6
ByLayer
 62
  256
370
   -1
100
AcDbMText
 10
1.365670904233621
 20
-0.173818480582282
 30
0
 40
0.1
 41
0.06190488888888889
 71
    1
 72
    1
  1
c
  7
romanc
210
0
220
0
230
1
 50
0
 73
    2
 44
1
  0
LINE
  5
16A
100
AcDbEntity
  8
ic
  6
ByLayer
 62
  256
370
   -1
100
AcDbLine
 10
0.8599999999999995
 20
0.06000000000000005
 11
-3.885780586188048e-16
 21
0.06000000000000005
  0
LINE
  5
16B
100
AcDbEntity
  8
ic
  6
ByLayer
 62
  256
370
   -1
100
AcDbLine
 10
-5.551115123125783e-16
 20
-0.999999999999998
 11
2.16
 21
-0.9999999999999991
  0
LINE
  5
16C
100
AcDbEntity
  8
ic
  6
ByLayer
 62
  256
370
   -1
100
AcDbLine
 10
2.16
 20
-1.099999999999999
 11
2.06
 21
-1.099999999999999
  0
LINE
  5
16D
100
AcDbEntity
  8
ic
  6
ByLayer
 62
  256
370
   -1
100
AcDbLine
 10
2.06
 20
-1.099999999999999
 11
2.16
 21
-1.3
  0
LINE
  5
16E
100
AcDbEntity
  8
ic
  6
ByLayer
 62
  256
370
   -1
100
AcDbLine
 10
2.16
 20
-1.3
 11
2.259999999999999
 21
-1.099999999999999
  0
LINE
  5
16F
100
AcDbEntity
  8
ic
  6
ByLayer
 62
  256
370
   -1
100
AcDbLine
 10
2.259999999999999
 20
-1.099999999999999
 11
2.16
 21
-1.099999999999999
  0
LINE
  5
170
100
AcDbEntity
  8
ic
  6
ByLayer
 62
  256
370
   -1
100
AcDbLine
 10
2.16
 20
-0.9999999999999991
 11
2.16
 21
-1.099999999999999
  0
LINE
  5
171
100
AcDbEntity
  8
ic
  6
ByLayer
 62
  256
370
   -1
100
AcDbLine
 10
2.16
 20
1.600000000000001
 11
2.16
 21
0.3400000000000001
  0
LINE
  5
172
100
AcDbEntity
  8
ic
  6
ByLayer
 62
  256
370
   -1
100
AcDbLine
 10
2.16
 20
1.600000000000001
 11
-5.551115123125783e-17
 21
1.6
  0
LEADER
  5
173
100
AcDbEntity
  8
ic
  6
ByLayer
 62
  256
370
   -1
100
AcDbLeader
  3
Standard
 71
    1
 72
    0
 73
    3
 74
    0
 75
    0
 40
1
 41
10
 76
0
 76
0
  0
MTEXT
  5
174
100
AcDbEntity
  8
ic
  6
ByLayer
 62
  256
370
   -1
100
AcDbMText
 10
4.818970244509566
 20
4.418929028521201
 30
0
 40
0.1
 41
0
 71
    1
 72
    1
  1

  7
romanc
210
0
220
0
230
1
 50
0
 73
    2
 44
1
  0
MTEXT
  5
175
100
AcDbEntity
  8
ic
  6
ByLayer
 62
  256
370
   -1
100
AcDbMText
 10
4.299999999999999
 20
4.800000000000002
 30
0
 40
0.1
 41
0
 71
    1
 72
    1
  1

  7
romanc
210
0
220
0
230
1
 50
0
 73
    2
 44
1
  0
CIRCLE
  5
176
100
AcDbEntity
  8
ic
  6
ByLayer
 62
  256
370
   -1
100
AcDbCircle
 10
-1.665334536937735e-16
 20
-3.399999999999998
 40
0.2000000000000002
  0
MTEXT
  5
177
100
AcDbEntity
  8
ic
  6
ByLayer
 62
  256
370
   -1
100
AcDbMText
 10
-0.03812425171284017
 20
-3.273929678467621
 30
0
 40
0.1
 41
0.08571433333333334
 71
    1
 72
    1
  1
+\P-
  7
romanc
210
0
220
0
230
1
 50
0
 73
    2
 44
1
  0
MTEXT
  5
178
100
AcDbEntity
  8
ic
  6
ByLayer
 62
  256
370
   -1
100
AcDbMText
 10
-0.457240972650054
 20
-3.354877776799876
 30
0
 40
0.1
 41
0.1857144444444445
 71
    1
 72
    1
  1
VS
  7
romanc
210
0
220
0
230
1
 50
0
 73
    2
 44
1
  0
LINE
  5
179
100
AcDbEntity
  8
ic
  6
ByLayer
 62
  256
370
   -1
100
AcDbLine
 10
-1.665334536937735e-16
 20
-3.599999999999999
 11
0
 21
-4.200000000000001
  0
LINE
  5
17A
100
AcDbEntity
  8
ic
  6
ByLayer
 62
  256
370
   -1
100
AcDbLine
 10
-3.885780586188048e-16
 20
-2.599999999999997
 11
-5.551115123125783e-17
 21
-3.199999999999999
  0
CIRCLE
  5
17B
100
AcDbEntity
  8
ic
  6
ByLayer
 62
  256
370
   -1
100
AcDbCircle
 10
5.500000000000001
 20
-3.4
 40
0.2000000000000002
  0
LEADER
  5
17C
100
AcDbEntity
  8
ic
  6
ByLayer
 62
  256
370
   -1
100
AcDbLeader
  3
Standard
 71
    1
 72
    0
 73
    3
 74
    0
 75
    0
 40
1
 41
10
 76
2
 76
2
 10
5.500000000000001
 20
-3.560000000000001
 30
0
 10
5.500000000000001
 20
-3.360000000000001
 30
0
  0
LINE
  5
17D
100
AcDbEntity
  8
ic
  6
ByLayer
 62
  256
370
   -1
100
AcDbLine
 10
5.500000000000001
 20
-3.360000000000001
 11
5.500000000000001
 21
-3.260000000000002
  0
LINE
  5
17E
100
AcDbEntity
  8
ic
  6
ByLayer
 62
  256
370
   -1
100
AcDbLine
 10
5.500000000000001
 20
-2.6
 11
5.500000000000001
 21
-3.199999999999998
  0
LINE
  5
17F
100
AcDbEntity
  8
ic
  6
ByLayer
 62
  256
370
   -1
100
AcDbLine
 10
5.500000000000001
 20
-3.599999999999998
 11
5.500000000000001
 21
-4.2
  0
LINE
  5
180
100
AcDbEntity
  8
ic
  6
ByLayer
 62
  256
370
   -1
100
AcDbLine
 10
8.300000000000001
 20
8.300000000000001
 11
3.7
 21
8.300000000000001
  0
LINE
  5
181
100
AcDbEntity
  8
ic
  6
ByLayer
 62
  256
370
   -1
100
AcDbLine
 10
8.300000000000001
 20
5.300000000000001
 11
-0.7
 21
5.3
  0
LINE
  5
182
100
AcDbEntity
  8
ic
  6
ByLayer
 62
  256
370
   -1
100
AcDbLine
 10
-0.7
 20
2.3
 11
8.300000000000001
 21
2.3
  0
LINE
  5
183
100
AcDbEntity
  8
ic
  6
ByLayer
 62
  256
370
   -1
100
AcDbLine
 10
-0.7
 20
-2
 11
8.300000000000001
 21
-2
  0
LINE
  5
184
100
AcDbEntity
  8
ic
  6
ByLayer
 62
  256
370
   -1
100
AcDbLine
 10
-0.7
 20
-5
 11
8.300000000000001
 21
-5
  0
MTEXT
  5
185
100
AcDbEntity
  8
ic
  6
ByLayer
 62
  256
370
   -1
100
AcDbMText
 10
0.7000000000000001
 20
4.9
 30
0
 40
0.1
 41
0.5833334444444445
 71
    1
 72
    1
  1
- Vd +
  7
romanc
210
0
220
0
230
1
 50
0
 73
    2
 44
1
  0
MTEXT
  5
186
100
AcDbEntity
  8
ic
  6
ByLayer
 62
  256
370
   -1
100
AcDbMText
 10
0.7000000000000001
 20
3.8
 30
0
 40
0.1
 41
0.5690478888888889
 71
    1
 72
    1
  1
+ Vc -
  7
romanc
210
0
220
0
230
1
 50
0
 73
    2
 44
1
  0
LINE
  5
187
100
AcDbEntity
  8
ic
  6
ByLayer
 62
  256
370
   -1
100
AcDbLine
 10
1.2
 20
-3.999999999999998
 11
1.2
 21
-4.199999999999999
  0
CIRCLE
  5
188
100
AcDbEntity
  8
ic
  6
ByLayer
 62
  256
370
   -1
100
AcDbCircle
 10
0.9599999999999996
 20
-3.699999999999999
 40
0.04000000000000004
  0
CIRCLE
  5
189
100
AcDbEntity
  8
ic
  6
ByLayer
 62
  256
370
   -1
100
AcDbCircle
 10
1.44
 20
-3.699999999999999
 40
0.04000000000000004
  0
LEADER
  5
18A
100
AcDbEntity
  8
ic
  6
ByLayer
 62
  256
370
   -1
100
AcDbLeader
  3
Standard
 71
    1
 72
    0
 73
    3
 74
    0
 75
    0
 40
1
 41
10
 76
2
 76
2
 10
0.9999999999999986
 20
-3.699999999999999
 30
0
 10
1.199999999999998
 20
-3.999999999999998
 30
0
  0
LEADER
  5
18B
100
AcDbEntity
  8
ic
  6
DASHED2
 62
  256
370
   13
100
AcDbLeader
  3
Standard
 71
    1
 72
    0
 73
    3
 74
    0
 75
    0
 40
1
 41
10
 76
2
 76
2
 10
1.4
 20
-3.699999999999999
 30
0
 10
1.2
 20
-3.999999999999998
 30
0
  0
LINE
  5
18C
100
AcDbEntity
  8
ic
  6
ByLayer
 62
  256
370
   -1
100
AcDbLine
 10
0.9599999999999996
 20
-3.659999999999999
 11
0.9599999999999996
 21
-3.499999999999998
  0
ARC
  5
18D
100
AcDbEntity
  8
ic
  6
ByLayer
 62
  256
370
   -1
100
AcDbCircle
 10
0.9599999999999996
 20
-3.399999999999999
 40
0.1
100
AcDbArc
 50
270
 51
90
  0
ARC
  5
18E
100
AcDbEntity
  8
ic
  6
ByLayer
 62
  256
370
   -1
100
AcDbCircle
 10
0.9599999999999996
 20
-3.199999999999999
 40
0.1
100
AcDbArc
 50
270
 51
90
  0
ARC
  5
18F
100
AcDbEntity
  8
ic
  6
ByLayer
 62
  256
370
   -1
100
AcDbCircle
 10
0.9599999999999996
 20
-2.999999999999998
 40
0.1
100
AcDbArc
 50
270
 51
90
  0
ARC
  5
190
100
AcDbEntity
  8
ic
  6
ByLayer
 62
  256
370
   -1
100
AcDbCircle
 10
0.9599999999999996
 20
-2.799999999999998
 40
0.1
100
AcDbArc
 50
270
 51
90
  0
LEADER
  5
191
100
AcDbEntity
  8
ic
  6
ByLayer
 62
  256
370
   -1
100
AcDbLeader
  3
Standard
 71
    1
 72
    0
 73
    3
 74
    0
 75
    0
 40
1
 41
10
 76
2
 76
2
 10
0.8400000000000006
 20
-3.479999999999999
 30
0
 10
0.8400000000000006
 20
-2.879999999999998
 30
0
  0
MTEXT
  5
192
100
AcDbEntity
  8
ic
  6
ByLayer
 62
  256
370
   -1
100
AcDbMText
 10
0.6134012740564607
 20
-3.078064208393308
 30
0
 40
0.1
 41
0.03333322222222222
 71
    1
 72
    1
  1
i
  7
romanc
210
0
220
0
230
1
 50
360
 73
    2
 44
1
  0
MTEXT
  5
193
100
AcDbEntity
  8
ic
  6
ByLayer
 62
  256
370
   -1
100
AcDbMText
 10
0.6656709042336216
 20
-3.133818480582281
 30
0
 40
0.1
 41
0.06190488888888889
 71
    1
 72
    1
  1
c
  7
romanc
210
0
220
0
230
1
 50
360
 73
    2
 44
1
  0
LINE
  5
194
100
AcDbEntity
  8
ic
  6
ByLayer
 62
  256
370
   -1
100
AcDbLine
 10
1.44
 20
-3.659999999999999
 11
1.44
 21
-3.499999999999998
  0
ARC
  5
195
100
AcDbEntity
  8
ic
  6
ByLayer
 62
  256
370
   -1
100
AcDbCircle
 10
1.44
 20
-3.399999999999999
 40
0.1
100
AcDbArc
 50
270
 51
90
  0
ARC
  5
196
100
AcDbEntity
  8
ic
  6
ByLayer
 62
  256
370
   -1
100
AcDbCircle
 10
1.44
 20
-3.199999999999999
 40
0.1
100
AcDbArc
 50
270
 51
90
  0
ARC
  5
197
100
AcDbEntity
  8
ic
  6
ByLayer
 62
  256
370
   -1
100
AcDbCircle
 10
1.44
 20
-2.999999999999998
 40
0.1
100
AcDbArc
 50
270
 51
90
  0
ARC
  5
198
100
AcDbEntity
  8
ic
  6
ByLayer
 62
  256
370
   -1
100
AcDbCircle
 10
1.44
 20
-2.799999999999998
 40
0.1
100
AcDbArc
 50
270
 51
90
  0
MTEXT
  5
199
100
AcDbEntity
  8
ic
  6
ByLayer
 62
  256
370
   -1
100
AcDbMText
 10
1.740099263127323
 20
-3.08258948503763
 30
0
 40
0.1
 41
0.03333322222222222
 71
    1
 72
    1
  1
i
  7
romanc
210
0
220
0
230
1
 50
360
 73
    2
 44
1
  0
LEADER
  5
19A
100
AcDbEntity
  8
ic
  6
DASHED2
 62
  256
370
   13
100
AcDbLeader
  3
Standard
 71
    1
 72
    0
 73
    3
 74
    0
 75
    0
 40
1
 41
10
 76
2
 76
2
 10
1.620773879586807
 20
-2.772836894116378
 30
0
 10
1.620773879586807
 20
-3.472836894116379
 30
0
  0
CIRCLE
  5
19B
100
AcDbEntity
  8
ic
  6
ByLayer
 62
  256
370
   -1
100
AcDbCircle
 10
0.8600000000000002
 20
-2.799999999999998
 40
0.04000000000000004
  0
CIRCLE
  5
19C
100
AcDbEntity
  8
ic
  6
ByLayer
 62
  256
370
   -1
100
AcDbCircle
 10
1.360000000000001
 20
-3.4
 40
0.04000000000000004
  0
LINE
  5
19D
100
AcDbEntity
  8
ic
  6
ByLayer
 62
  256
370
   -1
100
AcDbLine
 10
0.9599999999999996
 20
-2.599999999999995
 11
0.9599999999999996
 21
-2.699999999999999
  0
LINE
  5
19E
100
AcDbEntity
  8
ic
  6
ByLayer
 62
  256
370
   -1
100
AcDbLine
 10
1.440000000000002
 20
-2.599999999999995
 11
1.440000000000002
 21
-2.699999999999999
  0
LINE
  5
19F
100
AcDbEntity
  8
ic
  6
ByLayer
 62
  256
370
   -1
100
AcDbLine
 10
2.340000000000003
 20
-3.399999999999998
 11
2.670000000000002
 21
-3.399999999999998
  0
LINE
  5
1A0
100
AcDbEntity
  8
ic
  6
ByLayer
 62
  256
370
   -1
100
AcDbLine
 10
2.340000000000003
 20
-3.299999999999998
 11
2.670000000000002
 21
-3.299999999999998
  0
LWPOLYLINE
  5
1A1
100
AcDbEntity
  8
ic
  6
ByLayer
 62
  256
370
   -1
100
AcDbPolyline
 90
    4
 70
    1
 43
0
 10
2.900000000000002
 20
-3.099999999999999
 10
3.100000000000001
 20
-3.099999999999999
 10
3.100000000000001
 20
-3.599999999999999
 10
2.900000000000002
 20
-3.599999999999999
  0
LINE
  5
1A2
100
AcDbEntity
  8
ic
  6
ByLayer
 62
  256
370
   -1
100
AcDbLine
 10
3.000000000000002
 20
-2.599999999999999
 11
3.000000000000002
 21
-3.099999999999999
  0
LINE
  5
1A3
100
AcDbEntity
  8
ic
  6
ByLayer
 62
  256
370
   -1
100
AcDbLine
 10
2.500000000000002
 20
-2.599999999999999
 11
2.500000000000002
 21
-3.299999999999998
  0
LINE
  5
1A4
100
AcDbEntity
  8
ic
  6
ByLayer
 62
  256
370
   -1
100
AcDbLine
 10
2.500000000000002
 20
-3.399999999999998
 11
2.500000000000002
 21
-4.199999999999999
  0
LINE
  5
1A5
100
AcDbEntity
  8
ic
  6
ByLayer
 62
  256
370
   -1
100
AcDbLine
 10
3.000000000000002
 20
-3.599999999999999
 11
3
 21
-4.199999999999999
  0
LINE
  5
1A6
100
AcDbEntity
  8
ic
  6
ByLayer
 62
  256
370
   -1
100
AcDbLine
 10
3
 20
-4.299999999999998
 11
2.9
 21
-4.299999999999998
  0
LINE
  5
1A7
100
AcDbEntity
  8
ic
  6
ByLayer
 62
  256
370
   -1
100
AcDbLine
 10
2.9
 20
-4.299999999999998
 11
3
 21
-4.499999999999999
  0
LINE
  5
1A8
100
AcDbEntity
  8
ic
  6
ByLayer
 62
  256
370
   -1
100
AcDbLine
 10
3
 20
-4.499999999999999
 11
3.099999999999999
 21
-4.299999999999998
  0
LINE
  5
1A9
100
AcDbEntity
  8
ic
  6
ByLayer
 62
  256
370
   -1
100
AcDbLine
 10
3.099999999999999
 20
-4.299999999999998
 11
3
 21
-4.299999999999998
  0
LINE
  5
1AA
100
AcDbEntity
  8
ic
  6
ByLayer
 62
  256
370
   -1
100
AcDbLine
 10
3
 20
-4.199999999999998
 11
3
 21
-4.299999999999998
  0
LINE
  5
1AB
100
AcDbEntity
  8
ic
  6
ByLayer
 62
  256
370
   -1
100
AcDbLine
 10
3
 20
-2.599999999999999
 11
1.440000000000002
 21
-2.599999999999995
  0
LINE
  5
1AC
100
AcDbEntity
  8
ic
  6
ByLayer
 62
  256
370
   -1
100
AcDbLine
 10
-5.551115123125783e-17
 20
-4.2
 11
3
 21
-4.199999999999999
  0
LINE
  5
1AD
100
AcDbEntity
  8
ic
  6
ByLayer
 62
  256
370
   -1
100
AcDbLine
 10
-8.326672684688674e-17
 20
-2.6
 11
0.9599999999999996
 21
-2.599999999999995
  0
MTEXT
  5
1AE
100
AcDbEntity
  8
ic
  6
ByLayer
 62
  256
370
   -1
100
AcDbMText
 10
0.3018240903208084
 20
-3.074551367820175
 30
0
 40
0.1
 41
0.1809525555555556
 71
    1
 72
    1
  1
Vc
  7
romanc
210
0
220
0
230
1
 50
0
 73
    2
 44
1
  0
MTEXT
  5
1AF
100
AcDbEntity
  8
ic
  6
ByLayer
 62
  256
370
   -1
100
AcDbMText
 10
0.3558821363484159
 20
-2.896610299645968
 30
0
 40
0.1
 41
0.08571433333333334
 71
    1
 72
    1
  1
+
  7
romanc
210
0
220
0
230
1
 50
0
 73
    2
 44
1
  0
MTEXT
  5
1B0
100
AcDbEntity
  8
ic
  6
ByLayer
 62
  256
370
   -1
100
AcDbMText
 10
0.3603869735173831
 20
-3.241230343071965
 30
0
 40
0.1
 41
0.08571433333333334
 71
    1
 72
    1
  1
-
  7
romanc
210
0
220
0
230
1
 50
0
 73
    2
 44
1
  0
MTEXT
  5
1B1
100
AcDbEntity
  8
ic
  6
ByLayer
 62
  256
370
   -1
100
AcDbMText
 10
1.800745719823674
 20
-3.136190690058198
 30
0
 40
0.1
 41
0.07619044444444445
 71
    1
 72
    1
  1
d
  7
romanc
210
0
220
0
230
1
 50
360
 73
    2
 44
1
  0
MTEXT
  5
1B2
100
AcDbEntity
  8
ic
  6
ByLayer
 62
  256
370
   -1
100
AcDbMText
 10
1.94268792158481
 20
-3.085650501458922
 30
0
 40
0.1
 41
0.1952381111111111
 71
    1
 72
    1
  1
Vd
  7
romanc
210
0
220
0
230
1
 50
0
 73
    2
 44
1
  0
MTEXT
  5
1B3
100
AcDbEntity
  8
ic
  6
ByLayer
 62
  256
370
   -1
100
AcDbMText
 10
1.998759562224069
 20
-2.896610299645968
 30
0
 40
0.1
 41
0.08571433333333334
 71
    1
 72
    1
  1
+
  7
romanc
210
0
220
0
230
1
 50
0
 73
    2
 44
1
  0
MTEXT
  5
1B4
100
AcDbEntity
  8
ic
  6
ByLayer
 62
  256
370
   -1
100
AcDbMText
 10
2.003264399393037
 20
-3.241230343071965
 30
0
 40
0.1
 41
0.08571433333333334
 71
    1
 72
    1
  1
-
  7
romanc
210
0
220
0
230
1
 50
0
 73
    2
 44
1
  0
CIRCLE
  5
1B5
100
AcDbEntity
  8
ic
  6
ByLayer
 62
  256
370
   -1
100
AcDbCircle
 10
4.399999999999999
 20
-3.4
 40
0.2000000000000002
  0
MTEXT
  5
1B6
100
AcDbEntity
  8
ic
  6
ByLayer
 62
  256
370
   -1
100
AcDbMText
 10
4.361875748287159
 20
-3.273929678467623
 30
0
 40
0.1
 41
0.08571433333333334
 71
    1
 72
    1
  1
+\P-
  7
romanc
210
0
220
0
230
1
 50
0
 73
    2
 44
1
  0
LINE
  5
1B7
100
AcDbEntity
  8
ic
  6
ByLayer
 62
  256
370
   -1
100
AcDbLine
 10
4.399999999999999
 20
-3.600000000000001
 11
4.400000000000001
 21
-4.200000000000003
  0
LINE
  5
1B8
100
AcDbEntity
  8
ic
  6
ByLayer
 62
  256
370
   -1
100
AcDbLine
 10
4.399999999999999
 20
-2.599999999999999
 11
4.400000000000001
 21
-3.200000000000001
  0
LINE
  5
1B9
100
AcDbEntity
  8
ic
  6
ByLayer
 62
  256
370
   -1
100
AcDbLine
 10
7.100000000000001
 20
-3.399999999999999
 11
7.430000000000001
 21
-3.399999999999999
  0
LINE
  5
1BA
100
AcDbEntity
  8
ic
  6
ByLayer
 62
  256
370
   -1
100
AcDbLine
 10
7.100000000000001
 20
-3.3
 11
7.430000000000001
 21
-3.3
  0
LWPOLYLINE
  5
1BB
100
AcDbEntity
  8
ic
  6
ByLayer
 62
  256
370
   -1
100
AcDbPolyline
 90
    4
 70
    1
 43
0
 10
7.659999999999999
 20
-3.100000000000001
 10
7.859999999999999
 20
-3.100000000000001
 10
7.859999999999999
 20
-3.600000000000001
 10
7.659999999999999
 20
-3.600000000000001
  0
LINE
  5
1BC
100
AcDbEntity
  8
ic
  6
ByLayer
 62
  256
370
   -1
100
AcDbLine
 10
7.76
 20
-2.600000000000001
 11
7.76
 21
-3.100000000000001
  0
LINE
  5
1BD
100
AcDbEntity
  8
ic
  6
ByLayer
 62
  256
370
   -1
100
AcDbLine
 10
7.26
 20
-2.600000000000001
 11
7.26
 21
-3.3
  0
LINE
  5
1BE
100
AcDbEntity
  8
ic
  6
ByLayer
 62
  256
370
   -1
100
AcDbLine
 10
7.26
 20
-3.399999999999999
 11
7.26
 21
-4.200000000000001
  0
LINE
  5
1BF
100
AcDbEntity
  8
ic
  6
ByLayer
 62
  256
370
   -1
100
AcDbLine
 10
7.76
 20
-3.600000000000001
 11
7.759999999999998
 21
-4.200000000000001
  0
LINE
  5
1C0
100
AcDbEntity
  8
ic
  6
ByLayer
 62
  256
370
   -1
100
AcDbLine
 10
7.759999999999998
 20
-4.299999999999999
 11
7.659999999999997
 21
-4.299999999999999
  0
LINE
  5
1C1
100
AcDbEntity
  8
ic
  6
ByLayer
 62
  256
370
   -1
100
AcDbLine
 10
7.659999999999997
 20
-4.299999999999999
 11
7.759999999999998
 21
-4.5
  0
LINE
  5
1C2
100
AcDbEntity
  8
ic
  6
ByLayer
 62
  256
370
   -1
100
AcDbLine
 10
7.759999999999998
 20
-4.5
 11
7.859999999999997
 21
-4.299999999999999
  0
LINE
  5
1C3
100
AcDbEntity
  8
ic
  6
ByLayer
 62
  256
370
   -1
100
AcDbLine
 10
7.859999999999997
 20
-4.299999999999999
 11
7.759999999999998
 21
-4.299999999999999
  0
LINE
  5
1C4
100
AcDbEntity
  8
ic
  6
ByLayer
 62
  256
370
   -1
100
AcDbLine
 10
7.759999999999998
 20
-4.199999999999999
 11
7.759999999999998
 21
-4.299999999999999
  0
LINE
  5
1C5
100
AcDbEntity
  8
ic
  6
ByLayer
 62
  256
370
   -1
100
AcDbLine
 10
4.4
 20
-4.2
 11
7.759999999999998
 21
-4.200000000000001
  0
LINE
  5
1C6
100
AcDbEntity
  8
ic
  6
ByLayer
 62
  256
370
   -1
100
AcDbLine
 10
4.4
 20
-2.6
 11
5.500000000000001
 21
-2.6
  0
MTEXT
  5
1C7
100
AcDbEntity
  8
ic
  6
ByLayer
 62
  256
370
   -1
100
AcDbMText
 10
5.370907503078128
 20
-0.4329341134097988
 30
0
 40
0.1
 41
0.1809525555555556
 71
    1
 72
    1
  1
Vc
  7
romanc
210
0
220
0
230
1
 50
0
 73
    2
 44
1
  0
MTEXT
  5
1C8
100
AcDbEntity
  8
ic
  6
ByLayer
 62
  256
370
   -1
100
AcDbMText
 10
5.424965549105735
 20
-0.254993045235592
 30
0
 40
0.1
 41
0.08571433333333334
 71
    1
 72
    1
  1
+
  7
romanc
210
0
220
0
230
1
 50
0
 73
    2
 44
1
  0
MTEXT
  5
1C9
100
AcDbEntity
  8
ic
  6
ByLayer
 62
  256
370
   -1
100
AcDbMText
 10
5.429470386274703
 20
-0.5996130886615889
 30
0
 40
0.1
 41
0.08571433333333334
 71
    1
 72
    1
  1
-
  7
romanc
210
0
220
0
230
1
 50
0
 73
    2
 44
1
  0
MTEXT
  5
1CA
100
AcDbEntity
  8
ic
  6
ByLayer
 62
  256
370
   -1
100
AcDbMText
 10
5.358092524164742
 20
0.8407250351013884
 30
0
 40
0.1
 41
0.1952381111111111
 71
    1
 72
    1
  1
Vd
  7
romanc
210
0
220
0
230
1
 50
0
 73
    2
 44
1
  0
MTEXT
  5
1CB
100
AcDbEntity
  8
ic
  6
ByLayer
 62
  256
370
   -1
100
AcDbMText
 10
5.414164164804002
 20
1.029765236914343
 30
0
 40
0.1
 41
0.08571433333333334
 71
    1
 72
    1
  1
+
  7
romanc
210
0
220
0
230
1
 50
0
 73
    2
 44
1
  0
MTEXT
  5
1CC
100
AcDbEntity
  8
ic
  6
ByLayer
 62
  256
370
   -1
100
AcDbMText
 10
5.418669001972969
 20
0.6851451934883444
 30
0
 40
0.1
 41
0.08571433333333334
 71
    1
 72
    1
  1
-
  7
romanc
210
0
220
0
230
1
 50
0
 73
    2
 44
1
  0
LINE
  5
1CD
100
AcDbEntity
  8
ic
  6
ByLayer
 62
  256
370
   -1
100
AcDbLine
 10
5.400000000000001
 20
3.2
 11
6.100000000000001
 21
3.2
  0
LINE
  5
1CE
100
AcDbEntity
  8
ic
  6
ByLayer
 62
  256
370
   -1
100
AcDbLine
 10
5.94
 20
3.7
 11
6.27
 21
3.7
  0
LINE
  5
1CF
100
AcDbEntity
  8
ic
  6
ByLayer
 62
  256
370
   -1
100
AcDbLine
 10
5.94
 20
3.8
 11
6.27
 21
3.8
  0
LINE
  5
1D0
100
AcDbEntity
  8
ic
  6
ByLayer
 62
  256
370
   -1
100
AcDbLine
 10
6.100000000000001
 20
4.2
 11
6.100000000000001
 21
3.8
  0
LWPOLYLINE
  5
1D1
100
AcDbEntity
  8
ic
  6
ByLayer
 62
  256
370
   -1
100
AcDbPolyline
 90
    4
 70
    1
 43
0
 10
6.5
 20
4
 10
6.7
 20
4
 10
6.7
 20
3.5
 10
6.5
 20
3.5
  0
LINE
  5
1D2
100
AcDbEntity
  8
ic
  6
ByLayer
 62
  256
370
   -1
100
AcDbLine
 10
6.100000000000001
 20
4.2
 11
6.600000000000001
 21
4.2
  0
LINE
  5
1D3
100
AcDbEntity
  8
ic
  6
ByLayer
 62
  256
370
   -1
100
AcDbLine
 10
6.600000000000001
 20
4.2
 11
6.600000000000001
 21
4
  0
LINE
  5
1D4
100
AcDbEntity
  8
ic
  6
ByLayer
 62
  256
370
   -1
100
AcDbLine
 10
6.600000000000001
 20
3.5
 11
6.600000000000001
 21
3.3
  0
LINE
  5
1D5
100
AcDbEntity
  8
ic
  6
ByLayer
 62
  256
370
   -1
100
AcDbLine
 10
6.600000000000001
 20
3.3
 11
6.600000000000001
 21
3.100000000000001
  0
LINE
  5
1D6
100
AcDbEntity
  8
ic
  6
ByLayer
 62
  256
370
   -1
100
AcDbLine
 10
6.600000000000001
 20
3.100000000000001
 11
6.5
 21
3.100000000000001
  0
LINE
  5
1D7
100
AcDbEntity
  8
ic
  6
ByLayer
 62
  256
370
   -1
100
AcDbLine
 10
6.5
 20
3.100000000000001
 11
6.600000000000001
 21
2.9
  0
LINE
  5
1D8
100
AcDbEntity
  8
ic
  6
ByLayer
 62
  256
370
   -1
100
AcDbLine
 10
6.600000000000001
 20
2.9
 11
6.7
 21
3.100000000000001
  0
LINE
  5
1D9
100
AcDbEntity
  8
ic
  6
ByLayer
 62
  256
370
   -1
100
AcDbLine
 10
6.7
 20
3.100000000000001
 11
6.600000000000001
 21
3.100000000000001
  0
LINE
  5
1DA
100
AcDbEntity
  8
ic
  6
ByLayer
 62
  256
370
   -1
100
AcDbLine
 10
6.100000000000001
 20
3.7
 11
6.100000000000001
 21
3.200000000000001
  0
LINE
  5
1DB
100
AcDbEntity
  8
ic
  6
ByLayer
 62
  256
370
   -1
100
AcDbLine
 10
6.600000000000001
 20
3.200000000000001
 11
6.100000000000001
 21
3.200000000000001
  0
LINE
  5
1DC
100
AcDbEntity
  8
ic
  6
ByLayer
 62
  256
370
   -1
100
AcDbLine
 10
5.9
 20
4.2
 11
6.100000000000001
 21
4.2
  0
CIRCLE
  5
1DD
100
AcDbEntity
  8
ic
  6
ByLayer
 62
  256
370
   -1
100
AcDbCircle
 10
5.700000000000001
 20
4.2
 40
0.2000000000000002
  0
LEADER
  5
1DE
100
AcDbEntity
  8
ic
  6
ByLayer
 62
  256
370
   -1
100
AcDbLeader
  3
Standard
 71
    1
 72
    0
 73
    3
 74
    0
 75
    0
 40
1
 41
10
 76
2
 76
2
 10
5.86
 20
4.200000000000002
 30
0
 10
5.66
 20
4.200000000000002
 30
0
  0
LINE
  5
1DF
100
AcDbEntity
  8
ic
  6
ByLayer
 62
  256
370
   -1
100
AcDbLine
 10
5.66
 20
4.200000000000002
 11
5.56
 21
4.200000000000002
  0
CIRCLE
  5
1E0
100
AcDbEntity
  8
ic
  6
ByLayer
 62
  256
370
   -1
100
AcDbCircle
 10
5.2
 20
3.700000000000001
 40
0.2000000000000002
  0
LINE
  5
1E1
100
AcDbEntity
  8
ic
  6
ByLayer
 62
  256
370
   -1
100
AcDbLine
 10
5.2
 20
3.500000000000001
 11
5.2
 21
3.200000000000001
  0
LINE
  5
1E2
100
AcDbEntity
  8
ic
  6
ByLayer
 62
  256
370
   -1
100
AcDbLine
 10
5.2
 20
4.200000000000001
 11
5.2
 21
3.900000000000001
  0
LEADER
  5
1E3
100
AcDbEntity
  8
ic
  6
ByLayer
 62
  256
370
   -1
100
AcDbLeader
  3
Standard
 71
    1
 72
    0
 73
    3
 74
    0
 75
    0
 40
1
 41
10
 76
2
 76
2
 10
5.2
 20
3.54
 30
0
 10
5.2
 20
3.74
 30
0
  0
LINE
  5
1E4
100
AcDbEntity
  8
ic
  6
ByLayer
 62
  256
370
   -1
100
AcDbLine
 10
5.2
 20
3.74
 11
5.2
 21
3.84
  0
MTEXT
  5
1E5
100
AcDbEntity
  8
ic
  6
ByLayer
 62
  256
370
   -1
100
AcDbMText
 10
5.55506235206455
 20
3.584469151767117
 30
0
 40
0.1
 41
0.03333322222222222
 71
    1
 72
    1
  1
i
  7
romanc
210
0
220
0
230
1
 50
0
 73
    2
 44
1
  0
MTEXT
  5
1E6
100
AcDbEntity
  8
ic
  6
ByLayer
 62
  256
370
   -1
100
AcDbMText
 10
5.444324072088549
 20
3.578895616565529
 30
0
 40
0.1
 41
0.07619044444444445
 71
    1
 72
    1
  1
<
  7
romanc
210
0
220
0
230
1
 50
0
 73
    2
 44
1
  0
MTEXT
  5
1E7
100
AcDbEntity
  8
ic
  6
ByLayer
 62
  256
370
   -1
100
AcDbMText
 10
5.618053242990302
 20
3.578835272088905
 30
0
 40
0.1
 41
0.07619044444444445
 71
    1
 72
    1
  1
>
  7
romanc
210
0
220
0
230
1
 50
0
 73
    2
 44
1
  0
MTEXT
  5
1E8
100
AcDbEntity
  8
ic
  6
ByLayer
 62
  256
370
   -1
100
AcDbMText
 10
5.678543877540124
 20
3.520294159728884
 30
0
 40
0.1
 41
0.06190488888888889
 71
    1
 72
    1
  1
c
  7
romanc
210
0
220
0
230
1
 50
0
 73
    2
 44
1
  0
MTEXT
  5
1E9
100
AcDbEntity
  8
ic
  6
ByLayer
 62
  256
370
   -1
100
AcDbMText
 10
5.737009109074249
 20
4.605633879678213
 30
0
 40
0.1
 41
0.03333322222222222
 71
    1
 72
    1
  1
i
  7
romanc
210
0
220
0
230
1
 50
0
 73
    2
 44
1
  0
MTEXT
  5
1EA
100
AcDbEntity
  8
ic
  6
ByLayer
 62
  256
370
   -1
100
AcDbMText
 10
5.626270829098249
 20
4.600060344476625
 30
0
 40
0.1
 41
0.07619044444444445
 71
    1
 72
    1
  1
<
  7
romanc
210
0
220
0
230
1
 50
0
 73
    2
 44
1
  0
MTEXT
  5
1EB
100
AcDbEntity
  8
ic
  6
ByLayer
 62
  256
370
   -1
100
AcDbMText
 10
5.800000000000002
 20
4.600000000000001
 30
0
 40
0.1
 41
0.07619044444444445
 71
    1
 72
    1
  1
>
  7
romanc
210
0
220
0
230
1
 50
0
 73
    2
 44
1
  0
MTEXT
  5
1EC
100
AcDbEntity
  8
ic
  6
ByLayer
 62
  256
370
   -1
100
AcDbMText
 10
5.832825613898859
 20
4.505412831984834
 30
0
 40
0.1
 41
0.07619044444444445
 71
    1
 72
    1
  1
d
  7
romanc
210
0
220
0
230
1
 50
0
 73
    2
 44
1
  0
LINE
  5
1ED
100
AcDbEntity
  8
ic
  6
ByLayer
 62
  256
370
   -1
100
AcDbLine
 10
4.4
 20
4.2
 11
5.500000000000001
 21
4.2
  0
LINE
  5
1EE
100
AcDbEntity
  8
ic
  6
ByLayer
 62
  256
370
   -1
100
AcDbLine
 10
5.800000000000002
 20
3.200000000000001
 11
4.4
 21
3.2
  0
MTEXT
  5
1EF
100
AcDbEntity
  8
ic
  6
ByLayer
 62
  256
370
   -1
100
AcDbMText
 10
4.733000415097342
 20
3.764404436421813
 30
0
 40
0.1
 41
0.1809525555555556
 71
    1
 72
    1
  1
Vc
  7
romanc
210
0
220
0
230
1
 50
0
 73
    2
 44
1
  0
MTEXT
  5
1F0
100
AcDbEntity
  8
ic
  6
ByLayer
 62
  256
370
   -1
100
AcDbMText
 10
4.787058461124949
 20
3.94234550459602
 30
0
 40
0.1
 41
0.08571433333333334
 71
    1
 72
    1
  1
+
  7
romanc
210
0
220
0
230
1
 50
0
 73
    2
 44
1
  0
MTEXT
  5
1F1
100
AcDbEntity
  8
ic
  6
ByLayer
 62
  256
370
   -1
100
AcDbMText
 10
4.791563298293917
 20
3.597725461170023
 30
0
 40
0.1
 41
0.08571433333333334
 71
    1
 72
    1
  1
-
  7
romanc
210
0
220
0
230
1
 50
0
 73
    2
 44
1
  0
MTEXT
  5
1F2
100
AcDbEntity
  8
ic
  6
ByLayer
 62
  256
370
   -1
100
AcDbMText
 10
5.433438442086026
 20
4.843068609803089
 30
0
 40
0.1
 41
0.5833334444444445
 71
    1
 72
    1
  1
- Vd +
  7
romanc
210
0
220
0
230
1
 50
0
 73
    2
 44
1
  0
CIRCLE
  5
1F3
100
AcDbEntity
  8
ic
  6
ByLayer
 62
  256
370
   -1
100
AcDbCircle
 10
5.5
 20
6.500000000000001
 40
0.2000000000000002
  0
LEADER
  5
1F4
100
AcDbEntity
  8
ic
  6
ByLayer
 62
  256
370
   -1
100
AcDbLeader
  3
Standard
 71
    1
 72
    0
 73
    3
 74
    0
 75
    0
 40
1
 41
10
 76
2
 76
2
 10
5.5
 20
6.66
 30
0
 10
5.5
 20
6.46
 30
0
  0
LINE
  5
1F5
100
AcDbEntity
  8
ic
  6
ByLayer
 62
  256
370
   -1
100
AcDbLine
 10
5.5
 20
6.46
 11
5.5
 21
6.36
  0
LINE
  5
1F6
100
AcDbEntity
  8
ic
  6
ByLayer
 62
  256
370
   -1
100
AcDbLine
 10
5.5
 20
7
 11
5.899999999999999
 21
7
  0
LINE
  5
1F7
100
AcDbEntity
  8
ic
  6
ByLayer
 62
  256
370
   -1
100
AcDbLine
 10
5.500000000000001
 20
6
 11
6.2
 21
6
  0
LINE
  5
1F8
100
AcDbEntity
  8
ic
  6
ByLayer
 62
  256
370
   -1
100
AcDbLine
 10
6.04
 20
6.5
 11
6.37
 21
6.5
  0
LINE
  5
1F9
100
AcDbEntity
  8
ic
  6
ByLayer
 62
  256
370
   -1
100
AcDbLine
 10
6.04
 20
6.6
 11
6.37
 21
6.6
  0
LINE
  5
1FA
100
AcDbEntity
  8
ic
  6
ByLayer
 62
  256
370
   -1
100
AcDbLine
 10
6.2
 20
7
 11
6.2
 21
6.6
  0
LINE
  5
1FB
100
AcDbEntity
  8
ic
  6
ByLayer
 62
  256
370
   -1
100
AcDbLine
 10
5.899999999999999
 20
7
 11
6.2
 21
7
  0
LWPOLYLINE
  5
1FC
100
AcDbEntity
  8
ic
  6
ByLayer
 62
  256
370
   -1
100
AcDbPolyline
 90
    4
 70
    1
 43
0
 10
6.6
 20
6.8
 10
6.8
 20
6.8
 10
6.8
 20
6.3
 10
6.6
 20
6.3
  0
LINE
  5
1FD
100
AcDbEntity
  8
ic
  6
ByLayer
 62
  256
370
   -1
100
AcDbLine
 10
6.2
 20
7
 11
6.7
 21
7
  0
LINE
  5
1FE
100
AcDbEntity
  8
ic
  6
ByLayer
 62
  256
370
   -1
100
AcDbLine
 10
6.7
 20
7
 11
6.7
 21
6.8
  0
LINE
  5
1FF
100
AcDbEntity
  8
ic
  6
ByLayer
 62
  256
370
   -1
100
AcDbLine
 10
6.7
 20
6.3
 11
6.7
 21
6.1
  0
LINE
  5
200
100
AcDbEntity
  8
ic
  6
ByLayer
 62
  256
370
   -1
100
AcDbLine
 10
6.7
 20
6.1
 11
6.7
 21
5.9
  0
LINE
  5
201
100
AcDbEntity
  8
ic
  6
ByLayer
 62
  256
370
   -1
100
AcDbLine
 10
6.7
 20
5.9
 11
6.6
 21
5.9
  0
LINE
  5
202
100
AcDbEntity
  8
ic
  6
ByLayer
 62
  256
370
   -1
100
AcDbLine
 10
6.6
 20
5.9
 11
6.7
 21
5.7
  0
LINE
  5
203
100
AcDbEntity
  8
ic
  6
ByLayer
 62
  256
370
   -1
100
AcDbLine
 10
6.7
 20
5.7
 11
6.8
 21
5.9
  0
LINE
  5
204
100
AcDbEntity
  8
ic
  6
ByLayer
 62
  256
370
   -1
100
AcDbLine
 10
6.8
 20
5.9
 11
6.7
 21
5.9
  0
LINE
  5
205
100
AcDbEntity
  8
ic
  6
ByLayer
 62
  256
370
   -1
100
AcDbLine
 10
6.2
 20
6.5
 11
6.2
 21
6.000000000000001
  0
LINE
  5
206
100
AcDbEntity
  8
ic
  6
ByLayer
 62
  256
370
   -1
100
AcDbLine
 10
6.700000000000001
 20
6.000000000000001
 11
6.2
 21
6.000000000000001
  0
LINE
  5
207
100
AcDbEntity
  8
ic
  6
ByLayer
 62
  256
370
   -1
100
AcDbLine
 10
5.5
 20
6.300000000000001
 11
5.5
 21
6.000000000000001
  0
LINE
  5
208
100
AcDbEntity
  8
ic
  6
ByLayer
 62
  256
370
   -1
100
AcDbLine
 10
5.5
 20
7.000000000000001
 11
5.5
 21
6.700000000000001
  0
MTEXT
  5
209
100
AcDbEntity
  8
ic
  6
ByLayer
 62
  256
370
   -1
100
AcDbMText
 10
5.804075556737784
 20
6.382931495232622
 30
0
 40
0.1
 41
0.03333322222222222
 71
    1
 72
    1
  1
i
  7
romanc
210
0
220
0
230
1
 50
0
 73
    2
 44
1
  0
MTEXT
  5
20A
100
AcDbEntity
  8
ic
  6
ByLayer
 62
  256
370
   -1
100
AcDbMText
 10
5.693337276761783
 20
6.377357960031034
 30
0
 40
0.1
 41
0.07619044444444445
 71
    1
 72
    1
  1
<
  7
romanc
210
0
220
0
230
1
 50
0
 73
    2
 44
1
  0
MTEXT
  5
20B
100
AcDbEntity
  8
ic
  6
ByLayer
 62
  256
370
   -1
100
AcDbMText
 10
5.867066447663536
 20
6.37729761555441
 30
0
 40
0.1
 41
0.07619044444444445
 71
    1
 72
    1
  1
>
  7
romanc
210
0
220
0
230
1
 50
0
 73
    2
 44
1
  0
MTEXT
  5
20C
100
AcDbEntity
  8
ic
  6
ByLayer
 62
  256
370
   -1
100
AcDbMText
 10
5.899892061562395
 20
6.282710447539243
 30
0
 40
0.1
 41
0.07619044444444445
 71
    1
 72
    1
  1
d
  7
romanc
210
0
220
0
230
1
 50
0
 73
    2
 44
1
  0
LINE
  5
20D
100
AcDbEntity
  8
ic
  6
ByLayer
 62
  256
370
   -1
100
AcDbLine
 10
5.900000000000001
 20
6.000000000000001
 11
4.4
 21
6
  0
LINE
  5
20E
100
AcDbEntity
  8
ic
  6
ByLayer
 62
  256
370
   -1
100
AcDbLine
 10
5.5
 20
7
 11
5.000000000000001
 21
7
  0
MTEXT
  5
20F
100
AcDbEntity
  8
ic
  6
ByLayer
 62
  256
370
   -1
100
AcDbMText
 10
4.483122080365048
 20
7.600000000000001
 30
0
 40
0.1
 41
0.5690478888888889
 71
    1
 72
    1
  1
+ Vc -
  7
romanc
210
0
220
0
230
1
 50
0
 73
    2
 44
1
  0
MTEXT
  5
210
100
AcDbEntity
  8
ic
  6
ByLayer
 62
  256
370
   -1
100
AcDbMText
 10
4.998092524164741
 20
6.540725035101388
 30
0
 40
0.1
 41
0.1952381111111111
 71
    1
 72
    1
  1
Vd
  7
romanc
210
0
220
0
230
1
 50
0
 73
    2
 44
1
  0
MTEXT
  5
211
100
AcDbEntity
  8
ic
  6
ByLayer
 62
  256
370
   -1
100
AcDbMText
 10
5.054164164804001
 20
6.729765236914342
 30
0
 40
0.1
 41
0.08571433333333334
 71
    1
 72
    1
  1
+
  7
romanc
210
0
220
0
230
1
 50
0
 73
    2
 44
1
  0
MTEXT
  5
212
100
AcDbEntity
  8
ic
  6
ByLayer
 62
  256
370
   -1
100
AcDbMText
 10
5.058669001972968
 20
6.385145193488343
 30
0
 40
0.1
 41
0.08571433333333334
 71
    1
 72
    1
  1
-
  7
romanc
210
0
220
0
230
1
 50
0
 73
    2
 44
1
  0
MTEXT
  5
213
100
AcDbEntity
  8
ic
  6
ByLayer
 62
  256
370
   -1
100
AcDbMText
 10
1.060934770085162
 20
0.7000000000000011
 30
0
 40
0.1
 41
0.5833334444444445
 71
    1
 72
    1
  1
- Vd +
  7
romanc
210
0
220
0
230
1
 50
0
 73
    2
 44
1
  0
MTEXT
  5
214
100
AcDbEntity
  8
ic
  6
ByLayer
 62
  256
370
   -1
100
AcDbMText
 10
1.060934770085162
 20
-0.399999999999999
 30
0
 40
0.1
 41
0.5690478888888889
 71
    1
 72
    1
  1
+ Vc -
  7
romanc
210
0
220
0
230
1
 50
0
 73
    2
 44
1
  0
LINE
  5
215
100
AcDbEntity
  8
ic
  6
ByLayer
 62
  256
370
   -1
100
AcDbLine
 10
0.3400000000000006
 20
0.8000000000000014
 11
0.6699999999999998
 21
0.8000000000000014
  0
LINE
  5
216
100
AcDbEntity
  8
ic
  6
ByLayer
 62
  256
370
   -1
100
AcDbLine
 10
0.3400000000000006
 20
0.9000000000000004
 11
0.6699999999999998
 21
0.9000000000000004
  0
LINE
  5
217
100
AcDbEntity
  8
ic
  6
ByLayer
 62
  256
370
   -1
100
AcDbLine
 10
0.4999999999999999
 20
1.6
 11
0.4999999999999999
 21
0.9000000000000004
  0
LINE
  5
218
100
AcDbEntity
  8
ic
  6
ByLayer
 62
  256
370
   -1
100
AcDbLine
 10
0.4999999999999999
 20
0.8000000000000014
 11
0.4999999999999996
 21
0.06000000000000005
  0
LWPOLYLINE
  5
219
100
AcDbEntity
  8
ic
  6
ByLayer
 62
  256
370
   -1
100
AcDbPolyline
 90
    4
 70
    1
 43
0
 10
-0.1000000000000003
 20
1.1
 10
0.09999999999999853
 20
1.1
 10
0.09999999999999853
 20
0.6000000000000001
 10
-0.1000000000000003
 20
0.6000000000000001
  0
LINE
  5
21A
100
AcDbEntity
  8
ic
  6
ByLayer
 62
  256
370
   -1
100
AcDbLine
 10
-2.220446049250313e-16
 20
1.6
 11
-2.220446049250313e-16
 21
1.1
  0
LINE
  5
21B
100
AcDbEntity
  8
ic
  6
ByLayer
 62
  256
370
   -1
100
AcDbLine
 10
-2.220446049250313e-16
 20
0.6000000000000001
 11
-5.428650443211047e-16
 21
-0.2999999999999978
  0
LINE
  5
21C
100
AcDbEntity
  8
ic
  6
ByLayer
 62
  256
370
   -1
100
AcDbLine
 10
4.940000000000002
 20
0.8000000000000014
 11
5.270000000000001
 21
0.8000000000000014
  0
LINE
  5
21D
100
AcDbEntity
  8
ic
  6
ByLayer
 62
  256
370
   -1
100
AcDbLine
 10
4.940000000000002
 20
0.9000000000000004
 11
5.270000000000001
 21
0.9000000000000004
  0
LINE
  5
21E
100
AcDbEntity
  8
ic
  6
ByLayer
 62
  256
370
   -1
100
AcDbLine
 10
5.100000000000001
 20
1.6
 11
5.100000000000001
 21
0.9000000000000004
  0
LINE
  5
21F
100
AcDbEntity
  8
ic
  6
ByLayer
 62
  256
370
   -1
100
AcDbLine
 10
5.100000000000001
 20
0.8000000000000014
 11
5.100000000000001
 21
0.06000000000000005
  0
LWPOLYLINE
  5
220
100
AcDbEntity
  8
ic
  6
ByLayer
 62
  256
370
   -1
100
AcDbPolyline
 90
    4
 70
    1
 43
0
 10
4.500000000000001
 20
1.1
 10
4.7
 20
1.1
 10
4.7
 20
0.6000000000000001
 10
4.500000000000001
 20
0.6000000000000001
  0
LINE
  5
221
100
AcDbEntity
  8
ic
  6
ByLayer
 62
  256
370
   -1
100
AcDbLine
 10
4.600000000000001
 20
1.6
 11
4.600000000000001
 21
1.1
  0
LINE
  5
222
100
AcDbEntity
  8
ic
  6
ByLayer
 62
  256
370
   -1
100
AcDbLine
 10
4.600000000000001
 20
0.6000000000000001
 11
4.600000000000001
 21
-0.2999999999999978
  0
MTEXT
  5
223
100
AcDbEntity
  8
ic
  6
ByLayer
 62
  256
370
   -1
100
AcDbMText
 10
4.154164164804001
 20
1.029765236914343
 30
0
 40
0.1
 41
0.08571433333333334
 71
    1
 72
    1
  1
+
  7
romanc
210
0
220
0
230
1
 50
0
 73
    2
 44
1
  0
MTEXT
  5
224
100
AcDbEntity
  8
ic
  6
ByLayer
 62
  256
370
   -1
100
AcDbMText
 10
4.158669001972968
 20
0.6851451934883439
 30
0
 40
0.1
 41
0.08571433333333334
 71
    1
 72
    1
  1
-
  7
romanc
210
0
220
0
230
1
 50
0
 73
    2
 44
1
  0
MTEXT
  5
225
100
AcDbEntity
  8
ic
  6
ByLayer
 62
  256
370
   -1
100
AcDbMText
 10
4.108872437065341
 20
0.8388947892341738
 30
0
 40
0.1
 41
0.1952381111111111
 71
    1
 72
    1
  1
VO
  7
romanc
210
0
220
0
230
1
 50
0
 73
    2
 44
1
  0
MTEXT
  5
226
100
AcDbEntity
  8
ic
  6
ByLayer
 62
  256
370
   -1
100
AcDbMText
 10
-0.4458358351960001
 20
1.029765236914343
 30
0
 40
0.1
 41
0.08571433333333334
 71
    1
 72
    1
  1
+
  7
romanc
210
0
220
0
230
1
 50
0
 73
    2
 44
1
  0
MTEXT
  5
227
100
AcDbEntity
  8
ic
  6
ByLayer
 62
  256
370
   -1
100
AcDbMText
 10
-0.4413309980270332
 20
0.6851451934883439
 30
0
 40
0.1
 41
0.08571433333333334
 71
    1
 72
    1
  1
-
  7
romanc
210
0
220
0
230
1
 50
0
 73
    2
 44
1
  0
MTEXT
  5
228
100
AcDbEntity
  8
ic
  6
ByLayer
 62
  256
370
   -1
100
AcDbMText
 10
-0.4911275629346603
 20
0.8388947892341738
 30
0
 40
0.1
 41
0.1952381111111111
 71
    1
 72
    1
  1
VO
  7
romanc
210
0
220
0
230
1
 50
0
 73
    2
 44
1
  0
MTEXT
  5
229
100
AcDbEntity
  8
ic
  6
ByLayer
 62
  256
370
   -1
100
AcDbMText
 10
6.856665564593788
 20
3.986147280606449
 30
0
 40
0.1
 41
0.08571433333333334
 71
    1
 72
    1
  1
+
  7
romanc
210
0
220
0
230
1
 50
0
 73
    2
 44
1
  0
MTEXT
  5
22A
100
AcDbEntity
  8
ic
  6
ByLayer
 62
  256
370
   -1
100
AcDbMText
 10
6.861170401762755
 20
3.64152723718045
 30
0
 40
0.1
 41
0.08571433333333334
 71
    1
 72
    1
  1
-
  7
romanc
210
0
220
0
230
1
 50
0
 73
    2
 44
1
  0
MTEXT
  5
22B
100
AcDbEntity
  8
ic
  6
ByLayer
 62
  256
370
   -1
100
AcDbMText
 10
6.811373836855128
 20
3.79527683292628
 30
0
 40
0.1
 41
0.1952381111111111
 71
    1
 72
    1
  1
VO
  7
romanc
210
0
220
0
230
1
 50
0
 73
    2
 44
1
  0
MTEXT
  5
22C
100
AcDbEntity
  8
ic
  6
ByLayer
 62
  256
370
   -1
100
AcDbMText
 10
6.956665564593787
 20
6.786147280606448
 30
0
 40
0.1
 41
0.08571433333333334
 71
    1
 72
    1
  1
+
  7
romanc
210
0
220
0
230
1
 50
0
 73
    2
 44
1
  0
MTEXT
  5
22D
100
AcDbEntity
  8
ic
  6
ByLayer
 62
  256
370
   -1
100
AcDbMText
 10
6.961170401762754
 20
6.44152723718045
 30
0
 40
0.1
 41
0.08571433333333334
 71
    1
 72
    1
  1
-
  7
romanc
210
0
220
0
230
1
 50
0
 73
    2
 44
1
  0
MTEXT
  5
22E
100
AcDbEntity
  8
ic
  6
ByLayer
 62
  256
370
   -1
100
AcDbMText
 10
6.911373836855127
 20
6.595276832926279
 30
0
 40
0.1
 41
0.1952381111111111
 71
    1
 72
    1
  1
VO
  7
romanc
210
0
220
0
230
1
 50
0
 73
    2
 44
1
  0
MTEXT
  5
22F
100
AcDbEntity
  8
ic
  6
ByLayer
 62
  256
370
   -1
100
AcDbMText
 10
3.056665564593787
 20
6.786147280606448
 30
0
 40
0.1
 41
0.08571433333333334
 71
    1
 72
    1
  1
+
  7
romanc
210
0
220
0
230
1
 50
0
 73
    2
 44
1
  0
MTEXT
  5
230
100
AcDbEntity
  8
ic
  6
ByLayer
 62
  256
370
   -1
100
AcDbMText
 10
3.061170401762753
 20
6.44152723718045
 30
0
 40
0.1
 41
0.08571433333333334
 71
    1
 72
    1
  1
-
  7
romanc
210
0
220
0
230
1
 50
0
 73
    2
 44
1
  0
MTEXT
  5
231
100
AcDbEntity
  8
ic
  6
ByLayer
 62
  256
370
   -1
100
AcDbMText
 10
3.011373836855126
 20
6.595276832926279
 30
0
 40
0.1
 41
0.1952381111111111
 71
    1
 72
    1
  1
VO
  7
romanc
210
0
220
0
230
1
 50
0
 73
    2
 44
1
  0
MTEXT
  5
232
100
AcDbEntity
  8
ic
  6
ByLayer
 62
  256
370
   -1
100
AcDbMText
 10
3.056665564593787
 20
3.986147280606448
 30
0
 40
0.1
 41
0.08571433333333334
 71
    1
 72
    1
  1
+
  7
romanc
210
0
220
0
230
1
 50
0
 73
    2
 44
1
  0
MTEXT
  5
233
100
AcDbEntity
  8
ic
  6
ByLayer
 62
  256
370
   -1
100
AcDbMText
 10
3.061170401762753
 20
3.64152723718045
 30
0
 40
0.1
 41
0.08571433333333334
 71
    1
 72
    1
  1
-
  7
romanc
210
0
220
0
230
1
 50
0
 73
    2
 44
1
  0
MTEXT
  5
234
100
AcDbEntity
  8
ic
  6
ByLayer
 62
  256
370
   -1
100
AcDbMText
 10
3.011373836855126
 20
3.795276832926279
 30
0
 40
0.1
 41
0.1952381111111111
 71
    1
 72
    1
  1
VO
  7
romanc
210
0
220
0
230
1
 50
0
 73
    2
 44
1
  0
MTEXT
  5
235
100
AcDbEntity
  8
ic
  6
ByLayer
 62
  256
370
   -1
100
AcDbMText
 10
3.256665564593789
 20
-3.113852719393551
 30
0
 40
0.1
 41
0.08571433333333334
 71
    1
 72
    1
  1
+
  7
romanc
210
0
220
0
230
1
 50
0
 73
    2
 44
1
  0
MTEXT
  5
236
100
AcDbEntity
  8
ic
  6
ByLayer
 62
  256
370
   -1
100
AcDbMText
 10
3.261170401762756
 20
-3.458472762819549
 30
0
 40
0.1
 41
0.08571433333333334
 71
    1
 72
    1
  1
-
  7
romanc
210
0
220
0
230
1
 50
0
 73
    2
 44
1
  0
MTEXT
  5
237
100
AcDbEntity
  8
ic
  6
ByLayer
 62
  256
370
   -1
100
AcDbMText
 10
3.211373836855129
 20
-3.30472316707372
 30
0
 40
0.1
 41
0.1952381111111111
 71
    1
 72
    1
  1
VO
  7
romanc
210
0
220
0
230
1
 50
0
 73
    2
 44
1
  0
LINE
  5
238
100
AcDbEntity
  8
ic
  6
ByLayer
 62
  256
370
   -1
100
AcDbLine
 10
8.300000000000001
 20
-5
 11
8.300000000000001
 21
8.300000000000001
  0
LINE
  5
239
100
AcDbEntity
  8
ic
  6
ByLayer
 62
  256
370
   -1
100
AcDbLine
 10
-0.7
 20
8.300000000000001
 11
-0.7
 21
-5
  0
MTEXT
  5
23A
100
AcDbEntity
  8
ic
  6
ByLayer
 62
  256
370
   -1
100
AcDbMText
 10
3.2
 20
5.5
 30
0
 40
0.1
 41
1.541666888888889
 71
    1
 72
    1
  1
BUCK CONVERTER
  7
romant
210
0
220
0
230
1
 50
0
 73
    2
 44
1
  0
LINE
  5
23B
100
AcDbEntity
  8
ic
  6
ByLayer
 62
  256
370
   -1
100
AcDbLine
 10
8.300000000000001
 20
5.600000000000001
 11
-0.7000000000000004
 21
5.600000000000001
  0
LINE
  5
23C
100
AcDbEntity
  8
ic
  6
ByLayer
 62
  256
370
   -1
100
AcDbLine
 10
3.700000000000001
 20
5.600000000000001
 11
3.7
 21
8.300000000000001
  0
LINE
  5
23D
100
AcDbEntity
  8
ic
  6
ByLayer
 62
  256
370
   -1
100
AcDbLine
 10
-0.7000000000000003
 20
2.600000000000001
 11
8.300000000000001
 21
2.600000000000001
  0
LINE
  5
23E
100
AcDbEntity
  8
ic
  6
ByLayer
 62
  256
370
   -1
100
AcDbLine
 10
-0.7000000000000003
 20
-1.699999999999999
 11
8.300000000000001
 21
-1.699999999999999
  0
LINE
  5
23F
100
AcDbEntity
  8
ic
  6
ByLayer
 62
  256
370
   -1
100
AcDbLine
 10
-0.7000000000000003
 20
-4.699999999999999
 11
8.300000000000001
 21
-4.699999999999999
  0
LINE
  5
240
100
AcDbEntity
  8
ic
  6
ByLayer
 62
  256
370
   -1
100
AcDbLine
 10
3.7
 20
2.6
 11
3.7
 21
5.300000000000001
  0
LINE
  5
241
100
AcDbEntity
  8
ic
  6
ByLayer
 62
  256
370
   -1
100
AcDbLine
 10
3.7
 20
-1.7
 11
3.7
 21
2.3
  0
LINE
  5
242
100
AcDbEntity
  8
ic
  6
ByLayer
 62
  256
370
   -1
100
AcDbLine
 10
3.7
 20
-4.7
 11
3.7
 21
-2
  0
MTEXT
  5
243
100
AcDbEntity
  8
ic
  6
ByLayer
 62
  256
370
   -1
100
AcDbMText
 10
2.943635196841231
 20
2.500983287541798
 30
0
 40
0.1
 41
1.613095666666667
 71
    1
 72
    1
  1
BOOST CONVERTER
  7
romant
210
0
220
0
230
1
 50
0
 73
    2
 44
1
  0
MTEXT
  5
244
100
AcDbEntity
  8
ic
  6
ByLayer
 62
  256
370
   -1
100
AcDbMText
 10
2.773372008164184
 20
-1.805538374816565
 30
0
 40
0.1
 41
2.198809777777778
 71
    1
 72
    1
  1
BUCK-BOOST CONVERTER
  7
romant
210
0
220
0
230
1
 50
0
 73
    2
 44
1
  0
MTEXT
  5
245
100
AcDbEntity
  8
ic
  6
ByLayer
 62
  256
370
   -1
100
AcDbMText
 10
2.351588268153243
 20
-4.797240067032616
 30
0
 40
0.1
 41
2.788095666666666
 71
    1
 72
    1
  1
ISOLATED FLYBACK CONVERTER
  7
romant
210
0
220
0
230
1
 50
0
 73
    2
 44
1
  0
LINE
  5
246
100
AcDbEntity
  8
ic
  6
ByLayer
 62
  256
370
   -1
100
AcDbLine
 10
3.699999999999999
 20
8
 11
-0.7000000000000008
 21
8
  0
LINE
  5
247
100
AcDbEntity
  8
ic
  6
ByLayer
 62
  256
370
   -1
100
AcDbLine
 10
8.300000000000001
 20
8
 11
3.699999999999999
 21
8
  0
MTEXT
  5
248
100
AcDbEntity
  8
ic
  6
ByLayer
 62
  256
370
   -1
100
AcDbMText
 10
4.49027772786231
 20
8.205037195402372
 30
0
 40
0.1
 41
3.050000888888889
 71
    1
 72
    1
  1
AVERAGED-CURRENT MODEL (ACM)
  7
romant
210
0
220
0
230
1
 50
0
 73
    2
 44
1
  0
MTEXT
  5
249
100
AcDbEntity
  8
ic
  6
ByLayer
 62
  256
370
   -1
100
AcDbMText
 10
0.4894449938487216
 20
8.206550736572961
 30
0
 40
0.1
 41
2.079762222222222
 71
    1
 72
    1
  1
SWITCHED-MODE MODEL
  7
romant
210
0
220
0
230
1
 50
0
 73
    2
 44
1
  0
LINE
  5
24A
100
AcDbEntity
  8
ic
  6
ByLayer
 62
  256
370
   -1
100
AcDbLine
 10
3.699999999999999
 20
7.899999999999999
 11
-0.7000000000000008
 21
7.899999999999999
  0
LINE
  5
24B
100
AcDbEntity
  8
ic
  6
ByLayer
 62
  256
370
   -1
100
AcDbLine
 10
8.300000000000001
 20
7.899999999999999
 11
3.699999999999999
 21
7.899999999999999
  0
MTEXT
  5
24C
100
AcDbEntity
  8
ic
  6
ByLayer
 62
  256
370
   -1
100
AcDbMText
 10
4.9
 20
-3
 30
0
 40
0.2
 41
0.1714286666666667
 71
    2
 72
    1
  1
+\PV\P-
  7
romanc
210
0
220
0
230
1
 50
0
 73
    2
 44
1
  0
MTEXT
  5
24D
100
AcDbEntity
  8
ic
  6
ByLayer
 62
  256
370
   -1
100
AcDbMText
 10
3.9
 20
-3
 30
0
 40
0.2
 41
0.1714286666666667
 71
    2
 72
    1
  1
+\PV\P-
  7
romanc
210
0
220
0
230
1
 50
0
 73
    2
 44
1
  0
MTEXT
  5
24E
100
AcDbEntity
  8
ic
  6
ByLayer
 62
  256
370
   -1
100
AcDbMText
 10
5.052903637921091
 20
-3.461065623479325
 30
0
 40
0.123
 41
0.19914315
 71
    2
 72
    1
  1
cg
  7
romanc
210
0
220
0
230
1
 50
0
 73
    2
 44
1
  0
MTEXT
  5
24F
100
AcDbEntity
  8
ic
  6
ByLayer
 62
  256
370
   -1
100
AcDbMText
 10
4.003236194734739
 20
-3.498891477287842
 30
0
 40
0.123
 41
0.08200013666666667
 71
    2
 72
    1
  1
S
  7
romanc
210
0
220
0
230
1
 50
0
 73
    2
 44
1
  0
LINE
  5
250
100
AcDbEntity
  8
ic
  6
ByLayer
 62
  256
370
   -1
100
AcDbLine
 10
7.759999999999998
 20
-2.600000000000001
 11
6.300000000000001
 21
-2.6
  0
CIRCLE
  5
251
100
AcDbEntity
  8
ic
  6
ByLayer
 62
  256
370
   -1
100
AcDbCircle
 10
6.299999999999998
 20
-3.4
 40
0.2000000000000002
  0
LEADER
  5
252
100
AcDbEntity
  8
ic
  6
ByLayer
 62
  256
370
   -1
100
AcDbLeader
  3
Standard
 71
    1
 72
    0
 73
    3
 74
    0
 75
    0
 40
1
 41
10
 76
2
 76
2
 10
6.299999999999998
 20
-3.239999999999998
 30
0
 10
6.299999999999998
 20
-3.439999999999999
 30
0
  0
LINE
  5
253
100
AcDbEntity
  8
ic
  6
ByLayer
 62
  256
370
   -1
100
AcDbLine
 10
6.299999999999998
 20
-3.439999999999999
 11
6.299999999999998
 21
-3.539999999999998
  0
LINE
  5
254
100
AcDbEntity
  8
ic
  6
ByLayer
 62
  256
370
   -1
100
AcDbLine
 10
6.299999999999998
 20
-3.600000000000001
 11
6.3
 21
-4.2
  0
LINE
  5
255
100
AcDbEntity
  8
ic
  6
ByLayer
 62
  256
370
   -1
100
AcDbLine
 10
6.3
 20
-2.6
 11
6.3
 21
-3.2
  0
MTEXT
  5
256
100
AcDbEntity
  8
ic
  6
ByLayer
 62
  256
370
   -1
100
AcDbMText
 10
6.706643380120771
 20
-3
 30
0
 40
0.2
 41
0.1714286666666667
 71
    2
 72
    1
  1
+\PV\P-
  7
romanc
210
0
220
0
230
1
 50
0
 73
    2
 44
1
  0
MTEXT
  5
257
100
AcDbEntity
  8
ic
  6
ByLayer
 62
  256
370
   -1
100
AcDbMText
 10
6.858930766679591
 20
-3.501567656444807
 30
0
 40
0.123
 41
0.2167143833333334
 71
    2
 72
    1
  1
dg
  7
romanc
210
0
220
0
230
1
 50
0
 73
    2
 44
1
  0
ENDSEC
  0
SECTION
  2
OBJECTS
  0
DICTIONARY
  5
C
330
0
100
AcDbDictionary
281
    1
  3
ACAD_GROUP
350
D
  0
DICTIONARY
  5
D
330
C
100
AcDbDictionary
281
    1
  0
ENDSEC
  0
EOF
