999
dxfrw 0.6.3
  0
SECTION
  2
HEADER
  9
$ACADVER
  1
AC1021
  9
$DWGCODEPAGE
  3
ANSI_1252
  9
$INSBASE
 10
0
 20
0
 30
0
  9
$EXTMIN
 10
-0.00249770794663705
 20
-0.9810000000000011
 30
0
  9
$EXTMAX
 10
0.7193571388888891
 20
0.5700000000000001
 30
0
  9
$LIMMIN
 10
0
 20
0
  9
$LIMMAX
 10
420
 20
297
  9
$ORTHOMODE
 70
    0
  9
$REGENMODE
 70
    1
  9
$FILLMODE
 70
    1
  9
$QTEXTMODE
 70
    0
  9
$MIRRTEXT
 70
    0
  9
$LTSCALE
 40
1
  9
$ATTMODE
 70
    0
  9
$TEXTSIZE
 40
2.5
  9
$TRACEWID
 40
15.68
  9
$TEXTSTYLE
  7
STANDARD
  9
$CLAYER
  8
txt
  9
$CELTYPE
  6
BYLAYER
  9
$CECOLOR
 62
  256
  9
$CELTSCALE
 40
1
  9
$DISPSILH
 70
    0
  9
$DIMSCALE
 40
1
  9
$DIMASZ
 40
0.015
  9
$DIMEXO
 40
0.625
  9
$DIMDLI
 40
3.75
  9
$DIMRND
 40
0
  9
$DIMDLE
 40
0
  9
$DIMEXE
 40
1.25
  9
$DIMTP
 40
0
  9
$DIMTM
 40
0
  9
$DIMTXT
 40
1
  9
$DIMCEN
 40
2.5
  9
$DIMTSZ
 40
0
  9
$DIMTOL
 70
    0
  9
$DIMLIM
 70
    0
  9
$DIMTIH
 70
    0
  9
$DIMTOH
 70
    0
  9
$DIMSE1
 70
    0
  9
$DIMSE2
 70
    0
  9
$DIMTAD
 70
    1
  9
$DIMZIN
 70
    1
  9
$DIMBLK
  1

  9
$DIMASO
 70
    1
  9
$DIMSHO
 70
    1
  9
$DIMPOST
  1

  9
$DIMAPOST
  1

  9
$DIMALT
 70
    0
  9
$DIMALTD
 70
    3
  9
$DIMALTF
 40
0.03937
  9
$DIMLFAC
 40
1
  9
$DIMTOFL
 70
    1
  9
$DIMTVP
 40
0
  9
$DIMTIX
 70
    0
  9
$DIMSOXD
 70
    0
  9
$DIMSAH
 70
    0
  9
$DIMBLK1
  1

  9
$DIMBLK2
  1

  9
$DIMSTYLE
  2
STANDARD
  9
$DIMCLRD
 70
    0
  9
$DIMCLRE
 70
    0
  9
$DIMCLRT
 70
    0
  9
$DIMTFAC
 40
1
  9
$DIMGAP
 40
0.625
  9
$DIMJUST
 70
    0
  9
$DIMSD1
 70
    0
  9
$DIMSD2
 70
    0
  9
$DIMTOLJ
 70
    0
  9
$DIMTZIN
 70
    8
  9
$DIMALTZ
 70
    0
  9
$DIMALTTZ
 70
    0
  9
$DIMUPT
 70
    0
  9
$DIMDEC
 70
    4
  9
$DIMTDEC
 70
    2
  9
$DIMALTU
 70
    2
  9
$DIMALTTD
 70
    3
  9
$DIMTXSTY
  7
standard
  9
$DIMAUNIT
 70
    0
  9
$DIMADEC
 70
    2
  9
$DIMALTRND
 40
0
  9
$DIMAZIN
 70
    0
  9
$DIMDSEP
 70
   44
  9
$DIMATFIT
 70
    3
  9
$DIMFRAC
 70
    0
  9
$DIMLDRBLK
  1
STANDARD
  9
$DIMLUNIT
 70
    2
  9
$DIMLWD
 70
   -2
  9
$DIMLWE
 70
   -2
  9
$DIMTMOVE
 70
    0
  9
$DIMFXL
 40
1
  9
$DIMFXLON
 70
    0
  9
$DIMJOGANG
 40
0.7854
  9
$DIMTFILL
 70
    0
  9
$DIMTFILLCLR
 70
    0
  9
$DIMARCSYM
 70
    0
  9
$DIMLTYPE
  6

  9
$DIMLTEX1
  6

  9
$DIMLTEX2
  6

  9
$LUNITS
 70
    2
  9
$LUPREC
 70
    4
  9
$SKETCHINC
 40
1
  9
$FILLETRAD
 40
0
  9
$AUNITS
 70
    0
  9
$AUPREC
 70
    2
  9
$MENU
  1
.
  9
$ELEVATION
 40
0
  9
$PELEVATION
 40
0
  9
$THICKNESS
 40
0
  9
$LIMCHECK
 70
    0
  9
$CHAMFERA
 40
0
  9
$CHAMFERB
 40
0
  9
$CHAMFERC
 40
0
  9
$CHAMFERD
 40
0
  9
$SKPOLY
 70
    0
  9
$USRTIMER
 70
    1
  9
$ANGBASE
 50
0
  9
$ANGDIR
 70
    0
  9
$PDMODE
 70
   34
  9
$PDSIZE
 40
0
  9
$PLINEWID
 40
0
  9
$SPLFRAME
 70
    0
  9
$SPLINETYPE
 70
    2
  9
$SPLINESEGS
 70
    8
  9
$HANDSEED
  5
20000
  9
$SURFTAB1
 70
    6
  9
$SURFTAB2
 70
    6
  9
$SURFTYPE
 70
    6
  9
$SURFU
 70
    6
  9
$SURFV
 70
    6
  9
$UCSBASE
  2

  9
$UCSNAME
  2

  9
$UCSORG
 10
0
 20
0
 30
0
  9
$UCSXDIR
 10
1
 20
0
 30
0
  9
$UCSYDIR
 10
0
 20
1
 30
0
  9
$UCSORTHOREF
  2

  9
$UCSORTHOVIEW
 70
    0
  9
$UCSORGTOP
 10
0
 20
0
 30
0
  9
$UCSORGBOTTOM
 10
0
 20
0
 30
0
  9
$UCSORGLEFT
 10
0
 20
0
 30
0
  9
$UCSORGRIGHT
 10
0
 20
0
 30
0
  9
$UCSORGFRONT
 10
0
 20
0
 30
0
  9
$UCSORGBACK
 10
0
 20
0
 30
0
  9
$PUCSBASE
  2

  9
$PUCSNAME
  2

  9
$PUCSORG
 10
0
 20
0
 30
0
  9
$PUCSXDIR
 10
1
 20
0
 30
0
  9
$PUCSYDIR
 10
0
 20
1
 30
0
  9
$PUCSORTHOREF
  2

  9
$PUCSORTHOVIEW
 70
    0
  9
$PUCSORGTOP
 10
0
 20
0
 30
0
  9
$PUCSORGBOTTOM
 10
0
 20
0
 30
0
  9
$PUCSORGLEFT
 10
0
 20
0
 30
0
  9
$PUCSORGRIGHT
 10
0
 20
0
 30
0
  9
$PUCSORGFRONT
 10
0
 20
0
 30
0
  9
$PUCSORGBACK
 10
0
 20
0
 30
0
  9
$USERI1
 70
    0
  9
$USERI2
 70
    0
  9
$USERI3
 70
    0
  9
$USERI4
 70
    0
  9
$USERI5
 70
    0
  9
$USERR1
 40
0
  9
$USERR2
 40
0
  9
$USERR3
 40
0
  9
$USERR4
 40
0
  9
$USERR5
 40
0
  9
$WORLDVIEW
 70
    1
  9
$SHADEDGE
 70
    3
  9
$SHADEDIF
 70
   70
  9
$TILEMODE
 70
    1
  9
$MAXACTVP
 70
   64
  9
$PINSBASE
 10
0
 20
0
 30
0
  9
$PLIMCHECK
 70
    0
  9
$PEXTMIN
 10
0
 20
0
 30
0
  9
$PEXTMAX
 10
0
 20
0
 30
0
  9
$GRIDMODE
 70
    1
  9
$SNAPSTYLE
 70
    0
  9
$GRIDUNIT
 10
0
 20
0
  9
$PLIMMIN
 10
0
 20
0
  9
$PLIMMAX
 10
0.7083333333333334
 20
0.9166666666666665
  9
$UNITMODE
 70
    0
  9
$VISRETAIN
 70
    1
  9
$PLINEGEN
 70
    0
  9
$PSLTSCALE
 70
    1
  9
$TREEDEPTH
 70
 3020
  9
$CMLSTYLE
  2
Standard
  9
$CMLJUST
 70
    0
  9
$CMLSCALE
 40
20
  9
$PROXYGRAPHICS
 70
    1
  9
$MEASUREMENT
 70
    1
  9
$CELWEIGHT
370
   -1
  9
$ENDCAPS
280
    0
  9
$JOINSTYLE
280
    0
  9
$LWDISPLAY
290
    0
  9
$INSUNITS
 70
    2
  9
$HYPERLINKBASE
  1

  9
$STYLESHEET
  1

  9
$XEDIT
290
    1
  9
$CEPSNTYPE
380
    0
  9
$PSTYLEMODE
290
    1
  9
$EXTNAMES
290
    1
  9
$PSVPSCALE
 40
0
  9
$OLESTARTUP
290
    0
  9
$SORTENTS
280
  127
  9
$INDEXCTL
280
    0
  9
$HIDETEXT
280
    1
  9
$XCLIPFRAME
290
    0
  9
$HALOGAP
280
    0
  9
$OBSCOLOR
 70
  257
  9
$OBSLTYPE
280
    0
  9
$INTERSECTIONDISPLAY
280
    0
  9
$INTERSECTIONCOLOR
 70
  257
  9
$DIMASSOC
280
    1
  9
$PROJECTNAME
  1

  9
$CAMERADISPLAY
290
    0
  9
$LENSLENGTH
 40
50
  9
$CAMERAHEIGHT
 40
0
  9
$STEPSPERSEC
 40
2
  9
$STEPSIZE
 40
50
  9
$3DDWFPREC
 40
2
  9
$PSOLWIDTH
 40
5
  9
$PSOLHEIGHT
 40
80
  9
$LOFTANG1
 40
1.570796326794897
  9
$LOFTANG2
 40
1.570796326794897
  9
$LOFTMAG1
 40
0
  9
$LOFTMAG2
 40
0
  9
$LOFTPARAM
 70
    7
  9
$LOFTNORMALS
280
    1
  9
$LATITUDE
 40
1
  9
$LONGITUDE
 40
1
  9
$NORTHDIRECTION
 40
0
  9
$TIMEZONE
 70
-8000
  9
$LIGHTGLYPHDISPLAY
280
    1
  9
$TILEMODELIGHTSYNCH
280
    1
  9
$SOLIDHIST
280
    1
  9
$SHOWHIST
280
    1
  9
$DWFFRAME
280
    2
  9
$DGNFRAME
280
    0
  9
$REALWORLDSCALE
290
    1
  9
$INTERFERECOLOR
 62
    1
  9
$CSHADOW
280
    0
  9
$SHADOWPLANELOCATION
 40
0
  0
ENDSEC
  0
SECTION
  2
CLASSES
  0
ENDSEC
  0
SECTION
  2
TABLES
  0
TABLE
  2
VPORT
  5
8
330
0
100
AcDbSymbolTable
 70
    1
  0
VPORT
  5
31
330
2
100
AcDbSymbolTableRecord
100
AcDbViewportTableRecord
  2
*ACTIVE
 70
    0
 10
0
 20
0
 11
1
 21
1
 12
1.048338101706539
 22
0.53316415156994
 13
0
 23
0
 14
10
 24
10
 15
10
 25
10
 16
0
 26
0
 36
1
 17
0
 27
0
 37
0
 40
2.387790372061695
 41
1.291780821917808
 42
50
 43
0
 44
0
 50
0
 51
0
 71
    0
 72
  100
 73
    1
 74
    3
 75
    0
 76
    1
 77
    0
 78
    0
281
    0
 65
    1
110
0
120
0
130
0
111
1
121
0
131
0
112
0
122
1
132
0
 79
    0
146
0
348
10020
 60
    7
 61
    5
292
1
282
    1
141
0
142
0
 63
  250
421
3358443
  0
ENDTAB
  0
TABLE
  2
LTYPE
  5
5
330
0
100
AcDbSymbolTable
 70
    4
  0
LTYPE
  5
14
330
5
100
AcDbSymbolTableRecord
100
AcDbLinetypeTableRecord
  2
ByBlock
 70
    0
  3

 72
   65
 73
    0
 40
0
  0
LTYPE
  5
15
330
5
100
AcDbSymbolTableRecord
100
AcDbLinetypeTableRecord
  2
ByLayer
 70
    0
  3

 72
   65
 73
    0
 40
0
  0
LTYPE
  5
16
330
5
100
AcDbSymbolTableRecord
100
AcDbLinetypeTableRecord
  2
Continuous
 70
    0
  3
Solid line
 72
   65
 73
    0
 40
0
  0
LTYPE
  5
32
330
5
100
AcDbSymbolTableRecord
100
AcDbLinetypeTableRecord
  2
DOT
 70
    0
  3
Dot . . . . . . . . . . . . . . . . . . . . . .
 72
   65
 73
    2
 40
6.35
 49
0
 74
    0
 49
-6.35
 74
    0
  0
LTYPE
  5
33
330
5
100
AcDbSymbolTableRecord
100
AcDbLinetypeTableRecord
  2
DOTTINY
 70
    0
  3
Dot (.15x) .....................................
 72
   65
 73
    2
 40
0.9525
 49
0
 74
    0
 49
-0.9525
 74
    0
  0
LTYPE
  5
34
330
5
100
AcDbSymbolTableRecord
100
AcDbLinetypeTableRecord
  2
DOT2
 70
    0
  3
Dot (.5x) .....................................
 72
   65
 73
    2
 40
3.175
 49
0
 74
    0
 49
-3.175
 74
    0
  0
LTYPE
  5
35
330
5
100
AcDbSymbolTableRecord
100
AcDbLinetypeTableRecord
  2
DOTX2
 70
    0
  3
Dot (2x) .  .  .  .  .  .  .  .  .  .  .  .  .
 72
   65
 73
    2
 40
12.7
 49
0
 74
    0
 49
-12.7
 74
    0
  0
LTYPE
  5
36
330
5
100
AcDbSymbolTableRecord
100
AcDbLinetypeTableRecord
  2
DASHED
 70
    0
  3
Dashed _ _ _ _ _ _ _ _ _ _ _ _ _ _ _ _ _
 72
   65
 73
    2
 40
19.05
 49
12.7
 74
    0
 49
-6.35
 74
    0
  0
LTYPE
  5
37
330
5
100
AcDbSymbolTableRecord
100
AcDbLinetypeTableRecord
  2
DASHEDTINY
 70
    0
  3
Dashed (.15x) _ _ _ _ _ _ _ _ _ _ _ _ _ _ _ _ _
 72
   65
 73
    2
 40
2.8575
 49
1.905
 74
    0
 49
-0.9525
 74
    0
  0
LTYPE
  5
38
330
5
100
AcDbSymbolTableRecord
100
AcDbLinetypeTableRecord
  2
DASHED2
 70
    0
  3
Dashed (.5x) _ _ _ _ _ _ _ _ _ _ _ _ _ _ _ _ _
 72
   65
 73
    2
 40
9.524999999999999
 49
6.35
 74
    0
 49
-3.175
 74
    0
  0
LTYPE
  5
39
330
5
100
AcDbSymbolTableRecord
100
AcDbLinetypeTableRecord
  2
DASHEDX2
 70
    0
  3
Dashed (2x) ____  ____  ____  ____  ____  ___
 72
   65
 73
    2
 40
38.09999999999999
 49
25.4
 74
    0
 49
-12.7
 74
    0
  0
LTYPE
  5
3A
330
5
100
AcDbSymbolTableRecord
100
AcDbLinetypeTableRecord
  2
DASHDOT
 70
    0
  3
Dash dot __ . __ . __ . __ . __ . __ . __ . __
 72
   65
 73
    4
 40
25.4
 49
12.7
 74
    0
 49
-6.35
 74
    0
 49
0
 74
    0
 49
-6.35
 74
    0
  0
LTYPE
  5
3B
330
5
100
AcDbSymbolTableRecord
100
AcDbLinetypeTableRecord
  2
DASHDOTTINY
 70
    0
  3
Dash dot (.15x) _._._._._._._._._._._._._._._.
 72
   65
 73
    4
 40
3.81
 49
1.905
 74
    0
 49
-0.9525
 74
    0
 49
0
 74
    0
 49
-0.9525
 74
    0
  0
LTYPE
  5
3C
330
5
100
AcDbSymbolTableRecord
100
AcDbLinetypeTableRecord
  2
DASHDOT2
 70
    0
  3
Dash dot (.5x) _._._._._._._._._._._._._._._.
 72
   65
 73
    4
 40
12.7
 49
6.35
 74
    0
 49
-3.175
 74
    0
 49
0
 74
    0
 49
-3.175
 74
    0
  0
LTYPE
  5
3D
330
5
100
AcDbSymbolTableRecord
100
AcDbLinetypeTableRecord
  2
DASHDOTX2
 70
    0
  3
Dash dot (2x) ____  .  ____  .  ____  .  ___
 72
   65
 73
    4
 40
50.8
 49
25.4
 74
    0
 49
-12.7
 74
    0
 49
0
 74
    0
 49
-12.7
 74
    0
  0
LTYPE
  5
3E
330
5
100
AcDbSymbolTableRecord
100
AcDbLinetypeTableRecord
  2
DIVIDE
 70
    0
  3
Divide ____ . . ____ . . ____ . . ____ . . ____
 72
   65
 73
    6
 40
31.75
 49
12.7
 74
    0
 49
-6.35
 74
    0
 49
0
 74
    0
 49
-6.35
 74
    0
 49
0
 74
    0
 49
-6.35
 74
    0
  0
LTYPE
  5
3F
330
5
100
AcDbSymbolTableRecord
100
AcDbLinetypeTableRecord
  2
DIVIDETINY
 70
    0
  3
Divide (.15x) __..__..__..__..__..__..__..__.._
 72
   65
 73
    6
 40
4.7625
 49
1.905
 74
    0
 49
-0.9525
 74
    0
 49
0
 74
    0
 49
-0.9525
 74
    0
 49
0
 74
    0
 49
-0.9525
 74
    0
  0
LTYPE
  5
40
330
5
100
AcDbSymbolTableRecord
100
AcDbLinetypeTableRecord
  2
DIVIDE2
 70
    0
  3
Divide (.5x) __..__..__..__..__..__..__..__.._
 72
   65
 73
    6
 40
15.875
 49
6.35
 74
    0
 49
-3.175
 74
    0
 49
0
 74
    0
 49
-3.175
 74
    0
 49
0
 74
    0
 49
-3.175
 74
    0
  0
LTYPE
  5
41
330
5
100
AcDbSymbolTableRecord
100
AcDbLinetypeTableRecord
  2
DIVIDEX2
 70
    0
  3
Divide (2x) ________  .  .  ________  .  .  _
 72
   65
 73
    6
 40
63.5
 49
25.4
 74
    0
 49
-12.7
 74
    0
 49
0
 74
    0
 49
-12.7
 74
    0
 49
0
 74
    0
 49
-12.7
 74
    0
  0
LTYPE
  5
42
330
5
100
AcDbSymbolTableRecord
100
AcDbLinetypeTableRecord
  2
BORDER
 70
    0
  3
Border __ __ . __ __ . __ __ . __ __ . __ __ .
 72
   65
 73
    6
 40
44.45
 49
12.7
 74
    0
 49
-6.35
 74
    0
 49
12.7
 74
    0
 49
-6.35
 74
    0
 49
0
 74
    0
 49
-6.35
 74
    0
  0
LTYPE
  5
43
330
5
100
AcDbSymbolTableRecord
100
AcDbLinetypeTableRecord
  2
BORDERTINY
 70
    0
  3
Border (.15x) __.__.__.__.__.__.__.__.__.__.__.
 72
   65
 73
    6
 40
6.6675
 49
1.905
 74
    0
 49
-0.9525
 74
    0
 49
1.905
 74
    0
 49
-0.9525
 74
    0
 49
0
 74
    0
 49
-0.9525
 74
    0
  0
LTYPE
  5
44
330
5
100
AcDbSymbolTableRecord
100
AcDbLinetypeTableRecord
  2
BORDER2
 70
    0
  3
Border (.5x) __.__.__.__.__.__.__.__.__.__.__.
 72
   65
 73
    6
 40
22.225
 49
6.35
 74
    0
 49
-3.175
 74
    0
 49
6.35
 74
    0
 49
-3.175
 74
    0
 49
0
 74
    0
 49
-3.175
 74
    0
  0
LTYPE
  5
45
330
5
100
AcDbSymbolTableRecord
100
AcDbLinetypeTableRecord
  2
BORDERX2
 70
    0
  3
Border (2x) ____  ____  .  ____  ____  .  ___
 72
   65
 73
    6
 40
88.89999999999999
 49
25.4
 74
    0
 49
-12.7
 74
    0
 49
25.4
 74
    0
 49
-12.7
 74
    0
 49
0
 74
    0
 49
-12.7
 74
    0
  0
LTYPE
  5
46
330
5
100
AcDbSymbolTableRecord
100
AcDbLinetypeTableRecord
  2
CENTER
 70
    0
  3
Center ____ _ ____ _ ____ _ ____ _ ____ _ ____
 72
   65
 73
    4
 40
50.8
 49
31.75
 74
    0
 49
-6.35
 74
    0
 49
6.35
 74
    0
 49
-6.35
 74
    0
  0
LTYPE
  5
47
330
5
100
AcDbSymbolTableRecord
100
AcDbLinetypeTableRecord
  2
CENTERTINY
 70
    0
  3
Center (.15x) ___ _ ___ _ ___ _ ___ _ ___ _ ___
 72
   65
 73
    4
 40
7.619999999999999
 49
4.7625
 74
    0
 49
-0.9525
 74
    0
 49
0.9525
 74
    0
 49
-0.9525
 74
    0
  0
LTYPE
  5
48
330
5
100
AcDbSymbolTableRecord
100
AcDbLinetypeTableRecord
  2
CENTER2
 70
    0
  3
Center (.5x) ___ _ ___ _ ___ _ ___ _ ___ _ ___
 72
   65
 73
    4
 40
28.575
 49
19.05
 74
    0
 49
-3.175
 74
    0
 49
3.175
 74
    0
 49
-3.175
 74
    0
  0
LTYPE
  5
49
330
5
100
AcDbSymbolTableRecord
100
AcDbLinetypeTableRecord
  2
CENTERX2
 70
    0
  3
Center (2x) ________  __  ________  __  _____
 72
   65
 73
    4
 40
101.6
 49
63.5
 74
    0
 49
-12.7
 74
    0
 49
12.7
 74
    0
 49
-12.7
 74
    0
  0
ENDTAB
  0
TABLE
  2
LAYER
  5
2
330
0
100
AcDbSymbolTable
 70
    1
  0
LAYER
  5
10
330
2
100
AcDbSymbolTableRecord
100
AcDbLayerTableRecord
  2
0
 70
    0
 62
    7
  6
DOTTINY
370
   13
390
F
  0
LAYER
  5
4A
330
2
100
AcDbSymbolTableRecord
100
AcDbLayerTableRecord
  2
axis
 70
    0
 62
    8
  6
CONTINUOUS
370
   35
390
F
  0
LAYER
  5
4B
330
2
100
AcDbSymbolTableRecord
100
AcDbLayerTableRecord
  2
delim
 70
    0
 62
  253
420
10526884
  6
DASHEDTINY
370
   13
390
F
  0
LAYER
  5
4C
330
2
100
AcDbSymbolTableRecord
100
AcDbLayerTableRecord
  2
ic
 70
    0
 62
  216
420
8388736
  6
CONTINUOUS
370
   35
390
F
  0
LAYER
  5
4D
330
2
100
AcDbSymbolTableRecord
100
AcDbLayerTableRecord
  2
icg
 70
    0
 62
  136
420
32896
  6
CONTINUOUS
370
   50
390
F
  0
LAYER
  5
4E
330
2
100
AcDbSymbolTableRecord
100
AcDbLayerTableRecord
  2
idiscg
 70
    0
 62
    4
  6
DASHEDTINY
370
   50
390
F
  0
LAYER
  5
4F
330
2
100
AcDbSymbolTableRecord
100
AcDbLayerTableRecord
  2
mcmp
 70
    0
 62
    7
  6
DASHEDTINY
370
   25
390
F
  0
LAYER
  5
50
330
2
100
AcDbSymbolTableRecord
100
AcDbLayerTableRecord
  2
sample
 70
    0
 62
    1
  6
CONTINUOUS
370
  140
390
F
  0
LAYER
  5
51
330
2
100
AcDbSymbolTableRecord
100
AcDbLayerTableRecord
  2
sig
 70
    0
 62
    6
  6
CONTINUOUS
370
   50
390
F
  0
LAYER
  5
52
330
2
100
AcDbSymbolTableRecord
100
AcDbLayerTableRecord
  2
txt
 70
    0
 62
    7
  6
CONTINUOUS
370
   35
390
F
  0
ENDTAB
  0
TABLE
  2
STYLE
  5
3
330
0
100
AcDbSymbolTable
 70
    3
  0
STYLE
  5
53
330
2
100
AcDbSymbolTableRecord
100
AcDbTextStyleTableRecord
  2
italicc
 70
    0
 40
0
 41
1
 50
0
 71
    0
 42
1
  3
italicc
  4

  0
STYLE
  5
54
330
2
100
AcDbSymbolTableRecord
100
AcDbTextStyleTableRecord
  2
Standard
 70
    0
 40
0
 41
1
 50
0
 71
    0
 42
1
  3
txt
  4

  0
ENDTAB
  0
TABLE
  2
VIEW
  5
6
330
0
100
AcDbSymbolTable
 70
    0
  0
ENDTAB
  0
TABLE
  2
UCS
  5
7
330
0
100
AcDbSymbolTable
 70
    0
  0
ENDTAB
  0
TABLE
  2
APPID
  5
9
330
0
100
AcDbSymbolTable
 70
    1
  0
APPID
  5
12
330
9
100
AcDbSymbolTableRecord
100
AcDbRegAppTableRecord
  2
ACAD
 70
    0
  0
APPID
  5
55
330
9
100
AcDbSymbolTableRecord
100
AcDbRegAppTableRecord
  2
LibreCad
 70
    0
  0
ENDTAB
  0
TABLE
  2
DIMSTYLE
  5
A
330
0
100
AcDbSymbolTable
 70
    1
100
AcDbDimStyleTable
 71
    1
  0
DIMSTYLE
105
56
330
A
100
AcDbSymbolTableRecord
100
AcDbDimStyleTableRecord
  2
Standard
 70
    0
 40
1
 41
0.015
 42
0.625
 43
0.38
 44
1.25
 45
0
 46
0
 47
0
 48
0
 49
1
140
1
141
0.09
142
0
143
25.4
144
1
145
0
146
1
147
0.625
148
0
 71
    0
 72
    0
 73
    0
 74
    1
 75
    0
 76
    0
 77
    0
 78
    1
 79
    0
170
    0
171
    2
172
    0
173
    0
174
    0
175
    0
176
    0
177
    0
178
    0
179
    2
271
    4
272
    4
273
    2
274
    2
275
    0
276
    0
277
    2
278
   44
279
    0
280
    0
281
    0
282
    0
283
    1
284
    0
285
    0
286
    0
288
    0
289
    3
340
standard
341

371
   -2
372
   -2
  0
ENDTAB
  0
TABLE
  2
BLOCK_RECORD
  5
1
330
0
100
AcDbSymbolTable
 70
    2
  0
BLOCK_RECORD
  5
1F
330
1
100
AcDbSymbolTableRecord
100
AcDbBlockTableRecord
  2
*Model_Space
 70
    0
280
    1
281
    0
  0
BLOCK_RECORD
  5
1E
330
1
100
AcDbSymbolTableRecord
100
AcDbBlockTableRecord
  2
*Paper_Space
 70
    0
280
    1
281
    0
  0
BLOCK_RECORD
  5
57
330
1
100
AcDbSymbolTableRecord
100
AcDbBlockTableRecord
  2
*D3
 70
    0
280
    1
281
    0
  0
BLOCK_RECORD
  5
5A
330
1
100
AcDbSymbolTableRecord
100
AcDbBlockTableRecord
  2
*D37
 70
    0
280
    1
281
    0
  0
BLOCK_RECORD
  5
5D
330
1
100
AcDbSymbolTableRecord
100
AcDbBlockTableRecord
  2
*D62
 70
    0
280
    1
281
    0
  0
BLOCK_RECORD
  5
60
330
1
100
AcDbSymbolTableRecord
100
AcDbBlockTableRecord
  2
*D18
 70
    0
280
    1
281
    0
  0
BLOCK_RECORD
  5
63
330
1
100
AcDbSymbolTableRecord
100
AcDbBlockTableRecord
  2
*D12
 70
    0
280
    1
281
    0
  0
BLOCK_RECORD
  5
66
330
1
100
AcDbSymbolTableRecord
100
AcDbBlockTableRecord
  2
*D47
 70
    0
280
    1
281
    0
  0
BLOCK_RECORD
  5
69
330
1
100
AcDbSymbolTableRecord
100
AcDbBlockTableRecord
  2
*D43
 70
    0
280
    1
281
    0
  0
BLOCK_RECORD
  5
6C
330
1
100
AcDbSymbolTableRecord
100
AcDbBlockTableRecord
  2
*D9
 70
    0
280
    1
281
    0
  0
BLOCK_RECORD
  5
6F
330
1
100
AcDbSymbolTableRecord
100
AcDbBlockTableRecord
  2
*D6
 70
    0
280
    1
281
    0
  0
BLOCK_RECORD
  5
72
330
1
100
AcDbSymbolTableRecord
100
AcDbBlockTableRecord
  2
*D34
 70
    0
280
    1
281
    0
  0
BLOCK_RECORD
  5
75
330
1
100
AcDbSymbolTableRecord
100
AcDbBlockTableRecord
  2
*D20
 70
    0
280
    1
281
    0
  0
BLOCK_RECORD
  5
78
330
1
100
AcDbSymbolTableRecord
100
AcDbBlockTableRecord
  2
*D61
 70
    0
280
    1
281
    0
  0
BLOCK_RECORD
  5
7B
330
1
100
AcDbSymbolTableRecord
100
AcDbBlockTableRecord
  2
*D40
 70
    0
280
    1
281
    0
  0
BLOCK_RECORD
  5
7E
330
1
100
AcDbSymbolTableRecord
100
AcDbBlockTableRecord
  2
*D36
 70
    0
280
    1
281
    0
  0
BLOCK_RECORD
  5
81
330
1
100
AcDbSymbolTableRecord
100
AcDbBlockTableRecord
  2
*D45
 70
    0
280
    1
281
    0
  0
BLOCK_RECORD
  5
84
330
1
100
AcDbSymbolTableRecord
100
AcDbBlockTableRecord
  2
*D31
 70
    0
280
    1
281
    0
  0
BLOCK_RECORD
  5
87
330
1
100
AcDbSymbolTableRecord
100
AcDbBlockTableRecord
  2
*D52
 70
    0
280
    1
281
    0
  0
BLOCK_RECORD
  5
8A
330
1
100
AcDbSymbolTableRecord
100
AcDbBlockTableRecord
  2
*D11
 70
    0
280
    1
281
    0
  0
BLOCK_RECORD
  5
8D
330
1
100
AcDbSymbolTableRecord
100
AcDbBlockTableRecord
  2
*D2
 70
    0
280
    1
281
    0
  0
BLOCK_RECORD
  5
90
330
1
100
AcDbSymbolTableRecord
100
AcDbBlockTableRecord
  2
*D30
 70
    0
280
    1
281
    0
  0
BLOCK_RECORD
  5
93
330
1
100
AcDbSymbolTableRecord
100
AcDbBlockTableRecord
  2
*D27
 70
    0
280
    1
281
    0
  0
BLOCK_RECORD
  5
96
330
1
100
AcDbSymbolTableRecord
100
AcDbBlockTableRecord
  2
*D17
 70
    0
280
    1
281
    0
  0
BLOCK_RECORD
  5
99
330
1
100
AcDbSymbolTableRecord
100
AcDbBlockTableRecord
  2
*D64
 70
    0
280
    1
281
    0
  0
BLOCK_RECORD
  5
9C
330
1
100
AcDbSymbolTableRecord
100
AcDbBlockTableRecord
  2
*D42
 70
    0
280
    1
281
    0
  0
BLOCK_RECORD
  5
9F
330
1
100
AcDbSymbolTableRecord
100
AcDbBlockTableRecord
  2
*D8
 70
    0
280
    1
281
    0
  0
BLOCK_RECORD
  5
A2
330
1
100
AcDbSymbolTableRecord
100
AcDbBlockTableRecord
  2
*D5
 70
    0
280
    1
281
    0
  0
BLOCK_RECORD
  5
A5
330
1
100
AcDbSymbolTableRecord
100
AcDbBlockTableRecord
  2
*D33
 70
    0
280
    1
281
    0
  0
BLOCK_RECORD
  5
A8
330
1
100
AcDbSymbolTableRecord
100
AcDbBlockTableRecord
  2
*D66
 70
    0
280
    1
281
    0
  0
BLOCK_RECORD
  5
AB
330
1
100
AcDbSymbolTableRecord
100
AcDbBlockTableRecord
  2
*D39
 70
    0
280
    1
281
    0
  0
BLOCK_RECORD
  5
AE
330
1
100
AcDbSymbolTableRecord
100
AcDbBlockTableRecord
  2
*D25
 70
    0
280
    1
281
    0
  0
BLOCK_RECORD
  5
B1
330
1
100
AcDbSymbolTableRecord
100
AcDbBlockTableRecord
  2
*D14
 70
    0
280
    1
281
    0
  0
BLOCK_RECORD
  5
B4
330
1
100
AcDbSymbolTableRecord
100
AcDbBlockTableRecord
  2
*D49
 70
    0
280
    1
281
    0
  0
BLOCK_RECORD
  5
B7
330
1
100
AcDbSymbolTableRecord
100
AcDbBlockTableRecord
  2
*D10
 70
    0
280
    1
281
    0
  0
BLOCK_RECORD
  5
BA
330
1
100
AcDbSymbolTableRecord
100
AcDbBlockTableRecord
  2
*D29
 70
    0
280
    1
281
    0
  0
BLOCK_RECORD
  5
BD
330
1
100
AcDbSymbolTableRecord
100
AcDbBlockTableRecord
  2
*D26
 70
    0
280
    1
281
    0
  0
BLOCK_RECORD
  5
C0
330
1
100
AcDbSymbolTableRecord
100
AcDbBlockTableRecord
  2
*D48
 70
    0
280
    1
281
    0
  0
BLOCK_RECORD
  5
C3
330
1
100
AcDbSymbolTableRecord
100
AcDbBlockTableRecord
  2
*D16
 70
    0
280
    1
281
    0
  0
BLOCK_RECORD
  5
C6
330
1
100
AcDbSymbolTableRecord
100
AcDbBlockTableRecord
  2
*D41
 70
    0
280
    1
281
    0
  0
BLOCK_RECORD
  5
C9
330
1
100
AcDbSymbolTableRecord
100
AcDbBlockTableRecord
  2
*D44
 70
    0
280
    1
281
    0
  0
BLOCK_RECORD
  5
CC
330
1
100
AcDbSymbolTableRecord
100
AcDbBlockTableRecord
  2
*D53
 70
    0
280
    1
281
    0
  0
BLOCK_RECORD
  5
CF
330
1
100
AcDbSymbolTableRecord
100
AcDbBlockTableRecord
  2
*D23
 70
    0
280
    1
281
    0
  0
BLOCK_RECORD
  5
D2
330
1
100
AcDbSymbolTableRecord
100
AcDbBlockTableRecord
  2
*D7
 70
    0
280
    1
281
    0
  0
BLOCK_RECORD
  5
D5
330
1
100
AcDbSymbolTableRecord
100
AcDbBlockTableRecord
  2
*D32
 70
    0
280
    1
281
    0
  0
BLOCK_RECORD
  5
D8
330
1
100
AcDbSymbolTableRecord
100
AcDbBlockTableRecord
  2
*D71
 70
    0
280
    1
281
    0
  0
BLOCK_RECORD
  5
DB
330
1
100
AcDbSymbolTableRecord
100
AcDbBlockTableRecord
  2
*D50
 70
    0
280
    1
281
    0
  0
BLOCK_RECORD
  5
DE
330
1
100
AcDbSymbolTableRecord
100
AcDbBlockTableRecord
  2
*D38
 70
    0
280
    1
281
    0
  0
BLOCK_RECORD
  5
E1
330
1
100
AcDbSymbolTableRecord
100
AcDbBlockTableRecord
  2
*D69
 70
    0
280
    1
281
    0
  0
BLOCK_RECORD
  5
E4
330
1
100
AcDbSymbolTableRecord
100
AcDbBlockTableRecord
  2
*D46
 70
    0
280
    1
281
    0
  0
BLOCK_RECORD
  5
E7
330
1
100
AcDbSymbolTableRecord
100
AcDbBlockTableRecord
  2
*D68
 70
    0
280
    1
281
    0
  0
BLOCK_RECORD
  5
EA
330
1
100
AcDbSymbolTableRecord
100
AcDbBlockTableRecord
  2
*D56
 70
    0
280
    1
281
    0
  0
BLOCK_RECORD
  5
ED
330
1
100
AcDbSymbolTableRecord
100
AcDbBlockTableRecord
  2
*D55
 70
    0
280
    1
281
    0
  0
BLOCK_RECORD
  5
F0
330
1
100
AcDbSymbolTableRecord
100
AcDbBlockTableRecord
  2
*D28
 70
    0
280
    1
281
    0
  0
BLOCK_RECORD
  5
F3
330
1
100
AcDbSymbolTableRecord
100
AcDbBlockTableRecord
  2
*D58
 70
    0
280
    1
281
    0
  0
BLOCK_RECORD
  5
F6
330
1
100
AcDbSymbolTableRecord
100
AcDbBlockTableRecord
  2
*D70
 70
    0
280
    1
281
    0
  0
BLOCK_RECORD
  5
F9
330
1
100
AcDbSymbolTableRecord
100
AcDbBlockTableRecord
  2
*D15
 70
    0
280
    1
281
    0
  0
BLOCK_RECORD
  5
FC
330
1
100
AcDbSymbolTableRecord
100
AcDbBlockTableRecord
  2
*D51
 70
    0
280
    1
281
    0
  0
BLOCK_RECORD
  5
FF
330
1
100
AcDbSymbolTableRecord
100
AcDbBlockTableRecord
  2
*D22
 70
    0
280
    1
281
    0
  0
BLOCK_RECORD
  5
102
330
1
100
AcDbSymbolTableRecord
100
AcDbBlockTableRecord
  2
*D60
 70
    0
280
    1
281
    0
  0
BLOCK_RECORD
  5
105
330
1
100
AcDbSymbolTableRecord
100
AcDbBlockTableRecord
  2
*D24
 70
    0
280
    1
281
    0
  0
BLOCK_RECORD
  5
108
330
1
100
AcDbSymbolTableRecord
100
AcDbBlockTableRecord
  2
*D67
 70
    0
280
    1
281
    0
  0
BLOCK_RECORD
  5
10B
330
1
100
AcDbSymbolTableRecord
100
AcDbBlockTableRecord
  2
*D19
 70
    0
280
    1
281
    0
  0
BLOCK_RECORD
  5
10E
330
1
100
AcDbSymbolTableRecord
100
AcDbBlockTableRecord
  2
*D13
 70
    0
280
    1
281
    0
  0
BLOCK_RECORD
  5
111
330
1
100
AcDbSymbolTableRecord
100
AcDbBlockTableRecord
  2
*D57
 70
    0
280
    1
281
    0
  0
BLOCK_RECORD
  5
114
330
1
100
AcDbSymbolTableRecord
100
AcDbBlockTableRecord
  2
*D59
 70
    0
280
    1
281
    0
  0
BLOCK_RECORD
  5
117
330
1
100
AcDbSymbolTableRecord
100
AcDbBlockTableRecord
  2
*D4
 70
    0
280
    1
281
    0
  0
BLOCK_RECORD
  5
11A
330
1
100
AcDbSymbolTableRecord
100
AcDbBlockTableRecord
  2
*D35
 70
    0
280
    1
281
    0
  0
BLOCK_RECORD
  5
11D
330
1
100
AcDbSymbolTableRecord
100
AcDbBlockTableRecord
  2
*D21
 70
    0
280
    1
281
    0
  0
BLOCK_RECORD
  5
120
330
1
100
AcDbSymbolTableRecord
100
AcDbBlockTableRecord
  2
*D65
 70
    0
280
    1
281
    0
  0
BLOCK_RECORD
  5
123
330
1
100
AcDbSymbolTableRecord
100
AcDbBlockTableRecord
  2
*D63
 70
    0
280
    1
281
    0
  0
BLOCK_RECORD
  5
126
330
1
100
AcDbSymbolTableRecord
100
AcDbBlockTableRecord
  2
*D54
 70
    0
280
    1
281
    0
  0
BLOCK_RECORD
  5
129
330
1
100
AcDbSymbolTableRecord
100
AcDbBlockTableRecord
  2
*D1
 70
    0
280
    1
281
    0
  0
ENDTAB
  0
ENDSEC
  0
SECTION
  2
BLOCKS
  0
BLOCK
  5
20
330
1F
100
AcDbEntity
  8
0
100
AcDbBlockBegin
  2
*Model_Space
 70
    0
 10
0
 20
0
 30
0
  3
*Model_Space
  1

  0
ENDBLK
  5
21
330
1F
100
AcDbEntity
  8
0
100
AcDbBlockEnd
  0
BLOCK
  5
1C
330
1B
100
AcDbEntity
  8
0
100
AcDbBlockBegin
  2
*Paper_Space
 70
    0
 10
0
 20
0
 30
0
  3
*Paper_Space
  1

  0
ENDBLK
  5
1D
330
1F
100
AcDbEntity
  8
0
100
AcDbBlockEnd
  0
BLOCK
  5
58
330
57
100
AcDbEntity
  8
0
100
AcDbBlockBegin
  2
*D3
 70
    1
 10
0
 20
0
  3
*D3
  1

  0
LINE
  5
12C
100
AcDbEntity
  8
0
  6
CONTINUOUS
 62
    7
370
    0
100
AcDbLine
 10
0.1416000000000001
 20
-0.4278190189966924
 11
0.1416000000000001
 21
-0.3608000000000005
  0
SOLID
  5
12D
100
AcDbEntity
  8
0
  6
CONTINUOUS
 62
    7
370
    0
100
AcDbTrace
 10
0.1416000000000001
 20
-0.4278190189966924
 30
0
 11
0.1391022920533631
 21
-0.4128190189966924
 31
0
 12
0.1440977079466371
 22
-0.4128190189966924
 32
0
 13
0.1440977079466371
 23
-0.4128190189966924
 33
0
  0
ENDBLK
  5
59
330
57
100
AcDbEntity
  8
0
100
AcDbBlockEnd
  0
BLOCK
  5
5B
330
5A
100
AcDbEntity
  8
0
100
AcDbBlockBegin
  2
*D37
 70
    1
 10
0
 20
0
  3
*D37
  1

  0
LINE
  5
12E
100
AcDbEntity
  8
0
  6
CONTINUOUS
 62
    7
370
    0
100
AcDbLine
 10
0.424092
 20
-0.8170651760412291
 11
0.4248
 21
-0.7508000000000008
  0
SOLID
  5
12F
100
AcDbEntity
  8
0
  6
CONTINUOUS
 62
    7
370
    0
100
AcDbTrace
 10
0.424092
 20
-0.8170651760412291
 30
0
 11
0.421754690632074
 21
-0.8020393472818794
 31
0
 12
0.4267498214233389
 22
-0.8020927169823993
 32
0
 13
0.4267498214233389
 23
-0.8020927169823993
 33
0
  0
ENDBLK
  5
5C
330
5A
100
AcDbEntity
  8
0
100
AcDbBlockEnd
  0
BLOCK
  5
5E
330
5D
100
AcDbEntity
  8
0
100
AcDbBlockBegin
  2
*D62
 70
    1
 10
0
 20
0
  3
*D62
  1

  0
LINE
  5
130
100
AcDbEntity
  8
axis
  6
CONTINUOUS
 62
    7
370
    0
100
AcDbLine
 10
0.708
 20
-0.3628000000000005
 11
5.551115123125782e-17
 21
-0.3628000000000005
  0
SOLID
  5
131
100
AcDbEntity
  8
axis
  6
CONTINUOUS
 62
    7
370
    0
100
AcDbTrace
 10
0.708
 20
-0.3628000000000005
 30
0
 11
0.6929999999999999
 21
-0.3652977079466376
 31
0
 12
0.6929999999999999
 22
-0.3603022920533634
 32
0
 13
0.6929999999999999
 23
-0.3603022920533634
 33
0
  0
ENDBLK
  5
5F
330
5D
100
AcDbEntity
  8
0
100
AcDbBlockEnd
  0
BLOCK
  5
61
330
60
100
AcDbEntity
  8
0
100
AcDbBlockBegin
  2
*D18
 70
    1
 10
0
 20
0
  3
*D18
  1

  0
LINE
  5
132
100
AcDbEntity
  8
0
  6
CONTINUOUS
 62
    7
370
    0
100
AcDbLine
 10
0.2006652033722736
 20
-0.5164048244897963
 11
0.1406773537940423
 21
-0.4500000000000002
  0
SOLID
  5
133
100
AcDbEntity
  8
0
  6
CONTINUOUS
 62
    7
370
    0
100
AcDbTrace
 10
0.2006652033722736
 20
-0.5164048244897963
 30
0
 11
0.1887566246184136
 21
-0.5069483823972433
 31
0
 12
0.1924634777533911
 22
-0.5035997379278374
 32
0
 13
0.1924634777533911
 23
-0.5035997379278374
 33
0
  0
ENDBLK
  5
62
330
60
100
AcDbEntity
  8
0
100
AcDbBlockEnd
  0
BLOCK
  5
64
330
63
100
AcDbEntity
  8
0
100
AcDbBlockBegin
  2
*D12
 70
    1
 10
0
 20
0
  3
*D12
  1

  0
LINE
  5
134
100
AcDbEntity
  8
0
  6
CONTINUOUS
 62
    7
370
    0
100
AcDbLine
 10
0.4954773537940422
 20
-0.4283571760412288
 11
0.4954773537940422
 21
-0.3628000000000005
  0
SOLID
  5
135
100
AcDbEntity
  8
0
  6
CONTINUOUS
 62
    7
370
    0
100
AcDbTrace
 10
0.4954773537940422
 20
-0.4283571760412288
 30
0
 11
0.4929796458474051
 21
-0.4133571760412288
 31
0
 12
0.4979750617406792
 22
-0.4133571760412288
 32
0
 13
0.4979750617406792
 23
-0.4133571760412288
 33
0
  0
ENDBLK
  5
65
330
63
100
AcDbEntity
  8
0
100
AcDbBlockEnd
  0
BLOCK
  5
67
330
66
100
AcDbEntity
  8
0
100
AcDbBlockBegin
  2
*D47
 70
    1
 10
0
 20
0
  3
*D47
  1

  0
LINE
  5
136
100
AcDbEntity
  8
0
  6
CONTINUOUS
 62
    7
370
    0
100
AcDbLine
 10
0.4955999999999999
 20
-0.9470275456638896
 11
0.4955999999999999
 21
-0.8380000000000003
  0
SOLID
  5
137
100
AcDbEntity
  8
0
  6
CONTINUOUS
 62
    7
370
    0
100
AcDbTrace
 10
0.4955999999999999
 20
-0.9470275456638896
 30
0
 11
0.4931022920533628
 21
-0.9320275456638896
 31
0
 12
0.4980977079466369
 22
-0.9320275456638896
 32
0
 13
0.4980977079466369
 23
-0.9320275456638896
 33
0
  0
ENDBLK
  5
68
330
66
100
AcDbEntity
  8
0
100
AcDbBlockEnd
  0
BLOCK
  5
6A
330
69
100
AcDbEntity
  8
0
100
AcDbBlockBegin
  2
*D43
 70
    1
 10
0
 20
0
  3
*D43
  1

  0
LINE
  5
138
100
AcDbEntity
  8
0
  6
CONTINUOUS
 62
    7
370
    0
100
AcDbLine
 10
0.6364919999999997
 20
-0.8073320397401793
 11
0.5663999999999999
 21
-0.7508000000000008
  0
SOLID
  5
139
100
AcDbEntity
  8
0
  6
CONTINUOUS
 62
    7
370
    0
100
AcDbTrace
 10
0.6364919999999997
 20
-0.8073320397401793
 30
0
 11
0.6232482647555454
 21
-0.7998592877864816
 31
0
 12
0.6263843588457865
 22
-0.795970959893424
 32
0
 13
0.6263843588457865
 23
-0.795970959893424
 33
0
  0
ENDBLK
  5
6B
330
69
100
AcDbEntity
  8
0
100
AcDbBlockEnd
  0
BLOCK
  5
6D
330
6C
100
AcDbEntity
  8
0
100
AcDbBlockBegin
  2
*D9
 70
    1
 10
0
 20
0
  3
*D9
  1

  0
LINE
  5
13A
100
AcDbEntity
  8
0
  6
CONTINUOUS
 62
    7
370
    0
100
AcDbLine
 10
0.3531693537940425
 20
-0.4131261605322449
 11
0.2830773537940425
 21
-0.3628000000000005
  0
SOLID
  5
13B
100
AcDbEntity
  8
0
  6
CONTINUOUS
 62
    7
370
    0
100
AcDbTrace
 10
0.3531693537940425
 20
-0.4131261605322449
 30
0
 11
0.3395280515609463
 21
-0.4064065311993116
 31
0
 12
0.3424415532993998
 22
-0.4023487377636124
 32
0
 13
0.3424415532993998
 23
-0.4023487377636124
 33
0
  0
ENDBLK
  5
6E
330
6C
100
AcDbEntity
  8
0
100
AcDbBlockEnd
  0
BLOCK
  5
70
330
6F
100
AcDbEntity
  8
0
100
AcDbBlockBegin
  2
*D6
 70
    1
 10
0
 20
0
  3
*D6
  1

  0
LINE
  5
13C
100
AcDbEntity
  8
0
  6
CONTINUOUS
 62
    7
370
    0
100
AcDbLine
 10
0.2830773537940425
 20
-0.439292
 11
0.2830773537940425
 21
-0.3628000000000005
  0
SOLID
  5
13D
100
AcDbEntity
  8
0
  6
CONTINUOUS
 62
    7
370
    0
100
AcDbTrace
 10
0.2830773537940425
 20
-0.439292
 30
0
 11
0.2805796458474054
 21
-0.424292
 31
0
 12
0.2855750617406795
 22
-0.424292
 32
0
 13
0.2855750617406795
 23
-0.424292
 33
0
  0
ENDBLK
  5
71
330
6F
100
AcDbEntity
  8
0
100
AcDbBlockEnd
  0
BLOCK
  5
73
330
72
100
AcDbEntity
  8
0
100
AcDbBlockBegin
  2
*D34
 70
    1
 10
0
 20
0
  3
*D34
  1

  0
LINE
  5
13E
100
AcDbEntity
  8
0
  6
CONTINUOUS
 62
    7
370
    0
100
AcDbLine
 10
0.2824920000000001
 20
-0.8011261605322453
 11
0.2124000000000001
 21
-0.7508000000000008
  0
SOLID
  5
13F
100
AcDbEntity
  8
0
  6
CONTINUOUS
 62
    7
370
    0
100
AcDbTrace
 10
0.2824920000000001
 20
-0.8011261605322453
 30
0
 11
0.2688506977669038
 21
-0.794406531199312
 31
0
 12
0.2717641995053574
 22
-0.7903487377636128
 32
0
 13
0.2717641995053574
 23
-0.7903487377636128
 33
0
  0
ENDBLK
  5
74
330
72
100
AcDbEntity
  8
0
100
AcDbBlockEnd
  0
BLOCK
  5
76
330
75
100
AcDbEntity
  8
0
100
AcDbBlockBegin
  2
*D20
 70
    1
 10
0
 20
0
  3
*D20
  1

  0
LINE
  5
140
100
AcDbEntity
  8
0
  6
CONTINUOUS
 62
    7
370
    0
100
AcDbLine
 10
0.3473739017330107
 20
-0.525860582804258
 11
0.2830773537940425
 21
-0.45
  0
SOLID
  5
141
100
AcDbEntity
  8
0
  6
CONTINUOUS
 62
    7
370
    0
100
AcDbTrace
 10
0.3473739017330107
 20
-0.525860582804258
 30
0
 11
0.3357699888515175
 21
-0.516032676067551
 31
0
 12
0.3395807734582484
 22
-0.512802799811736
 32
0
 13
0.3395807734582484
 23
-0.512802799811736
 33
0
  0
ENDBLK
  5
77
330
75
100
AcDbEntity
  8
0
100
AcDbBlockEnd
  0
BLOCK
  5
79
330
78
100
AcDbEntity
  8
0
100
AcDbBlockBegin
  2
*D61
 70
    1
 10
0
 20
0
  3
*D61
  1

  0
LINE
  5
142
100
AcDbEntity
  8
axis
  6
CONTINUOUS
 62
    7
370
    0
100
AcDbLine
 10
-6.938893903907228e-18
 20
-0.3024000000000002
 11
-6.938893903907228e-18
 21
-0.3624000000000002
  0
SOLID
  5
143
100
AcDbEntity
  8
axis
  6
CONTINUOUS
 62
    7
370
    0
100
AcDbTrace
 10
-6.938893903907228e-18
 20
-0.3024000000000002
 30
0
 11
0.002497707946637035
 21
-0.3174000000000002
 31
0
 12
-0.00249770794663705
 22
-0.3174000000000002
 32
0
 13
-0.00249770794663705
 23
-0.3174000000000002
 33
0
  0
ENDBLK
  5
7A
330
78
100
AcDbEntity
  8
0
100
AcDbBlockEnd
  0
BLOCK
  5
7C
330
7B
100
AcDbEntity
  8
0
100
AcDbBlockBegin
  2
*D40
 70
    1
 10
0
 20
0
  3
*D40
  1

  0
LINE
  5
144
100
AcDbEntity
  8
0
  6
CONTINUOUS
 62
    7
370
    0
100
AcDbLine
 10
0.4948919999999999
 20
-0.8073320397401793
 11
0.4248
 21
-0.7508000000000008
  0
SOLID
  5
145
100
AcDbEntity
  8
0
  6
CONTINUOUS
 62
    7
370
    0
100
AcDbTrace
 10
0.4948919999999999
 20
-0.8073320397401793
 30
0
 11
0.4816482647555456
 21
-0.7998592877864816
 31
0
 12
0.4847843588457866
 22
-0.795970959893424
 32
0
 13
0.4847843588457866
 23
-0.795970959893424
 33
0
  0
ENDBLK
  5
7D
330
7B
100
AcDbEntity
  8
0
100
AcDbBlockEnd
  0
BLOCK
  5
7F
330
7E
100
AcDbEntity
  8
0
100
AcDbBlockBegin
  2
*D36
 70
    1
 10
0
 20
0
  3
*D36
  1

  0
LINE
  5
146
100
AcDbEntity
  8
0
  6
CONTINUOUS
 62
    7
370
    0
100
AcDbLine
 10
0.354708
 20
-0.8087195456638898
 11
0.2832000000000002
 21
-0.7508000000000008
  0
SOLID
  5
147
100
AcDbEntity
  8
0
  6
CONTINUOUS
 62
    7
370
    0
100
AcDbTrace
 10
0.354708
 20
-0.8087195456638898
 30
0
 11
0.3414798076254257
 21
-0.8012193142349306
 31
0
 12
0.3446239675912157
 22
-0.7973375056285851
 32
0
 13
0.3446239675912157
 23
-0.7973375056285851
 33
0
  0
ENDBLK
  5
80
330
7E
100
AcDbEntity
  8
0
100
AcDbBlockEnd
  0
BLOCK
  5
82
330
81
100
AcDbEntity
  8
0
100
AcDbBlockBegin
  2
*D45
 70
    1
 10
0
 20
0
  3
*D45
  1

  0
LINE
  5
148
100
AcDbEntity
  8
0
  6
CONTINUOUS
 62
    7
370
    0
100
AcDbLine
 10
0.3540000000000001
 20
-0.9210866406498491
 11
0.354
 21
-0.8380000000000003
  0
SOLID
  5
149
100
AcDbEntity
  8
0
  6
CONTINUOUS
 62
    7
370
    0
100
AcDbTrace
 10
0.3540000000000001
 20
-0.9210866406498491
 30
0
 11
0.351502292053363
 21
-0.9060866406498491
 31
0
 12
0.3564977079466371
 22
-0.9060866406498491
 32
0
 13
0.3564977079466371
 23
-0.9060866406498491
 33
0
  0
ENDBLK
  5
83
330
81
100
AcDbEntity
  8
0
100
AcDbBlockEnd
  0
BLOCK
  5
85
330
84
100
AcDbEntity
  8
0
100
AcDbBlockBegin
  2
*D31
 70
    1
 10
0
 20
0
  3
*D31
  1

  0
LINE
  5
14A
100
AcDbEntity
  8
0
  6
CONTINUOUS
 62
    7
370
    0
100
AcDbLine
 10
0.2142452924119153
 20
-0.917235018996693
 11
0.2124000000000002
 21
-0.8380000000000003
  0
SOLID
  5
14B
100
AcDbEntity
  8
0
  6
CONTINUOUS
 62
    7
370
    0
100
AcDbTrace
 10
0.2142452924119153
 20
-0.917235018996693
 30
0
 11
0.2113990234882006
 21
-0.9022972380972224
 31
0
 12
0.2163930852491757
 22
-0.9021809321457775
 32
0
 13
0.2163930852491757
 23
-0.9021809321457775
 33
0
  0
ENDBLK
  5
86
330
84
100
AcDbEntity
  8
0
100
AcDbBlockEnd
  0
BLOCK
  5
88
330
87
100
AcDbEntity
  8
0
100
AcDbBlockBegin
  2
*D52
 70
    1
 10
0
 20
0
  3
*D52
  1

  0
LINE
  5
14C
100
AcDbEntity
  8
axis
  6
CONTINUOUS
 62
    7
370
    0
100
AcDbLine
 10
2.60208521396521e-17
 20
0.42
 11
-1.040834085586084e-17
 21
0.3
  0
SOLID
  5
14D
100
AcDbEntity
  8
axis
  6
CONTINUOUS
 62
    7
370
    0
100
AcDbTrace
 10
2.60208521396521e-17
 20
0.42
 30
0
 11
0.002497707946637065
 21
0.405
 31
0
 12
-0.002497707946637021
 22
0.405
 32
0
 13
-0.002497707946637021
 23
0.405
 33
0
  0
ENDBLK
  5
89
330
87
100
AcDbEntity
  8
0
100
AcDbBlockEnd
  0
BLOCK
  5
8B
330
8A
100
AcDbEntity
  8
0
100
AcDbBlockBegin
  2
*D11
 70
    1
 10
0
 20
0
  3
*D11
  1

  0
LINE
  5
14E
100
AcDbEntity
  8
0
  6
CONTINUOUS
 62
    7
370
    0
100
AcDbLine
 10
0.4246773537940423
 20
-0.4200115456638895
 11
0.3538773537940424
 21
-0.3628000000000005
  0
SOLID
  5
14F
100
AcDbEntity
  8
0
  6
CONTINUOUS
 62
    7
370
    0
100
AcDbTrace
 10
0.4246773537940423
 20
-0.4200115456638895
 30
0
 11
0.411440555872562
 21
-0.4125265122122216
 31
0
 12
0.4145802553749087
 22
-0.4086410949911578
 32
0
 13
0.4145802553749087
 23
-0.4086410949911578
 33
0
  0
ENDBLK
  5
8C
330
8A
100
AcDbEntity
  8
0
100
AcDbBlockEnd
  0
BLOCK
  5
8E
330
8D
100
AcDbEntity
  8
0
100
AcDbBlockBegin
  2
*D2
 70
    1
 10
0
 20
0
  3
*D2
  1

  0
LINE
  5
150
100
AcDbEntity
  8
0
  6
CONTINUOUS
 62
    7
370
    0
100
AcDbLine
 10
0.1398773537940424
 20
-0.4300000000000002
 11
0.07067735379404239
 21
-0.3628000000000005
  0
SOLID
  5
151
100
AcDbEntity
  8
0
  6
CONTINUOUS
 62
    7
370
    0
100
AcDbTrace
 10
0.1398773537940424
 20
-0.4300000000000002
 30
0
 11
0.1273763241688216
 21
-0.4213418937811989
 31
0
 12
0.1308564493901855
 22
-0.4177581934044372
 32
0
 13
0.1308564493901855
 23
-0.4177581934044372
 33
0
  0
ENDBLK
  5
8F
330
8D
100
AcDbEntity
  8
0
100
AcDbBlockEnd
  0
BLOCK
  5
91
330
90
100
AcDbEntity
  8
0
100
AcDbBlockBegin
  2
*D30
 70
    1
 10
0
 20
0
  3
*D30
  1

  0
LINE
  5
152
100
AcDbEntity
  8
0
  6
CONTINUOUS
 62
    7
370
    0
100
AcDbLine
 10
0.2116920000000002
 20
-0.8280000000000003
 11
0.1417226462059578
 21
-0.7508000000000008
  0
SOLID
  5
153
100
AcDbEntity
  8
0
  6
CONTINUOUS
 62
    7
370
    0
100
AcDbTrace
 10
0.2116920000000002
 20
-0.8280000000000003
 30
0
 11
0.1997679796282442
 21
-0.8185630363378554
 31
0
 12
0.2034693541071577
 22
-0.8152083371093667
 32
0
 13
0.2034693541071577
 23
-0.8152083371093667
 33
0
  0
ENDBLK
  5
92
330
90
100
AcDbEntity
  8
0
100
AcDbBlockEnd
  0
BLOCK
  5
94
330
93
100
AcDbEntity
  8
0
100
AcDbBlockBegin
  2
*D27
 70
    1
 10
0
 20
0
  3
*D27
  1

  0
LINE
  5
154
100
AcDbEntity
  8
0
  6
CONTINUOUS
 62
    7
370
    0
100
AcDbLine
 10
0.1416000000000001
 20
-0.8072920000000006
 11
0.1417226462059578
 21
-0.7508000000000008
  0
SOLID
  5
155
100
AcDbEntity
  8
0
  6
CONTINUOUS
 62
    7
370
    0
100
AcDbTrace
 10
0.1416000000000001
 20
-0.8072920000000006
 30
0
 11
0.1391348634136303
 21
-0.792286612747509
 31
0
 12
0.1441302675342483
 22
-0.7922974579532482
 32
0
 13
0.1441302675342483
 23
-0.7922974579532482
 33
0
  0
ENDBLK
  5
95
330
93
100
AcDbEntity
  8
0
100
AcDbBlockEnd
  0
BLOCK
  5
97
330
96
100
AcDbEntity
  8
0
100
AcDbBlockBegin
  2
*D17
 70
    1
 10
0
 20
0
  3
*D17
  1

  0
LINE
  5
156
100
AcDbEntity
  8
0
  6
CONTINUOUS
 62
    7
370
    0
100
AcDbLine
 10
0.6363693537940421
 20
-0.4163434237663375
 11
0.5662773537940422
 21
-0.3628000000000005
  0
SOLID
  5
157
100
AcDbEntity
  8
0
  6
CONTINUOUS
 62
    7
370
    0
100
AcDbTrace
 10
0.6363693537940421
 20
-0.4163434237663375
 30
0
 11
0.6229331384343941
 21
-0.4092225627372307
 31
0
 12
0.6259655904996994
 22
-0.4052528757951153
 32
0
 13
0.6259655904996994
 23
-0.4052528757951153
 33
0
  0
ENDBLK
  5
98
330
96
100
AcDbEntity
  8
0
100
AcDbBlockEnd
  0
BLOCK
  5
9A
330
99
100
AcDbEntity
  8
0
100
AcDbBlockBegin
  2
*D64
 70
    1
 10
0
 20
0
  3
*D64
  1

  0
LINE
  5
158
100
AcDbEntity
  8
axis
  6
CONTINUOUS
 62
    7
370
    0
100
AcDbLine
 10
-1.040834085586084e-17
 20
-0.48
 11
5.551115123125782e-17
 21
-0.5880000000000005
  0
SOLID
  5
159
100
AcDbEntity
  8
axis
  6
CONTINUOUS
 62
    7
370
    0
100
AcDbTrace
 10
-1.040834085586084e-17
 20
-0.48
 30
0
 11
0.002497707946637041
 21
-0.4950000000000001
 31
0
 12
-0.002497707946637044
 22
-0.4950000000000001
 32
0
 13
-0.002497707946637044
 23
-0.4950000000000001
 33
0
  0
ENDBLK
  5
9B
330
99
100
AcDbEntity
  8
0
100
AcDbBlockEnd
  0
BLOCK
  5
9D
330
9C
100
AcDbEntity
  8
0
100
AcDbBlockBegin
  2
*D42
 70
    1
 10
0
 20
0
  3
*D42
  1

  0
LINE
  5
15A
100
AcDbEntity
  8
0
  6
CONTINUOUS
 62
    7
370
    0
100
AcDbLine
 10
0.5656919999999999
 20
-0.8043434237663378
 11
0.4955999999999999
 21
-0.7508000000000008
  0
SOLID
  5
15B
100
AcDbEntity
  8
0
  6
CONTINUOUS
 62
    7
370
    0
100
AcDbTrace
 10
0.5656919999999999
 20
-0.8043434237663378
 30
0
 11
0.5522557846403519
 21
-0.797222562737231
 31
0
 12
0.5552882367056571
 22
-0.7932528757951156
 32
0
 13
0.5552882367056571
 23
-0.7932528757951156
 33
0
  0
ENDBLK
  5
9E
330
9C
100
AcDbEntity
  8
0
100
AcDbBlockEnd
  0
BLOCK
  5
A0
330
9F
100
AcDbEntity
  8
0
100
AcDbBlockBegin
  2
*D8
 70
    1
 10
0
 20
0
  3
*D8
  1

  0
LINE
  5
15C
100
AcDbEntity
  8
0
  6
CONTINUOUS
 62
    7
370
    0
100
AcDbLine
 10
0.3538773537940424
 20
-0.412418160532245
 11
0.3538773537940424
 21
-0.3628000000000005
  0
SOLID
  5
15D
100
AcDbEntity
  8
0
  6
CONTINUOUS
 62
    7
370
    0
100
AcDbTrace
 10
0.3538773537940424
 20
-0.412418160532245
 30
0
 11
0.3513796458474053
 21
-0.397418160532245
 31
0
 12
0.3563750617406795
 22
-0.397418160532245
 32
0
 13
0.3563750617406795
 23
-0.397418160532245
 33
0
  0
ENDBLK
  5
A1
330
9F
100
AcDbEntity
  8
0
100
AcDbBlockEnd
  0
BLOCK
  5
A3
330
A2
100
AcDbEntity
  8
0
100
AcDbBlockBegin
  2
*D5
 70
    1
 10
0
 20
0
  3
*D5
  1

  0
LINE
  5
15E
100
AcDbEntity
  8
0
  6
CONTINUOUS
 62
    7
370
    0
100
AcDbLine
 10
0.2122773537940424
 20
-0.4192920000000002
 11
0.1416000000000001
 21
-0.3628000000000005
  0
SOLID
  5
15F
100
AcDbEntity
  8
0
  6
CONTINUOUS
 62
    7
370
    0
100
AcDbTrace
 10
0.2122773537940424
 20
-0.4192920000000002
 30
0
 11
0.1990008227317187
 21
-0.4118776714438971
 31
0
 12
0.2021197547127484
 22
-0.4079755639050811
 32
0
 13
0.2021197547127484
 23
-0.4079755639050811
 33
0
  0
ENDBLK
  5
A4
330
A2
100
AcDbEntity
  8
0
100
AcDbBlockEnd
  0
BLOCK
  5
A6
330
A5
100
AcDbEntity
  8
0
100
AcDbBlockBegin
  2
*D33
 70
    1
 10
0
 20
0
  3
*D33
  1

  0
LINE
  5
160
100
AcDbEntity
  8
0
  6
CONTINUOUS
 62
    7
370
    0
100
AcDbLine
 10
0.2839080000000001
 20
-0.8011261605322453
 11
0.2832000000000002
 21
-0.7508000000000008
  0
SOLID
  5
161
100
AcDbEntity
  8
0
  6
CONTINUOUS
 62
    7
370
    0
100
AcDbTrace
 10
0.2839080000000001
 20
-0.8011261605322453
 30
0
 11
0.2811995366134092
 21
-0.786162779528268
 31
0
 12
0.2861944582459439
 22
-0.7860925098220468
 32
0
 13
0.2861944582459439
 23
-0.7860925098220468
 33
0
  0
ENDBLK
  5
A7
330
A5
100
AcDbEntity
  8
0
100
AcDbBlockEnd
  0
BLOCK
  5
A9
330
A8
100
AcDbEntity
  8
0
100
AcDbBlockBegin
  2
*D66
 70
    1
 10
0
 20
0
  3
*D66
  1

  0
LINE
  5
162
100
AcDbEntity
  8
axis
  6
CONTINUOUS
 62
    7
370
    0
100
AcDbLine
 10
0.708
 20
-0.8384000000000007
 11
8.326672684688673e-17
 21
-0.8384000000000007
  0
SOLID
  5
163
100
AcDbEntity
  8
axis
  6
CONTINUOUS
 62
    7
370
    0
100
AcDbTrace
 10
0.708
 20
-0.8384000000000007
 30
0
 11
0.6929999999999999
 21
-0.8408977079466378
 31
0
 12
0.6929999999999999
 22
-0.8359022920533636
 32
0
 13
0.6929999999999999
 23
-0.8359022920533636
 33
0
  0
ENDBLK
  5
AA
330
A8
100
AcDbEntity
  8
0
100
AcDbBlockEnd
  0
BLOCK
  5
AC
330
AB
100
AcDbEntity
  8
0
100
AcDbBlockBegin
  2
*D39
 70
    1
 10
0
 20
0
  3
*D39
  1

  0
LINE
  5
164
100
AcDbEntity
  8
0
  6
CONTINUOUS
 62
    7
370
    0
100
AcDbLine
 10
0.4955999999999999
 20
-0.8066240397401794
 11
0.4955999999999999
 21
-0.7508000000000008
  0
SOLID
  5
165
100
AcDbEntity
  8
0
  6
CONTINUOUS
 62
    7
370
    0
100
AcDbTrace
 10
0.4955999999999999
 20
-0.8066240397401794
 30
0
 11
0.4931022920533628
 21
-0.7916240397401794
 31
0
 12
0.4980977079466369
 22
-0.7916240397401794
 32
0
 13
0.4980977079466369
 23
-0.7916240397401794
 33
0
  0
ENDBLK
  5
AD
330
AB
100
AcDbEntity
  8
0
100
AcDbBlockEnd
  0
BLOCK
  5
AF
330
AE
100
AcDbEntity
  8
0
100
AcDbBlockBegin
  2
*D25
 70
    1
 10
0
 20
0
  3
*D25
  1

  0
LINE
  5
166
100
AcDbEntity
  8
0
  6
CONTINUOUS
 62
    7
370
    0
100
AcDbLine
 10
0.672515104413634
 20
-0.5053600355658838
 11
0.6370773537940422
 21
-0.45
  0
SOLID
  5
167
100
AcDbEntity
  8
0
  6
CONTINUOUS
 62
    7
370
    0
100
AcDbTrace
 10
0.672515104413634
 20
-0.5053600355658838
 30
0
 11
0.6623244911460404
 21
-0.4940733200907317
 31
0
 12
0.6665317342191679
 22
-0.4913801276226008
 32
0
 13
0.6665317342191679
 23
-0.4913801276226008
 33
0
  0
ENDBLK
  5
B0
330
AE
100
AcDbEntity
  8
0
100
AcDbBlockEnd
  0
BLOCK
  5
B2
330
B1
100
AcDbEntity
  8
0
100
AcDbBlockBegin
  2
*D14
 70
    1
 10
0
 20
0
  3
*D14
  1

  0
LINE
  5
168
100
AcDbEntity
  8
0
  6
CONTINUOUS
 62
    7
370
    0
100
AcDbLine
 10
0.5662773537940422
 20
-0.418624039740179
 11
0.5662773537940422
 21
-0.3628000000000005
  0
SOLID
  5
169
100
AcDbEntity
  8
0
  6
CONTINUOUS
 62
    7
370
    0
100
AcDbTrace
 10
0.5662773537940422
 20
-0.418624039740179
 30
0
 11
0.5637796458474051
 21
-0.403624039740179
 31
0
 12
0.5687750617406793
 22
-0.403624039740179
 32
0
 13
0.5687750617406793
 23
-0.403624039740179
 33
0
  0
ENDBLK
  5
B3
330
B1
100
AcDbEntity
  8
0
100
AcDbBlockEnd
  0
BLOCK
  5
B5
330
B4
100
AcDbEntity
  8
0
100
AcDbBlockBegin
  2
*D49
 70
    1
 10
0
 20
0
  3
*D49
  1

  0
LINE
  5
16A
100
AcDbEntity
  8
0
  6
CONTINUOUS
 62
    7
370
    0
100
AcDbLine
 10
0.6371999999999998
 20
-0.915640039740179
 11
0.6371999999999998
 21
-0.8380000000000003
  0
SOLID
  5
16B
100
AcDbEntity
  8
0
  6
CONTINUOUS
 62
    7
370
    0
100
AcDbTrace
 10
0.6371999999999998
 20
-0.915640039740179
 30
0
 11
0.6347022920533627
 21
-0.900640039740179
 31
0
 12
0.6396977079466368
 22
-0.900640039740179
 32
0
 13
0.6396977079466368
 23
-0.900640039740179
 33
0
  0
ENDBLK
  5
B6
330
B4
100
AcDbEntity
  8
0
100
AcDbBlockEnd
  0
BLOCK
  5
B8
330
B7
100
AcDbEntity
  8
0
100
AcDbBlockBegin
  2
*D10
 70
    1
 10
0
 20
0
  3
*D10
  1

  0
LINE
  5
16C
100
AcDbEntity
  8
0
  6
CONTINUOUS
 62
    7
370
    0
100
AcDbLine
 10
0.4246773537940423
 20
-0.4200115456638895
 11
0.4246773537940424
 21
-0.3628000000000005
  0
SOLID
  5
16D
100
AcDbEntity
  8
0
  6
CONTINUOUS
 62
    7
370
    0
100
AcDbTrace
 10
0.4246773537940423
 20
-0.4200115456638895
 30
0
 11
0.4221796458474053
 21
-0.4050115456638895
 31
0
 12
0.4271750617406794
 22
-0.4050115456638895
 32
0
 13
0.4271750617406794
 23
-0.4050115456638895
 33
0
  0
ENDBLK
  5
B9
330
B7
100
AcDbEntity
  8
0
100
AcDbBlockEnd
  0
BLOCK
  5
BB
330
BA
100
AcDbEntity
  8
0
100
AcDbBlockBegin
  2
*D29
 70
    1
 10
0
 20
0
  3
*D29
  1

  0
LINE
  5
16E
100
AcDbEntity
  8
0
  6
CONTINUOUS
 62
    7
370
    0
100
AcDbLine
 10
0.2124000000000002
 20
-0.8272920000000004
 11
0.2124000000000001
 21
-0.7508000000000008
  0
SOLID
  5
16F
100
AcDbEntity
  8
0
  6
CONTINUOUS
 62
    7
370
    0
100
AcDbTrace
 10
0.2124000000000002
 20
-0.8272920000000004
 30
0
 11
0.2099022920533631
 21
-0.8122920000000003
 31
0
 12
0.2148977079466372
 22
-0.8122920000000003
 32
0
 13
0.2148977079466372
 23
-0.8122920000000003
 33
0
  0
ENDBLK
  5
BC
330
BA
100
AcDbEntity
  8
0
100
AcDbBlockEnd
  0
BLOCK
  5
BE
330
BD
100
AcDbEntity
  8
0
100
AcDbBlockBegin
  2
*D26
 70
    1
 10
0
 20
0
  3
*D26
  1

  0
LINE
  5
170
100
AcDbEntity
  8
0
  6
CONTINUOUS
 62
    7
370
    0
100
AcDbLine
 10
0.1415999999999999
 20
-0.9416167104761911
 11
0.1416000000000001
 21
-0.8380000000000003
  0
SOLID
  5
171
100
AcDbEntity
  8
0
  6
CONTINUOUS
 62
    7
370
    0
100
AcDbTrace
 10
0.1415999999999999
 20
-0.9416167104761911
 30
0
 11
0.1391022920533629
 21
-0.9266167104761911
 31
0
 12
0.144097707946637
 22
-0.9266167104761911
 32
0
 13
0.144097707946637
 23
-0.9266167104761911
 33
0
  0
ENDBLK
  5
BF
330
BD
100
AcDbEntity
  8
0
100
AcDbBlockEnd
  0
BLOCK
  5
C1
330
C0
100
AcDbEntity
  8
0
100
AcDbBlockBegin
  2
*D48
 70
    1
 10
0
 20
0
  3
*D48
  1

  0
LINE
  5
172
100
AcDbEntity
  8
0
  6
CONTINUOUS
 62
    7
370
    0
100
AcDbLine
 10
0.5663999999999998
 20
-0.9253731760412288
 11
0.5663999999999999
 21
-0.8380000000000003
  0
SOLID
  5
173
100
AcDbEntity
  8
0
  6
CONTINUOUS
 62
    7
370
    0
100
AcDbTrace
 10
0.5663999999999998
 20
-0.9253731760412288
 30
0
 11
0.5639022920533627
 21
-0.9103731760412288
 31
0
 12
0.5688977079466369
 22
-0.9103731760412288
 32
0
 13
0.5688977079466369
 23
-0.9103731760412288
 33
0
  0
ENDBLK
  5
C2
330
C0
100
AcDbEntity
  8
0
100
AcDbBlockEnd
  0
BLOCK
  5
C4
330
C3
100
AcDbEntity
  8
0
100
AcDbBlockBegin
  2
*D16
 70
    1
 10
0
 20
0
  3
*D16
  1

  0
LINE
  5
174
100
AcDbEntity
  8
0
  6
CONTINUOUS
 62
    7
370
    0
100
AcDbLine
 10
0.6370773537940422
 20
-0.4156354237663376
 11
0.6370773537940422
 21
-0.3628000000000005
  0
SOLID
  5
175
100
AcDbEntity
  8
0
  6
CONTINUOUS
 62
    7
370
    0
100
AcDbTrace
 10
0.6370773537940422
 20
-0.4156354237663376
 30
0
 11
0.6345796458474051
 21
-0.4006354237663376
 31
0
 12
0.6395750617406792
 22
-0.4006354237663376
 32
0
 13
0.6395750617406792
 23
-0.4006354237663376
 33
0
  0
ENDBLK
  5
C5
330
C3
100
AcDbEntity
  8
0
100
AcDbBlockEnd
  0
BLOCK
  5
C7
330
C6
100
AcDbEntity
  8
0
100
AcDbBlockBegin
  2
*D41
 70
    1
 10
0
 20
0
  3
*D41
  1

  0
LINE
  5
176
100
AcDbEntity
  8
0
  6
CONTINUOUS
 62
    7
370
    0
100
AcDbLine
 10
0.5671079999999999
 20
-0.8043434237663378
 11
0.5663999999999999
 21
-0.7508000000000008
  0
SOLID
  5
177
100
AcDbEntity
  8
0
  6
CONTINUOUS
 62
    7
370
    0
100
AcDbTrace
 10
0.5671079999999999
 20
-0.8043434237663378
 30
0
 11
0.5644121840331645
 21
-0.7893777590213408
 31
0
 12
0.5694071632709249
 22
-0.7893117108486321
 32
0
 13
0.5694071632709249
 23
-0.7893117108486321
 33
0
  0
ENDBLK
  5
C8
330
C6
100
AcDbEntity
  8
0
100
AcDbBlockEnd
  0
BLOCK
  5
CA
330
C9
100
AcDbEntity
  8
0
100
AcDbBlockBegin
  2
*D44
 70
    1
 10
0
 20
0
  3
*D44
  1

  0
LINE
  5
178
100
AcDbEntity
  8
0
  6
CONTINUOUS
 62
    7
370
    0
100
AcDbLine
 10
0.6371999999999998
 20
-0.8066240397401794
 11
0.6371999999999999
 21
-0.7508000000000008
  0
SOLID
  5
179
100
AcDbEntity
  8
0
  6
CONTINUOUS
 62
    7
370
    0
100
AcDbTrace
 10
0.6371999999999998
 20
-0.8066240397401794
 30
0
 11
0.6347022920533627
 21
-0.7916240397401794
 31
0
 12
0.6396977079466368
 22
-0.7916240397401794
 32
0
 13
0.6396977079466368
 23
-0.7916240397401794
 33
0
  0
ENDBLK
  5
CB
330
C9
100
AcDbEntity
  8
0
100
AcDbBlockEnd
  0
BLOCK
  5
CD
330
CC
100
AcDbEntity
  8
0
100
AcDbBlockBegin
  2
*D53
 70
    1
 10
0
 20
0
  3
*D53
  1

  0
LINE
  5
17A
100
AcDbEntity
  8
axis
  6
CONTINUOUS
 62
    7
370
    0
100
AcDbLine
 10
4.510281037539697e-17
 20
0.27
 11
8.673617379884039e-18
 21
0.15
  0
SOLID
  5
17B
100
AcDbEntity
  8
axis
  6
CONTINUOUS
 62
    7
370
    0
100
AcDbTrace
 10
4.510281037539697e-17
 20
0.27
 30
0
 11
0.002497707946637084
 21
0.255
 31
0
 12
-0.002497707946637002
 22
0.255
 32
0
 13
-0.002497707946637002
 23
0.255
 33
0
  0
ENDBLK
  5
CE
330
CC
100
AcDbEntity
  8
0
100
AcDbBlockEnd
  0
BLOCK
  5
D0
330
CF
100
AcDbEntity
  8
0
100
AcDbBlockBegin
  2
*D23
 70
    1
 10
0
 20
0
  3
*D23
  1

  0
LINE
  5
17C
100
AcDbEntity
  8
0
  6
CONTINUOUS
 62
    7
370
    0
100
AcDbLine
 10
0.5531391098295978
 20
-0.5227751271918457
 11
0.4954773537940422
 21
-0.45
  0
SOLID
  5
17D
100
AcDbEntity
  8
0
  6
CONTINUOUS
 62
    7
370
    0
100
AcDbTrace
 10
0.5531391098295978
 20
-0.5227751271918457
 30
0
 11
0.5418661008146144
 21
-0.5125693536917725
 31
0
 12
0.5457814757145222
 22
-0.5094670933319786
 32
0
 13
0.5457814757145222
 23
-0.5094670933319786
 33
0
  0
ENDBLK
  5
D1
330
CF
100
AcDbEntity
  8
0
100
AcDbBlockEnd
  0
BLOCK
  5
D3
330
D2
100
AcDbEntity
  8
0
100
AcDbBlockBegin
  2
*D7
 70
    1
 10
0
 20
0
  3
*D7
  1

  0
LINE
  5
17E
100
AcDbEntity
  8
0
  6
CONTINUOUS
 62
    7
370
    0
100
AcDbLine
 10
0.2798773537940424
 20
-0.4400000000000002
 11
0.2122773537940424
 21
-0.3628000000000005
  0
SOLID
  5
17F
100
AcDbEntity
  8
0
  6
CONTINUOUS
 62
    7
370
    0
100
AcDbTrace
 10
0.2798773537940424
 20
-0.4400000000000002
 30
0
 11
0.2681165322262759
 21
-0.4303604138554682
 31
0
 12
0.2718747592830008
 22
-0.4270695310959527
 32
0
 13
0.2718747592830008
 23
-0.4270695310959527
 33
0
  0
ENDBLK
  5
D4
330
D2
100
AcDbEntity
  8
0
100
AcDbBlockEnd
  0
BLOCK
  5
D6
330
D5
100
AcDbEntity
  8
0
100
AcDbBlockBegin
  2
*D32
 70
    1
 10
0
 20
0
  3
*D32
  1

  0
LINE
  5
180
100
AcDbEntity
  8
0
  6
CONTINUOUS
 62
    7
370
    0
100
AcDbLine
 10
0.2831999999999999
 20
-0.9542843493082472
 11
0.2832000000000001
 21
-0.8380000000000003
  0
SOLID
  5
181
100
AcDbEntity
  8
0
  6
CONTINUOUS
 62
    7
370
    0
100
AcDbTrace
 10
0.2831999999999999
 20
-0.9542843493082472
 30
0
 11
0.2807022920533629
 21
-0.9392843493082472
 31
0
 12
0.285697707946637
 22
-0.9392843493082472
 32
0
 13
0.285697707946637
 23
-0.9392843493082472
 33
0
  0
ENDBLK
  5
D7
330
D5
100
AcDbEntity
  8
0
100
AcDbBlockEnd
  0
BLOCK
  5
D9
330
D8
100
AcDbEntity
  8
0
100
AcDbBlockBegin
  2
*D71
 70
    1
 10
0
 20
0
  3
*D71
  1

  0
LINE
  5
182
100
AcDbEntity
  8
axis
  6
CONTINUOUS
 62
    7
370
    0
100
AcDbLine
 10
3.642919299551294e-17
 20
0.12
 11
0
 21
0
  0
SOLID
  5
183
100
AcDbEntity
  8
axis
  6
CONTINUOUS
 62
    7
370
    0
100
AcDbTrace
 10
3.642919299551294e-17
 20
0.12
 30
0
 11
0.002497707946637075
 21
0.105
 31
0
 12
-0.002497707946637011
 22
0.105
 32
0
 13
-0.002497707946637011
 23
0.105
 33
0
  0
ENDBLK
  5
DA
330
D8
100
AcDbEntity
  8
0
100
AcDbBlockEnd
  0
BLOCK
  5
DC
330
DB
100
AcDbEntity
  8
0
100
AcDbBlockBegin
  2
*D50
 70
    1
 10
0
 20
0
  3
*D50
  1

  0
LINE
  5
184
100
AcDbEntity
  8
axis
  6
CONTINUOUS
 62
    7
370
    0
100
AcDbLine
 10
0.708
 20
0.4500000000000001
 11
-2.949029909160571e-17
 21
0.4500000000000001
  0
SOLID
  5
185
100
AcDbEntity
  8
axis
  6
CONTINUOUS
 62
    7
370
    0
100
AcDbTrace
 10
0.708
 20
0.4500000000000001
 30
0
 11
0.6929999999999999
 21
0.447502292053363
 31
0
 12
0.6929999999999999
 22
0.4524977079466371
 32
0
 13
0.6929999999999999
 23
0.4524977079466371
 33
0
  0
ENDBLK
  5
DD
330
DB
100
AcDbEntity
  8
0
100
AcDbBlockEnd
  0
BLOCK
  5
DF
330
DE
100
AcDbEntity
  8
0
100
AcDbBlockBegin
  2
*D38
 70
    1
 10
0
 20
0
  3
*D38
  1

  0
LINE
  5
186
100
AcDbEntity
  8
0
  6
CONTINUOUS
 62
    7
370
    0
100
AcDbLine
 10
0.424092
 20
-0.8170651760412291
 11
0.3540000000000001
 21
-0.7508000000000008
  0
SOLID
  5
187
100
AcDbEntity
  8
0
  6
CONTINUOUS
 62
    7
370
    0
100
AcDbTrace
 10
0.424092
 20
-0.8170651760412291
 30
0
 11
0.4114761146101605
 21
-0.8085753008467915
 31
0
 12
0.4149079230888107
 22
-0.8049453049084137
 32
0
 13
0.4149079230888107
 23
-0.8049453049084137
 33
0
  0
ENDBLK
  5
E0
330
DE
100
AcDbEntity
  8
0
100
AcDbBlockEnd
  0
BLOCK
  5
E2
330
E1
100
AcDbEntity
  8
0
100
AcDbBlockBegin
  2
*D69
 70
    1
 10
0
 20
0
  3
*D69
  1

  0
LINE
  5
188
100
AcDbEntity
  8
axis
  6
CONTINUOUS
 62
    7
370
    0
100
AcDbLine
 10
0.708
 20
-0.9760000000000009
 11
8.326672684688673e-17
 21
-0.9760000000000009
  0
SOLID
  5
189
100
AcDbEntity
  8
axis
  6
CONTINUOUS
 62
    7
370
    0
100
AcDbTrace
 10
0.708
 20
-0.9760000000000009
 30
0
 11
0.6929999999999999
 21
-0.9784977079466379
 31
0
 12
0.6929999999999999
 22
-0.9735022920533638
 32
0
 13
0.6929999999999999
 23
-0.9735022920533638
 33
0
  0
ENDBLK
  5
E3
330
E1
100
AcDbEntity
  8
0
100
AcDbBlockEnd
  0
BLOCK
  5
E5
330
E4
100
AcDbEntity
  8
0
100
AcDbBlockBegin
  2
*D46
 70
    1
 10
0
 20
0
  3
*D46
  1

  0
LINE
  5
18A
100
AcDbEntity
  8
0
  6
CONTINUOUS
 62
    7
370
    0
100
AcDbLine
 10
0.4248
 20
-0.9294341605322455
 11
0.4248
 21
-0.8380000000000003
  0
SOLID
  5
18B
100
AcDbEntity
  8
0
  6
CONTINUOUS
 62
    7
370
    0
100
AcDbTrace
 10
0.4248
 20
-0.9294341605322455
 30
0
 11
0.4223022920533629
 21
-0.9144341605322455
 31
0
 12
0.4272977079466371
 22
-0.9144341605322455
 32
0
 13
0.4272977079466371
 23
-0.9144341605322455
 33
0
  0
ENDBLK
  5
E6
330
E4
100
AcDbEntity
  8
0
100
AcDbBlockEnd
  0
BLOCK
  5
E8
330
E7
100
AcDbEntity
  8
0
100
AcDbBlockBegin
  2
*D68
 70
    1
 10
0
 20
0
  3
*D68
  1

  0
LINE
  5
18C
100
AcDbEntity
  8
axis
  6
CONTINUOUS
 62
    7
370
    0
100
AcDbLine
 10
0.708
 20
-0.7508000000000008
 11
8.326672684688673e-17
 21
-0.7508000000000008
  0
SOLID
  5
18D
100
AcDbEntity
  8
axis
  6
CONTINUOUS
 62
    7
370
    0
100
AcDbTrace
 10
0.708
 20
-0.7508000000000008
 30
0
 11
0.6929999999999999
 21
-0.7532977079466379
 31
0
 12
0.6929999999999999
 22
-0.7483022920533637
 32
0
 13
0.6929999999999999
 23
-0.7483022920533637
 33
0
  0
ENDBLK
  5
E9
330
E7
100
AcDbEntity
  8
0
100
AcDbBlockEnd
  0
BLOCK
  5
EB
330
EA
100
AcDbEntity
  8
0
100
AcDbBlockBegin
  2
*D56
 70
    1
 10
0
 20
0
  3
*D56
  1

  0
LINE
  5
18E
100
AcDbEntity
  8
axis
  6
CONTINUOUS
 62
    7
370
    0
100
AcDbLine
 10
0.708
 20
0.15
 11
8.673617379884039e-18
 21
0.15
  0
SOLID
  5
18F
100
AcDbEntity
  8
axis
  6
CONTINUOUS
 62
    7
370
    0
100
AcDbTrace
 10
0.708
 20
0.15
 30
0
 11
0.6929999999999999
 21
0.147502292053363
 31
0
 12
0.6929999999999999
 22
0.152497707946637
 32
0
 13
0.6929999999999999
 23
0.152497707946637
 33
0
  0
ENDBLK
  5
EC
330
EA
100
AcDbEntity
  8
0
100
AcDbBlockEnd
  0
BLOCK
  5
EE
330
ED
100
AcDbEntity
  8
0
100
AcDbBlockBegin
  2
*D55
 70
    1
 10
0
 20
0
  3
*D55
  1

  0
LINE
  5
190
100
AcDbEntity
  8
axis
  6
CONTINUOUS
 62
    7
370
    0
100
AcDbLine
 10
0.708
 20
0.3
 11
-1.040834085586084e-17
 21
0.3
  0
SOLID
  5
191
100
AcDbEntity
  8
axis
  6
CONTINUOUS
 62
    7
370
    0
100
AcDbTrace
 10
0.708
 20
0.3
 30
0
 11
0.6929999999999999
 21
0.297502292053363
 31
0
 12
0.6929999999999999
 22
0.3024977079466371
 32
0
 13
0.6929999999999999
 23
0.3024977079466371
 33
0
  0
ENDBLK
  5
EF
330
ED
100
AcDbEntity
  8
0
100
AcDbBlockEnd
  0
BLOCK
  5
F1
330
F0
100
AcDbEntity
  8
0
100
AcDbBlockBegin
  2
*D28
 70
    1
 10
0
 20
0
  3
*D28
  1

  0
LINE
  5
192
100
AcDbEntity
  8
0
  6
CONTINUOUS
 62
    7
370
    0
100
AcDbLine
 10
0.1416000000000001
 20
-0.8072920000000006
 11
0.07080000000000009
 21
-0.7508000000000008
  0
SOLID
  5
193
100
AcDbEntity
  8
0
  6
CONTINUOUS
 62
    7
370
    0
100
AcDbTrace
 10
0.1416000000000001
 20
-0.8072920000000006
 30
0
 11
0.1283172054116948
 21
-0.7998888984262289
 31
0
 12
0.1314328373325533
 22
-0.7959841554538295
 32
0
 13
0.1314328373325533
 23
-0.7959841554538295
 33
0
  0
ENDBLK
  5
F2
330
F0
100
AcDbEntity
  8
0
100
AcDbBlockEnd
  0
BLOCK
  5
F4
330
F3
100
AcDbEntity
  8
0
100
AcDbBlockBegin
  2
*D58
 70
    1
 10
0
 20
0
  3
*D58
  1

  0
LINE
  5
194
100
AcDbEntity
  8
axis
  6
CONTINUOUS
 62
    7
370
    0
100
AcDbLine
 10
0.708
 20
-0.15
 11
-8.673617379884039e-18
 21
-0.15
  0
SOLID
  5
195
100
AcDbEntity
  8
axis
  6
CONTINUOUS
 62
    7
370
    0
100
AcDbTrace
 10
0.708
 20
-0.15
 30
0
 11
0.6929999999999999
 21
-0.152497707946637
 31
0
 12
0.6929999999999999
 22
-0.147502292053363
 32
0
 13
0.6929999999999999
 23
-0.147502292053363
 33
0
  0
ENDBLK
  5
F5
330
F3
100
AcDbEntity
  8
0
100
AcDbBlockEnd
  0
BLOCK
  5
F7
330
F6
100
AcDbEntity
  8
0
100
AcDbBlockBegin
  2
*D70
 70
    1
 10
0
 20
0
  3
*D70
  1

  0
LINE
  5
196
100
AcDbEntity
  8
axis
  6
CONTINUOUS
 62
    7
370
    0
100
AcDbLine
 10
1.734723475976806e-17
 20
-0.8680000000000003
 11
8.326672684688673e-17
 21
-0.9760000000000009
  0
SOLID
  5
197
100
AcDbEntity
  8
axis
  6
CONTINUOUS
 62
    7
370
    0
100
AcDbTrace
 10
1.734723475976806e-17
 20
-0.8680000000000003
 30
0
 11
0.002497707946637069
 21
-0.8830000000000003
 31
0
 12
-0.002497707946637016
 22
-0.8830000000000003
 32
0
 13
-0.002497707946637016
 23
-0.8830000000000003
 33
0
  0
ENDBLK
  5
F8
330
F6
100
AcDbEntity
  8
0
100
AcDbBlockEnd
  0
BLOCK
  5
FA
330
F9
100
AcDbEntity
  8
0
100
AcDbBlockBegin
  2
*D15
 70
    1
 10
0
 20
0
  3
*D15
  1

  0
LINE
  5
198
100
AcDbEntity
  8
0
  6
CONTINUOUS
 62
    7
370
    0
100
AcDbLine
 10
0.5662773537940422
 20
-0.418624039740179
 11
0.4954773537940422
 21
-0.3628000000000005
  0
SOLID
  5
199
100
AcDbEntity
  8
0
  6
CONTINUOUS
 62
    7
370
    0
100
AcDbTrace
 10
0.5662773537940422
 20
-0.418624039740179
 30
0
 11
0.5529519105431793
 21
-0.4112979830140319
 31
0
 12
0.5560448778401746
 22
-0.4073752628804392
 32
0
 13
0.5560448778401746
 23
-0.4073752628804392
 33
0
  0
ENDBLK
  5
FB
330
F9
100
AcDbEntity
  8
0
100
AcDbBlockEnd
  0
BLOCK
  5
FD
330
FC
100
AcDbEntity
  8
0
100
AcDbBlockBegin
  2
*D51
 70
    1
 10
0
 20
0
  3
*D51
  1

  0
LINE
  5
19A
100
AcDbEntity
  8
axis
  6
CONTINUOUS
 62
    7
370
    0
100
AcDbLine
 10
6.938893903907228e-18
 20
0.5700000000000001
 11
-2.949029909160571e-17
 21
0.4500000000000001
  0
SOLID
  5
19B
100
AcDbEntity
  8
axis
  6
CONTINUOUS
 62
    7
370
    0
100
AcDbTrace
 10
6.938893903907228e-18
 20
0.5700000000000001
 30
0
 11
0.002497707946637046
 21
0.555
 31
0
 12
-0.00249770794663704
 22
0.555
 32
0
 13
-0.00249770794663704
 23
0.555
 33
0
  0
ENDBLK
  5
FE
330
FC
100
AcDbEntity
  8
0
100
AcDbBlockEnd
  0
BLOCK
  5
100
330
FF
100
AcDbEntity
  8
0
100
AcDbBlockBegin
  2
*D22
 70
    1
 10
0
 20
0
  3
*D22
  1

  0
LINE
  5
19C
100
AcDbEntity
  8
0
  6
CONTINUOUS
 62
    7
370
    0
100
AcDbLine
 10
0.4597805862806658
 20
-0.5193644706490266
 11
0.4246773537940423
 21
-0.45
  0
SOLID
  5
19D
100
AcDbEntity
  8
0
  6
CONTINUOUS
 62
    7
370
    0
100
AcDbTrace
 10
0.4597805862806658
 20
-0.5193644706490266
 30
0
 11
0.4507788952012428
 21
-0.5071085291226758
 31
0
 12
0.455236057764199
 22
-0.5048528957672395
 32
0
 13
0.455236057764199
 23
-0.5048528957672395
 33
0
  0
ENDBLK
  5
101
330
FF
100
AcDbEntity
  8
0
100
AcDbBlockEnd
  0
BLOCK
  5
103
330
102
100
AcDbEntity
  8
0
100
AcDbBlockBegin
  2
*D60
 70
    1
 10
0
 20
0
  3
*D60
  1

  0
LINE
  5
19E
100
AcDbEntity
  8
axis
  6
CONTINUOUS
 62
    7
370
    0
100
AcDbLine
 10
0.708
 20
-0.4504000000000004
 11
5.551115123125782e-17
 21
-0.4504000000000004
  0
SOLID
  5
19F
100
AcDbEntity
  8
axis
  6
CONTINUOUS
 62
    7
370
    0
100
AcDbTrace
 10
0.708
 20
-0.4504000000000004
 30
0
 11
0.6929999999999999
 21
-0.4528977079466375
 31
0
 12
0.6929999999999999
 22
-0.4479022920533633
 32
0
 13
0.6929999999999999
 23
-0.4479022920533633
 33
0
  0
ENDBLK
  5
104
330
102
100
AcDbEntity
  8
0
100
AcDbBlockEnd
  0
BLOCK
  5
106
330
105
100
AcDbEntity
  8
0
100
AcDbBlockBegin
  2
*D24
 70
    1
 10
0
 20
0
  3
*D24
  1

  0
LINE
  5
1A0
100
AcDbEntity
  8
0
  6
CONTINUOUS
 62
    7
370
    0
100
AcDbLine
 10
0.6170871147460224
 20
-0.5054286630201568
 11
0.5662773537940422
 21
-0.45
  0
SOLID
  5
1A1
100
AcDbEntity
  8
0
  6
CONTINUOUS
 62
    7
370
    0
100
AcDbTrace
 10
0.6170871147460224
 20
-0.5054286630201568
 30
0
 11
0.6051100354938097
 21
-0.4960591316779333
 31
0
 12
0.6087924219324086
 22
-0.4926836005991846
 32
0
 13
0.6087924219324086
 23
-0.4926836005991846
 33
0
  0
ENDBLK
  5
107
330
105
100
AcDbEntity
  8
0
100
AcDbBlockEnd
  0
BLOCK
  5
109
330
108
100
AcDbEntity
  8
0
100
AcDbBlockBegin
  2
*D67
 70
    1
 10
0
 20
0
  3
*D67
  1

  0
LINE
  5
1A2
100
AcDbEntity
  8
axis
  6
CONTINUOUS
 62
    7
370
    0
100
AcDbLine
 10
2.081668171172168e-17
 20
-0.6904000000000005
 11
2.081668171172168e-17
 21
-0.7504000000000004
  0
SOLID
  5
1A3
100
AcDbEntity
  8
axis
  6
CONTINUOUS
 62
    7
370
    0
100
AcDbTrace
 10
2.081668171172168e-17
 20
-0.6904000000000005
 30
0
 11
0.002497707946637063
 21
-0.7054000000000005
 31
0
 12
-0.002497707946637023
 22
-0.7054000000000005
 32
0
 13
-0.002497707946637023
 23
-0.7054000000000005
 33
0
  0
ENDBLK
  5
10A
330
108
100
AcDbEntity
  8
0
100
AcDbBlockEnd
  0
BLOCK
  5
10C
330
10B
100
AcDbEntity
  8
0
100
AcDbBlockBegin
  2
*D19
 70
    1
 10
0
 20
0
  3
*D19
  1

  0
LINE
  5
1A4
100
AcDbEntity
  8
0
  6
CONTINUOUS
 62
    7
370
    0
100
AcDbLine
 10
0.2362930921687318
 20
-0.5143018363912351
 11
0.2106773537940423
 21
-0.4500000000000002
  0
SOLID
  5
1A5
100
AcDbEntity
  8
0
  6
CONTINUOUS
 62
    7
370
    0
100
AcDbTrace
 10
0.2362930921687318
 20
-0.5143018363912351
 30
0
 11
0.2284214852048017
 21
-0.5012912119330432
 31
0
 12
0.2330622208199819
 22
-0.4994424953791134
 32
0
 13
0.2330622208199819
 23
-0.4994424953791134
 33
0
  0
ENDBLK
  5
10D
330
10B
100
AcDbEntity
  8
0
100
AcDbBlockEnd
  0
BLOCK
  5
10F
330
10E
100
AcDbEntity
  8
0
100
AcDbBlockBegin
  2
*D13
 70
    1
 10
0
 20
0
  3
*D13
  1

  0
LINE
  5
1A6
100
AcDbEntity
  8
0
  6
CONTINUOUS
 62
    7
370
    0
100
AcDbLine
 10
0.4954773537940422
 20
-0.4283571760412288
 11
0.4246773537940424
 21
-0.3628000000000005
  0
SOLID
  5
1A7
100
AcDbEntity
  8
0
  6
CONTINUOUS
 62
    7
370
    0
100
AcDbTrace
 10
0.4954773537940422
 20
-0.4283571760412288
 30
0
 11
0.4827740838458797
 21
-0.4199986188923659
 31
0
 12
0.486168054693338
 22
-0.4163332209830825
 32
0
 13
0.486168054693338
 23
-0.4163332209830825
 33
0
  0
ENDBLK
  5
110
330
10E
100
AcDbEntity
  8
0
100
AcDbBlockEnd
  0
BLOCK
  5
112
330
111
100
AcDbEntity
  8
0
100
AcDbBlockBegin
  2
*D57
 70
    1
 10
0
 20
0
  3
*D57
  1

  0
LINE
  5
1A8
100
AcDbEntity
  8
axis
  6
CONTINUOUS
 62
    7
370
    0
100
AcDbLine
 10
0.708
 20
0
 11
0
 21
0
  0
SOLID
  5
1A9
100
AcDbEntity
  8
axis
  6
CONTINUOUS
 62
    7
370
    0
100
AcDbTrace
 10
0.708
 20
0
 30
0
 11
0.6929999999999999
 21
-0.002497707946637042
 31
0
 12
0.6929999999999999
 22
0.002497707946637042
 32
0
 13
0.6929999999999999
 23
0.002497707946637042
 33
0
  0
ENDBLK
  5
113
330
111
100
AcDbEntity
  8
0
100
AcDbBlockEnd
  0
BLOCK
  5
115
330
114
100
AcDbEntity
  8
0
100
AcDbBlockBegin
  2
*D59
 70
    1
 10
0
 20
0
  3
*D59
  1

  0
LINE
  5
1AA
100
AcDbEntity
  8
axis
  6
CONTINUOUS
 62
    7
370
    0
100
AcDbLine
 10
-6.938893903907228e-18
 20
-0.3900000000000001
 11
-6.938893903907228e-18
 21
-0.4500000000000001
  0
SOLID
  5
1AB
100
AcDbEntity
  8
axis
  6
CONTINUOUS
 62
    7
370
    0
100
AcDbTrace
 10
-6.938893903907228e-18
 20
-0.3900000000000001
 30
0
 11
0.002497707946637035
 21
-0.4050000000000001
 31
0
 12
-0.00249770794663705
 22
-0.4050000000000001
 32
0
 13
-0.00249770794663705
 23
-0.4050000000000001
 33
0
  0
ENDBLK
  5
116
330
114
100
AcDbEntity
  8
0
100
AcDbBlockEnd
  0
BLOCK
  5
118
330
117
100
AcDbEntity
  8
0
100
AcDbBlockBegin
  2
*D4
 70
    1
 10
0
 20
0
  3
*D4
  1

  0
LINE
  5
1AC
100
AcDbEntity
  8
0
  6
CONTINUOUS
 62
    7
370
    0
100
AcDbLine
 10
0.2122773537940424
 20
-0.4192920000000002
 11
0.2122773537940424
 21
-0.3628000000000005
  0
SOLID
  5
1AD
100
AcDbEntity
  8
0
  6
CONTINUOUS
 62
    7
370
    0
100
AcDbTrace
 10
0.2122773537940424
 20
-0.4192920000000002
 30
0
 11
0.2097796458474054
 21
-0.4042920000000002
 31
0
 12
0.2147750617406794
 22
-0.4042920000000002
 32
0
 13
0.2147750617406794
 23
-0.4042920000000002
 33
0
  0
ENDBLK
  5
119
330
117
100
AcDbEntity
  8
0
100
AcDbBlockEnd
  0
BLOCK
  5
11B
330
11A
100
AcDbEntity
  8
0
100
AcDbBlockBegin
  2
*D35
 70
    1
 10
0
 20
0
  3
*D35
  1

  0
LINE
  5
1AE
100
AcDbEntity
  8
0
  6
CONTINUOUS
 62
    7
370
    0
100
AcDbLine
 10
0.354
 20
-0.8094275456638897
 11
0.3540000000000001
 21
-0.7508000000000008
  0
SOLID
  5
1AF
100
AcDbEntity
  8
0
  6
CONTINUOUS
 62
    7
370
    0
100
AcDbTrace
 10
0.354
 20
-0.8094275456638897
 30
0
 11
0.351502292053363
 21
-0.7944275456638897
 31
0
 12
0.356497707946637
 22
-0.7944275456638897
 32
0
 13
0.356497707946637
 23
-0.7944275456638897
 33
0
  0
ENDBLK
  5
11C
330
11A
100
AcDbEntity
  8
0
100
AcDbBlockEnd
  0
BLOCK
  5
11E
330
11D
100
AcDbEntity
  8
0
100
AcDbBlockBegin
  2
*D21
 70
    1
 10
0
 20
0
  3
*D21
  1

  0
LINE
  5
1B0
100
AcDbEntity
  8
0
  6
CONTINUOUS
 62
    7
370
    0
100
AcDbLine
 10
0.3942948538167609
 20
-0.5076758272241544
 11
0.3538773537940424
 21
-0.45
  0
SOLID
  5
1B1
100
AcDbEntity
  8
0
  6
CONTINUOUS
 62
    7
370
    0
100
AcDbTrace
 10
0.3942948538167609
 20
-0.5076758272241544
 30
0
 11
0.3836411084702125
 21
-0.4968251933681258
 31
0
 12
0.387732031856469
 22
-0.4939583962363854
 32
0
 13
0.387732031856469
 23
-0.4939583962363854
 33
0
  0
ENDBLK
  5
11F
330
11D
100
AcDbEntity
  8
0
100
AcDbBlockEnd
  0
BLOCK
  5
121
330
120
100
AcDbEntity
  8
0
100
AcDbBlockBegin
  2
*D65
 70
    1
 10
0
 20
0
  3
*D65
  1

  0
LINE
  5
1B2
100
AcDbEntity
  8
axis
  6
CONTINUOUS
 62
    7
370
    0
100
AcDbLine
 10
2.081668171172168e-17
 20
-0.7780000000000004
 11
2.081668171172168e-17
 21
-0.8380000000000003
  0
SOLID
  5
1B3
100
AcDbEntity
  8
axis
  6
CONTINUOUS
 62
    7
370
    0
100
AcDbTrace
 10
2.081668171172168e-17
 20
-0.7780000000000004
 30
0
 11
0.002497707946637063
 21
-0.7930000000000004
 31
0
 12
-0.002497707946637023
 22
-0.7930000000000004
 32
0
 13
-0.002497707946637023
 23
-0.7930000000000004
 33
0
  0
ENDBLK
  5
122
330
120
100
AcDbEntity
  8
0
100
AcDbBlockEnd
  0
BLOCK
  5
124
330
123
100
AcDbEntity
  8
0
100
AcDbBlockBegin
  2
*D63
 70
    1
 10
0
 20
0
  3
*D63
  1

  0
LINE
  5
1B4
100
AcDbEntity
  8
axis
  6
CONTINUOUS
 62
    7
370
    0
100
AcDbLine
 10
0.708
 20
-0.5880000000000005
 11
5.551115123125782e-17
 21
-0.5880000000000005
  0
SOLID
  5
1B5
100
AcDbEntity
  8
axis
  6
CONTINUOUS
 62
    7
370
    0
100
AcDbTrace
 10
0.708
 20
-0.5880000000000005
 30
0
 11
0.6929999999999999
 21
-0.5904977079466376
 31
0
 12
0.6929999999999999
 22
-0.5855022920533635
 32
0
 13
0.6929999999999999
 23
-0.5855022920533635
 33
0
  0
ENDBLK
  5
125
330
123
100
AcDbEntity
  8
0
100
AcDbBlockEnd
  0
BLOCK
  5
127
330
126
100
AcDbEntity
  8
0
100
AcDbBlockBegin
  2
*D54
 70
    1
 10
0
 20
0
  3
*D54
  1

  0
LINE
  5
1B6
100
AcDbEntity
  8
axis
  6
CONTINUOUS
 62
    7
370
    0
100
AcDbLine
 10
2.77555756156289e-17
 20
-0.02999999999999997
 11
-8.673617379884039e-18
 21
-0.15
  0
SOLID
  5
1B7
100
AcDbEntity
  8
axis
  6
CONTINUOUS
 62
    7
370
    0
100
AcDbTrace
 10
2.77555756156289e-17
 20
-0.02999999999999997
 30
0
 11
0.002497707946637067
 21
-0.04499999999999997
 31
0
 12
-0.002497707946637019
 22
-0.04499999999999997
 32
0
 13
-0.002497707946637019
 23
-0.04499999999999997
 33
0
  0
ENDBLK
  5
128
330
126
100
AcDbEntity
  8
0
100
AcDbBlockEnd
  0
BLOCK
  5
12A
330
129
100
AcDbEntity
  8
0
100
AcDbBlockBegin
  2
*D1
 70
    1
 10
0
 20
0
  3
*D1
  1

  0
ENDBLK
  5
12B
330
129
100
AcDbEntity
  8
0
100
AcDbBlockEnd
  0
ENDSEC
  0
SECTION
  2
ENTITIES
  0
LINE
  5
1B8
100
AcDbEntity
  8
ic
  6
ByLayer
 62
  256
370
   -1
100
AcDbLine
 10
0.1416
 20
0.08495999999999999
 11
0.1416
 21
0
  0
LINE
  5
1B9
100
AcDbEntity
  8
ic
  6
ByLayer
 62
  256
370
   -1
100
AcDbLine
 10
0.2124
 20
0.08495999999999999
 11
0.2124
 21
0
  0
LINE
  5
1BA
100
AcDbEntity
  8
ic
  6
ByLayer
 62
  256
370
   -1
100
AcDbLine
 10
0.354
 20
0.09204
 11
0.354
 21
0
  0
LINE
  5
1BB
100
AcDbEntity
  8
ic
  6
ByLayer
 62
  256
370
   -1
100
AcDbLine
 10
0.5664
 20
0.09912
 11
0.5664
 21
0
  0
LINE
  5
1BC
100
AcDbEntity
  8
ic
  6
ByLayer
 62
  256
370
   -1
100
AcDbLine
 10
0.6372
 20
0.09204
 11
0.6372
 21
0
  0
LINE
  5
1BD
100
AcDbEntity
  8
axis
  6
ByLayer
 62
  256
370
   -1
100
AcDbLine
 10
0
 20
0
 11
0.708
 21
0
  0
LINE
  5
1BE
100
AcDbEntity
  8
sig
  6
ByLayer
 62
  256
370
   -1
100
AcDbLine
 10
0
 20
0.05664
 11
0.03236571428571427
 21
0.07708805142857146
  0
LINE
  5
1BF
100
AcDbEntity
  8
sig
  6
ByLayer
 62
  256
370
   -1
100
AcDbLine
 10
0.03236571428571427
 20
0.07708805142857146
 11
0.0708
 21
0.03438328952380949
  0
LINE
  5
1C0
100
AcDbEntity
  8
sig
  6
ByLayer
 62
  256
370
   -1
100
AcDbLine
 10
0.1299878495782313
 20
0.07159517551020407
 11
0.1416
 21
0.05869278615268333
  0
LINE
  5
1C1
100
AcDbEntity
  8
sig
  6
ByLayer
 62
  256
370
   -1
100
AcDbLine
 10
0.0708
 20
0.03438328952380956
 11
0.1299878495782313
 21
0.07159517551020407
  0
LINE
  5
1C2
100
AcDbEntity
  8
sig
  6
ByLayer
 62
  256
370
   -1
100
AcDbLine
 10
0.1417226462059577
 20
0.0587649810033079
 11
0.1656157383746895
 21
0.07369816360876519
  0
LINE
  5
1C3
100
AcDbEntity
  8
sig
  6
ByLayer
 62
  256
370
   -1
100
AcDbLine
 10
0.1656157383746895
 20
0.07369816360876519
 11
0.2124
 21
0.0217156506917536
  0
LINE
  5
1C4
100
AcDbEntity
  8
sig
  6
ByLayer
 62
  256
370
   -1
100
AcDbLine
 10
0.2124
 20
0.0217156506917536
 11
0.2766965479389683
 21
0.06213941719574245
  0
LINE
  5
1C5
100
AcDbEntity
  8
sig
  6
ByLayer
 62
  256
370
   -1
100
AcDbLine
 10
0.2766965479389683
 20
0.06213941719574245
 11
0.2832
 21
0.05491335935015156
  0
LINE
  5
1C6
100
AcDbEntity
  8
sig
  6
ByLayer
 62
  256
370
   -1
100
AcDbLine
 10
0.2832000000000001
 20
0.05491335935015156
 11
0.3236175000227186
 21
0.08032417277584598
  0
LINE
  5
1C7
100
AcDbEntity
  8
sig
  6
ByLayer
 62
  256
370
   -1
100
AcDbLine
 10
0.3236175000227186
 20
0.08032417277584598
 11
0.354
 21
0.04656583946775554
  0
LINE
  5
1C8
100
AcDbEntity
  8
sig
  6
ByLayer
 62
  256
370
   -1
100
AcDbLine
 10
0.3539999999999999
 20
0.04656583946775554
 11
0.3891032324866235
 21
0.06863552935097381
  0
LINE
  5
1C9
100
AcDbEntity
  8
sig
  6
ByLayer
 62
  256
370
   -1
100
AcDbLine
 10
0.3891032324866235
 20
0.06863552935097381
 11
0.4248
 21
0.02897245433611111
  0
LINE
  5
1CA
100
AcDbEntity
  8
sig
  6
ByLayer
 62
  256
370
   -1
100
AcDbLine
 10
0.4247999999999999
 20
0.02897245433611111
 11
0.4824617560355557
 21
0.06522487280815444
  0
LINE
  5
1CB
100
AcDbEntity
  8
sig
  6
ByLayer
 62
  256
370
   -1
100
AcDbLine
 10
0.4824617560355555
 20
0.06522487280815452
 11
0.4956
 21
0.05062682395877192
  0
LINE
  5
1CC
100
AcDbEntity
  8
sig
  6
ByLayer
 62
  256
370
   -1
100
AcDbLine
 10
0.4955999999999999
 20
0.05062682395877188
 11
0.5464097609519801
 21
0.08257133697984365
  0
LINE
  5
1CD
100
AcDbEntity
  8
sig
  6
ByLayer
 62
  256
370
   -1
100
AcDbLine
 10
0.5464097609519801
 20
0.08257133697984365
 11
0.5664
 21
0.06035996025982174
  0
LINE
  5
1CE
100
AcDbEntity
  8
sig
  6
ByLayer
 62
  256
370
   -1
100
AcDbLine
 10
0.5664
 20
0.06035996025982158
 11
0.6018377506195918
 21
0.08263996443411653
  0
LINE
  5
1CF
100
AcDbEntity
  8
sig
  6
ByLayer
 62
  256
370
   -1
100
AcDbLine
 10
0.6018377506195918
 20
0.08263996443411653
 11
0.6372
 21
0.04334857623366303
  0
LINE
  5
1D0
100
AcDbEntity
  8
sig
  6
ByLayer
 62
  256
370
   -1
100
AcDbLine
 10
0.6372
 20
0.04334857623366299
 11
0.6817178731577941
 21
0.07133732784584995
  0
LINE
  5
1D1
100
AcDbEntity
  8
sig
  6
ByLayer
 62
  256
370
   -1
100
AcDbLine
 10
0.6817178731577941
 20
0.07133732784584995
 11
0.708
 21
0.0421349646878433
  0
LINE
  5
1D2
100
AcDbEntity
  8
mcmp
  6
ByLayer
 62
  256
370
   -1
100
AcDbLine
 10
0.07079999999999992
 20
0.03438328952380956
 11
0.1299878495782313
 21
0.09912
  0
LINE
  5
1D3
100
AcDbEntity
  8
mcmp
  6
ByLayer
 62
  256
370
   -1
100
AcDbLine
 10
0
 20
0.05664
 11
0.03236571428571427
 21
0.09204
  0
LINE
  5
1D4
100
AcDbEntity
  8
mcmp
  6
ByLayer
 62
  256
370
   -1
100
AcDbLine
 10
0.1416
 20
0.05869278615268333
 11
0.1656157383746895
 21
0.08495999999999999
  0
LINE
  5
1D5
100
AcDbEntity
  8
mcmp
  6
ByLayer
 62
  256
370
   -1
100
AcDbLine
 10
0.2123999999999999
 20
0.0217156506917536
 11
0.2766965479389683
 21
0.09204
  0
LINE
  5
1D6
100
AcDbEntity
  8
mcmp
  6
ByLayer
 62
  256
370
   -1
100
AcDbLine
 10
0.2832
 20
0.05491335935015156
 11
0.3236175000227186
 21
0.09912
  0
LINE
  5
1D7
100
AcDbEntity
  8
mcmp
  6
ByLayer
 62
  256
370
   -1
100
AcDbLine
 10
0.3539999999999999
 20
0.04656583946775546
 11
0.3891032324866235
 21
0.08495999999999999
  0
LINE
  5
1D8
100
AcDbEntity
  8
mcmp
  6
ByLayer
 62
  256
370
   -1
100
AcDbLine
 10
0.4247999999999999
 20
0.02897245433611111
 11
0.4824617560355557
 21
0.09204
  0
LINE
  5
1D9
100
AcDbEntity
  8
mcmp
  6
ByLayer
 62
  256
370
   -1
100
AcDbLine
 10
0.4955999999999999
 20
0.05062682395877188
 11
0.5464097609519801
 21
0.1062
  0
LINE
  5
1DA
100
AcDbEntity
  8
mcmp
  6
ByLayer
 62
  256
370
   -1
100
AcDbLine
 10
0.5663999999999999
 20
0.06035996025982158
 11
0.6018377506195918
 21
0.09912
  0
LINE
  5
1DB
100
AcDbEntity
  8
mcmp
  6
ByLayer
 62
  256
370
   -1
100
AcDbLine
 10
0.6372
 20
0.04334857623366299
 11
0.6817178731577941
 21
0.09204
  0
LINE
  5
1DC
100
AcDbEntity
  8
mcmp
  6
ByLayer
 62
  256
370
   -1
100
AcDbLine
 10
0.03236571428571427
 20
0.09204
 11
0.03236571428571427
 21
0
  0
LINE
  5
1DD
100
AcDbEntity
  8
mcmp
  6
ByLayer
 62
  256
370
   -1
100
AcDbLine
 10
0.1299878495782313
 20
0.09912
 11
0.1299878495782313
 21
0
  0
LINE
  5
1DE
100
AcDbEntity
  8
mcmp
  6
ByLayer
 62
  256
370
   -1
100
AcDbLine
 10
0.1656157383746895
 20
0.08495999999999999
 11
0.1656157383746895
 21
0
  0
LINE
  5
1DF
100
AcDbEntity
  8
mcmp
  6
ByLayer
 62
  256
370
   -1
100
AcDbLine
 10
0.2766965479389683
 20
0.09204
 11
0.2766965479389683
 21
0
  0
LINE
  5
1E0
100
AcDbEntity
  8
mcmp
  6
ByLayer
 62
  256
370
   -1
100
AcDbLine
 10
0.3236175000227186
 20
0.09912
 11
0.3236175000227186
 21
0
  0
LINE
  5
1E1
100
AcDbEntity
  8
mcmp
  6
ByLayer
 62
  256
370
   -1
100
AcDbLine
 10
0.3891032324866235
 20
0.08495999999999999
 11
0.3891032324866235
 21
0
  0
LINE
  5
1E2
100
AcDbEntity
  8
mcmp
  6
ByLayer
 62
  256
370
   -1
100
AcDbLine
 10
0.4824617560355557
 20
0.09204
 11
0.4824617560355557
 21
0
  0
LINE
  5
1E3
100
AcDbEntity
  8
mcmp
  6
ByLayer
 62
  256
370
   -1
100
AcDbLine
 10
0.5464097609519801
 20
0.1062
 11
0.5464097609519801
 21
0
  0
LINE
  5
1E4
100
AcDbEntity
  8
mcmp
  6
ByLayer
 62
  256
370
   -1
100
AcDbLine
 10
0.6018377506195918
 20
0.09912
 11
0.6018377506195918
 21
0
  0
LINE
  5
1E5
100
AcDbEntity
  8
mcmp
  6
ByLayer
 62
  256
370
   -1
100
AcDbLine
 10
0.6817178731577941
 20
0.09204
 11
0.6817178731577941
 21
0
  0
LINE
  5
1E6
100
AcDbEntity
  8
ic
  6
ByLayer
 62
  256
370
   -1
100
AcDbLine
 10
0.000708
 20
0.09204
 11
0.070092
 21
0.09204
  0
LINE
  5
1E7
100
AcDbEntity
  8
ic
  6
ByLayer
 62
  256
370
   -1
100
AcDbLine
 10
0.1416
 20
0.09204
 11
0.1416
 21
0.08566799999999999
  0
LINE
  5
1E8
100
AcDbEntity
  8
ic
  6
ByLayer
 62
  256
370
   -1
100
AcDbLine
 10
0.142308
 20
0.08495999999999999
 11
0.211692
 21
0.08495999999999999
  0
LINE
  5
1E9
100
AcDbEntity
  8
ic
  6
ByLayer
 62
  256
370
   -1
100
AcDbLine
 10
0.283908
 20
0.09912
 11
0.354
 21
0.09912
  0
LINE
  5
1EA
100
AcDbEntity
  8
ic
  6
ByLayer
 62
  256
370
   -1
100
AcDbLine
 10
0.425508
 20
0.09204
 11
0.4956
 21
0.09204
  0
LINE
  5
1EB
100
AcDbEntity
  8
ic
  6
ByLayer
 62
  256
370
   -1
100
AcDbLine
 10
0.4956
 20
0.09204
 11
0.4956
 21
0.098412
  0
LINE
  5
1EC
100
AcDbEntity
  8
ic
  6
ByLayer
 62
  256
370
   -1
100
AcDbLine
 10
0.5671079999999999
 20
0.09912
 11
0.6372
 21
0.09912
  0
LINE
  5
1ED
100
AcDbEntity
  8
ic
  6
ByLayer
 62
  256
370
   -1
100
AcDbLine
 10
0.6372
 20
0.09912
 11
0.6372
 21
0.092748
  0
LINE
  5
1EE
100
AcDbEntity
  8
ic
  6
ByLayer
 62
  256
370
   -1
100
AcDbLine
 10
0.6379079999999999
 20
0.09204
 11
0.708
 21
0.09204
  0
LINE
  5
1EF
100
AcDbEntity
  8
ic
  6
ByLayer
 62
  256
370
   -1
100
AcDbLine
 10
0.071508
 20
0.09912
 11
0.1416
 21
0.09912
  0
LINE
  5
1F0
100
AcDbEntity
  8
ic
  6
ByLayer
 62
  256
370
   -1
100
AcDbLine
 10
0.213108
 20
0.09204
 11
0.2832
 21
0.09204
  0
LINE
  5
1F1
100
AcDbEntity
  8
ic
  6
ByLayer
 62
  256
370
   -1
100
AcDbLine
 10
0.496308
 20
0.1062
 11
0.565692
 21
0.1062
  0
LINE
  5
1F2
100
AcDbEntity
  8
ic
  6
ByLayer
 62
  256
370
   -1
100
AcDbLine
 10
0.0708
 20
0.098412
 11
0.0708
 21
0.09204
  0
LINE
  5
1F3
100
AcDbEntity
  8
ic
  6
ByLayer
 62
  256
370
   -1
100
AcDbLine
 10
0.0708
 20
0.09204
 11
0.070092
 21
0.09204
  0
LINE
  5
1F4
100
AcDbEntity
  8
ic
  6
ByLayer
 62
  256
370
   -1
100
AcDbLine
 10
0.1416
 20
0.09204
 11
0.1416
 21
0.09912
  0
LINE
  5
1F5
100
AcDbEntity
  8
ic
  6
ByLayer
 62
  256
370
   -1
100
AcDbLine
 10
0.2124
 20
0.091332
 11
0.2124
 21
0.08495999999999999
  0
LINE
  5
1F6
100
AcDbEntity
  8
ic
  6
ByLayer
 62
  256
370
   -1
100
AcDbLine
 10
0.4956
 20
0.098412
 11
0.4956
 21
0.105492
  0
LINE
  5
1F7
100
AcDbEntity
  8
ic
  6
ByLayer
 62
  256
370
   -1
100
AcDbLine
 10
0.565692
 20
0.1062
 11
0.5664
 21
0.1062
  0
LINE
  5
1F8
100
AcDbEntity
  8
ic
  6
ByLayer
 62
  256
370
   -1
100
AcDbLine
 10
0.5664
 20
0.1062
 11
0.5664
 21
0.099828
  0
LINE
  5
1F9
100
AcDbEntity
  8
ic
  6
ByLayer
 62
  256
370
   -1
100
AcDbLine
 10
0.2832
 20
0.09204
 11
0.2832
 21
0.098412
  0
LINE
  5
1FA
100
AcDbEntity
  8
ic
  6
ByLayer
 62
  256
370
   -1
100
AcDbLine
 10
0.354708
 20
0.08495999999999999
 11
0.424092
 21
0.08495999999999999
  0
LINE
  5
1FB
100
AcDbEntity
  8
ic
  6
ByLayer
 62
  256
370
   -1
100
AcDbLine
 10
0.354
 20
0.09912
 11
0.354
 21
0.08566799999999999
  0
LINE
  5
1FC
100
AcDbEntity
  8
ic
  6
ByLayer
 62
  256
370
   -1
100
AcDbLine
 10
0.2832
 20
0.09912
 11
0.2832
 21
0
  0
LINE
  5
1FD
100
AcDbEntity
  8
ic
  6
ByLayer
 62
  256
370
   -1
100
AcDbLine
 10
0.4248
 20
0.09204
 11
0.4248
 21
0
  0
LINE
  5
1FE
100
AcDbEntity
  8
ic
  6
ByLayer
 62
  256
370
   -1
100
AcDbLine
 10
0.4956
 20
0.09912
 11
0.4956
 21
0
  0
LINE
  5
1FF
100
AcDbEntity
  8
ic
  6
ByLayer
 62
  256
370
   -1
100
AcDbLine
 10
0.0708
 20
0.09204
 11
0.07099999999999999
 21
0.0005879999999999913
  0
CIRCLE
  5
200
100
AcDbEntity
  8
sample
  6
ByLayer
 62
  256
370
   -1
100
AcDbCircle
 10
0.07079999999999999
 20
0.03410728952380956
 40
0.000708
  0
CIRCLE
  5
201
100
AcDbEntity
  8
sample
  6
ByLayer
 62
  256
370
   -1
100
AcDbCircle
 10
0.1417226462059577
 20
0.05848898100330796
 40
0.000708
  0
CIRCLE
  5
202
100
AcDbEntity
  8
sample
  6
ByLayer
 62
  256
370
   -1
100
AcDbCircle
 10
0.2124
 20
0.02143965069175366
 40
0.000708
  0
CIRCLE
  5
203
100
AcDbEntity
  8
sample
  6
ByLayer
 62
  256
370
   -1
100
AcDbCircle
 10
0.2832000000000002
 20
0.05463735935015163
 40
0.000708
  0
CIRCLE
  5
204
100
AcDbEntity
  8
sample
  6
ByLayer
 62
  256
370
   -1
100
AcDbCircle
 10
0.354
 20
0.04628983946775553
 40
0.000708
  0
CIRCLE
  5
205
100
AcDbEntity
  8
sample
  6
ByLayer
 62
  256
370
   -1
100
AcDbCircle
 10
0.4247999999999999
 20
0.02869645433611112
 40
0.000708
  0
CIRCLE
  5
206
100
AcDbEntity
  8
sample
  6
ByLayer
 62
  256
370
   -1
100
AcDbCircle
 10
0.4955999999999999
 20
0.05035082395877191
 40
0.000708
  0
CIRCLE
  5
207
100
AcDbEntity
  8
sample
  6
ByLayer
 62
  256
370
   -1
100
AcDbCircle
 10
0.5663999999999999
 20
0.06008396025982157
 40
0.000708
  0
CIRCLE
  5
208
100
AcDbEntity
  8
sample
  6
ByLayer
 62
  256
370
   -1
100
AcDbCircle
 10
0.6371999999999999
 20
0.04307257623366298
 40
0.000708
  0
LEADER
  5
209
100
AcDbEntity
  8
0
  6
ByLayer
 62
  256
370
   -1
100
AcDbLeader
  3
Standard
 71
    1
 72
    0
 73
    3
 74
    0
 75
    0
 40
1
 41
10
 76
0
 76
0
  0
LINE
  5
20A
100
AcDbEntity
  8
axis
  6
ByLayer
 62
  256
370
   -1
100
AcDbLine
 10
5.551115123125782e-17
 20
-0.3628000000000005
 11
0.708
 21
-0.3628000000000005
  0
CIRCLE
  5
20B
100
AcDbEntity
  8
sample
  6
ByLayer
 62
  256
370
   -1
100
AcDbCircle
 10
0.07080000000000006
 20
-0.3277087104761909
 40
0.000708
  0
CIRCLE
  5
20C
100
AcDbEntity
  8
sample
  6
ByLayer
 62
  256
370
   -1
100
AcDbCircle
 10
0.1417226462059577
 20
-0.3033270189966926
 40
0.000708
  0
CIRCLE
  5
20D
100
AcDbEntity
  8
sample
  6
ByLayer
 62
  256
370
   -1
100
AcDbCircle
 10
0.2124
 20
-0.3403763493082468
 40
0.000708
  0
CIRCLE
  5
20E
100
AcDbEntity
  8
sample
  6
ByLayer
 62
  256
370
   -1
100
AcDbCircle
 10
0.2832000000000002
 20
-0.3071786406498489
 40
0.000708
  0
CIRCLE
  5
20F
100
AcDbEntity
  8
sample
  6
ByLayer
 62
  256
370
   -1
100
AcDbCircle
 10
0.3540000000000001
 20
-0.315526160532245
 40
0.000708
  0
CIRCLE
  5
210
100
AcDbEntity
  8
sample
  6
ByLayer
 62
  256
370
   -1
100
AcDbCircle
 10
0.4248
 20
-0.3331195456638893
 40
0.000708
  0
CIRCLE
  5
211
100
AcDbEntity
  8
sample
  6
ByLayer
 62
  256
370
   -1
100
AcDbCircle
 10
0.4955999999999999
 20
-0.3114651760412286
 40
0.000708
  0
CIRCLE
  5
212
100
AcDbEntity
  8
sample
  6
ByLayer
 62
  256
370
   -1
100
AcDbCircle
 10
0.5663999999999999
 20
-0.3017320397401788
 40
0.000708
  0
CIRCLE
  5
213
100
AcDbEntity
  8
sample
  6
ByLayer
 62
  256
370
   -1
100
AcDbCircle
 10
0.6371999999999999
 20
-0.3187434237663376
 40
0.000708
  0
LINE
  5
214
100
AcDbEntity
  8
sig
  6
ByLayer
 62
  256
370
   -1
100
AcDbLine
 10
0.07080000000000006
 20
-0.328416710476191
 11
0.07080000000000006
 21
-0.3628000000000005
  0
LINE
  5
215
100
AcDbEntity
  8
sig
  6
ByLayer
 62
  256
370
   -1
100
AcDbLine
 10
0.1417226462059577
 20
-0.3040350189966925
 11
0.1417226462059577
 21
-0.3628000000000005
  0
LINE
  5
216
100
AcDbEntity
  8
sig
  6
ByLayer
 62
  256
370
   -1
100
AcDbLine
 10
0.2124
 20
-0.3410843493082469
 11
0.2124
 21
-0.3628000000000005
  0
LINE
  5
217
100
AcDbEntity
  8
sig
  6
ByLayer
 62
  256
370
   -1
100
AcDbLine
 10
0.2832000000000002
 20
-0.3078866406498488
 11
0.2832000000000002
 21
-0.3628000000000005
  0
LINE
  5
218
100
AcDbEntity
  8
sig
  6
ByLayer
 62
  256
370
   -1
100
AcDbLine
 10
0.3540000000000001
 20
-0.316234160532245
 11
0.3540000000000001
 21
-0.3628000000000005
  0
LINE
  5
219
100
AcDbEntity
  8
sig
  6
ByLayer
 62
  256
370
   -1
100
AcDbLine
 10
0.4248
 20
-0.3338275456638893
 11
0.4248
 21
-0.3628000000000005
  0
LINE
  5
21A
100
AcDbEntity
  8
sig
  6
ByLayer
 62
  256
370
   -1
100
AcDbLine
 10
0.4955999999999999
 20
-0.3121731760412285
 11
0.4955999999999999
 21
-0.3628000000000005
  0
LINE
  5
21B
100
AcDbEntity
  8
sig
  6
ByLayer
 62
  256
370
   -1
100
AcDbLine
 10
0.5663999999999999
 20
-0.3024400397401787
 11
0.5663999999999999
 21
-0.3628000000000005
  0
LINE
  5
21C
100
AcDbEntity
  8
sig
  6
ByLayer
 62
  256
370
   -1
100
AcDbLine
 10
0.6371999999999999
 20
-0.3194514237663375
 11
0.6371999999999999
 21
-0.3628000000000005
  0
LINE
  5
21D
100
AcDbEntity
  8
axis
  6
ByLayer
 62
  256
370
   -1
100
AcDbLine
 10
5.551115123125782e-17
 20
-0.4504000000000004
 11
0.708
 21
-0.4504000000000004
  0
LINE
  5
21E
100
AcDbEntity
  8
axis
  6
ByLayer
 62
  256
370
   -1
100
AcDbLine
 10
5.551115123125782e-17
 20
-0.5880000000000005
 11
0.708
 21
-0.5880000000000005
  0
CIRCLE
  5
21F
100
AcDbEntity
  8
sample
  6
ByLayer
 62
  256
370
   -1
100
AcDbCircle
 10
0.3538773537940424
 20
-0.4131261605322449
 40
0.000708
  0
CIRCLE
  5
220
100
AcDbEntity
  8
sample
  6
ByLayer
 62
  256
370
   -1
100
AcDbCircle
 10
0.6370773537940422
 20
-0.4163434237663375
 40
0.000708
  0
CIRCLE
  5
221
100
AcDbEntity
  8
sample
  6
ByLayer
 62
  256
370
   -1
100
AcDbCircle
 10
0.1416000000000001
 20
-0.4305270189966923
 40
0.000708
  0
CIRCLE
  5
222
100
AcDbEntity
  8
sample
  6
ByLayer
 62
  256
370
   -1
100
AcDbCircle
 10
0.2122773537940424
 20
-0.4200000000000002
 40
0.000708
  0
CIRCLE
  5
223
100
AcDbEntity
  8
sample
  6
ByLayer
 62
  256
370
   -1
100
AcDbCircle
 10
0.2830773537940425
 20
-0.4399999999999999
 40
0.000708
  0
CIRCLE
  5
224
100
AcDbEntity
  8
sample
  6
ByLayer
 62
  256
370
   -1
100
AcDbCircle
 10
0.4246773537940423
 20
-0.4207195456638895
 40
0.000708
  0
CIRCLE
  5
225
100
AcDbEntity
  8
sample
  6
ByLayer
 62
  256
370
   -1
100
AcDbCircle
 10
0.4954773537940422
 20
-0.4290651760412287
 40
0.000708
  0
CIRCLE
  5
226
100
AcDbEntity
  8
sample
  6
ByLayer
 62
  256
370
   -1
100
AcDbCircle
 10
0.5662773537940422
 20
-0.419332039740179
 40
0.000708
  0
LINE
  5
227
100
AcDbEntity
  8
sig
  6
ByLayer
 62
  256
370
   -1
100
AcDbLine
 10
0.2122773537940424
 20
-0.4207080000000005
 11
0.2122773537940424
 21
-0.45
  0
LINE
  5
228
100
AcDbEntity
  8
sig
  6
ByLayer
 62
  256
370
   -1
100
AcDbLine
 10
0.2830773537940425
 20
-0.4407079999999999
 11
0.2830773537940425
 21
-0.45
  0
LINE
  5
229
100
AcDbEntity
  8
sig
  6
ByLayer
 62
  256
370
   -1
100
AcDbLine
 10
0.3538773537940424
 20
-0.4138341605322449
 11
0.3538773537940424
 21
-0.45
  0
LINE
  5
22A
100
AcDbEntity
  8
sig
  6
ByLayer
 62
  256
370
   -1
100
AcDbLine
 10
0.1416000000000001
 20
-0.4312350189966923
 11
0.1416000000000001
 21
-0.45
  0
LINE
  5
22B
100
AcDbEntity
  8
sig
  6
ByLayer
 62
  256
370
   -1
100
AcDbLine
 10
0.6370773537940422
 20
-0.4170514237663374
 11
0.6370773537940422
 21
-0.45
  0
LINE
  5
22C
100
AcDbEntity
  8
sig
  6
ByLayer
 62
  256
370
   -1
100
AcDbLine
 10
0.5662773537940422
 20
-0.4200400397401789
 11
0.5662773537940422
 21
-0.45
  0
LINE
  5
22D
100
AcDbEntity
  8
sig
  6
ByLayer
 62
  256
370
   -1
100
AcDbLine
 10
0.4954773537940422
 20
-0.4297731760412287
 11
0.4954773537940422
 21
-0.45
  0
LINE
  5
22E
100
AcDbEntity
  8
sig
  6
ByLayer
 62
  256
370
   -1
100
AcDbLine
 10
0.4246773537940423
 20
-0.4214275456638894
 11
0.4246773537940423
 21
-0.45
  0
LEADER
  5
22F
100
AcDbEntity
  8
0
  6
ByLayer
 62
  256
370
   -1
100
AcDbLeader
  3
Standard
 71
    1
 72
    0
 73
    3
 74
    0
 75
    0
 40
1
 41
10
 76
2
 76
2
 10
0.1398773537940424
 20
-0.4300000000000002
 30
0
 10
0.07067735379404239
 20
-0.3628000000000005
 30
0
  0
LEADER
  5
230
100
AcDbEntity
  8
0
  6
ByLayer
 62
  256
370
   -1
100
AcDbLeader
  3
Standard
 71
    1
 72
    0
 73
    3
 74
    0
 75
    0
 40
1
 41
10
 76
2
 76
2
 10
0.1416000000000001
 20
-0.4278190189966924
 30
0
 10
0.1416000000000001
 20
-0.3608000000000005
 30
0
  0
LEADER
  5
231
100
AcDbEntity
  8
0
  6
ByLayer
 62
  256
370
   -1
100
AcDbLeader
  3
Standard
 71
    1
 72
    0
 73
    3
 74
    0
 75
    0
 40
1
 41
10
 76
2
 76
2
 10
0.2122773537940424
 20
-0.4192920000000002
 30
0
 10
0.2122773537940424
 20
-0.3628000000000005
 30
0
  0
LEADER
  5
232
100
AcDbEntity
  8
0
  6
ByLayer
 62
  256
370
   -1
100
AcDbLeader
  3
Standard
 71
    1
 72
    0
 73
    3
 74
    0
 75
    0
 40
1
 41
10
 76
2
 76
2
 10
0.2122773537940424
 20
-0.4192920000000002
 30
0
 10
0.1416000000000001
 20
-0.3628000000000005
 30
0
  0
LEADER
  5
233
100
AcDbEntity
  8
0
  6
ByLayer
 62
  256
370
   -1
100
AcDbLeader
  3
Standard
 71
    1
 72
    0
 73
    3
 74
    0
 75
    0
 40
1
 41
10
 76
2
 76
2
 10
0.2830773537940425
 20
-0.439292
 30
0
 10
0.2830773537940425
 20
-0.3628000000000005
 30
0
  0
LEADER
  5
234
100
AcDbEntity
  8
0
  6
ByLayer
 62
  256
370
   -1
100
AcDbLeader
  3
Standard
 71
    1
 72
    0
 73
    3
 74
    0
 75
    0
 40
1
 41
10
 76
2
 76
2
 10
0.2798773537940424
 20
-0.4400000000000002
 30
0
 10
0.2122773537940424
 20
-0.3628000000000005
 30
0
  0
LEADER
  5
235
100
AcDbEntity
  8
0
  6
ByLayer
 62
  256
370
   -1
100
AcDbLeader
  3
Standard
 71
    1
 72
    0
 73
    3
 74
    0
 75
    0
 40
1
 41
10
 76
2
 76
2
 10
0.3538773537940424
 20
-0.412418160532245
 30
0
 10
0.3538773537940424
 20
-0.3628000000000005
 30
0
  0
LEADER
  5
236
100
AcDbEntity
  8
0
  6
ByLayer
 62
  256
370
   -1
100
AcDbLeader
  3
Standard
 71
    1
 72
    0
 73
    3
 74
    0
 75
    0
 40
1
 41
10
 76
2
 76
2
 10
0.3531693537940425
 20
-0.4131261605322449
 30
0
 10
0.2830773537940425
 20
-0.3628000000000005
 30
0
  0
LEADER
  5
237
100
AcDbEntity
  8
0
  6
ByLayer
 62
  256
370
   -1
100
AcDbLeader
  3
Standard
 71
    1
 72
    0
 73
    3
 74
    0
 75
    0
 40
1
 41
10
 76
2
 76
2
 10
0.4246773537940423
 20
-0.4200115456638895
 30
0
 10
0.4246773537940424
 20
-0.3628000000000005
 30
0
  0
LEADER
  5
238
100
AcDbEntity
  8
0
  6
ByLayer
 62
  256
370
   -1
100
AcDbLeader
  3
Standard
 71
    1
 72
    0
 73
    3
 74
    0
 75
    0
 40
1
 41
10
 76
2
 76
2
 10
0.4246773537940423
 20
-0.4200115456638895
 30
0
 10
0.3538773537940424
 20
-0.3628000000000005
 30
0
  0
LEADER
  5
239
100
AcDbEntity
  8
0
  6
ByLayer
 62
  256
370
   -1
100
AcDbLeader
  3
Standard
 71
    1
 72
    0
 73
    3
 74
    0
 75
    0
 40
1
 41
10
 76
2
 76
2
 10
0.4954773537940422
 20
-0.4283571760412288
 30
0
 10
0.4954773537940422
 20
-0.3628000000000005
 30
0
  0
LEADER
  5
23A
100
AcDbEntity
  8
0
  6
ByLayer
 62
  256
370
   -1
100
AcDbLeader
  3
Standard
 71
    1
 72
    0
 73
    3
 74
    0
 75
    0
 40
1
 41
10
 76
2
 76
2
 10
0.4954773537940422
 20
-0.4283571760412288
 30
0
 10
0.4246773537940424
 20
-0.3628000000000005
 30
0
  0
LEADER
  5
23B
100
AcDbEntity
  8
0
  6
ByLayer
 62
  256
370
   -1
100
AcDbLeader
  3
Standard
 71
    1
 72
    0
 73
    3
 74
    0
 75
    0
 40
1
 41
10
 76
2
 76
2
 10
0.5662773537940422
 20
-0.418624039740179
 30
0
 10
0.5662773537940422
 20
-0.3628000000000005
 30
0
  0
LEADER
  5
23C
100
AcDbEntity
  8
0
  6
ByLayer
 62
  256
370
   -1
100
AcDbLeader
  3
Standard
 71
    1
 72
    0
 73
    3
 74
    0
 75
    0
 40
1
 41
10
 76
2
 76
2
 10
0.5662773537940422
 20
-0.418624039740179
 30
0
 10
0.4954773537940422
 20
-0.3628000000000005
 30
0
  0
LEADER
  5
23D
100
AcDbEntity
  8
0
  6
ByLayer
 62
  256
370
   -1
100
AcDbLeader
  3
Standard
 71
    1
 72
    0
 73
    3
 74
    0
 75
    0
 40
1
 41
10
 76
2
 76
2
 10
0.6370773537940422
 20
-0.4156354237663376
 30
0
 10
0.6370773537940422
 20
-0.3628000000000005
 30
0
  0
LEADER
  5
23E
100
AcDbEntity
  8
0
  6
ByLayer
 62
  256
370
   -1
100
AcDbLeader
  3
Standard
 71
    1
 72
    0
 73
    3
 74
    0
 75
    0
 40
1
 41
10
 76
2
 76
2
 10
0.6363693537940421
 20
-0.4163434237663375
 30
0
 10
0.5662773537940422
 20
-0.3628000000000005
 30
0
  0
LINE
  5
23F
100
AcDbEntity
  8
idiscg
  6
CONTINUOUS
 62
  256
370
   -1
100
AcDbLine
 10
0.2006652033722736
 20
-0.5164048244897963
 11
0.2122773537940423
 21
-0.5293072138473169
  0
LINE
  5
240
100
AcDbEntity
  8
idiscg
  6
CONTINUOUS
 62
  256
370
   -1
100
AcDbLine
 10
0.2362930921687318
 20
-0.5143018363912351
 11
0.2830773537940423
 21
-0.5662843493082468
  0
LINE
  5
241
100
AcDbEntity
  8
idiscg
  6
CONTINUOUS
 62
  256
370
   -1
100
AcDbLine
 10
0.3473739017330107
 20
-0.525860582804258
 11
0.3538773537940423
 21
-0.5330866406498487
  0
LINE
  5
242
100
AcDbEntity
  8
idiscg
  6
CONTINUOUS
 62
  256
370
   -1
100
AcDbLine
 10
0.3942948538167609
 20
-0.5076758272241544
 11
0.4246773537940423
 21
-0.541434160532245
  0
LINE
  5
243
100
AcDbEntity
  8
idiscg
  6
CONTINUOUS
 62
  256
370
   -1
100
AcDbLine
 10
0.4597805862806658
 20
-0.5193644706490266
 11
0.4954773537940425
 21
-0.5590275456638891
  0
LINE
  5
244
100
AcDbEntity
  8
idiscg
  6
CONTINUOUS
 62
  256
370
   -1
100
AcDbLine
 10
0.5531391098295978
 20
-0.5227751271918457
 11
0.5662773537940423
 21
-0.5373731760412284
  0
LINE
  5
245
100
AcDbEntity
  8
idiscg
  6
CONTINUOUS
 62
  256
370
   -1
100
AcDbLine
 10
0.6170871147460224
 20
-0.5054286630201568
 11
0.6370773537940423
 21
-0.5276400397401786
  0
LINE
  5
246
100
AcDbEntity
  8
idiscg
  6
CONTINUOUS
 62
  256
370
   -1
100
AcDbLine
 10
0.2006652033722736
 20
-0.5164048244897963
 11
0.2006652033722736
 21
-0.5880000000000005
  0
LINE
  5
247
100
AcDbEntity
  8
idiscg
  6
CONTINUOUS
 62
  256
370
   -1
100
AcDbLine
 10
0.2362930921687318
 20
-0.5143018363912351
 11
0.2362930921687318
 21
-0.5880000000000005
  0
LINE
  5
248
100
AcDbEntity
  8
idiscg
  6
CONTINUOUS
 62
  256
370
   -1
100
AcDbLine
 10
0.3473739017330107
 20
-0.525860582804258
 11
0.3473739017330107
 21
-0.5880000000000005
  0
LINE
  5
249
100
AcDbEntity
  8
idiscg
  6
CONTINUOUS
 62
  256
370
   -1
100
AcDbLine
 10
0.3942948538167609
 20
-0.5076758272241544
 11
0.3942948538167609
 21
-0.5880000000000005
  0
LINE
  5
24A
100
AcDbEntity
  8
idiscg
  6
CONTINUOUS
 62
  256
370
   -1
100
AcDbLine
 10
0.4597805862806658
 20
-0.5193644706490266
 11
0.4597805862806658
 21
-0.5880000000000005
  0
LINE
  5
24B
100
AcDbEntity
  8
idiscg
  6
CONTINUOUS
 62
  256
370
   -1
100
AcDbLine
 10
0.5531391098295978
 20
-0.5227751271918457
 11
0.5531391098295978
 21
-0.5880000000000005
  0
LINE
  5
24C
100
AcDbEntity
  8
idiscg
  6
CONTINUOUS
 62
  256
370
   -1
100
AcDbLine
 10
0.6170871147460224
 20
-0.5054286630201568
 11
0.6170871147460224
 21
-0.5880000000000005
  0
LINE
  5
24D
100
AcDbEntity
  8
idiscg
  6
CONTINUOUS
 62
  256
370
   -1
100
AcDbLine
 10
0.2124
 20
-0.5292350189966926
 11
0.2124
 21
-0.5880000000000005
  0
LINE
  5
24E
100
AcDbEntity
  8
idiscg
  6
CONTINUOUS
 62
  256
370
   -1
100
AcDbLine
 10
0.3538773537940425
 20
-0.5330866406498487
 11
0.3538773537940425
 21
-0.5880000000000005
  0
LINE
  5
24F
100
AcDbEntity
  8
idiscg
  6
CONTINUOUS
 62
  256
370
   -1
100
AcDbLine
 10
0.4246773537940424
 20
-0.541434160532245
 11
0.4246773537940424
 21
-0.5880000000000005
  0
LINE
  5
250
100
AcDbEntity
  8
idiscg
  6
CONTINUOUS
 62
  256
370
   -1
100
AcDbLine
 10
0.4954773537940423
 20
-0.5590275456638891
 11
0.4954773537940423
 21
-0.5880000000000005
  0
LINE
  5
251
100
AcDbEntity
  8
idiscg
  6
CONTINUOUS
 62
  256
370
   -1
100
AcDbLine
 10
0.5662773537940422
 20
-0.5373731760412284
 11
0.5662773537940422
 21
-0.5880000000000005
  0
LINE
  5
252
100
AcDbEntity
  8
idiscg
  6
CONTINUOUS
 62
  256
370
   -1
100
AcDbLine
 10
0.6370773537940422
 20
-0.5276400397401788
 11
0.6370773537940422
 21
-0.5880000000000005
  0
LEADER
  5
253
100
AcDbEntity
  8
0
  6
ByLayer
 62
  256
370
   -1
100
AcDbLeader
  3
Standard
 71
    1
 72
    0
 73
    3
 74
    0
 75
    0
 40
1
 41
10
 76
2
 76
2
 10
0.2006652033722736
 20
-0.5164048244897963
 30
0
 10
0.1406773537940423
 20
-0.4500000000000002
 30
0
  0
LEADER
  5
254
100
AcDbEntity
  8
0
  6
ByLayer
 62
  256
370
   -1
100
AcDbLeader
  3
Standard
 71
    1
 72
    0
 73
    3
 74
    0
 75
    0
 40
1
 41
10
 76
2
 76
2
 10
0.2362930921687318
 20
-0.5143018363912351
 30
0
 10
0.2106773537940423
 20
-0.4500000000000002
 30
0
  0
LEADER
  5
255
100
AcDbEntity
  8
0
  6
ByLayer
 62
  256
370
   -1
100
AcDbLeader
  3
Standard
 71
    1
 72
    0
 73
    3
 74
    0
 75
    0
 40
1
 41
10
 76
2
 76
2
 10
0.3473739017330107
 20
-0.525860582804258
 30
0
 10
0.2830773537940425
 20
-0.45
 30
0
  0
LEADER
  5
256
100
AcDbEntity
  8
0
  6
ByLayer
 62
  256
370
   -1
100
AcDbLeader
  3
Standard
 71
    1
 72
    0
 73
    3
 74
    0
 75
    0
 40
1
 41
10
 76
2
 76
2
 10
0.3942948538167609
 20
-0.5076758272241544
 30
0
 10
0.3538773537940424
 20
-0.45
 30
0
  0
LEADER
  5
257
100
AcDbEntity
  8
0
  6
ByLayer
 62
  256
370
   -1
100
AcDbLeader
  3
Standard
 71
    1
 72
    0
 73
    3
 74
    0
 75
    0
 40
1
 41
10
 76
2
 76
2
 10
0.4597805862806658
 20
-0.5193644706490266
 30
0
 10
0.4246773537940423
 20
-0.45
 30
0
  0
LEADER
  5
258
100
AcDbEntity
  8
0
  6
ByLayer
 62
  256
370
   -1
100
AcDbLeader
  3
Standard
 71
    1
 72
    0
 73
    3
 74
    0
 75
    0
 40
1
 41
10
 76
2
 76
2
 10
0.5531391098295978
 20
-0.5227751271918457
 30
0
 10
0.4954773537940422
 20
-0.45
 30
0
  0
LEADER
  5
259
100
AcDbEntity
  8
0
  6
ByLayer
 62
  256
370
   -1
100
AcDbLeader
  3
Standard
 71
    1
 72
    0
 73
    3
 74
    0
 75
    0
 40
1
 41
10
 76
2
 76
2
 10
0.6170871147460224
 20
-0.5054286630201568
 30
0
 10
0.5662773537940422
 20
-0.45
 30
0
  0
LEADER
  5
25A
100
AcDbEntity
  8
0
  6
ByLayer
 62
  256
370
   -1
100
AcDbLeader
  3
Standard
 71
    1
 72
    0
 73
    3
 74
    0
 75
    0
 40
1
 41
10
 76
2
 76
2
 10
0.672515104413634
 20
-0.5053600355658838
 30
0
 10
0.6370773537940422
 20
-0.45
 30
0
  0
LINE
  5
25B
100
AcDbEntity
  8
idiscg
  6
CONTINUOUS
 62
  256
370
   -1
100
AcDbLine
 10
0.2830773537940423
 20
-0.5662843493082468
 11
0.2830773537940423
 21
-0.5880000000000005
  0
LINE
  5
25C
100
AcDbEntity
  8
axis
  6
ByLayer
 62
  256
370
   -1
100
AcDbLine
 10
8.326672684688673e-17
 20
-0.7508000000000008
 11
0.708
 21
-0.7508000000000008
  0
CIRCLE
  5
25D
100
AcDbEntity
  8
sample
  6
ByLayer
 62
  256
370
   -1
100
AcDbCircle
 10
0.07080000000000009
 20
-0.7157087104761912
 40
0.000708
  0
CIRCLE
  5
25E
100
AcDbEntity
  8
sample
  6
ByLayer
 62
  256
370
   -1
100
AcDbCircle
 10
0.1417226462059578
 20
-0.6913270189966929
 40
0.000708
  0
CIRCLE
  5
25F
100
AcDbEntity
  8
sample
  6
ByLayer
 62
  256
370
   -1
100
AcDbCircle
 10
0.2124000000000001
 20
-0.7283763493082471
 40
0.000708
  0
CIRCLE
  5
260
100
AcDbEntity
  8
sample
  6
ByLayer
 62
  256
370
   -1
100
AcDbCircle
 10
0.2832000000000002
 20
-0.6951786406498492
 40
0.000708
  0
CIRCLE
  5
261
100
AcDbEntity
  8
sample
  6
ByLayer
 62
  256
370
   -1
100
AcDbCircle
 10
0.3540000000000001
 20
-0.7035261605322454
 40
0.000708
  0
CIRCLE
  5
262
100
AcDbEntity
  8
sample
  6
ByLayer
 62
  256
370
   -1
100
AcDbCircle
 10
0.4248
 20
-0.7211195456638897
 40
0.000708
  0
CIRCLE
  5
263
100
AcDbEntity
  8
sample
  6
ByLayer
 62
  256
370
   -1
100
AcDbCircle
 10
0.4955999999999999
 20
-0.6994651760412289
 40
0.000708
  0
CIRCLE
  5
264
100
AcDbEntity
  8
sample
  6
ByLayer
 62
  256
370
   -1
100
AcDbCircle
 10
0.5663999999999999
 20
-0.6897320397401792
 40
0.000708
  0
CIRCLE
  5
265
100
AcDbEntity
  8
sample
  6
ByLayer
 62
  256
370
   -1
100
AcDbCircle
 10
0.6371999999999999
 20
-0.7067434237663379
 40
0.000708
  0
LINE
  5
266
100
AcDbEntity
  8
sig
  6
ByLayer
 62
  256
370
   -1
100
AcDbLine
 10
0.07080000000000009
 20
-0.7164167104761914
 11
0.07080000000000009
 21
-0.7508000000000008
  0
LINE
  5
267
100
AcDbEntity
  8
sig
  6
ByLayer
 62
  256
370
   -1
100
AcDbLine
 10
0.1417226462059578
 20
-0.6920350189966928
 11
0.1417226462059578
 21
-0.7508000000000008
  0
LINE
  5
268
100
AcDbEntity
  8
sig
  6
ByLayer
 62
  256
370
   -1
100
AcDbLine
 10
0.2124000000000001
 20
-0.7290843493082473
 11
0.2124000000000001
 21
-0.7508000000000008
  0
LINE
  5
269
100
AcDbEntity
  8
sig
  6
ByLayer
 62
  256
370
   -1
100
AcDbLine
 10
0.2832000000000002
 20
-0.6958866406498492
 11
0.2832000000000002
 21
-0.7508000000000008
  0
LINE
  5
26A
100
AcDbEntity
  8
sig
  6
ByLayer
 62
  256
370
   -1
100
AcDbLine
 10
0.3540000000000001
 20
-0.7042341605322453
 11
0.3540000000000001
 21
-0.7508000000000008
  0
LINE
  5
26B
100
AcDbEntity
  8
sig
  6
ByLayer
 62
  256
370
   -1
100
AcDbLine
 10
0.4248
 20
-0.7218275456638896
 11
0.4248
 21
-0.7508000000000008
  0
LINE
  5
26C
100
AcDbEntity
  8
sig
  6
ByLayer
 62
  256
370
   -1
100
AcDbLine
 10
0.4955999999999999
 20
-0.7001731760412289
 11
0.4955999999999999
 21
-0.7508000000000008
  0
LINE
  5
26D
100
AcDbEntity
  8
sig
  6
ByLayer
 62
  256
370
   -1
100
AcDbLine
 10
0.5663999999999999
 20
-0.6904400397401791
 11
0.5663999999999999
 21
-0.7508000000000008
  0
LINE
  5
26E
100
AcDbEntity
  8
sig
  6
ByLayer
 62
  256
370
   -1
100
AcDbLine
 10
0.6371999999999999
 20
-0.7074514237663379
 11
0.6371999999999999
 21
-0.7508000000000008
  0
LINE
  5
26F
100
AcDbEntity
  8
axis
  6
ByLayer
 62
  256
370
   -1
100
AcDbLine
 10
8.326672684688673e-17
 20
-0.8384000000000007
 11
0.708
 21
-0.8384000000000007
  0
LINE
  5
270
100
AcDbEntity
  8
axis
  6
ByLayer
 62
  256
370
   -1
100
AcDbLine
 10
8.326672684688673e-17
 20
-0.976000000000001
 11
0.708
 21
-0.976000000000001
  0
LINE
  5
271
100
AcDbEntity
  8
icg
  6
ByLayer
 62
  256
370
   -1
100
AcDbLine
 10
0.2831999999999999
 20
-0.9542843493082472
 11
0.2831999999999999
 21
-0.976000000000001
  0
LINE
  5
272
100
AcDbEntity
  8
icg
  6
DASHEDTINY
 62
  256
370
   -1
100
AcDbLine
 10
0.07079999999999995
 20
-0.9193600000000007
 11
0.1031657142857142
 21
-0.8989119485714292
  0
LINE
  5
273
100
AcDbEntity
  8
icg
  6
DASHEDTINY
 62
  256
370
   -1
100
AcDbLine
 10
0.1031657142857142
 20
-0.8989119485714292
 11
0.1031657142857142
 21
-0.976000000000001
  0
LINE
  5
274
100
AcDbEntity
  8
icg
  6
DASHEDTINY
 62
  256
370
   -1
100
AcDbLine
 10
0.07079999999999995
 20
-0.9193600000000007
 11
0.07079999999999995
 21
-0.976000000000001
  0
LINE
  5
275
100
AcDbEntity
  8
icg
  6
ByLayer
 62
  256
370
   -1
100
AcDbLine
 10
0.1415999999999999
 20
-0.9416167104761911
 11
0.2007878495782312
 21
-0.9044048244897965
  0
LINE
  5
276
100
AcDbEntity
  8
icg
  6
ByLayer
 62
  256
370
   -1
100
AcDbLine
 10
0.2831999999999999
 20
-0.9542843493082472
 11
0.3474965479389683
 21
-0.9138605828042584
  0
LINE
  5
277
100
AcDbEntity
  8
icg
  6
ByLayer
 62
  256
370
   -1
100
AcDbLine
 10
0.354
 20
-0.9210866406498491
 11
0.3944175000227185
 21
-0.895675827224155
  0
LINE
  5
278
100
AcDbEntity
  8
icg
  6
ByLayer
 62
  256
370
   -1
100
AcDbLine
 10
0.4247999999999999
 20
-0.9294341605322455
 11
0.4599032324866234
 21
-0.9073644706490268
  0
LINE
  5
279
100
AcDbEntity
  8
icg
  6
ByLayer
 62
  256
370
   -1
100
AcDbLine
 10
0.4955999999999999
 20
-0.9470275456638896
 11
0.5532617560355556
 21
-0.9107751271918462
  0
LINE
  5
27A
100
AcDbEntity
  8
icg
  6
ByLayer
 62
  256
370
   -1
100
AcDbLine
 10
0.5663999999999998
 20
-0.9253731760412288
 11
0.61720976095198
 21
-0.8934286630201571
  0
LINE
  5
27B
100
AcDbEntity
  8
icg
  6
ByLayer
 62
  256
370
   -1
100
AcDbLine
 10
0.6371999999999999
 20
-0.915640039740179
 11
0.6726377506195916
 21
-0.8933600355658842
  0
LINE
  5
27C
100
AcDbEntity
  8
icg
  6
ByLayer
 62
  256
370
   -1
100
AcDbLine
 10
0.2007878495782312
 20
-0.9044048244897965
 11
0.2007878495782312
 21
-0.976000000000001
  0
LINE
  5
27D
100
AcDbEntity
  8
icg
  6
ByLayer
 62
  256
370
   -1
100
AcDbLine
 10
0.3474965479389683
 20
-0.9138605828042584
 11
0.3474965479389683
 21
-0.976000000000001
  0
LINE
  5
27E
100
AcDbEntity
  8
icg
  6
ByLayer
 62
  256
370
   -1
100
AcDbLine
 10
0.3944175000227185
 20
-0.895675827224155
 11
0.3944175000227185
 21
-0.976000000000001
  0
LINE
  5
27F
100
AcDbEntity
  8
icg
  6
ByLayer
 62
  256
370
   -1
100
AcDbLine
 10
0.4599032324866234
 20
-0.9073644706490268
 11
0.4599032324866234
 21
-0.976000000000001
  0
LINE
  5
280
100
AcDbEntity
  8
icg
  6
ByLayer
 62
  256
370
   -1
100
AcDbLine
 10
0.5532617560355555
 20
-0.9107751271918462
 11
0.5532617560355555
 21
-0.976000000000001
  0
LINE
  5
281
100
AcDbEntity
  8
icg
  6
ByLayer
 62
  256
370
   -1
100
AcDbLine
 10
0.61720976095198
 20
-0.8934286630201571
 11
0.61720976095198
 21
-0.976000000000001
  0
LINE
  5
282
100
AcDbEntity
  8
icg
  6
ByLayer
 62
  256
370
   -1
100
AcDbLine
 10
0.6726377506195916
 20
-0.8933600355658842
 11
0.6726377506195916
 21
-0.976000000000001
  0
LINE
  5
283
100
AcDbEntity
  8
icg
  6
ByLayer
 62
  256
370
   -1
100
AcDbLine
 10
0.1415999999999999
 20
-0.9416167104761911
 11
0.1415999999999999
 21
-0.976000000000001
  0
LINE
  5
284
100
AcDbEntity
  8
icg
  6
ByLayer
 62
  256
370
   -1
100
AcDbLine
 10
0.3540000000000001
 20
-0.9210866406498491
 11
0.3540000000000001
 21
-0.976000000000001
  0
LINE
  5
285
100
AcDbEntity
  8
icg
  6
ByLayer
 62
  256
370
   -1
100
AcDbLine
 10
0.4248
 20
-0.9294341605322455
 11
0.4248
 21
-0.976000000000001
  0
LINE
  5
286
100
AcDbEntity
  8
icg
  6
ByLayer
 62
  256
370
   -1
100
AcDbLine
 10
0.4955999999999999
 20
-0.9470275456638896
 11
0.4955999999999999
 21
-0.976000000000001
  0
LINE
  5
287
100
AcDbEntity
  8
icg
  6
ByLayer
 62
  256
370
   -1
100
AcDbLine
 10
0.5663999999999998
 20
-0.9253731760412288
 11
0.5663999999999998
 21
-0.976000000000001
  0
LINE
  5
288
100
AcDbEntity
  8
icg
  6
ByLayer
 62
  256
370
   -1
100
AcDbLine
 10
0.6371999999999998
 20
-0.915640039740179
 11
0.6371999999999998
 21
-0.976000000000001
  0
LINE
  5
289
100
AcDbEntity
  8
icg
  6
ByLayer
 62
  256
370
   -1
100
AcDbLine
 10
0.2142452924119153
 20
-0.917235018996693
 11
0.2381383845806471
 21
-0.9023018363912355
  0
LINE
  5
28A
100
AcDbEntity
  8
icg
  6
ByLayer
 62
  256
370
   -1
100
AcDbLine
 10
0.2381383845806471
 20
-0.9023018363912355
 11
0.2381383845806471
 21
-0.976000000000001
  0
LINE
  5
28B
100
AcDbEntity
  8
icg
  6
ByLayer
 62
  256
370
   -1
100
AcDbLine
 10
0.2142452924119153
 20
-0.917235018996693
 11
0.2142452924119153
 21
-0.976000000000001
  0
CIRCLE
  5
28C
100
AcDbEntity
  8
sample
  6
ByLayer
 62
  256
370
   -1
100
AcDbCircle
 10
0.2832000000000001
 20
-0.8011261605322453
 40
0.000708
  0
CIRCLE
  5
28D
100
AcDbEntity
  8
sample
  6
ByLayer
 62
  256
370
   -1
100
AcDbCircle
 10
0.5663999999999999
 20
-0.8043434237663378
 40
0.000708
  0
CIRCLE
  5
28E
100
AcDbEntity
  8
sample
  6
ByLayer
 62
  256
370
   -1
100
AcDbCircle
 10
0.1416000000000001
 20
-0.8080000000000005
 40
0.000708
  0
CIRCLE
  5
28F
100
AcDbEntity
  8
sample
  6
ByLayer
 62
  256
370
   -1
100
AcDbCircle
 10
0.2124000000000002
 20
-0.8280000000000003
 40
0.000708
  0
CIRCLE
  5
290
100
AcDbEntity
  8
sample
  6
ByLayer
 62
  256
370
   -1
100
AcDbCircle
 10
0.354
 20
-0.8087195456638898
 40
0.000708
  0
CIRCLE
  5
291
100
AcDbEntity
  8
sample
  6
ByLayer
 62
  256
370
   -1
100
AcDbCircle
 10
0.4248
 20
-0.8170651760412291
 40
0.000708
  0
CIRCLE
  5
292
100
AcDbEntity
  8
sample
  6
ByLayer
 62
  256
370
   -1
100
AcDbCircle
 10
0.4955999999999999
 20
-0.8073320397401793
 40
0.000708
  0
LINE
  5
293
100
AcDbEntity
  8
sig
  6
ByLayer
 62
  256
370
   -1
100
AcDbLine
 10
0.1416000000000001
 20
-0.8087080000000009
 11
0.1416000000000001
 21
-0.8380000000000003
  0
LINE
  5
294
100
AcDbEntity
  8
sig
  6
ByLayer
 62
  256
370
   -1
100
AcDbLine
 10
0.2124000000000002
 20
-0.8287080000000002
 11
0.2124000000000002
 21
-0.8380000000000003
  0
LINE
  5
295
100
AcDbEntity
  8
sig
  6
ByLayer
 62
  256
370
   -1
100
AcDbLine
 10
0.2832000000000001
 20
-0.8018341605322452
 11
0.2832000000000001
 21
-0.8380000000000003
  0
LINE
  5
296
100
AcDbEntity
  8
sig
  6
ByLayer
 62
  256
370
   -1
100
AcDbLine
 10
0.5663999999999999
 20
-0.8050514237663378
 11
0.5663999999999999
 21
-0.8380000000000003
  0
LINE
  5
297
100
AcDbEntity
  8
sig
  6
ByLayer
 62
  256
370
   -1
100
AcDbLine
 10
0.4955999999999999
 20
-0.8080400397401792
 11
0.4955999999999999
 21
-0.8380000000000003
  0
LINE
  5
298
100
AcDbEntity
  8
sig
  6
ByLayer
 62
  256
370
   -1
100
AcDbLine
 10
0.4248
 20
-0.817773176041229
 11
0.4248
 21
-0.8380000000000003
  0
LINE
  5
299
100
AcDbEntity
  8
sig
  6
ByLayer
 62
  256
370
   -1
100
AcDbLine
 10
0.354
 20
-0.8094275456638897
 11
0.354
 21
-0.8380000000000003
  0
CIRCLE
  5
29A
100
AcDbEntity
  8
sample
  6
ByLayer
 62
  256
370
   -1
100
AcDbCircle
 10
0.6371999999999998
 20
-0.8073320397401793
 40
0.000708
  0
LINE
  5
29B
100
AcDbEntity
  8
sig
  6
ByLayer
 62
  256
370
   -1
100
AcDbLine
 10
0.6371999999999998
 20
-0.8080400397401792
 11
0.6371999999999998
 21
-0.8380000000000003
  0
LEADER
  5
29C
100
AcDbEntity
  8
0
  6
ByLayer
 62
  256
370
   -1
100
AcDbLeader
  3
Standard
 71
    1
 72
    0
 73
    3
 74
    0
 75
    0
 40
1
 41
10
 76
2
 76
2
 10
0.1415999999999999
 20
-0.9416167104761911
 30
0
 10
0.1416000000000001
 20
-0.8380000000000003
 30
0
  0
LEADER
  5
29D
100
AcDbEntity
  8
0
  6
ByLayer
 62
  256
370
   -1
100
AcDbLeader
  3
Standard
 71
    1
 72
    0
 73
    3
 74
    0
 75
    0
 40
1
 41
10
 76
2
 76
2
 10
0.1416000000000001
 20
-0.8072920000000006
 30
0
 10
0.1417226462059578
 20
-0.7508000000000008
 30
0
  0
LEADER
  5
29E
100
AcDbEntity
  8
0
  6
ByLayer
 62
  256
370
   -1
100
AcDbLeader
  3
Standard
 71
    1
 72
    0
 73
    3
 74
    0
 75
    0
 40
1
 41
10
 76
2
 76
2
 10
0.1416000000000001
 20
-0.8072920000000006
 30
0
 10
0.07080000000000009
 20
-0.7508000000000008
 30
0
  0
LEADER
  5
29F
100
AcDbEntity
  8
0
  6
ByLayer
 62
  256
370
   -1
100
AcDbLeader
  3
Standard
 71
    1
 72
    0
 73
    3
 74
    0
 75
    0
 40
1
 41
10
 76
2
 76
2
 10
0.2124000000000002
 20
-0.8272920000000004
 30
0
 10
0.2124000000000001
 20
-0.7508000000000008
 30
0
  0
LEADER
  5
2A0
100
AcDbEntity
  8
0
  6
ByLayer
 62
  256
370
   -1
100
AcDbLeader
  3
Standard
 71
    1
 72
    0
 73
    3
 74
    0
 75
    0
 40
1
 41
10
 76
2
 76
2
 10
0.2116920000000002
 20
-0.8280000000000003
 30
0
 10
0.1417226462059578
 20
-0.7508000000000008
 30
0
  0
LEADER
  5
2A1
100
AcDbEntity
  8
0
  6
ByLayer
 62
  256
370
   -1
100
AcDbLeader
  3
Standard
 71
    1
 72
    0
 73
    3
 74
    0
 75
    0
 40
1
 41
10
 76
2
 76
2
 10
0.2142452924119153
 20
-0.917235018996693
 30
0
 10
0.2124000000000002
 20
-0.8380000000000003
 30
0
  0
LEADER
  5
2A2
100
AcDbEntity
  8
0
  6
ByLayer
 62
  256
370
   -1
100
AcDbLeader
  3
Standard
 71
    1
 72
    0
 73
    3
 74
    0
 75
    0
 40
1
 41
10
 76
2
 76
2
 10
0.2831999999999999
 20
-0.9542843493082472
 30
0
 10
0.2832000000000001
 20
-0.8380000000000003
 30
0
  0
LEADER
  5
2A3
100
AcDbEntity
  8
0
  6
ByLayer
 62
  256
370
   -1
100
AcDbLeader
  3
Standard
 71
    1
 72
    0
 73
    3
 74
    0
 75
    0
 40
1
 41
10
 76
2
 76
2
 10
0.2839080000000001
 20
-0.8011261605322453
 30
0
 10
0.2832000000000002
 20
-0.7508000000000008
 30
0
  0
LEADER
  5
2A4
100
AcDbEntity
  8
0
  6
ByLayer
 62
  256
370
   -1
100
AcDbLeader
  3
Standard
 71
    1
 72
    0
 73
    3
 74
    0
 75
    0
 40
1
 41
10
 76
2
 76
2
 10
0.2824920000000001
 20
-0.8011261605322453
 30
0
 10
0.2124000000000001
 20
-0.7508000000000008
 30
0
  0
LEADER
  5
2A5
100
AcDbEntity
  8
0
  6
ByLayer
 62
  256
370
   -1
100
AcDbLeader
  3
Standard
 71
    1
 72
    0
 73
    3
 74
    0
 75
    0
 40
1
 41
10
 76
2
 76
2
 10
0.354
 20
-0.8094275456638897
 30
0
 10
0.3540000000000001
 20
-0.7508000000000008
 30
0
  0
LEADER
  5
2A6
100
AcDbEntity
  8
0
  6
ByLayer
 62
  256
370
   -1
100
AcDbLeader
  3
Standard
 71
    1
 72
    0
 73
    3
 74
    0
 75
    0
 40
1
 41
10
 76
2
 76
2
 10
0.354708
 20
-0.8087195456638898
 30
0
 10
0.2832000000000002
 20
-0.7508000000000008
 30
0
  0
LEADER
  5
2A7
100
AcDbEntity
  8
0
  6
ByLayer
 62
  256
370
   -1
100
AcDbLeader
  3
Standard
 71
    1
 72
    0
 73
    3
 74
    0
 75
    0
 40
1
 41
10
 76
2
 76
2
 10
0.424092
 20
-0.8170651760412291
 30
0
 10
0.4248
 20
-0.7508000000000008
 30
0
  0
LEADER
  5
2A8
100
AcDbEntity
  8
0
  6
ByLayer
 62
  256
370
   -1
100
AcDbLeader
  3
Standard
 71
    1
 72
    0
 73
    3
 74
    0
 75
    0
 40
1
 41
10
 76
2
 76
2
 10
0.424092
 20
-0.8170651760412291
 30
0
 10
0.3540000000000001
 20
-0.7508000000000008
 30
0
  0
LEADER
  5
2A9
100
AcDbEntity
  8
0
  6
ByLayer
 62
  256
370
   -1
100
AcDbLeader
  3
Standard
 71
    1
 72
    0
 73
    3
 74
    0
 75
    0
 40
1
 41
10
 76
2
 76
2
 10
0.4955999999999999
 20
-0.8066240397401794
 30
0
 10
0.4955999999999999
 20
-0.7508000000000008
 30
0
  0
LEADER
  5
2AA
100
AcDbEntity
  8
0
  6
ByLayer
 62
  256
370
   -1
100
AcDbLeader
  3
Standard
 71
    1
 72
    0
 73
    3
 74
    0
 75
    0
 40
1
 41
10
 76
2
 76
2
 10
0.4948919999999999
 20
-0.8073320397401793
 30
0
 10
0.4248
 20
-0.7508000000000008
 30
0
  0
LEADER
  5
2AB
100
AcDbEntity
  8
0
  6
ByLayer
 62
  256
370
   -1
100
AcDbLeader
  3
Standard
 71
    1
 72
    0
 73
    3
 74
    0
 75
    0
 40
1
 41
10
 76
2
 76
2
 10
0.5671079999999999
 20
-0.8043434237663378
 30
0
 10
0.5663999999999999
 20
-0.7508000000000008
 30
0
  0
LEADER
  5
2AC
100
AcDbEntity
  8
0
  6
ByLayer
 62
  256
370
   -1
100
AcDbLeader
  3
Standard
 71
    1
 72
    0
 73
    3
 74
    0
 75
    0
 40
1
 41
10
 76
2
 76
2
 10
0.5656919999999999
 20
-0.8043434237663378
 30
0
 10
0.4955999999999999
 20
-0.7508000000000008
 30
0
  0
LEADER
  5
2AD
100
AcDbEntity
  8
0
  6
ByLayer
 62
  256
370
   -1
100
AcDbLeader
  3
Standard
 71
    1
 72
    0
 73
    3
 74
    0
 75
    0
 40
1
 41
10
 76
2
 76
2
 10
0.6364919999999997
 20
-0.8073320397401793
 30
0
 10
0.5663999999999999
 20
-0.7508000000000008
 30
0
  0
LEADER
  5
2AE
100
AcDbEntity
  8
0
  6
ByLayer
 62
  256
370
   -1
100
AcDbLeader
  3
Standard
 71
    1
 72
    0
 73
    3
 74
    0
 75
    0
 40
1
 41
10
 76
2
 76
2
 10
0.6371999999999998
 20
-0.8066240397401794
 30
0
 10
0.6371999999999999
 20
-0.7508000000000008
 30
0
  0
LEADER
  5
2AF
100
AcDbEntity
  8
0
  6
ByLayer
 62
  256
370
   -1
100
AcDbLeader
  3
Standard
 71
    1
 72
    0
 73
    3
 74
    0
 75
    0
 40
1
 41
10
 76
2
 76
2
 10
0.3540000000000001
 20
-0.9210866406498491
 30
0
 10
0.354
 20
-0.8380000000000003
 30
0
  0
LEADER
  5
2B0
100
AcDbEntity
  8
0
  6
ByLayer
 62
  256
370
   -1
100
AcDbLeader
  3
Standard
 71
    1
 72
    0
 73
    3
 74
    0
 75
    0
 40
1
 41
10
 76
2
 76
2
 10
0.4248
 20
-0.9294341605322455
 30
0
 10
0.4248
 20
-0.8380000000000003
 30
0
  0
LEADER
  5
2B1
100
AcDbEntity
  8
0
  6
ByLayer
 62
  256
370
   -1
100
AcDbLeader
  3
Standard
 71
    1
 72
    0
 73
    3
 74
    0
 75
    0
 40
1
 41
10
 76
2
 76
2
 10
0.4955999999999999
 20
-0.9470275456638896
 30
0
 10
0.4955999999999999
 20
-0.8380000000000003
 30
0
  0
LEADER
  5
2B2
100
AcDbEntity
  8
0
  6
ByLayer
 62
  256
370
   -1
100
AcDbLeader
  3
Standard
 71
    1
 72
    0
 73
    3
 74
    0
 75
    0
 40
1
 41
10
 76
2
 76
2
 10
0.5663999999999998
 20
-0.9253731760412288
 30
0
 10
0.5663999999999999
 20
-0.8380000000000003
 30
0
  0
LEADER
  5
2B3
100
AcDbEntity
  8
0
  6
ByLayer
 62
  256
370
   -1
100
AcDbLeader
  3
Standard
 71
    1
 72
    0
 73
    3
 74
    0
 75
    0
 40
1
 41
10
 76
2
 76
2
 10
0.6371999999999998
 20
-0.915640039740179
 30
0
 10
0.6371999999999998
 20
-0.8380000000000003
 30
0
  0
LINE
  5
2B4
100
AcDbEntity
  8
axis
  6
ByLayer
 62
  256
370
   -1
100
AcDbLine
 10
8.673617379884039e-18
 20
0.15
 11
0.708
 21
0.15
  0
LINE
  5
2B5
100
AcDbEntity
  8
ic
  6
ByLayer
 62
  256
370
   -1
100
AcDbLine
 10
0.6372
 20
0.24204
 11
0.6372
 21
0.15
  0
LINE
  5
2B6
100
AcDbEntity
  8
ic
  6
ByLayer
 62
  256
370
   -1
100
AcDbLine
 10
0.5664
 20
0.24912
 11
0.5664
 21
0.15
  0
LINE
  5
2B7
100
AcDbEntity
  8
ic
  6
ByLayer
 62
  256
370
   -1
100
AcDbLine
 10
0.354
 20
0.23496
 11
0.354
 21
0.15
  0
LINE
  5
2B8
100
AcDbEntity
  8
ic
  6
ByLayer
 62
  256
370
   -1
100
AcDbLine
 10
0.1416
 20
0.23496
 11
0.1416
 21
0.15
  0
LINE
  5
2B9
100
AcDbEntity
  8
ic
  6
ByLayer
 62
  256
370
   -1
100
AcDbLine
 10
0.0007080000000000086
 20
0.24204
 11
0.07009200000000002
 21
0.24204
  0
LINE
  5
2BA
100
AcDbEntity
  8
ic
  6
ByLayer
 62
  256
370
   -1
100
AcDbLine
 10
0.142308
 20
0.23496
 11
0.211692
 21
0.23496
  0
LINE
  5
2BB
100
AcDbEntity
  8
ic
  6
ByLayer
 62
  256
370
   -1
100
AcDbLine
 10
0.283908
 20
0.24912
 11
0.354
 21
0.24912
  0
LINE
  5
2BC
100
AcDbEntity
  8
ic
  6
ByLayer
 62
  256
370
   -1
100
AcDbLine
 10
0.4255080000000001
 20
0.24204
 11
0.4956
 21
0.24204
  0
LINE
  5
2BD
100
AcDbEntity
  8
ic
  6
ByLayer
 62
  256
370
   -1
100
AcDbLine
 10
0.4956
 20
0.24204
 11
0.4956
 21
0.248412
  0
LINE
  5
2BE
100
AcDbEntity
  8
ic
  6
ByLayer
 62
  256
370
   -1
100
AcDbLine
 10
0.5671079999999999
 20
0.24912
 11
0.6372
 21
0.24912
  0
LINE
  5
2BF
100
AcDbEntity
  8
ic
  6
ByLayer
 62
  256
370
   -1
100
AcDbLine
 10
0.6372
 20
0.24912
 11
0.6372
 21
0.242748
  0
LINE
  5
2C0
100
AcDbEntity
  8
ic
  6
ByLayer
 62
  256
370
   -1
100
AcDbLine
 10
0.6379079999999999
 20
0.24204
 11
0.708
 21
0.24204
  0
LINE
  5
2C1
100
AcDbEntity
  8
ic
  6
ByLayer
 62
  256
370
   -1
100
AcDbLine
 10
0.07150800000000002
 20
0.24912
 11
0.1416
 21
0.24912
  0
LINE
  5
2C2
100
AcDbEntity
  8
ic
  6
ByLayer
 62
  256
370
   -1
100
AcDbLine
 10
0.213108
 20
0.24204
 11
0.2832000000000001
 21
0.24204
  0
LINE
  5
2C3
100
AcDbEntity
  8
ic
  6
ByLayer
 62
  256
370
   -1
100
AcDbLine
 10
0.4963080000000001
 20
0.2562
 11
0.565692
 21
0.2562
  0
LINE
  5
2C4
100
AcDbEntity
  8
ic
  6
ByLayer
 62
  256
370
   -1
100
AcDbLine
 10
0.07080000000000002
 20
0.248412
 11
0.07080000000000002
 21
0.24204
  0
LINE
  5
2C5
100
AcDbEntity
  8
ic
  6
ByLayer
 62
  256
370
   -1
100
AcDbLine
 10
0.1416
 20
0.24204
 11
0.1416
 21
0.24912
  0
LINE
  5
2C6
100
AcDbEntity
  8
ic
  6
ByLayer
 62
  256
370
   -1
100
AcDbLine
 10
0.2124
 20
0.241332
 11
0.2124
 21
0.23496
  0
LINE
  5
2C7
100
AcDbEntity
  8
ic
  6
ByLayer
 62
  256
370
   -1
100
AcDbLine
 10
0.2124
 20
0.23496
 11
0.211692
 21
0.23496
  0
LINE
  5
2C8
100
AcDbEntity
  8
ic
  6
ByLayer
 62
  256
370
   -1
100
AcDbLine
 10
0.4956
 20
0.248412
 11
0.4956
 21
0.255492
  0
LINE
  5
2C9
100
AcDbEntity
  8
ic
  6
ByLayer
 62
  256
370
   -1
100
AcDbLine
 10
0.565692
 20
0.2562
 11
0.5664
 21
0.2562
  0
LINE
  5
2CA
100
AcDbEntity
  8
ic
  6
ByLayer
 62
  256
370
   -1
100
AcDbLine
 10
0.5664
 20
0.2562
 11
0.5664
 21
0.249828
  0
LINE
  5
2CB
100
AcDbEntity
  8
ic
  6
ByLayer
 62
  256
370
   -1
100
AcDbLine
 10
0.2832000000000001
 20
0.24204
 11
0.2832000000000001
 21
0.248412
  0
LINE
  5
2CC
100
AcDbEntity
  8
ic
  6
ByLayer
 62
  256
370
   -1
100
AcDbLine
 10
0.3547080000000001
 20
0.23496
 11
0.4240920000000001
 21
0.23496
  0
LINE
  5
2CD
100
AcDbEntity
  8
ic
  6
ByLayer
 62
  256
370
   -1
100
AcDbLine
 10
0.354
 20
0.24912
 11
0.354
 21
0.235668
  0
LINE
  5
2CE
100
AcDbEntity
  8
ic
  6
ByLayer
 62
  256
370
   -1
100
AcDbLine
 10
0.4956
 20
0.255492
 11
0.4956
 21
0.15
  0
LINE
  5
2CF
100
AcDbEntity
  8
ic
  6
ByLayer
 62
  256
370
   -1
100
AcDbLine
 10
0.4248000000000001
 20
0.24204
 11
0.4248000000000001
 21
0.15
  0
LINE
  5
2D0
100
AcDbEntity
  8
ic
  6
ByLayer
 62
  256
370
   -1
100
AcDbLine
 10
0.2832000000000001
 20
0.24912
 11
0.2832000000000001
 21
0.15
  0
LINE
  5
2D1
100
AcDbEntity
  8
ic
  6
ByLayer
 62
  256
370
   -1
100
AcDbLine
 10
0.2124
 20
0.24204
 11
0.2124
 21
0.15
  0
LINE
  5
2D2
100
AcDbEntity
  8
ic
  6
ByLayer
 62
  256
370
   -1
100
AcDbLine
 10
0.07080000000000002
 20
0.248412
 11
0.07080000000000002
 21
0.15
  0
LINE
  5
2D3
100
AcDbEntity
  8
ic
  6
ByLayer
 62
  256
370
   -1
100
AcDbLine
 10
0.1416
 20
0.24204
 11
0.1416
 21
0.235668
  0
LINE
  5
2D4
100
AcDbEntity
  8
axis
  6
ByLayer
 62
  256
370
   -1
100
AcDbLine
 10
-1.040834085586084e-17
 20
0.3
 11
0.708
 21
0.3
  0
LINE
  5
2D5
100
AcDbEntity
  8
axis
  6
ByLayer
 62
  256
370
   -1
100
AcDbLine
 10
-2.949029909160571e-17
 20
0.4500000000000001
 11
0.708
 21
0.4500000000000001
  0
LINE
  5
2D6
100
AcDbEntity
  8
ic
  6
ByLayer
 62
  256
370
   -1
100
AcDbLine
 10
0.6372
 20
0.3920400000000001
 11
0.6372
 21
0.3
  0
LINE
  5
2D7
100
AcDbEntity
  8
ic
  6
ByLayer
 62
  256
370
   -1
100
AcDbLine
 10
0.5664
 20
0.39912
 11
0.5664
 21
0.3
  0
LINE
  5
2D8
100
AcDbEntity
  8
ic
  6
ByLayer
 62
  256
370
   -1
100
AcDbLine
 10
0.4956
 20
0.4054920000000001
 11
0.4956
 21
0.3
  0
LINE
  5
2D9
100
AcDbEntity
  8
ic
  6
ByLayer
 62
  256
370
   -1
100
AcDbLine
 10
0.4248000000000001
 20
0.3920400000000001
 11
0.4248000000000001
 21
0.3
  0
LINE
  5
2DA
100
AcDbEntity
  8
ic
  6
ByLayer
 62
  256
370
   -1
100
AcDbLine
 10
0.354
 20
0.3849600000000001
 11
0.354
 21
0.3
  0
LINE
  5
2DB
100
AcDbEntity
  8
ic
  6
ByLayer
 62
  256
370
   -1
100
AcDbLine
 10
0.2832
 20
0.39912
 11
0.2832
 21
0.3
  0
LINE
  5
2DC
100
AcDbEntity
  8
ic
  6
ByLayer
 62
  256
370
   -1
100
AcDbLine
 10
0.2124
 20
0.3920400000000001
 11
0.2124
 21
0.3
  0
LINE
  5
2DD
100
AcDbEntity
  8
ic
  6
ByLayer
 62
  256
370
   -1
100
AcDbLine
 10
0.1416
 20
0.3849600000000001
 11
0.1416
 21
0.3
  0
LINE
  5
2DE
100
AcDbEntity
  8
ic
  6
ByLayer
 62
  256
370
   -1
100
AcDbLine
 10
0.0708
 20
0.3984120000000001
 11
0.0708
 21
0.3
  0
CIRCLE
  5
2DF
100
AcDbEntity
  8
sample
  6
ByLayer
 62
  256
370
   -1
100
AcDbCircle
 10
0.1416
 20
0.3849600000000001
 40
0.000708
  0
CIRCLE
  5
2E0
100
AcDbEntity
  8
sample
  6
ByLayer
 62
  256
370
   -1
100
AcDbCircle
 10
0.2832
 20
0.39912
 40
0.000708
  0
CIRCLE
  5
2E1
100
AcDbEntity
  8
sample
  6
ByLayer
 62
  256
370
   -1
100
AcDbCircle
 10
0.4248000000000001
 20
0.3920400000000001
 40
0.000708
  0
CIRCLE
  5
2E2
100
AcDbEntity
  8
sample
  6
ByLayer
 62
  256
370
   -1
100
AcDbCircle
 10
0.6372
 20
0.3920400000000001
 40
0.000708
  0
CIRCLE
  5
2E3
100
AcDbEntity
  8
sample
  6
ByLayer
 62
  256
370
   -1
100
AcDbCircle
 10
0.5664
 20
0.39912
 40
0.000708
  0
CIRCLE
  5
2E4
100
AcDbEntity
  8
sample
  6
ByLayer
 62
  256
370
   -1
100
AcDbCircle
 10
0.0708
 20
0.39912
 40
0.000708
  0
CIRCLE
  5
2E5
100
AcDbEntity
  8
sample
  6
ByLayer
 62
  256
370
   -1
100
AcDbCircle
 10
0.2124
 20
0.3920400000000001
 40
0.000708
  0
CIRCLE
  5
2E6
100
AcDbEntity
  8
sample
  6
ByLayer
 62
  256
370
   -1
100
AcDbCircle
 10
0.4956
 20
0.4062000000000001
 40
0.000708
  0
CIRCLE
  5
2E7
100
AcDbEntity
  8
sample
  6
ByLayer
 62
  256
370
   -1
100
AcDbCircle
 10
0.354
 20
0.3849600000000001
 40
0.000708
  0
LINE
  5
2E8
100
AcDbEntity
  8
ic
  6
ByLayer
 62
  256
370
   -1
100
AcDbLine
 10
0.6372
 20
0.09204000000000012
 11
0.6372
 21
1.110223024625157e-16
  0
LINE
  5
2E9
100
AcDbEntity
  8
ic
  6
ByLayer
 62
  256
370
   -1
100
AcDbLine
 10
0.5664
 20
0.0991200000000001
 11
0.5664
 21
1.110223024625157e-16
  0
LINE
  5
2EA
100
AcDbEntity
  8
ic
  6
ByLayer
 62
  256
370
   -1
100
AcDbLine
 10
0.4956
 20
0.1054920000000001
 11
0.4956
 21
1.110223024625157e-16
  0
LINE
  5
2EB
100
AcDbEntity
  8
ic
  6
ByLayer
 62
  256
370
   -1
100
AcDbLine
 10
0.4248
 20
0.09204000000000012
 11
0.4248
 21
1.110223024625157e-16
  0
LINE
  5
2EC
100
AcDbEntity
  8
ic
  6
ByLayer
 62
  256
370
   -1
100
AcDbLine
 10
0.354
 20
0.08496000000000015
 11
0.354
 21
1.110223024625157e-16
  0
LINE
  5
2ED
100
AcDbEntity
  8
ic
  6
ByLayer
 62
  256
370
   -1
100
AcDbLine
 10
0.2832
 20
0.0991200000000001
 11
0.2832
 21
1.110223024625157e-16
  0
LINE
  5
2EE
100
AcDbEntity
  8
ic
  6
ByLayer
 62
  256
370
   -1
100
AcDbLine
 10
0.2124
 20
0.09204000000000012
 11
0.2124
 21
1.110223024625157e-16
  0
LINE
  5
2EF
100
AcDbEntity
  8
ic
  6
ByLayer
 62
  256
370
   -1
100
AcDbLine
 10
0.1416
 20
0.08496000000000015
 11
0.1416
 21
1.110223024625157e-16
  0
LINE
  5
2F0
100
AcDbEntity
  8
ic
  6
ByLayer
 62
  256
370
   -1
100
AcDbLine
 10
0.07079999999999997
 20
0.09841200000000017
 11
0.07079999999999997
 21
1.110223024625157e-16
  0
CIRCLE
  5
2F1
100
AcDbEntity
  8
sample
  6
ByLayer
 62
  256
370
   -1
100
AcDbCircle
 10
0.1416
 20
0.08496000000000015
 40
0.000708
  0
CIRCLE
  5
2F2
100
AcDbEntity
  8
sample
  6
ByLayer
 62
  256
370
   -1
100
AcDbCircle
 10
0.2832
 20
0.0991200000000001
 40
0.000708
  0
CIRCLE
  5
2F3
100
AcDbEntity
  8
sample
  6
ByLayer
 62
  256
370
   -1
100
AcDbCircle
 10
0.4248
 20
0.09204000000000012
 40
0.000708
  0
CIRCLE
  5
2F4
100
AcDbEntity
  8
sample
  6
ByLayer
 62
  256
370
   -1
100
AcDbCircle
 10
0.6372
 20
0.09204000000000012
 40
0.000708
  0
CIRCLE
  5
2F5
100
AcDbEntity
  8
sample
  6
ByLayer
 62
  256
370
   -1
100
AcDbCircle
 10
0.5664
 20
0.0991200000000001
 40
0.000708
  0
CIRCLE
  5
2F6
100
AcDbEntity
  8
sample
  6
ByLayer
 62
  256
370
   -1
100
AcDbCircle
 10
0.07079999999999997
 20
0.0991200000000001
 40
0.000708
  0
CIRCLE
  5
2F7
100
AcDbEntity
  8
sample
  6
ByLayer
 62
  256
370
   -1
100
AcDbCircle
 10
0.2124
 20
0.09204000000000012
 40
0.000708
  0
CIRCLE
  5
2F8
100
AcDbEntity
  8
sample
  6
ByLayer
 62
  256
370
   -1
100
AcDbCircle
 10
0.4956
 20
0.1062000000000002
 40
0.000708
  0
CIRCLE
  5
2F9
100
AcDbEntity
  8
sample
  6
ByLayer
 62
  256
370
   -1
100
AcDbCircle
 10
0.354
 20
0.08496000000000015
 40
0.000708
  0
SPLINE
  5
2FA
100
AcDbEntity
  8
ic
  6
ByLayer
 62
  256
370
   -1
100
AcDbSpline
210
0
220
0
230
0
 70
    8
 71
    2
 72
   24
 73
   21
 74
    0
 42
1e-07
 43
1e-07
 40
0
 40
0
 40
0
 40
0.05263157894736842
 40
0.1052631578947368
 40
0.1578947368421053
 40
0.2105263157894737
 40
0.2631578947368421
 40
0.3157894736842105
 40
0.3684210526315789
 40
0.4210526315789473
 40
0.4736842105263158
 40
0.5263157894736842
 40
0.5789473684210527
 40
0.631578947368421
 40
0.6842105263157895
 40
0.7368421052631579
 40
0.7894736842105263
 40
0.8421052631578947
 40
0.8947368421052632
 40
0.9473684210526315
 40
1
 40
1
 40
1
 10
-2.949029909160571e-17
 20
0.5420400000000001
 30
0
 10
0.033778542079093
 20
0.5502215113809323
 30
0
 10
0.07181040974799008
 20
0.5481006005856344
 30
0
 10
0.1019502104094717
 20
0.5541458753868418
 30
0
 10
0.1409733009718412
 20
0.530367478367737
 30
0
 10
0.1806914890515405
 20
0.5438650075858751
 30
0
 10
0.2164876319895028
 20
0.5396729064835379
 30
0
 10
0.2515121107611001
 20
0.5607331222362065
 30
0
 10
0.2847783792205703
 20
0.5449433790037596
 30
0
 10
0.319863571911084
 20
0.5625839550923278
 30
0
 10
0.3541325391021816
 20
0.5269866648489924
 30
0
 10
0.3932970008140264
 20
0.5544081436424475
 30
0
 10
0.427313691101168
 20
0.5372012712475307
 30
0
 10
0.4586061873829907
 20
0.5593137771754952
 30
0
 10
0.4974373267612076
 20
0.5552158684855283
 30
0
 10
0.5355688444173504
 20
0.5588412730320621
 30
0
 10
0.5678718589991903
 20
0.54551602278644
 30
0
 10
0.6025496385046859
 20
0.5611961793444563
 30
0
 10
0.6348903267402307
 20
0.5364416889609313
 30
0
 10
0.6813940434024279
 20
0.5566863409940268
 30
0
 10
0.7079999999999999
 20
0.52788
 30
0
  0
CIRCLE
  5
2FB
100
AcDbEntity
  8
sample
  6
ByLayer
 62
  256
370
   -1
100
AcDbCircle
 10
0.1416
 20
0.5349600000000001
 40
0.000708
  0
CIRCLE
  5
2FC
100
AcDbEntity
  8
sample
  6
ByLayer
 62
  256
370
   -1
100
AcDbCircle
 10
0.2832
 20
0.5491200000000001
 40
0.000708
  0
CIRCLE
  5
2FD
100
AcDbEntity
  8
sample
  6
ByLayer
 62
  256
370
   -1
100
AcDbCircle
 10
0.4248
 20
0.5420400000000001
 40
0.000708
  0
CIRCLE
  5
2FE
100
AcDbEntity
  8
sample
  6
ByLayer
 62
  256
370
   -1
100
AcDbCircle
 10
0.6371999999999999
 20
0.5420400000000001
 40
0.000708
  0
CIRCLE
  5
2FF
100
AcDbEntity
  8
sample
  6
ByLayer
 62
  256
370
   -1
100
AcDbCircle
 10
0.5663999999999999
 20
0.5491200000000001
 40
0.000708
  0
CIRCLE
  5
300
100
AcDbEntity
  8
sample
  6
ByLayer
 62
  256
370
   -1
100
AcDbCircle
 10
0.07079999999999997
 20
0.5491200000000001
 40
0.000708
  0
CIRCLE
  5
301
100
AcDbEntity
  8
sample
  6
ByLayer
 62
  256
370
   -1
100
AcDbCircle
 10
0.2124
 20
0.5420400000000001
 40
0.000708
  0
CIRCLE
  5
302
100
AcDbEntity
  8
sample
  6
ByLayer
 62
  256
370
   -1
100
AcDbCircle
 10
0.4956
 20
0.5562
 40
0.000708
  0
CIRCLE
  5
303
100
AcDbEntity
  8
sample
  6
ByLayer
 62
  256
370
   -1
100
AcDbCircle
 10
0.354
 20
0.5349600000000001
 40
0.000708
  0
LEADER
  5
304
100
AcDbEntity
  8
axis
  6
ByLayer
 62
  256
370
   -1
100
AcDbLeader
  3
Standard
 71
    1
 72
    0
 73
    3
 74
    0
 75
    0
 40
1
 41
10
 76
2
 76
2
 10
0.708
 20
0.4500000000000001
 30
0
 10
-2.949029909160571e-17
 20
0.4500000000000001
 30
0
  0
LEADER
  5
305
100
AcDbEntity
  8
axis
  6
ByLayer
 62
  256
370
   -1
100
AcDbLeader
  3
Standard
 71
    1
 72
    0
 73
    3
 74
    0
 75
    0
 40
1
 41
10
 76
2
 76
2
 10
6.938893903907228e-18
 20
0.5700000000000001
 30
0
 10
-2.949029909160571e-17
 20
0.4500000000000001
 30
0
  0
LEADER
  5
306
100
AcDbEntity
  8
axis
  6
ByLayer
 62
  256
370
   -1
100
AcDbLeader
  3
Standard
 71
    1
 72
    0
 73
    3
 74
    0
 75
    0
 40
1
 41
10
 76
2
 76
2
 10
2.60208521396521e-17
 20
0.42
 30
0
 10
-1.040834085586084e-17
 20
0.3
 30
0
  0
LEADER
  5
307
100
AcDbEntity
  8
axis
  6
ByLayer
 62
  256
370
   -1
100
AcDbLeader
  3
Standard
 71
    1
 72
    0
 73
    3
 74
    0
 75
    0
 40
1
 41
10
 76
2
 76
2
 10
4.510281037539697e-17
 20
0.27
 30
0
 10
8.673617379884039e-18
 20
0.15
 30
0
  0
LINE
  5
308
100
AcDbEntity
  8
axis
  6
ByLayer
 62
  256
370
   -1
100
AcDbLine
 10
-8.673617379884039e-18
 20
-0.15
 11
0.708
 21
-0.15
  0
CIRCLE
  5
309
100
AcDbEntity
  8
sample
  6
ByLayer
 62
  256
370
   -1
100
AcDbCircle
 10
0.07079999999999999
 20
-0.1149087104761905
 40
0.000708
  0
CIRCLE
  5
30A
100
AcDbEntity
  8
sample
  6
ByLayer
 62
  256
370
   -1
100
AcDbCircle
 10
0.1417226462059577
 20
-0.09052701899669208
 40
0.000708
  0
CIRCLE
  5
30B
100
AcDbEntity
  8
sample
  6
ByLayer
 62
  256
370
   -1
100
AcDbCircle
 10
0.2124
 20
-0.1275763493082464
 40
0.000708
  0
CIRCLE
  5
30C
100
AcDbEntity
  8
sample
  6
ByLayer
 62
  256
370
   -1
100
AcDbCircle
 10
0.2832000000000001
 20
-0.09437864064984838
 40
0.000708
  0
CIRCLE
  5
30D
100
AcDbEntity
  8
sample
  6
ByLayer
 62
  256
370
   -1
100
AcDbCircle
 10
0.354
 20
-0.1027261605322445
 40
0.000708
  0
CIRCLE
  5
30E
100
AcDbEntity
  8
sample
  6
ByLayer
 62
  256
370
   -1
100
AcDbCircle
 10
0.4248
 20
-0.1203195456638889
 40
0.000708
  0
CIRCLE
  5
30F
100
AcDbEntity
  8
sample
  6
ByLayer
 62
  256
370
   -1
100
AcDbCircle
 10
0.4955999999999998
 20
-0.0986651760412281
 40
0.000708
  0
CIRCLE
  5
310
100
AcDbEntity
  8
sample
  6
ByLayer
 62
  256
370
   -1
100
AcDbCircle
 10
0.5663999999999999
 20
-0.0889320397401783
 40
0.000708
  0
CIRCLE
  5
311
100
AcDbEntity
  8
sample
  6
ByLayer
 62
  256
370
   -1
100
AcDbCircle
 10
0.6371999999999999
 20
-0.1059434237663371
 40
0.000708
  0
LINE
  5
312
100
AcDbEntity
  8
sig
  6
ByLayer
 62
  256
370
   -1
100
AcDbLine
 10
0.07079999999999999
 20
-0.1156167104761906
 11
0.07079999999999999
 21
-0.15
  0
LINE
  5
313
100
AcDbEntity
  8
sig
  6
ByLayer
 62
  256
370
   -1
100
AcDbLine
 10
0.1417226462059577
 20
-0.09123501899669209
 11
0.1417226462059577
 21
-0.15
  0
LINE
  5
314
100
AcDbEntity
  8
sig
  6
ByLayer
 62
  256
370
   -1
100
AcDbLine
 10
0.2124
 20
-0.1282843493082465
 11
0.2124
 21
-0.15
  0
LINE
  5
315
100
AcDbEntity
  8
sig
  6
ByLayer
 62
  256
370
   -1
100
AcDbLine
 10
0.2832000000000001
 20
-0.0950866406498484
 11
0.2832000000000001
 21
-0.15
  0
LINE
  5
316
100
AcDbEntity
  8
sig
  6
ByLayer
 62
  256
370
   -1
100
AcDbLine
 10
0.354
 20
-0.1034341605322445
 11
0.354
 21
-0.15
  0
LINE
  5
317
100
AcDbEntity
  8
sig
  6
ByLayer
 62
  256
370
   -1
100
AcDbLine
 10
0.4248
 20
-0.1210275456638889
 11
0.4248
 21
-0.15
  0
LINE
  5
318
100
AcDbEntity
  8
sig
  6
ByLayer
 62
  256
370
   -1
100
AcDbLine
 10
0.4955999999999998
 20
-0.099373176041228
 11
0.4955999999999998
 21
-0.15
  0
LINE
  5
319
100
AcDbEntity
  8
sig
  6
ByLayer
 62
  256
370
   -1
100
AcDbLine
 10
0.5663999999999999
 20
-0.0896400397401784
 11
0.5663999999999999
 21
-0.15
  0
LINE
  5
31A
100
AcDbEntity
  8
sig
  6
ByLayer
 62
  256
370
   -1
100
AcDbLine
 10
0.6371999999999999
 20
-0.1066514237663371
 11
0.6371999999999999
 21
-0.15
  0
LEADER
  5
31B
100
AcDbEntity
  8
axis
  6
ByLayer
 62
  256
370
   -1
100
AcDbLeader
  3
Standard
 71
    1
 72
    0
 73
    3
 74
    0
 75
    0
 40
1
 41
10
 76
2
 76
2
 10
2.77555756156289e-17
 20
-0.02999999999999997
 30
0
 10
-8.673617379884039e-18
 20
-0.15
 30
0
  0
LEADER
  5
31C
100
AcDbEntity
  8
axis
  6
ByLayer
 62
  256
370
   -1
100
AcDbLeader
  3
Standard
 71
    1
 72
    0
 73
    3
 74
    0
 75
    0
 40
1
 41
10
 76
2
 76
2
 10
0.708
 20
0.3
 30
0
 10
-1.040834085586084e-17
 20
0.3
 30
0
  0
LEADER
  5
31D
100
AcDbEntity
  8
axis
  6
ByLayer
 62
  256
370
   -1
100
AcDbLeader
  3
Standard
 71
    1
 72
    0
 73
    3
 74
    0
 75
    0
 40
1
 41
10
 76
2
 76
2
 10
0.708
 20
0.15
 30
0
 10
8.673617379884039e-18
 20
0.15
 30
0
  0
LEADER
  5
31E
100
AcDbEntity
  8
axis
  6
ByLayer
 62
  256
370
   -1
100
AcDbLeader
  3
Standard
 71
    1
 72
    0
 73
    3
 74
    0
 75
    0
 40
1
 41
10
 76
2
 76
2
 10
0.708
 20
0
 30
0
 10
0
 20
0
 30
0
  0
LEADER
  5
31F
100
AcDbEntity
  8
axis
  6
ByLayer
 62
  256
370
   -1
100
AcDbLeader
  3
Standard
 71
    1
 72
    0
 73
    3
 74
    0
 75
    0
 40
1
 41
10
 76
2
 76
2
 10
0.708
 20
-0.15
 30
0
 10
-8.673617379884039e-18
 20
-0.15
 30
0
  0
LEADER
  5
320
100
AcDbEntity
  8
axis
  6
ByLayer
 62
  256
370
   -1
100
AcDbLeader
  3
Standard
 71
    1
 72
    0
 73
    3
 74
    0
 75
    0
 40
1
 41
10
 76
2
 76
2
 10
-6.938893903907228e-18
 20
-0.3900000000000001
 30
0
 10
-6.938893903907228e-18
 20
-0.4500000000000001
 30
0
  0
LEADER
  5
321
100
AcDbEntity
  8
axis
  6
ByLayer
 62
  256
370
   -1
100
AcDbLeader
  3
Standard
 71
    1
 72
    0
 73
    3
 74
    0
 75
    0
 40
1
 41
10
 76
2
 76
2
 10
0.708
 20
-0.4504000000000004
 30
0
 10
5.551115123125782e-17
 20
-0.4504000000000004
 30
0
  0
LEADER
  5
322
100
AcDbEntity
  8
axis
  6
ByLayer
 62
  256
370
   -1
100
AcDbLeader
  3
Standard
 71
    1
 72
    0
 73
    3
 74
    0
 75
    0
 40
1
 41
10
 76
2
 76
2
 10
-6.938893903907228e-18
 20
-0.3024000000000002
 30
0
 10
-6.938893903907228e-18
 20
-0.3624000000000002
 30
0
  0
LEADER
  5
323
100
AcDbEntity
  8
axis
  6
ByLayer
 62
  256
370
   -1
100
AcDbLeader
  3
Standard
 71
    1
 72
    0
 73
    3
 74
    0
 75
    0
 40
1
 41
10
 76
2
 76
2
 10
0.708
 20
-0.3628000000000005
 30
0
 10
5.551115123125782e-17
 20
-0.3628000000000005
 30
0
  0
LEADER
  5
324
100
AcDbEntity
  8
axis
  6
ByLayer
 62
  256
370
   -1
100
AcDbLeader
  3
Standard
 71
    1
 72
    0
 73
    3
 74
    0
 75
    0
 40
1
 41
10
 76
2
 76
2
 10
0.708
 20
-0.5880000000000005
 30
0
 10
5.551115123125782e-17
 20
-0.5880000000000005
 30
0
  0
LEADER
  5
325
100
AcDbEntity
  8
axis
  6
ByLayer
 62
  256
370
   -1
100
AcDbLeader
  3
Standard
 71
    1
 72
    0
 73
    3
 74
    0
 75
    0
 40
1
 41
10
 76
2
 76
2
 10
-1.040834085586084e-17
 20
-0.48
 30
0
 10
5.551115123125782e-17
 20
-0.5880000000000005
 30
0
  0
LINE
  5
326
100
AcDbEntity
  8
mcmp
  6
DOTTINY
 62
  256
370
   25
100
AcDbLine
 10
0.672515104413634
 20
-0.5053600355658838
 11
0.7078773537940423
 21
-0.5446514237663374
  0
LINE
  5
327
100
AcDbEntity
  8
mcmp
  6
DOTTINY
 62
  256
370
   25
100
AcDbLine
 10
0.672515104413634
 20
-0.5053600355658838
 11
0.672515104413634
 21
-0.5880000000000005
  0
LEADER
  5
328
100
AcDbEntity
  8
axis
  6
ByLayer
 62
  256
370
   -1
100
AcDbLeader
  3
Standard
 71
    1
 72
    0
 73
    3
 74
    0
 75
    0
 40
1
 41
10
 76
2
 76
2
 10
2.081668171172168e-17
 20
-0.7780000000000004
 30
0
 10
2.081668171172168e-17
 20
-0.8380000000000003
 30
0
  0
LEADER
  5
329
100
AcDbEntity
  8
axis
  6
ByLayer
 62
  256
370
   -1
100
AcDbLeader
  3
Standard
 71
    1
 72
    0
 73
    3
 74
    0
 75
    0
 40
1
 41
10
 76
2
 76
2
 10
0.708
 20
-0.8384000000000007
 30
0
 10
8.326672684688673e-17
 20
-0.8384000000000007
 30
0
  0
LEADER
  5
32A
100
AcDbEntity
  8
axis
  6
ByLayer
 62
  256
370
   -1
100
AcDbLeader
  3
Standard
 71
    1
 72
    0
 73
    3
 74
    0
 75
    0
 40
1
 41
10
 76
2
 76
2
 10
2.081668171172168e-17
 20
-0.6904000000000005
 30
0
 10
2.081668171172168e-17
 20
-0.7504000000000004
 30
0
  0
LEADER
  5
32B
100
AcDbEntity
  8
axis
  6
ByLayer
 62
  256
370
   -1
100
AcDbLeader
  3
Standard
 71
    1
 72
    0
 73
    3
 74
    0
 75
    0
 40
1
 41
10
 76
2
 76
2
 10
0.708
 20
-0.7508000000000008
 30
0
 10
8.326672684688673e-17
 20
-0.7508000000000008
 30
0
  0
LEADER
  5
32C
100
AcDbEntity
  8
axis
  6
ByLayer
 62
  256
370
   -1
100
AcDbLeader
  3
Standard
 71
    1
 72
    0
 73
    3
 74
    0
 75
    0
 40
1
 41
10
 76
2
 76
2
 10
0.708
 20
-0.9760000000000009
 30
0
 10
8.326672684688673e-17
 20
-0.9760000000000009
 30
0
  0
LEADER
  5
32D
100
AcDbEntity
  8
axis
  6
ByLayer
 62
  256
370
   -1
100
AcDbLeader
  3
Standard
 71
    1
 72
    0
 73
    3
 74
    0
 75
    0
 40
1
 41
10
 76
2
 76
2
 10
1.734723475976806e-17
 20
-0.8680000000000003
 30
0
 10
8.326672684688673e-17
 20
-0.9760000000000009
 30
0
  0
MTEXT
  5
32E
100
AcDbEntity
  8
txt
  6
ByLayer
 62
  256
370
   -1
100
AcDbMText
 10
0.7140000000000001
 20
0.4575
 30
0
 40
0.0125
 41
0.005357138888888889
 71
    1
 72
    1
  1
t
  7
italicc
210
0
220
0
230
1
 50
0
 73
    2
 44
1
  0
MTEXT
  5
32F
100
AcDbEntity
  8
txt
  6
ByLayer
 62
  256
370
   -1
100
AcDbMText
 10
0.7140000000000001
 20
0.3075
 30
0
 40
0.0125
 41
0.005357138888888889
 71
    1
 72
    1
  1
t
  7
italicc
210
0
220
0
230
1
 50
0
 73
    2
 44
1
  0
MTEXT
  5
330
100
AcDbEntity
  8
txt
  6
ByLayer
 62
  256
370
   -1
100
AcDbMText
 10
0.7140000000000001
 20
0.1574999999999999
 30
0
 40
0.0125
 41
0.005357138888888889
 71
    1
 72
    1
  1
t
  7
italicc
210
0
220
0
230
1
 50
0
 73
    2
 44
1
  0
MTEXT
  5
331
100
AcDbEntity
  8
txt
  6
ByLayer
 62
  256
370
   -1
100
AcDbMText
 10
0.7140000000000001
 20
0.007499999999999951
 30
0
 40
0.0125
 41
0.005357138888888889
 71
    1
 72
    1
  1
t
  7
italicc
210
0
220
0
230
1
 50
0
 73
    2
 44
1
  0
MTEXT
  5
332
100
AcDbEntity
  8
txt
  6
ByLayer
 62
  256
370
   -1
100
AcDbMText
 10
0.7140000000000001
 20
-0.1425
 30
0
 40
0.0125
 41
0.005357138888888889
 71
    1
 72
    1
  1
t
  7
italicc
210
0
220
0
230
1
 50
0
 73
    2
 44
1
  0
MTEXT
  5
333
100
AcDbEntity
  8
txt
  6
ByLayer
 62
  256
370
   -1
100
AcDbMText
 10
0.7140000000000002
 20
-0.3553000000000006
 30
0
 40
0.0125
 41
0.005357138888888889
 71
    1
 72
    1
  1
t
  7
italicc
210
0
220
0
230
1
 50
0
 73
    2
 44
1
  0
MTEXT
  5
334
100
AcDbEntity
  8
txt
  6
ByLayer
 62
  256
370
   -1
100
AcDbMText
 10
0.7140000000000002
 20
-0.4429000000000005
 30
0
 40
0.0125
 41
0.005357138888888889
 71
    1
 72
    1
  1
t
  7
italicc
210
0
220
0
230
1
 50
0
 73
    2
 44
1
  0
MTEXT
  5
335
100
AcDbEntity
  8
txt
  6
ByLayer
 62
  256
370
   -1
100
AcDbMText
 10
0.7140000000000002
 20
-0.5805000000000007
 30
0
 40
0.0125
 41
0.005357138888888889
 71
    1
 72
    1
  1
t
  7
italicc
210
0
220
0
230
1
 50
0
 73
    2
 44
1
  0
MTEXT
  5
336
100
AcDbEntity
  8
txt
  6
ByLayer
 62
  256
370
   -1
100
AcDbMText
 10
0.7140000000000002
 20
-0.743300000000001
 30
0
 40
0.0125
 41
0.005357138888888889
 71
    1
 72
    1
  1
t
  7
italicc
210
0
220
0
230
1
 50
0
 73
    2
 44
1
  0
MTEXT
  5
337
100
AcDbEntity
  8
txt
  6
ByLayer
 62
  256
370
   -1
100
AcDbMText
 10
0.7140000000000002
 20
-0.8309000000000009
 30
0
 40
0.0125
 41
0.005357138888888889
 71
    1
 72
    1
  1
t
  7
italicc
210
0
220
0
230
1
 50
0
 73
    2
 44
1
  0
MTEXT
  5
338
100
AcDbEntity
  8
txt
  6
ByLayer
 62
  256
370
   -1
100
AcDbMText
 10
0.7140000000000002
 20
-0.9685000000000011
 30
0
 40
0.0125
 41
0.005357138888888889
 71
    1
 72
    1
  1
t
  7
italicc
210
0
220
0
230
1
 50
0
 73
    2
 44
1
  0
LEADER
  5
339
100
AcDbEntity
  8
axis
  6
ByLayer
 62
  256
370
   -1
100
AcDbLeader
  3
Standard
 71
    1
 72
    0
 73
    3
 74
    0
 75
    0
 40
1
 41
10
 76
2
 76
2
 10
3.642919299551294e-17
 20
0.12
 30
0
 10
0
 20
0
 30
0
  0
ENDSEC
  0
SECTION
  2
OBJECTS
  0
DICTIONARY
  5
C
330
0
100
AcDbDictionary
281
    1
  3
ACAD_GROUP
350
D
  0
DICTIONARY
  5
D
330
C
100
AcDbDictionary
281
    1
  0
ENDSEC
  0
EOF
