999
dxfrw 0.6.3
  0
SECTION
  2
HEADER
  9
$ACADVER
  1
AC1021
  9
$DWGCODEPAGE
  3
ANSI_1252
  9
$INSBASE
 10
0
 20
0
 30
0
  9
$EXTMIN
 10
-49.77160650011459
 20
-23
 30
0
  9
$EXTMAX
 10
164.6190444444445
 20
151.2508866924442
 30
0
  9
$LIMMIN
 10
0
 20
0
  9
$LIMMAX
 10
420
 20
297
  9
$ORTHOMODE
 70
    0
  9
$REGENMODE
 70
    1
  9
$FILLMODE
 70
    1
  9
$QTEXTMODE
 70
    0
  9
$MIRRTEXT
 70
    0
  9
$LTSCALE
 40
1
  9
$ATTMODE
 70
    0
  9
$TEXTSIZE
 40
2.5
  9
$TRACEWID
 40
15.68
  9
$TEXTSTYLE
  7
STANDARD
  9
$CLAYER
  8
axis
  9
$CELTYPE
  6
BYLAYER
  9
$CECOLOR
 62
  256
  9
$CELTSCALE
 40
1
  9
$DISPSILH
 70
    0
  9
$DIMSCALE
 40
2.5
  9
$DIMASZ
 40
2.5
  9
$DIMEXO
 40
0.625
  9
$DIMDLI
 40
3.75
  9
$DIMRND
 40
0
  9
$DIMDLE
 40
0
  9
$DIMEXE
 40
1.25
  9
$DIMTP
 40
0
  9
$DIMTM
 40
0
  9
$DIMTXT
 40
1
  9
$DIMCEN
 40
2.5
  9
$DIMTSZ
 40
0
  9
$DIMTOL
 70
    0
  9
$DIMLIM
 70
    0
  9
$DIMTIH
 70
    0
  9
$DIMTOH
 70
    0
  9
$DIMSE1
 70
    0
  9
$DIMSE2
 70
    0
  9
$DIMTAD
 70
    1
  9
$DIMZIN
 70
    1
  9
$DIMBLK
  1

  9
$DIMASO
 70
    1
  9
$DIMSHO
 70
    1
  9
$DIMPOST
  1

  9
$DIMAPOST
  1

  9
$DIMALT
 70
    0
  9
$DIMALTD
 70
    3
  9
$DIMALTF
 40
0.03937
  9
$DIMLFAC
 40
0.5
  9
$DIMTOFL
 70
    1
  9
$DIMTVP
 40
0
  9
$DIMTIX
 70
    0
  9
$DIMSOXD
 70
    0
  9
$DIMSAH
 70
    0
  9
$DIMBLK1
  1

  9
$DIMBLK2
  1

  9
$DIMSTYLE
  2
STANDARD
  9
$DIMCLRD
 70
    0
  9
$DIMCLRE
 70
    0
  9
$DIMCLRT
 70
    0
  9
$DIMTFAC
 40
1
  9
$DIMGAP
 40
0.625
  9
$DIMJUST
 70
    0
  9
$DIMSD1
 70
    0
  9
$DIMSD2
 70
    0
  9
$DIMTOLJ
 70
    0
  9
$DIMTZIN
 70
    8
  9
$DIMALTZ
 70
    0
  9
$DIMALTTZ
 70
    0
  9
$DIMUPT
 70
    0
  9
$DIMDEC
 70
    4
  9
$DIMTDEC
 70
    2
  9
$DIMALTU
 70
    2
  9
$DIMALTTD
 70
    3
  9
$DIMTXSTY
  7
STANDARD
  9
$DIMAUNIT
 70
    0
  9
$DIMADEC
 70
    2
  9
$DIMALTRND
 40
0
  9
$DIMAZIN
 70
    0
  9
$DIMDSEP
 70
   44
  9
$DIMATFIT
 70
    3
  9
$DIMFRAC
 70
    0
  9
$DIMLDRBLK
  1
STANDARD
  9
$DIMLUNIT
 70
    2
  9
$DIMLWD
 70
   -2
  9
$DIMLWE
 70
   -2
  9
$DIMTMOVE
 70
    0
  9
$DIMFXL
 40
1
  9
$DIMFXLON
 70
    0
  9
$DIMJOGANG
 40
0.7854
  9
$DIMTFILL
 70
    0
  9
$DIMTFILLCLR
 70
    0
  9
$DIMARCSYM
 70
    0
  9
$DIMLTYPE
  6

  9
$DIMLTEX1
  6

  9
$DIMLTEX2
  6

  9
$LUNITS
 70
    2
  9
$LUPREC
 70
    4
  9
$SKETCHINC
 40
1
  9
$FILLETRAD
 40
0
  9
$AUNITS
 70
    0
  9
$AUPREC
 70
    2
  9
$MENU
  1
.
  9
$ELEVATION
 40
0
  9
$PELEVATION
 40
0
  9
$THICKNESS
 40
0
  9
$LIMCHECK
 70
    0
  9
$CHAMFERA
 40
0
  9
$CHAMFERB
 40
0
  9
$CHAMFERC
 40
0
  9
$CHAMFERD
 40
0
  9
$SKPOLY
 70
    0
  9
$USRTIMER
 70
    1
  9
$ANGBASE
 50
0
  9
$ANGDIR
 70
    0
  9
$PDMODE
 70
   34
  9
$PDSIZE
 40
0
  9
$PLINEWID
 40
0
  9
$SPLFRAME
 70
    0
  9
$SPLINETYPE
 70
    2
  9
$SPLINESEGS
 70
    8
  9
$HANDSEED
  5
20000
  9
$SURFTAB1
 70
    6
  9
$SURFTAB2
 70
    6
  9
$SURFTYPE
 70
    6
  9
$SURFU
 70
    6
  9
$SURFV
 70
    6
  9
$UCSBASE
  2

  9
$UCSNAME
  2

  9
$UCSORG
 10
0
 20
0
 30
0
  9
$UCSXDIR
 10
1
 20
0
 30
0
  9
$UCSYDIR
 10
0
 20
1
 30
0
  9
$UCSORTHOREF
  2

  9
$UCSORTHOVIEW
 70
    0
  9
$UCSORGTOP
 10
0
 20
0
 30
0
  9
$UCSORGBOTTOM
 10
0
 20
0
 30
0
  9
$UCSORGLEFT
 10
0
 20
0
 30
0
  9
$UCSORGRIGHT
 10
0
 20
0
 30
0
  9
$UCSORGFRONT
 10
0
 20
0
 30
0
  9
$UCSORGBACK
 10
0
 20
0
 30
0
  9
$PUCSBASE
  2

  9
$PUCSNAME
  2

  9
$PUCSORG
 10
0
 20
0
 30
0
  9
$PUCSXDIR
 10
1
 20
0
 30
0
  9
$PUCSYDIR
 10
0
 20
1
 30
0
  9
$PUCSORTHOREF
  2

  9
$PUCSORTHOVIEW
 70
    0
  9
$PUCSORGTOP
 10
0
 20
0
 30
0
  9
$PUCSORGBOTTOM
 10
0
 20
0
 30
0
  9
$PUCSORGLEFT
 10
0
 20
0
 30
0
  9
$PUCSORGRIGHT
 10
0
 20
0
 30
0
  9
$PUCSORGFRONT
 10
0
 20
0
 30
0
  9
$PUCSORGBACK
 10
0
 20
0
 30
0
  9
$USERI1
 70
    0
  9
$USERI2
 70
    0
  9
$USERI3
 70
    0
  9
$USERI4
 70
    0
  9
$USERI5
 70
    0
  9
$USERR1
 40
0
  9
$USERR2
 40
0
  9
$USERR3
 40
0
  9
$USERR4
 40
0
  9
$USERR5
 40
0
  9
$WORLDVIEW
 70
    1
  9
$SHADEDGE
 70
    3
  9
$SHADEDIF
 70
   70
  9
$TILEMODE
 70
    1
  9
$MAXACTVP
 70
   64
  9
$PINSBASE
 10
0
 20
0
 30
0
  9
$PLIMCHECK
 70
    0
  9
$PEXTMIN
 10
0
 20
0
 30
0
  9
$PEXTMAX
 10
0
 20
0
 30
0
  9
$GRIDMODE
 70
    1
  9
$SNAPSTYLE
 70
    0
  9
$PLIMMIN
 10
0
 20
0
  9
$PLIMMAX
 10
1.048845601628211e-05
 20
7.416080011512604e-06
  9
$UNITMODE
 70
    0
  9
$VISRETAIN
 70
    1
  9
$PLINEGEN
 70
    0
  9
$PSLTSCALE
 70
    1
  9
$TREEDEPTH
 70
 3020
  9
$CMLSTYLE
  2
Standard
  9
$CMLJUST
 70
    0
  9
$CMLSCALE
 40
20
  9
$PROXYGRAPHICS
 70
    1
  9
$MEASUREMENT
 70
    1
  9
$CELWEIGHT
370
   -1
  9
$ENDCAPS
280
    0
  9
$JOINSTYLE
280
    0
  9
$LWDISPLAY
290
    0
  9
$INSUNITS
 70
    2
  9
$HYPERLINKBASE
  1

  9
$STYLESHEET
  1

  9
$XEDIT
290
    1
  9
$CEPSNTYPE
380
    0
  9
$PSTYLEMODE
290
    1
  9
$EXTNAMES
290
    1
  9
$PSVPSCALE
 40
0
  9
$OLESTARTUP
290
    0
  9
$SORTENTS
280
  127
  9
$INDEXCTL
280
    0
  9
$HIDETEXT
280
    1
  9
$XCLIPFRAME
290
    0
  9
$HALOGAP
280
    0
  9
$OBSCOLOR
 70
  257
  9
$OBSLTYPE
280
    0
  9
$INTERSECTIONDISPLAY
280
    0
  9
$INTERSECTIONCOLOR
 70
  257
  9
$DIMASSOC
280
    1
  9
$PROJECTNAME
  1

  9
$CAMERADISPLAY
290
    0
  9
$LENSLENGTH
 40
50
  9
$CAMERAHEIGHT
 40
0
  9
$STEPSPERSEC
 40
2
  9
$STEPSIZE
 40
50
  9
$3DDWFPREC
 40
2
  9
$PSOLWIDTH
 40
5
  9
$PSOLHEIGHT
 40
80
  9
$LOFTANG1
 40
1.570796326794897
  9
$LOFTANG2
 40
1.570796326794897
  9
$LOFTMAG1
 40
0
  9
$LOFTMAG2
 40
0
  9
$LOFTPARAM
 70
    7
  9
$LOFTNORMALS
280
    1
  9
$LATITUDE
 40
1
  9
$LONGITUDE
 40
1
  9
$NORTHDIRECTION
 40
0
  9
$TIMEZONE
 70
-8000
  9
$LIGHTGLYPHDISPLAY
280
    1
  9
$TILEMODELIGHTSYNCH
280
    1
  9
$SOLIDHIST
280
    1
  9
$SHOWHIST
280
    1
  9
$DWFFRAME
280
    2
  9
$DGNFRAME
280
    0
  9
$REALWORLDSCALE
290
    1
  9
$INTERFERECOLOR
 62
    1
  9
$CSHADOW
280
    0
  9
$SHADOWPLANELOCATION
 40
0
  0
ENDSEC
  0
SECTION
  2
CLASSES
  0
ENDSEC
  0
SECTION
  2
TABLES
  0
TABLE
  2
VPORT
  5
8
330
0
100
AcDbSymbolTable
 70
    1
  0
VPORT
  5
31
330
2
100
AcDbSymbolTableRecord
100
AcDbViewportTableRecord
  2
*ACTIVE
 70
    0
 10
0
 20
0
 11
1
 21
1
 12
118.8764117991531
 22
104.728832651495
 13
0
 23
0
 14
10
 24
10
 15
10
 25
10
 16
0
 26
0
 36
1
 17
0
 27
0
 37
0
 40
282.9515829531621
 41
1.24025974025974
 42
50
 43
0
 44
0
 50
0
 51
0
 71
    0
 72
  100
 73
    1
 74
    3
 75
    0
 76
    1
 77
    0
 78
    0
281
    0
 65
    1
110
0
120
0
130
0
111
1
121
0
131
0
112
0
122
1
132
0
 79
    0
146
0
348
10020
 60
    7
 61
    5
292
1
282
    1
141
0
142
0
 63
  250
421
3358443
  0
ENDTAB
  0
TABLE
  2
LTYPE
  5
5
330
0
100
AcDbSymbolTable
 70
    4
  0
LTYPE
  5
14
330
5
100
AcDbSymbolTableRecord
100
AcDbLinetypeTableRecord
  2
ByBlock
 70
    0
  3

 72
   65
 73
    0
 40
0
  0
LTYPE
  5
15
330
5
100
AcDbSymbolTableRecord
100
AcDbLinetypeTableRecord
  2
ByLayer
 70
    0
  3

 72
   65
 73
    0
 40
0
  0
LTYPE
  5
16
330
5
100
AcDbSymbolTableRecord
100
AcDbLinetypeTableRecord
  2
Continuous
 70
    0
  3
Solid line
 72
   65
 73
    0
 40
0
  0
LTYPE
  5
32
330
5
100
AcDbSymbolTableRecord
100
AcDbLinetypeTableRecord
  2
DOT
 70
    0
  3
Dot . . . . . . . . . . . . . . . . . . . . . .
 72
   65
 73
    2
 40
6.35
 49
0
 74
    0
 49
-6.35
 74
    0
  0
LTYPE
  5
33
330
5
100
AcDbSymbolTableRecord
100
AcDbLinetypeTableRecord
  2
DOTTINY
 70
    0
  3
Dot (.15x) .....................................
 72
   65
 73
    2
 40
0.9525
 49
0
 74
    0
 49
-0.9525
 74
    0
  0
LTYPE
  5
34
330
5
100
AcDbSymbolTableRecord
100
AcDbLinetypeTableRecord
  2
DOT2
 70
    0
  3
Dot (.5x) .....................................
 72
   65
 73
    2
 40
3.175
 49
0
 74
    0
 49
-3.175
 74
    0
  0
LTYPE
  5
35
330
5
100
AcDbSymbolTableRecord
100
AcDbLinetypeTableRecord
  2
DOTX2
 70
    0
  3
Dot (2x) .  .  .  .  .  .  .  .  .  .  .  .  .
 72
   65
 73
    2
 40
12.7
 49
0
 74
    0
 49
-12.7
 74
    0
  0
LTYPE
  5
36
330
5
100
AcDbSymbolTableRecord
100
AcDbLinetypeTableRecord
  2
DASHED
 70
    0
  3
Dashed _ _ _ _ _ _ _ _ _ _ _ _ _ _ _ _ _
 72
   65
 73
    2
 40
19.05
 49
12.7
 74
    0
 49
-6.35
 74
    0
  0
LTYPE
  5
37
330
5
100
AcDbSymbolTableRecord
100
AcDbLinetypeTableRecord
  2
DASHEDTINY
 70
    0
  3
Dashed (.15x) _ _ _ _ _ _ _ _ _ _ _ _ _ _ _ _ _
 72
   65
 73
    2
 40
2.8575
 49
1.905
 74
    0
 49
-0.9525
 74
    0
  0
LTYPE
  5
38
330
5
100
AcDbSymbolTableRecord
100
AcDbLinetypeTableRecord
  2
DASHED2
 70
    0
  3
Dashed (.5x) _ _ _ _ _ _ _ _ _ _ _ _ _ _ _ _ _
 72
   65
 73
    2
 40
9.524999999999999
 49
6.35
 74
    0
 49
-3.175
 74
    0
  0
LTYPE
  5
39
330
5
100
AcDbSymbolTableRecord
100
AcDbLinetypeTableRecord
  2
DASHEDX2
 70
    0
  3
Dashed (2x) ____  ____  ____  ____  ____  ___
 72
   65
 73
    2
 40
38.09999999999999
 49
25.4
 74
    0
 49
-12.7
 74
    0
  0
LTYPE
  5
3A
330
5
100
AcDbSymbolTableRecord
100
AcDbLinetypeTableRecord
  2
DASHDOT
 70
    0
  3
Dash dot __ . __ . __ . __ . __ . __ . __ . __
 72
   65
 73
    4
 40
25.4
 49
12.7
 74
    0
 49
-6.35
 74
    0
 49
0
 74
    0
 49
-6.35
 74
    0
  0
LTYPE
  5
3B
330
5
100
AcDbSymbolTableRecord
100
AcDbLinetypeTableRecord
  2
DASHDOTTINY
 70
    0
  3
Dash dot (.15x) _._._._._._._._._._._._._._._.
 72
   65
 73
    4
 40
3.81
 49
1.905
 74
    0
 49
-0.9525
 74
    0
 49
0
 74
    0
 49
-0.9525
 74
    0
  0
LTYPE
  5
3C
330
5
100
AcDbSymbolTableRecord
100
AcDbLinetypeTableRecord
  2
DASHDOT2
 70
    0
  3
Dash dot (.5x) _._._._._._._._._._._._._._._.
 72
   65
 73
    4
 40
12.7
 49
6.35
 74
    0
 49
-3.175
 74
    0
 49
0
 74
    0
 49
-3.175
 74
    0
  0
LTYPE
  5
3D
330
5
100
AcDbSymbolTableRecord
100
AcDbLinetypeTableRecord
  2
DASHDOTX2
 70
    0
  3
Dash dot (2x) ____  .  ____  .  ____  .  ___
 72
   65
 73
    4
 40
50.8
 49
25.4
 74
    0
 49
-12.7
 74
    0
 49
0
 74
    0
 49
-12.7
 74
    0
  0
LTYPE
  5
3E
330
5
100
AcDbSymbolTableRecord
100
AcDbLinetypeTableRecord
  2
DIVIDE
 70
    0
  3
Divide ____ . . ____ . . ____ . . ____ . . ____
 72
   65
 73
    6
 40
31.75
 49
12.7
 74
    0
 49
-6.35
 74
    0
 49
0
 74
    0
 49
-6.35
 74
    0
 49
0
 74
    0
 49
-6.35
 74
    0
  0
LTYPE
  5
3F
330
5
100
AcDbSymbolTableRecord
100
AcDbLinetypeTableRecord
  2
DIVIDETINY
 70
    0
  3
Divide (.15x) __..__..__..__..__..__..__..__.._
 72
   65
 73
    6
 40
4.7625
 49
1.905
 74
    0
 49
-0.9525
 74
    0
 49
0
 74
    0
 49
-0.9525
 74
    0
 49
0
 74
    0
 49
-0.9525
 74
    0
  0
LTYPE
  5
40
330
5
100
AcDbSymbolTableRecord
100
AcDbLinetypeTableRecord
  2
DIVIDE2
 70
    0
  3
Divide (.5x) __..__..__..__..__..__..__..__.._
 72
   65
 73
    6
 40
15.875
 49
6.35
 74
    0
 49
-3.175
 74
    0
 49
0
 74
    0
 49
-3.175
 74
    0
 49
0
 74
    0
 49
-3.175
 74
    0
  0
LTYPE
  5
41
330
5
100
AcDbSymbolTableRecord
100
AcDbLinetypeTableRecord
  2
DIVIDEX2
 70
    0
  3
Divide (2x) ________  .  .  ________  .  .  _
 72
   65
 73
    6
 40
63.5
 49
25.4
 74
    0
 49
-12.7
 74
    0
 49
0
 74
    0
 49
-12.7
 74
    0
 49
0
 74
    0
 49
-12.7
 74
    0
  0
LTYPE
  5
42
330
5
100
AcDbSymbolTableRecord
100
AcDbLinetypeTableRecord
  2
BORDER
 70
    0
  3
Border __ __ . __ __ . __ __ . __ __ . __ __ .
 72
   65
 73
    6
 40
44.45
 49
12.7
 74
    0
 49
-6.35
 74
    0
 49
12.7
 74
    0
 49
-6.35
 74
    0
 49
0
 74
    0
 49
-6.35
 74
    0
  0
LTYPE
  5
43
330
5
100
AcDbSymbolTableRecord
100
AcDbLinetypeTableRecord
  2
BORDERTINY
 70
    0
  3
Border (.15x) __.__.__.__.__.__.__.__.__.__.__.
 72
   65
 73
    6
 40
6.6675
 49
1.905
 74
    0
 49
-0.9525
 74
    0
 49
1.905
 74
    0
 49
-0.9525
 74
    0
 49
0
 74
    0
 49
-0.9525
 74
    0
  0
LTYPE
  5
44
330
5
100
AcDbSymbolTableRecord
100
AcDbLinetypeTableRecord
  2
BORDER2
 70
    0
  3
Border (.5x) __.__.__.__.__.__.__.__.__.__.__.
 72
   65
 73
    6
 40
22.225
 49
6.35
 74
    0
 49
-3.175
 74
    0
 49
6.35
 74
    0
 49
-3.175
 74
    0
 49
0
 74
    0
 49
-3.175
 74
    0
  0
LTYPE
  5
45
330
5
100
AcDbSymbolTableRecord
100
AcDbLinetypeTableRecord
  2
BORDERX2
 70
    0
  3
Border (2x) ____  ____  .  ____  ____  .  ___
 72
   65
 73
    6
 40
88.89999999999999
 49
25.4
 74
    0
 49
-12.7
 74
    0
 49
25.4
 74
    0
 49
-12.7
 74
    0
 49
0
 74
    0
 49
-12.7
 74
    0
  0
LTYPE
  5
46
330
5
100
AcDbSymbolTableRecord
100
AcDbLinetypeTableRecord
  2
CENTER
 70
    0
  3
Center ____ _ ____ _ ____ _ ____ _ ____ _ ____
 72
   65
 73
    4
 40
50.8
 49
31.75
 74
    0
 49
-6.35
 74
    0
 49
6.35
 74
    0
 49
-6.35
 74
    0
  0
LTYPE
  5
47
330
5
100
AcDbSymbolTableRecord
100
AcDbLinetypeTableRecord
  2
CENTERTINY
 70
    0
  3
Center (.15x) ___ _ ___ _ ___ _ ___ _ ___ _ ___
 72
   65
 73
    4
 40
7.619999999999999
 49
4.7625
 74
    0
 49
-0.9525
 74
    0
 49
0.9525
 74
    0
 49
-0.9525
 74
    0
  0
LTYPE
  5
48
330
5
100
AcDbSymbolTableRecord
100
AcDbLinetypeTableRecord
  2
CENTER2
 70
    0
  3
Center (.5x) ___ _ ___ _ ___ _ ___ _ ___ _ ___
 72
   65
 73
    4
 40
28.575
 49
19.05
 74
    0
 49
-3.175
 74
    0
 49
3.175
 74
    0
 49
-3.175
 74
    0
  0
LTYPE
  5
49
330
5
100
AcDbSymbolTableRecord
100
AcDbLinetypeTableRecord
  2
CENTERX2
 70
    0
  3
Center (2x) ________  __  ________  __  _____
 72
   65
 73
    4
 40
101.6
 49
63.5
 74
    0
 49
-12.7
 74
    0
 49
12.7
 74
    0
 49
-12.7
 74
    0
  0
ENDTAB
  0
TABLE
  2
LAYER
  5
2
330
0
100
AcDbSymbolTable
 70
    1
  0
LAYER
  5
10
330
2
100
AcDbSymbolTableRecord
100
AcDbLayerTableRecord
  2
0
 70
    0
 62
    7
  6
CONTINUOUS
370
   50
390
F
  0
LAYER
  5
4A
330
2
100
AcDbSymbolTableRecord
100
AcDbLayerTableRecord
  2
axis
 70
    0
 62
    8
  6
CONTINUOUS
370
   50
390
F
  0
LAYER
  5
4B
330
2
100
AcDbSymbolTableRecord
100
AcDbLayerTableRecord
  2
delim
 70
    0
 62
  253
420
10526884
  6
DASHEDTINY
370
   13
390
F
  0
LAYER
  5
4C
330
2
100
AcDbSymbolTableRecord
100
AcDbLayerTableRecord
  2
dim
 70
    0
 62
    7
  6
CONTINUOUS
370
   13
390
F
  0
LAYER
  5
4D
330
2
100
AcDbSymbolTableRecord
100
AcDbLayerTableRecord
  2
ic
 70
    0
 62
  216
420
8388736
  6
CONTINUOUS
370
   18
390
F
  0
LAYER
  5
4E
330
2
100
AcDbSymbolTableRecord
100
AcDbLayerTableRecord
  2
mcmp
 70
    0
 62
    7
  6
DASHED2
370
   25
390
F
  0
LAYER
  5
4F
330
2
100
AcDbSymbolTableRecord
100
AcDbLayerTableRecord
  2
sig
 70
    0
 62
    6
  6
CONTINUOUS
370
  211
390
F
  0
ENDTAB
  0
TABLE
  2
STYLE
  5
3
330
0
100
AcDbSymbolTable
 70
    3
  0
STYLE
  5
50
330
2
100
AcDbSymbolTableRecord
100
AcDbTextStyleTableRecord
  2
romanc
 70
    0
 40
0
 41
1
 50
0
 71
    0
 42
1
  3
romanc
  4

  0
STYLE
  5
51
330
2
100
AcDbSymbolTableRecord
100
AcDbTextStyleTableRecord
  2
Standard
 70
    0
 40
0
 41
1
 50
0
 71
    0
 42
1
  3
txt
  4

  0
ENDTAB
  0
TABLE
  2
VIEW
  5
6
330
0
100
AcDbSymbolTable
 70
    0
  0
ENDTAB
  0
TABLE
  2
UCS
  5
7
330
0
100
AcDbSymbolTable
 70
    0
  0
ENDTAB
  0
TABLE
  2
APPID
  5
9
330
0
100
AcDbSymbolTable
 70
    1
  0
APPID
  5
12
330
9
100
AcDbSymbolTableRecord
100
AcDbRegAppTableRecord
  2
ACAD
 70
    0
  0
APPID
  5
52
330
9
100
AcDbSymbolTableRecord
100
AcDbRegAppTableRecord
  2
LibreCad
 70
    0
  0
ENDTAB
  0
TABLE
  2
DIMSTYLE
  5
A
330
0
100
AcDbSymbolTable
 70
    1
100
AcDbDimStyleTable
 71
    1
  0
DIMSTYLE
105
53
330
A
100
AcDbSymbolTableRecord
100
AcDbDimStyleTableRecord
  2
Standard
 70
    0
 40
2.5
 41
2.5
 42
0.625
 43
0.38
 44
1.25
 45
0
 46
0
 47
0
 48
0
 49
1
140
1
141
0.09
142
0
143
25.4
144
0.5
145
0
146
1
147
0.625
148
0
 71
    0
 72
    0
 73
    0
 74
    1
 75
    0
 76
    0
 77
    0
 78
    1
 79
    0
170
    0
171
    2
172
    0
173
    0
174
    0
175
    0
176
    0
177
    0
178
    0
179
    2
271
    4
272
    4
273
    2
274
    2
275
    0
276
    0
277
    2
278
   44
279
    0
280
    0
281
    0
282
    0
283
    1
284
    0
285
    0
286
    0
288
    0
289
    3
340
STANDARD
341

371
   -2
372
   -2
  0
ENDTAB
  0
TABLE
  2
BLOCK_RECORD
  5
1
330
0
100
AcDbSymbolTable
 70
    2
  0
BLOCK_RECORD
  5
1F
330
1
100
AcDbSymbolTableRecord
100
AcDbBlockTableRecord
  2
*Model_Space
 70
    0
280
    1
281
    0
  0
BLOCK_RECORD
  5
1E
330
1
100
AcDbSymbolTableRecord
100
AcDbBlockTableRecord
  2
*Paper_Space
 70
    0
280
    1
281
    0
  0
BLOCK_RECORD
  5
54
330
1
100
AcDbSymbolTableRecord
100
AcDbBlockTableRecord
  2
*D5
 70
    0
280
    1
281
    0
  0
BLOCK_RECORD
  5
57
330
1
100
AcDbSymbolTableRecord
100
AcDbBlockTableRecord
  2
*D6
 70
    0
280
    1
281
    0
  0
BLOCK_RECORD
  5
5A
330
1
100
AcDbSymbolTableRecord
100
AcDbBlockTableRecord
  2
*D3
 70
    0
280
    1
281
    0
  0
BLOCK_RECORD
  5
5D
330
1
100
AcDbSymbolTableRecord
100
AcDbBlockTableRecord
  2
*D2
 70
    0
280
    1
281
    0
  0
BLOCK_RECORD
  5
60
330
1
100
AcDbSymbolTableRecord
100
AcDbBlockTableRecord
  2
*D4
 70
    0
280
    1
281
    0
  0
BLOCK_RECORD
  5
63
330
1
100
AcDbSymbolTableRecord
100
AcDbBlockTableRecord
  2
*D1
 70
    0
280
    1
281
    0
  0
BLOCK_RECORD
  5
66
330
1
100
AcDbSymbolTableRecord
100
AcDbBlockTableRecord
  2
*D7
 70
    0
280
    1
281
    0
  0
ENDTAB
  0
ENDSEC
  0
SECTION
  2
BLOCKS
  0
BLOCK
  5
20
330
1F
100
AcDbEntity
  8
0
100
AcDbBlockBegin
  2
*Model_Space
 70
    0
 10
0
 20
0
 30
0
  3
*Model_Space
  1

  0
ENDBLK
  5
21
330
1F
100
AcDbEntity
  8
0
100
AcDbBlockEnd
  0
BLOCK
  5
1C
330
1B
100
AcDbEntity
  8
0
100
AcDbBlockBegin
  2
*Paper_Space
 70
    0
 10
0
 20
0
 30
0
  3
*Paper_Space
  1

  0
ENDBLK
  5
1D
330
1F
100
AcDbEntity
  8
0
100
AcDbBlockEnd
  0
BLOCK
  5
55
330
54
100
AcDbEntity
  8
0
100
AcDbBlockBegin
  2
*D5
 70
    1
 10
0
 20
0
  3
*D5
  1

  0
LINE
  5
69
100
AcDbEntity
  8
dim
  6
CONTINUOUS
 62
    7
370
    0
100
AcDbLine
 10
64
 20
-6
 11
71
 21
-6
  0
SOLID
  5
6A
100
AcDbEntity
  8
dim
  6
CONTINUOUS
 62
    7
370
    0
100
AcDbTrace
 10
64
 20
-6
 30
0
 11
70.25
 21
-4.959288355567899
 31
0
 12
70.25
 22
-7.040711644432102
 32
0
 13
70.25
 23
-7.040711644432102
 33
0
  0
ENDBLK
  5
56
330
54
100
AcDbEntity
  8
0
100
AcDbBlockEnd
  0
BLOCK
  5
58
330
57
100
AcDbEntity
  8
0
100
AcDbBlockBegin
  2
*D6
 70
    1
 10
0
 20
0
  3
*D6
  1

  0
LINE
  5
6B
100
AcDbEntity
  8
dim
  6
CONTINUOUS
 62
    7
370
    0
100
AcDbLine
 10
100
 20
-6
 11
93
 21
-6
  0
SOLID
  5
6C
100
AcDbEntity
  8
dim
  6
CONTINUOUS
 62
    7
370
    0
100
AcDbTrace
 10
100
 20
-6
 30
0
 11
93.75
 21
-7.040711644432101
 31
0
 12
93.75
 22
-4.959288355567899
 32
0
 13
93.75
 23
-4.959288355567899
 33
0
  0
ENDBLK
  5
59
330
57
100
AcDbEntity
  8
0
100
AcDbBlockEnd
  0
BLOCK
  5
5B
330
5A
100
AcDbEntity
  8
0
100
AcDbBlockBegin
  2
*D3
 70
    1
 10
0
 20
0
  3
*D3
  1

  0
LINE
  5
6D
100
AcDbEntity
  8
dim
  6
CONTINUOUS
 62
    7
370
    0
100
AcDbLine
 10
64
 20
-6
 11
44
 21
-6
  0
SOLID
  5
6E
100
AcDbEntity
  8
dim
  6
CONTINUOUS
 62
    7
370
    0
100
AcDbTrace
 10
64
 20
-6
 30
0
 11
57.75
 21
-7.040711644432101
 31
0
 12
57.75
 22
-4.959288355567899
 32
0
 13
57.75
 23
-4.959288355567899
 33
0
  0
ENDBLK
  5
5C
330
5A
100
AcDbEntity
  8
0
100
AcDbBlockEnd
  0
BLOCK
  5
5E
330
5D
100
AcDbEntity
  8
0
100
AcDbBlockBegin
  2
*D2
 70
    1
 10
0
 20
0
  3
*D2
  1

  0
LINE
  5
6F
100
AcDbEntity
  8
dim
  6
CONTINUOUS
 62
    7
370
    0
100
AcDbLine
 10
100
 20
-19
 11
56
 21
-19
  0
SOLID
  5
70
100
AcDbEntity
  8
dim
  6
CONTINUOUS
 62
    7
370
    0
100
AcDbTrace
 10
100
 20
-19
 30
0
 11
93.75
 21
-20.0407116444321
 31
0
 12
93.75
 22
-17.9592883555679
 32
0
 13
93.75
 23
-17.9592883555679
 33
0
  0
ENDBLK
  5
5F
330
5D
100
AcDbEntity
  8
0
100
AcDbBlockEnd
  0
BLOCK
  5
61
330
60
100
AcDbEntity
  8
0
100
AcDbBlockBegin
  2
*D4
 70
    1
 10
0
 20
0
  3
*D4
  1

  0
LINE
  5
71
100
AcDbEntity
  8
dim
  6
CONTINUOUS
 62
    7
370
    0
100
AcDbLine
 10
0
 20
-6
 11
23
 21
-6
  0
SOLID
  5
72
100
AcDbEntity
  8
dim
  6
CONTINUOUS
 62
    7
370
    0
100
AcDbTrace
 10
0
 20
-6
 30
0
 11
6.25
 21
-4.959288355567899
 31
0
 12
6.25
 22
-7.040711644432102
 32
0
 13
6.25
 23
-7.040711644432102
 33
0
  0
ENDBLK
  5
62
330
60
100
AcDbEntity
  8
0
100
AcDbBlockEnd
  0
BLOCK
  5
64
330
63
100
AcDbEntity
  8
0
100
AcDbBlockBegin
  2
*D1
 70
    1
 10
0
 20
0
  3
*D1
  1

  0
LINE
  5
73
100
AcDbEntity
  8
dim
  6
CONTINUOUS
 62
    7
370
    0
100
AcDbLine
 10
0
 20
-19
 11
45
 21
-19
  0
SOLID
  5
74
100
AcDbEntity
  8
dim
  6
CONTINUOUS
 62
    7
370
    0
100
AcDbTrace
 10
0
 20
-19
 30
0
 11
6.25
 21
-17.9592883555679
 31
0
 12
6.25
 22
-20.0407116444321
 32
0
 13
6.25
 23
-20.0407116444321
 33
0
  0
ENDBLK
  5
65
330
63
100
AcDbEntity
  8
0
100
AcDbBlockEnd
  0
BLOCK
  5
67
330
66
100
AcDbEntity
  8
0
100
AcDbBlockBegin
  2
*D7
 70
    1
 10
0
 20
0
  3
*D7
  1

  0
LINE
  5
75
100
AcDbEntity
  8
axis
  6
CONTINUOUS
 62
    7
370
    0
100
AcDbLine
 10
159.8
 20
-0.4000000000000001
 11
-25
 21
-0.4
  0
SOLID
  5
76
100
AcDbEntity
  8
axis
  6
CONTINUOUS
 62
    7
370
    0
100
AcDbTrace
 10
159.8
 20
-0.4000000000000001
 30
0
 11
153.55
 21
-1.440711644432101
 31
0
 12
153.55
 22
0.640711644432101
 32
0
 13
153.55
 23
0.640711644432101
 33
0
  0
ENDBLK
  5
68
330
66
100
AcDbEntity
  8
0
100
AcDbBlockEnd
  0
ENDSEC
  0
SECTION
  2
ENTITIES
  0
MTEXT
  5
77
100
AcDbEntity
  8
0
  6
ByLayer
 62
  256
370
   -1
100
AcDbMText
 10
25.59587927973215
 20
74.02883905897934
 30
0
 40
5
 41
11.66668888888889
 71
    1
 72
    1
  1
mc
  7
romanc
210
0
220
0
230
1
 50
0
 73
    2
 44
1
  0
MTEXT
  5
78
100
AcDbEntity
  8
0
  6
ByLayer
 62
  256
370
   -1
100
AcDbMText
 10
72.38014166377977
 20
74.07503933521841
 30
0
 40
5
 41
12.38096666666667
 71
    1
 72
    1
  1
md
  7
romanc
210
0
220
0
230
1
 50
0
 73
    2
 44
1
  0
MTEXT
  5
79
100
AcDbEntity
  8
0
  6
ByLayer
 62
  256
370
   -1
100
AcDbMText
 10
-7.955808347704112
 20
111.8411054660866
 30
0
 40
5
 41
45.00006111111111
 71
    1
 72
    1
  1
mc+mcmp
  7
romanc
210
0
220
0
230
1
 50
0
 73
    2
 44
1
  0
LINE
  5
7A
100
AcDbEntity
  8
0
  6
ByLayer
 62
  256
370
   -1
100
AcDbLine
 10
14.4317776836715
 20
68.95087890297593
 11
24.43177768367151
 21
68.95087890297593
  0
LINE
  5
7B
100
AcDbEntity
  8
0
  6
ByLayer
 62
  256
370
   -1
100
AcDbLine
 10
24.43177768367151
 20
68.95087890297593
 11
24.43177768367151
 21
75.21638715212687
  0
LINE
  5
7C
100
AcDbEntity
  8
0
  6
ByLayer
 62
  256
370
   -1
100
AcDbLine
 10
92.10853977201585
 20
68.95087890297593
 11
86.47166983156559
 21
68.95087890297593
  0
LINE
  5
7D
100
AcDbEntity
  8
0
  6
ByLayer
 62
  256
370
   -1
100
AcDbLine
 10
86.47166983156559
 20
68.95087890297593
 11
86.47166983156559
 21
75.21638715212687
  0
LINE
  5
7E
100
AcDbEntity
  8
0
  6
ByLayer
 62
  256
370
   -1
100
AcDbLine
 10
38.3840307508213
 20
110.1569341736899
 11
45.85776838737363
 21
110.1569341736899
  0
LINE
  5
7F
100
AcDbEntity
  8
0
  6
ByLayer
 62
  256
370
   -1
100
AcDbLine
 10
38.3840307508213
 20
110.1569341736899
 11
38.3840307508213
 21
101.9706335779368
  0
MTEXT
  5
80
100
AcDbEntity
  8
0
  6
ByLayer
 62
  256
370
   -1
100
AcDbMText
 10
24.00000000000675
 20
-3.000000000003936
 30
0
 40
5
 41
17.61905555555556
 71
    1
 72
    1
  1
D*Ts
  7
romanc
210
0
220
0
230
1
 50
0
 73
    2
 44
1
  0
LINE
  5
81
100
AcDbEntity
  8
0
  6
ByLayer
 62
    7
370
   13
100
AcDbLine
 10
64
 20
0
 11
64
 21
-10
  0
LINE
  5
82
100
AcDbEntity
  8
axis
  6
ByLayer
 62
    7
370
   13
100
AcDbLine
 10
100
 20
-23
 11
100
 21
0
  0
LINE
  5
83
100
AcDbEntity
  8
axis
  6
ByLayer
 62
    7
370
   13
100
AcDbLine
 10
0
 20
0
 11
0
 21
-23
  0
MTEXT
  5
84
100
AcDbEntity
  8
0
  6
ByLayer
 62
  256
370
   -1
100
AcDbMText
 10
46.28282436309857
 20
-16.010279200307
 30
0
 40
5
 41
7.85713888888889
 71
    1
 72
    1
  1
Ts
  7
romanc
210
0
220
0
230
1
 50
0
 73
    2
 44
1
  0
LINE
  5
85
100
AcDbEntity
  8
dim
  6
ByLayer
 62
  256
370
   -1
100
AcDbLine
 10
45
 20
-19
 11
0
 21
-19
  0
LINE
  5
86
100
AcDbEntity
  8
dim
  6
ByLayer
 62
  256
370
   -1
100
AcDbLine
 10
56
 20
-19
 11
100
 21
-19
  0
LINE
  5
87
100
AcDbEntity
  8
dim
  6
ByLayer
 62
  256
370
   -1
100
AcDbLine
 10
64
 20
-6
 11
43
 21
-6
  0
LINE
  5
88
100
AcDbEntity
  8
dim
  6
ByLayer
 62
  256
370
   -1
100
AcDbLine
 10
23
 20
-6
 11
0
 21
-6
  0
CIRCLE
  5
89
100
AcDbEntity
  8
sig
  6
ByLayer
 62
  256
370
   -1
100
AcDbCircle
 10
100
 20
60
 40
1
  0
CIRCLE
  5
8A
100
AcDbEntity
  8
sig
  6
ByLayer
 62
  256
370
   -1
100
AcDbCircle
 10
0
 20
60
 40
1
  0
LINE
  5
8B
100
AcDbEntity
  8
sig
  6
DASHEDTINY
 62
  256
370
   -1
100
AcDbLine
 10
-40
 20
100
 11
-0.7071067811865419
 21
60.70710678118655
  0
MTEXT
  5
8C
100
AcDbEntity
  8
0
  6
ByLayer
 62
  256
370
   -1
100
AcDbMText
 10
-36.56489268678477
 20
62.8314453446966
 30
0
 40
5
 41
27.79761111111111
 71
    1
 72
    1
  1
i [n-1]
  7
romanc
210
0
220
0
230
1
 50
0
 73
    2
 44
1
  0
MTEXT
  5
8D
100
AcDbEntity
  8
0
  6
ByLayer
 62
  256
370
   -1
100
AcDbMText
 10
111.7575156490648
 20
62.98902079312516
 30
0
 40
5
 41
18.0357
 71
    1
 72
    1
  1
i [n]
  7
romanc
210
0
220
0
230
1
 50
0
 73
    2
 44
1
  0
MTEXT
  5
8E
100
AcDbEntity
  8
0
  6
ByLayer
 62
  256
370
   -1
100
AcDbMText
 10
-33.4383568780501
 20
59.04146020732301
 30
0
 40
3
 41
2.285713333333333
 71
    1
 72
    1
  1
v
  7
romanc
210
0
220
0
230
1
 50
0
 73
    2
 44
1
  0
MTEXT
  5
8F
100
AcDbEntity
  8
0
  6
ByLayer
 62
  256
370
   -1
100
AcDbMText
 10
114.4568206710068
 20
59.31454314039623
 30
0
 40
3
 41
2.285713333333333
 71
    1
 72
    1
  1
v
  7
romanc
210
0
220
0
230
1
 50
0
 73
    2
 44
1
  0
CIRCLE
  5
90
100
AcDbEntity
  8
ic
  6
ByLayer
 62
  256
370
   -1
100
AcDbCircle
 10
64
 20
130
 40
1
  0
LINE
  5
91
100
AcDbEntity
  8
mcmp
  6
DASHEDTINY
 62
  256
370
   -1
100
AcDbLine
 10
0.6747691995450493
 20
60.7380288120024
 11
63.32523080045123
 21
129.2619711879935
  0
MTEXT
  5
92
100
AcDbEntity
  8
0
  6
ByLayer
 62
  256
370
   -1
100
AcDbMText
 10
76.76855234776315
 20
146.4978447911232
 30
0
 40
3
 41
1.857146666666667
 71
    1
 72
    1
  1
c
  7
romanc
210
0
220
0
230
1
 50
0
 73
    2
 44
1
  0
LINE
  5
93
100
AcDbEntity
  8
dim
  6
ByLayer
 62
  256
370
   -1
100
AcDbLine
 10
64.44493464550101
 20
131.1275406328597
 11
70.04303181242335
 21
147.0102907105402
  0
LINE
  5
94
100
AcDbEntity
  8
dim
  6
ByLayer
 62
  256
370
   -1
100
AcDbLine
 10
70.04303181242335
 20
147.0102907105402
 11
72.72793619259021
 21
147.0102907105402
  0
MTEXT
  5
95
100
AcDbEntity
  8
0
  6
ByLayer
 62
  256
370
   -1
100
AcDbMText
 10
108.2481883136116
 20
119.8118838581424
 30
0
 40
5
 41
18.0357
 71
    1
 72
    1
  1
i [n]
  7
romanc
210
0
220
0
230
1
 50
0
 73
    2
 44
1
  0
MTEXT
  5
96
100
AcDbEntity
  8
0
  6
ByLayer
 62
  256
370
   -1
100
AcDbMText
 10
110.6685461951849
 20
116.1406328047337
 30
0
 40
3
 41
1.857146666666667
 71
    1
 72
    1
  1
c
  7
romanc
210
0
220
0
230
1
 50
0
 73
    2
 44
1
  0
LINE
  5
97
100
AcDbEntity
  8
dim
  6
ByLayer
 62
  256
370
   -1
100
AcDbLine
 10
104.4892716274955
 20
116.6466599716479
 11
106.9528833624338
 21
116.6466599716479
  0
LINE
  5
98
100
AcDbEntity
  8
dim
  6
ByLayer
 62
  256
370
   -1
100
AcDbLine
 10
101
 20
60
 11
111
 21
60
  0
LINE
  5
99
100
AcDbEntity
  8
dim
  6
ByLayer
 62
  256
370
   -1
100
AcDbLine
 10
-1
 20
60
 11
-8
 21
60
  0
LEADER
  5
9A
100
AcDbEntity
  8
dim
  6
ByLayer
 62
  256
370
   -1
100
AcDbLeader
  3
Standard
 71
    1
 72
    0
 73
    3
 74
    0
 75
    0
 40
1
 41
10
 76
2
 76
2
 10
0
 20
-19
 30
0
 10
45
 20
-19
 30
0
  0
LEADER
  5
9B
100
AcDbEntity
  8
dim
  6
ByLayer
 62
  256
370
   -1
100
AcDbLeader
  3
Standard
 71
    1
 72
    0
 73
    3
 74
    0
 75
    0
 40
1
 41
10
 76
2
 76
2
 10
100
 20
-19
 30
0
 10
56
 20
-19
 30
0
  0
LEADER
  5
9C
100
AcDbEntity
  8
dim
  6
ByLayer
 62
  256
370
   -1
100
AcDbLeader
  3
Standard
 71
    1
 72
    0
 73
    3
 74
    0
 75
    0
 40
1
 41
10
 76
2
 76
2
 10
64
 20
-6
 30
0
 10
44
 20
-6
 30
0
  0
LEADER
  5
9D
100
AcDbEntity
  8
dim
  6
ByLayer
 62
  256
370
   -1
100
AcDbLeader
  3
Standard
 71
    1
 72
    0
 73
    3
 74
    0
 75
    0
 40
1
 41
10
 76
2
 76
2
 10
0
 20
-6
 30
0
 10
23
 20
-6
 30
0
  0
LINE
  5
9E
100
AcDbEntity
  8
dim
  6
ByLayer
 62
  256
370
   -1
100
AcDbLine
 10
71
 20
-6
 11
64
 21
-6
  0
LEADER
  5
9F
100
AcDbEntity
  8
dim
  6
ByLayer
 62
  256
370
   -1
100
AcDbLeader
  3
Standard
 71
    1
 72
    0
 73
    3
 74
    0
 75
    0
 40
1
 41
10
 76
2
 76
2
 10
64
 20
-6
 30
0
 10
71
 20
-6
 30
0
  0
MTEXT
  5
A0
100
AcDbEntity
  8
0
  6
ByLayer
 62
  256
370
   -1
100
AcDbMText
 10
71.43551525925798
 20
-3.001113971837405
 30
0
 40
5
 41
19.76191277777778
 71
    1
 72
    1
  1
D'*Ts
  7
romanc
210
0
220
0
230
1
 50
0
 73
    2
 44
1
  0
LINE
  5
A1
100
AcDbEntity
  8
dim
  6
ByLayer
 62
  256
370
   -1
100
AcDbLine
 10
93
 20
-6
 11
100
 21
-6
  0
LEADER
  5
A2
100
AcDbEntity
  8
dim
  6
ByLayer
 62
  256
370
   -1
100
AcDbLeader
  3
Standard
 71
    1
 72
    0
 73
    3
 74
    0
 75
    0
 40
1
 41
10
 76
2
 76
2
 10
100
 20
-6
 30
0
 10
93
 20
-6
 30
0
  0
SPLINE
  5
A3
100
AcDbEntity
  8
ic
  6
DOTTINY
 62
  256
370
   50
100
AcDbSpline
210
0
220
0
230
0
 70
    8
 71
    2
 72
   17
 73
   14
 74
    0
 42
1e-07
 43
1e-07
 40
0
 40
0
 40
0
 40
0.08333333333333333
 40
0.1666666666666667
 40
0.25
 40
0.3333333333333333
 40
0.4166666666666667
 40
0.5
 40
0.5833333333333334
 40
0.6666666666666666
 40
0.75
 40
0.8333333333333334
 40
0.9166666666666666
 40
1
 40
1
 40
1
 10
-20.99446000442435
 20
120
 30
0
 10
-12.76222697079952
 20
153.5355339327504
 30
0
 10
-0.6911591052988433
 20
109.393398201749
 30
0
 10
8.953501567197769
 20
150.1040768567558
 30
0
 10
19.01446966671742
 20
109.9821406577164
 30
0
 10
29.00400039710293
 20
150.0030791969455
 30
0
 10
39.0058479152702
 20
109.9993841606109
 30
0
 10
49.0052320758811
 20
150.0006158393891
 30
0
 10
59.00707959404836
 20
109.9969208030546
 30
0
 10
68.99661032443387
 20
150.0178593422835
 30
0
 10
79.05757842395352
 20
109.8959231432442
 30
0
 10
88.70223909645016
 20
150.6066017982511
 30
0
 10
100.7733069619508
 20
106.4644660672497
 30
0
 10
109.0055399955756
 20
140
 30
0
  0
MTEXT
  5
A4
100
AcDbEntity
  8
0
  6
ByLayer
 62
  256
370
   -1
100
AcDbMText
 10
-43.10547327832244
 20
138.2738363692055
 30
0
 40
5
 41
16.36902777777778
 71
    1
 72
    1
  1
i (t)
  7
romanc
210
0
220
0
230
1
 50
0
 73
    2
 44
1
  0
MTEXT
  5
A5
100
AcDbEntity
  8
0
  6
ByLayer
 62
  256
370
   -1
100
AcDbMText
 10
-40.31475603070427
 20
134.6363491994101
 30
0
 40
3
 41
1.857146666666667
 71
    1
 72
    1
  1
c
  7
romanc
210
0
220
0
230
1
 50
0
 73
    2
 44
1
  0
LINE
  5
A6
100
AcDbEntity
  8
dim
  6
ByLayer
 62
  256
370
   -1
100
AcDbLine
 10
-25.71629897393413
 20
135.6110610962117
 11
-16.5212966274914
 21
135.6110610962117
  0
CIRCLE
  5
A7
100
AcDbEntity
  8
ic
  6
ByLayer
 62
  256
370
  200
100
AcDbCircle
 10
100
 20
130
 40
1
  0
LINE
  5
A8
100
AcDbEntity
  8
ic
  6
DASHEDTINY
 62
  256
370
   -1
100
AcDbLine
 10
100.9999999999928
 20
130
 11
160
 21
130
  0
LINE
  5
A9
100
AcDbEntity
  8
ic
  6
ByLayer
 62
  256
370
   -1
100
AcDbLine
 10
65.00000000000348
 20
130
 11
99
 21
130
  0
LINE
  5
AA
100
AcDbEntity
  8
dim
  6
ByLayer
 62
  256
370
   -1
100
AcDbLine
 10
100
 20
129
 11
104.4892716274955
 21
116.6466599716479
  0
MTEXT
  5
AB
100
AcDbEntity
  8
dim
  6
ByLayer
 62
  256
370
   -1
100
AcDbMText
 10
0
 20
150
 30
0
 40
5
 41
16.36902777777778
 71
    1
 72
    1
  1
i (t)
  7
romanc
210
0
220
0
230
1
 50
0
 73
    2
 44
1
  0
MTEXT
  5
AC
100
AcDbEntity
  8
0
  6
ByLayer
 62
  256
370
   -1
100
AcDbMText
 10
2.809826409969865
 20
146.3644621402527
 30
0
 40
3
 41
1.857146666666667
 71
    1
 72
    1
  1
c
  7
romanc
210
0
220
0
230
1
 50
0
 73
    2
 44
1
  0
MTEXT
  5
AD
100
AcDbEntity
  8
dim
  6
ByLayer
 62
  256
370
   -1
100
AcDbMText
 10
3.181457393942689
 20
149.4990908701222
 30
0
 40
3
 41
1.428573333333333
 71
    1
 72
    1
  1
*
  7
romanc
210
0
220
0
230
1
 50
0
 73
    2
 44
1
  0
LINE
  5
AE
100
AcDbEntity
  8
dim
  6
ByLayer
 62
  256
370
   -1
100
AcDbLine
 10
18
 20
147
 11
23
 21
147
  0
MTEXT
  5
AF
100
AcDbEntity
  8
dim
  6
ByLayer
 62
  256
370
   -1
100
AcDbMText
 10
92
 20
103
 30
0
 40
5
 41
16.36902777777778
 71
    1
 72
    1
  1
i (t)
  7
romanc
210
0
220
0
230
1
 50
0
 73
    2
 44
1
  0
MTEXT
  5
B0
100
AcDbEntity
  8
dim
  6
ByLayer
 62
  256
370
   -1
100
AcDbMText
 10
94.60000000000001
 20
98.40000000000002
 30
0
 40
3
 41
2.142856666666666
 71
    1
 72
    1
  1
L
  7
romanc
210
0
220
0
230
1
 50
0
 73
    2
 44
1
  0
LINE
  5
B1
100
AcDbEntity
  8
dim
  6
ByLayer
 62
  256
370
   -1
100
AcDbLine
 10
91
 20
100
 11
85
 21
100
  0
LINE
  5
B2
100
AcDbEntity
  8
dim
  6
ByLayer
 62
  256
370
   -1
100
AcDbLine
 10
85
 20
100
 11
75
 21
88
  0
LINE
  5
B3
100
AcDbEntity
  8
sig
  6
ByLayer
 62
  256
370
  200
100
AcDbLine
 10
0
 20
0
 11
3.552713678800501e-15
 21
59.00000000000009
  0
LINE
  5
B4
100
AcDbEntity
  8
sig
  6
ByLayer
 62
  256
370
  200
100
AcDbLine
 10
0.847998304005088
 20
60.52999894000318
 11
64
 21
100
  0
LINE
  5
B5
100
AcDbEntity
  8
sig
  6
ByLayer
 62
  256
370
  200
100
AcDbLine
 10
64
 20
100
 11
99.33103526837758
 21
60.74329414624714
  0
LINE
  5
B6
100
AcDbEntity
  8
sig
  6
ByLayer
 62
  256
370
  200
100
AcDbLine
 10
0.01
 20
0
 11
0.01000000000000355
 21
59.00000000000009
  0
LINE
  5
B7
100
AcDbEntity
  8
sig
  6
ByLayer
 62
  256
370
  200
100
AcDbLine
 10
-0.01
 20
0
 11
-0.009999999999996447
 21
59.00000000000009
  0
LINE
  5
B8
100
AcDbEntity
  8
sig
  6
ByLayer
 62
  256
370
  200
100
AcDbLine
 10
0.847998304005088
 20
60.53999894000318
 11
64
 21
100.01
  0
LINE
  5
B9
100
AcDbEntity
  8
sig
  6
ByLayer
 62
  256
370
  200
100
AcDbLine
 10
0.847998304005088
 20
60.51999894000318
 11
64
 21
99.98999999999999
  0
LINE
  5
BA
100
AcDbEntity
  8
sig
  6
ByLayer
 62
  256
370
  200
100
AcDbLine
 10
64
 20
100.1
 11
99.33103526837758
 21
60.84329414624715
  0
LINE
  5
BB
100
AcDbEntity
  8
sig
  6
ByLayer
 62
  256
370
  200
100
AcDbLine
 10
64
 20
99.89999999999999
 11
99.33103526837758
 21
60.64329414624713
  0
LINE
  5
BC
100
AcDbEntity
  8
sig
  6
ByLayer
 62
  256
370
  200
100
AcDbLine
 10
-0.09000000000000009
 20
0
 11
-0.08999999999999654
 21
59.00000000000009
  0
LINE
  5
BD
100
AcDbEntity
  8
sig
  6
ByLayer
 62
  256
370
  200
100
AcDbLine
 10
0.11
 20
0
 11
0.1100000000000035
 21
59.00000000000009
  0
LINE
  5
BE
100
AcDbEntity
  8
sig
  6
ByLayer
 62
  256
370
  200
100
AcDbLine
 10
0.847998304005088
 20
60.62999894000318
 11
64
 21
100.1
  0
LINE
  5
BF
100
AcDbEntity
  8
sig
  6
ByLayer
 62
  256
370
  200
100
AcDbLine
 10
0.847998304005088
 20
60.63999894000317
 11
64
 21
100.11
  0
LINE
  5
C0
100
AcDbEntity
  8
sig
  6
ByLayer
 62
  256
370
  200
100
AcDbLine
 10
0.847998304005088
 20
60.61999894000317
 11
64
 21
100.09
  0
LINE
  5
C1
100
AcDbEntity
  8
sig
  6
ByLayer
 62
  256
370
  200
100
AcDbLine
 10
0.847998304005088
 20
60.57999894000318
 11
64
 21
100.05
  0
LINE
  5
C2
100
AcDbEntity
  8
sig
  6
ByLayer
 62
  256
370
  200
100
AcDbLine
 10
0.847998304005088
 20
60.58999894000318
 11
64
 21
100.06
  0
LINE
  5
C3
100
AcDbEntity
  8
sig
  6
ByLayer
 62
  256
370
  200
100
AcDbLine
 10
0.847998304005088
 20
60.56999894000317
 11
64
 21
100.04
  0
LINE
  5
C4
100
AcDbEntity
  8
sig
  6
ByLayer
 62
  256
370
  200
100
AcDbLine
 10
63.98999999999999
 20
99.97
 11
99.32103526837757
 21
60.71329414624714
  0
LINE
  5
C5
100
AcDbEntity
  8
sig
  6
ByLayer
 62
  256
370
  200
100
AcDbLine
 10
63.98999999999999
 20
100.07
 11
99.32103526837757
 21
60.81329414624715
  0
LINE
  5
C6
100
AcDbEntity
  8
sig
  6
ByLayer
 62
  256
370
  200
100
AcDbLine
 10
0.06
 20
0.01000000000000001
 11
0.06000000000000355
 21
59.01000000000009
  0
LINE
  5
C7
100
AcDbEntity
  8
sig
  6
ByLayer
 62
  256
370
  200
100
AcDbLine
 10
0.06999999999999999
 20
0.01000000000000001
 11
0.07000000000000355
 21
59.01000000000009
  0
LINE
  5
C8
100
AcDbEntity
  8
sig
  6
ByLayer
 62
  256
370
  200
100
AcDbLine
 10
0.05
 20
0.01000000000000001
 11
0.05000000000000355
 21
59.01000000000009
  0
LINE
  5
C9
100
AcDbEntity
  8
sig
  6
ByLayer
 62
  256
370
  200
100
AcDbLine
 10
-0.05000000000000004
 20
0.01000000000000001
 11
-0.04999999999999649
 21
59.01000000000009
  0
LINE
  5
CA
100
AcDbEntity
  8
sig
  6
ByLayer
 62
  256
370
  200
100
AcDbLine
 10
-0.04000000000000005
 20
0.01000000000000001
 11
-0.0399999999999965
 21
59.01000000000009
  0
LINE
  5
CB
100
AcDbEntity
  8
sig
  6
ByLayer
 62
  256
370
  200
100
AcDbLine
 10
-0.06000000000000005
 20
0.01000000000000001
 11
-0.05999999999999649
 21
59.01000000000009
  0
LINE
  5
CC
100
AcDbEntity
  8
sig
  6
ByLayer
 62
  256
370
  200
100
AcDbLine
 10
-0.1300000000000001
 20
0
 11
-0.1299999999999966
 21
59.00000000000009
  0
LINE
  5
CD
100
AcDbEntity
  8
sig
  6
ByLayer
 62
  256
370
  200
100
AcDbLine
 10
-0.09000000000000008
 20
0.01000000000000001
 11
-0.08999999999999653
 21
59.01000000000009
  0
LINE
  5
CE
100
AcDbEntity
  8
sig
  6
ByLayer
 62
  256
370
  200
100
AcDbLine
 10
-0.08000000000000008
 20
0.01000000000000001
 11
-0.07999999999999653
 21
59.01000000000009
  0
LINE
  5
CF
100
AcDbEntity
  8
sig
  6
ByLayer
 62
  256
370
  200
100
AcDbLine
 10
-0.1000000000000001
 20
0.01000000000000001
 11
-0.09999999999999654
 21
59.01000000000009
  0
LINE
  5
D0
100
AcDbEntity
  8
sig
  6
ByLayer
 62
  256
370
  200
100
AcDbLine
 10
0.15
 20
0.01000000000000001
 11
0.1500000000000035
 21
59.01000000000009
  0
LINE
  5
D1
100
AcDbEntity
  8
sig
  6
ByLayer
 62
  256
370
  200
100
AcDbLine
 10
0.09999999999999998
 20
0.02000000000000002
 11
0.1000000000000035
 21
59.02000000000009
  0
LINE
  5
D2
100
AcDbEntity
  8
sig
  6
ByLayer
 62
  256
370
  200
100
AcDbLine
 10
0.11
 20
0.02000000000000002
 11
0.1100000000000035
 21
59.02000000000009
  0
LINE
  5
D3
100
AcDbEntity
  8
sig
  6
ByLayer
 62
  256
370
  200
100
AcDbLine
 10
0.08999999999999997
 20
0.02000000000000002
 11
0.09000000000000352
 21
59.02000000000009
  0
LINE
  5
D4
100
AcDbEntity
  8
sig
  6
ByLayer
 62
  256
370
  200
100
AcDbLine
 10
0.847998304005088
 20
60.72999894000318
 11
64
 21
100.2
  0
LINE
  5
D5
100
AcDbEntity
  8
sig
  6
ByLayer
 62
  256
370
  200
100
AcDbLine
 10
0.847998304005088
 20
60.73999894000318
 11
64
 21
100.21
  0
LINE
  5
D6
100
AcDbEntity
  8
sig
  6
ByLayer
 62
  256
370
  200
100
AcDbLine
 10
0.847998304005088
 20
60.71999894000318
 11
64
 21
100.19
  0
LINE
  5
D7
100
AcDbEntity
  8
sig
  6
ByLayer
 62
  256
370
  200
100
AcDbLine
 10
0.847998304005088
 20
60.82999894000318
 11
64
 21
100.3
  0
LINE
  5
D8
100
AcDbEntity
  8
sig
  6
ByLayer
 62
  256
370
  200
100
AcDbLine
 10
0.847998304005088
 20
60.83999894000318
 11
64
 21
100.31
  0
LINE
  5
D9
100
AcDbEntity
  8
sig
  6
ByLayer
 62
  256
370
  200
100
AcDbLine
 10
0.847998304005088
 20
60.81999894000317
 11
64
 21
100.29
  0
LINE
  5
DA
100
AcDbEntity
  8
sig
  6
ByLayer
 62
  256
370
  200
100
AcDbLine
 10
0.847998304005088
 20
60.77999894000318
 11
64
 21
100.25
  0
LINE
  5
DB
100
AcDbEntity
  8
sig
  6
ByLayer
 62
  256
370
  200
100
AcDbLine
 10
0.847998304005088
 20
60.78999894000318
 11
64
 21
100.26
  0
LINE
  5
DC
100
AcDbEntity
  8
sig
  6
ByLayer
 62
  256
370
  200
100
AcDbLine
 10
0.847998304005088
 20
60.76999894000318
 11
64
 21
100.24
  0
LINE
  5
DD
100
AcDbEntity
  8
sig
  6
ByLayer
 62
  256
370
  200
100
AcDbLine
 10
64
 20
100.2
 11
99.33103526837758
 21
60.94329414624714
  0
LINE
  5
DE
100
AcDbEntity
  8
sig
  6
ByLayer
 62
  256
370
  200
100
AcDbLine
 10
64
 20
100.3
 11
99.33103526837758
 21
61.04329414624715
  0
LINE
  5
DF
100
AcDbEntity
  8
sig
  6
ByLayer
 62
  256
370
  200
100
AcDbLine
 10
64
 20
100.1
 11
99.33103526837758
 21
60.84329414624713
  0
LINE
  5
E0
100
AcDbEntity
  8
sig
  6
ByLayer
 62
  256
370
  200
100
AcDbLine
 10
63.98999999999999
 20
100.17
 11
99.32103526837757
 21
60.91329414624714
  0
LINE
  5
E1
100
AcDbEntity
  8
sig
  6
ByLayer
 62
  256
370
  200
100
AcDbLine
 10
63.98999999999999
 20
100.27
 11
99.32103526837757
 21
61.01329414624715
  0
LINE
  5
E2
100
AcDbEntity
  8
sig
  6
ByLayer
 62
  256
370
  200
100
AcDbLine
 10
100
 20
0
 11
100
 21
59.00000000000009
  0
LINE
  5
E3
100
AcDbEntity
  8
sig
  6
ByLayer
 62
  256
370
  200
100
AcDbLine
 10
100.01
 20
0
 11
100.01
 21
59.00000000000009
  0
LINE
  5
E4
100
AcDbEntity
  8
sig
  6
ByLayer
 62
  256
370
  200
100
AcDbLine
 10
99.98999999999999
 20
0
 11
99.99000000000001
 21
59.00000000000009
  0
LINE
  5
E5
100
AcDbEntity
  8
sig
  6
ByLayer
 62
  256
370
  200
100
AcDbLine
 10
99.91
 20
0
 11
99.91
 21
59.00000000000009
  0
LINE
  5
E6
100
AcDbEntity
  8
sig
  6
ByLayer
 62
  256
370
  200
100
AcDbLine
 10
100.11
 20
0
 11
100.11
 21
59.00000000000009
  0
LINE
  5
E7
100
AcDbEntity
  8
sig
  6
ByLayer
 62
  256
370
  200
100
AcDbLine
 10
100.06
 20
0.01000000000000001
 11
100.06
 21
59.01000000000009
  0
LINE
  5
E8
100
AcDbEntity
  8
sig
  6
ByLayer
 62
  256
370
  200
100
AcDbLine
 10
100.07
 20
0.01000000000000001
 11
100.07
 21
59.01000000000009
  0
LINE
  5
E9
100
AcDbEntity
  8
sig
  6
ByLayer
 62
  256
370
  200
100
AcDbLine
 10
100.05
 20
0.01000000000000001
 11
100.05
 21
59.01000000000009
  0
LINE
  5
EA
100
AcDbEntity
  8
sig
  6
ByLayer
 62
  256
370
  200
100
AcDbLine
 10
99.95
 20
0.01000000000000001
 11
99.95
 21
59.01000000000009
  0
LINE
  5
EB
100
AcDbEntity
  8
sig
  6
ByLayer
 62
  256
370
  200
100
AcDbLine
 10
99.95999999999999
 20
0.01000000000000001
 11
99.96000000000001
 21
59.01000000000009
  0
LINE
  5
EC
100
AcDbEntity
  8
sig
  6
ByLayer
 62
  256
370
  200
100
AcDbLine
 10
99.94
 20
0.01000000000000001
 11
99.94
 21
59.01000000000009
  0
LINE
  5
ED
100
AcDbEntity
  8
sig
  6
ByLayer
 62
  256
370
  200
100
AcDbLine
 10
99.87
 20
0
 11
99.87
 21
59.00000000000009
  0
LINE
  5
EE
100
AcDbEntity
  8
sig
  6
ByLayer
 62
  256
370
  200
100
AcDbLine
 10
99.91
 20
0.01000000000000001
 11
99.91
 21
59.01000000000009
  0
LINE
  5
EF
100
AcDbEntity
  8
sig
  6
ByLayer
 62
  256
370
  200
100
AcDbLine
 10
99.92
 20
0.01000000000000001
 11
99.92
 21
59.01000000000009
  0
LINE
  5
F0
100
AcDbEntity
  8
sig
  6
ByLayer
 62
  256
370
  200
100
AcDbLine
 10
99.90000000000001
 20
0.01000000000000001
 11
99.90000000000001
 21
59.01000000000009
  0
LINE
  5
F1
100
AcDbEntity
  8
sig
  6
ByLayer
 62
  256
370
  200
100
AcDbLine
 10
100.15
 20
0.01000000000000001
 11
100.15
 21
59.01000000000009
  0
LINE
  5
F2
100
AcDbEntity
  8
sig
  6
ByLayer
 62
  256
370
  200
100
AcDbLine
 10
100.1
 20
0.02000000000000002
 11
100.1
 21
59.02000000000009
  0
LINE
  5
F3
100
AcDbEntity
  8
sig
  6
ByLayer
 62
  256
370
  200
100
AcDbLine
 10
100.11
 20
0.02000000000000002
 11
100.11
 21
59.02000000000009
  0
LINE
  5
F4
100
AcDbEntity
  8
sig
  6
ByLayer
 62
  256
370
  200
100
AcDbLine
 10
100.09
 20
0.02000000000000002
 11
100.09
 21
59.02000000000009
  0
LINE
  5
F5
100
AcDbEntity
  8
sig
  6
ByLayer
 62
  256
370
  200
100
AcDbLine
 10
0.847998304005088
 20
60.67999894000317
 11
64
 21
100.15
  0
LINE
  5
F6
100
AcDbEntity
  8
sig
  6
ByLayer
 62
  256
370
  200
100
AcDbLine
 10
0.847998304005088
 20
60.68999894000317
 11
64
 21
100.16
  0
LINE
  5
F7
100
AcDbEntity
  8
sig
  6
ByLayer
 62
  256
370
  200
100
AcDbLine
 10
0.847998304005088
 20
60.66999894000317
 11
64
 21
100.14
  0
LINE
  5
F8
100
AcDbEntity
  8
sig
  6
ByLayer
 62
  256
370
  200
100
AcDbLine
 10
0.847998304005088
 20
60.44999894000318
 11
64
 21
99.92
  0
LINE
  5
F9
100
AcDbEntity
  8
sig
  6
ByLayer
 62
  256
370
  200
100
AcDbLine
 10
0.847998304005088
 20
60.45999894000318
 11
64
 21
99.92999999999999
  0
LINE
  5
FA
100
AcDbEntity
  8
sig
  6
ByLayer
 62
  256
370
  200
100
AcDbLine
 10
0.847998304005088
 20
60.43999894000318
 11
64
 21
99.91
  0
LINE
  5
FB
100
AcDbEntity
  8
sig
  6
ByLayer
 62
  256
370
  200
100
AcDbLine
 10
0.847998304005088
 20
60.48999894000319
 11
64
 21
99.96000000000001
  0
LINE
  5
FC
100
AcDbEntity
  8
sig
  6
ByLayer
 62
  256
370
  200
100
AcDbLine
 10
0.847998304005088
 20
60.49999894000319
 11
64
 21
99.97
  0
LINE
  5
FD
100
AcDbEntity
  8
sig
  6
ByLayer
 62
  256
370
  200
100
AcDbLine
 10
0.847998304005088
 20
60.47999894000318
 11
64
 21
99.95
  0
LINE
  5
FE
100
AcDbEntity
  8
sig
  6
ByLayer
 62
  256
370
  200
100
AcDbLine
 10
64.00999999999999
 20
99.97
 11
99.34103526837757
 21
60.71329414624714
  0
LINE
  5
FF
100
AcDbEntity
  8
sig
  6
ByLayer
 62
  256
370
  200
100
AcDbLine
 10
64.00999999999999
 20
100.07
 11
99.34103526837757
 21
60.81329414624715
  0
LINE
  5
100
100
AcDbEntity
  8
sig
  6
ByLayer
 62
  256
370
  200
100
AcDbLine
 10
63.99999999999999
 20
99.94
 11
99.33103526837756
 21
60.68329414624714
  0
LINE
  5
101
100
AcDbEntity
  8
sig
  6
ByLayer
 62
  256
370
  200
100
AcDbLine
 10
63.99999999999999
 20
100.04
 11
99.33103526837756
 21
60.78329414624714
  0
LINE
  5
102
100
AcDbEntity
  8
sig
  6
ByLayer
 62
  256
370
  200
100
AcDbLine
 10
64.00999999999999
 20
100.17
 11
99.34103526837757
 21
60.91329414624714
  0
LINE
  5
103
100
AcDbEntity
  8
sig
  6
ByLayer
 62
  256
370
  200
100
AcDbLine
 10
64.00999999999999
 20
100.07
 11
99.34103526837757
 21
60.81329414624713
  0
LINE
  5
104
100
AcDbEntity
  8
sig
  6
ByLayer
 62
  256
370
  200
100
AcDbLine
 10
63.99999999999999
 20
100.14
 11
99.33103526837756
 21
60.88329414624714
  0
LINE
  5
105
100
AcDbEntity
  8
sig
  6
ByLayer
 62
  256
370
  200
100
AcDbLine
 10
63.99999999999999
 20
100.24
 11
99.33103526837756
 21
60.98329414624715
  0
LINE
  5
106
100
AcDbEntity
  8
sig
  6
ByLayer
 62
  256
370
  200
100
AcDbLine
 10
64.00999999999999
 20
99.95
 11
99.34103526837757
 21
60.69329414624714
  0
LINE
  5
107
100
AcDbEntity
  8
sig
  6
ByLayer
 62
  256
370
  200
100
AcDbLine
 10
64.00999999999999
 20
100.05
 11
99.34103526837757
 21
60.79329414624715
  0
LINE
  5
108
100
AcDbEntity
  8
sig
  6
ByLayer
 62
  256
370
  200
100
AcDbLine
 10
63.99999999999999
 20
99.92
 11
99.33103526837756
 21
60.66329414624714
  0
LINE
  5
109
100
AcDbEntity
  8
sig
  6
ByLayer
 62
  256
370
  200
100
AcDbLine
 10
63.99999999999999
 20
100.02
 11
99.33103526837756
 21
60.76329414624715
  0
LINE
  5
10A
100
AcDbEntity
  8
sig
  6
ByLayer
 62
  256
370
  200
100
AcDbLine
 10
64.00999999999999
 20
100.15
 11
99.34103526837757
 21
60.89329414624714
  0
LINE
  5
10B
100
AcDbEntity
  8
sig
  6
ByLayer
 62
  256
370
  200
100
AcDbLine
 10
64.00999999999999
 20
100.05
 11
99.34103526837757
 21
60.79329414624713
  0
LINE
  5
10C
100
AcDbEntity
  8
sig
  6
ByLayer
 62
  256
370
  200
100
AcDbLine
 10
63.99999999999999
 20
100.12
 11
99.33103526837756
 21
60.86329414624714
  0
LINE
  5
10D
100
AcDbEntity
  8
sig
  6
ByLayer
 62
  256
370
  200
100
AcDbLine
 10
63.99999999999999
 20
100.22
 11
99.33103526837756
 21
60.96329414624715
  0
LINE
  5
10E
100
AcDbEntity
  8
sig
  6
ByLayer
 62
  256
370
  200
100
AcDbLine
 10
64
 20
100.28
 11
99.33103526837758
 21
61.02329414624715
  0
LINE
  5
10F
100
AcDbEntity
  8
sig
  6
ByLayer
 62
  256
370
  200
100
AcDbLine
 10
0.847998304005088
 20
60.54999894000317
 11
64
 21
100.02
  0
LINE
  5
110
100
AcDbEntity
  8
sig
  6
ByLayer
 62
  256
370
  200
100
AcDbLine
 10
0.847998304005088
 20
60.64999894000317
 11
64
 21
100.12
  0
LINE
  5
111
100
AcDbEntity
  8
sig
  6
ByLayer
 62
  256
370
  200
100
AcDbLine
 10
0.847998304005088
 20
60.59999894000317
 11
64
 21
100.07
  0
LINE
  5
112
100
AcDbEntity
  8
sig
  6
ByLayer
 62
  256
370
  200
100
AcDbLine
 10
0.847998304005088
 20
60.74999894000317
 11
64
 21
100.22
  0
LINE
  5
113
100
AcDbEntity
  8
sig
  6
ByLayer
 62
  256
370
  200
100
AcDbLine
 10
0.847998304005088
 20
60.79999894000317
 11
64
 21
100.27
  0
LINE
  5
114
100
AcDbEntity
  8
sig
  6
ByLayer
 62
  256
370
  200
100
AcDbLine
 10
0.847998304005088
 20
60.69999894000316
 11
64
 21
100.17
  0
LINE
  5
115
100
AcDbEntity
  8
sig
  6
ByLayer
 62
  256
370
  200
100
AcDbLine
 10
0.847998304005088
 20
60.46999894000317
 11
64
 21
99.93999999999998
  0
LINE
  5
116
100
AcDbEntity
  8
sig
  6
ByLayer
 62
  256
370
  200
100
AcDbLine
 10
0.847998304005088
 20
60.50999894000318
 11
64
 21
99.97999999999999
  0
CIRCLE
  5
117
100
AcDbEntity
  8
ic
  6
ByLayer
 62
  256
370
  200
100
AcDbCircle
 10
0
 20
125
 40
1
  0
LINE
  5
118
100
AcDbEntity
  8
ic
  6
ByLayer
 62
  256
370
   -1
100
AcDbLine
 10
1
 20
125
 11
64
 21
125
  0
LINE
  5
119
100
AcDbEntity
  8
ic
  6
DASHEDTINY
 62
  256
370
   -1
100
AcDbLine
 10
-1
 20
125
 11
-40
 21
125
  0
LINE
  5
11A
100
AcDbEntity
  8
ic
  6
ByLayer
 62
  256
370
   -1
100
AcDbLine
 10
63.99999999999999
 20
129.0000000000012
 11
64
 21
125
  0
LINE
  5
11B
100
AcDbEntity
  8
delim
  6
DASHEDTINY
 62
  256
370
   -1
100
AcDbLine
 10
64
 20
100
 11
64
 21
0
  0
LINE
  5
11C
100
AcDbEntity
  8
delim
  6
DOTTINY
 62
  256
370
   -1
100
AcDbLine
 10
64
 20
100
 11
64
 21
129.0000000000001
  0
LINE
  5
11D
100
AcDbEntity
  8
dim
  6
DOTTINY
 62
  256
370
   -1
100
AcDbLine
 10
100
 20
61
 11
100
 21
92
  0
LINE
  5
11E
100
AcDbEntity
  8
dim
  6
DOTTINY
 62
  256
370
   -1
100
AcDbLine
 10
100
 20
107
 11
100
 21
129
  0
LINE
  5
11F
100
AcDbEntity
  8
dim
  6
DOTTINY
 62
  256
370
   -1
100
AcDbLine
 10
0
 20
61
 11
0
 21
104
  0
LINE
  5
120
100
AcDbEntity
  8
dim
  6
DOTTINY
 62
  256
370
   -1
100
AcDbLine
 10
0
 20
113
 11
0
 21
124
  0
MTEXT
  5
121
100
AcDbEntity
  8
axis
  6
ByLayer
 62
  256
370
   -1
100
AcDbMText
 10
162
 20
3
 30
0
 40
5
 41
2.619044444444445
 71
    1
 72
    1
  1
t
  7
romanc
210
0
220
0
230
1
 50
0
 73
    2
 44
1
  0
LINE
  5
122
100
AcDbEntity
  8
axis
  6
ByLayer
 62
  256
370
  200
100
AcDbLine
 10
-25
 20
-0.3000000000000002
 11
159.6
 21
-0.3
  0
LINE
  5
123
100
AcDbEntity
  8
axis
  6
ByLayer
 62
  256
370
  200
100
AcDbLine
 10
-25
 20
-0.5000000000000002
 11
159.6
 21
-0.5
  0
LINE
  5
124
100
AcDbEntity
  8
axis
  6
ByLayer
 62
  256
370
   -1
100
AcDbLine
 10
-25
 20
-0.3
 11
-25
 21
-0.5
  0
LINE
  5
125
100
AcDbEntity
  8
axis
  6
ByLayer
 62
  256
370
  200
100
AcDbLine
 10
-25
 20
-0.4
 11
159.8
 21
-0.4000000000000001
  0
LEADER
  5
126
100
AcDbEntity
  8
axis
  6
ByLayer
 62
  256
370
   -1
100
AcDbLeader
  3
Standard
 71
    1
 72
    0
 73
    3
 74
    0
 75
    0
 40
1
 41
10
 76
2
 76
2
 10
159.8
 20
-0.4000000000000001
 30
0
 10
-25
 20
-0.4
 30
0
  0
LINE
  5
127
100
AcDbEntity
  8
axis
  6
DASHEDTINY
 62
  256
370
  200
100
AcDbLine
 10
-49.77160650011459
 20
-0.3000000000000004
 11
-25
 21
-0.3000000000000002
  0
LINE
  5
128
100
AcDbEntity
  8
axis
  6
DASHEDTINY
 62
  256
370
  200
100
AcDbLine
 10
-49.77160650011459
 20
-0.4000000000000004
 11
-25
 21
-0.4000000000000001
  0
LINE
  5
129
100
AcDbEntity
  8
axis
  6
DASHEDTINY
 62
  256
370
  200
100
AcDbLine
 10
-49.77160650011459
 20
-0.5000000000000002
 11
-25
 21
-0.5
  0
LINE
  5
12A
100
AcDbEntity
  8
sig
  6
DASHEDTINY
 62
  256
370
   -1
100
AcDbLine
 10
100.8320502943383
 20
60.55470019622556
 11
150
 21
93.33333333333334
  0
LINE
  5
12B
100
AcDbEntity
  8
dim
  6
ByLayer
 62
  256
370
   -1
100
AcDbLine
 10
23
 20
147
 11
28.07692307692307
 21
125
  0
MTEXT
  5
12C
100
AcDbEntity
  8
0
  6
ByLayer
 62
  256
370
   -1
100
AcDbMText
 10
73.93621446482393
 20
150.2984978035553
 30
0
 40
5
 41
58.98809055555555
 71
    1
 72
    1
  1
i (n*Ts-D'*Ts)
  7
romanc
210
0
220
0
230
1
 50
0
 73
    2
 44
1
  0
ENDSEC
  0
SECTION
  2
OBJECTS
  0
DICTIONARY
  5
C
330
0
100
AcDbDictionary
281
    1
  3
ACAD_GROUP
350
D
  0
DICTIONARY
  5
D
330
C
100
AcDbDictionary
281
    1
  0
ENDSEC
  0
EOF
